<?xml version="1.0" encoding="UTF-8"?>
<svg width="80px" height="75px" viewBox="0 0 80 75" version="1.1" xmlns="http://www.w3.org/2000/svg" xmlns:xlink="http://www.w3.org/1999/xlink">
    <!-- Generator: Sketch 52 (66869) - http://www.bohemiancoding.com/sketch -->
    <title>Group 4</title>
    <desc>Created with Sketch.</desc>
    <g id="Desktop" stroke="none" stroke-width="1" fill="none" fill-rule="evenodd">
        <g id="Home-Copy-2" transform="translate(-800.000000, -1029.000000)">
            <g id="Group-2" transform="translate(730.000000, 965.000000)">
                <g id="Analytiques" transform="translate(0.000000, 2.000000)">
                    <g id="Group-4" transform="translate(70.000000, 62.000000)">
                        <path d="M72.8225806,37.885485 C72.8225806,58.2519998 56.735143,74.763726 36.8919704,74.763726 C17.0481595,74.763726 0.967741935,58.2519998 0.967741935,37.885485 C0.967741935,36.1568891 1.08389211,34.453184 1.30534327,32.7874699 L36.8919704,37.885485 L70.9105701,25.99885 C72.1524835,29.7272198 72.8225806,33.7274226 72.8225806,37.885485" id="Fill-200-Copy" fill="#3749BC"></path>
                        <path d="M56.8548387,7.09387731 L37.2238221,37.960046 L4.51612903,22.5080045 C10.2319744,9.90215087 22.7293855,1.15636598 37.2238221,1.15636598 C44.4681601,1.15636598 51.206841,3.33513129 56.8548387,7.09387731" id="Fill-202-Copy" fill="#C277FF"></path>
                        <path d="M79.9193548,19.4965521 L46.2096774,31.519402 L65.6045202,0.236273979 C72.2319927,4.74807248 77.3303403,11.5190829 79.9193548,19.4965521" id="Fill-204-Copy" fill="#56D5F4"></path>
                        <path d="M38.2258065,41.640414 L2.74193548,36.4903043 L2.74193548,36.4843489 C3.23892094,32.7873602 4.25007318,29.269034 5.70857596,25.99885 L38.2258065,41.640414 Z" id="Fill-206-Copy" fill="#FC6DE6"></path>
                    </g>
                </g>
            </g>
        </g>
    </g>
</svg>