<?xml version="1.0" encoding="utf-8"?>
<!-- Generator: Adobe Illustrator 22.0.1, SVG Export Plug-In . SVG Version: 6.00 Build 0)  -->
<svg version="1.1" id="Calque_1" xmlns="http://www.w3.org/2000/svg" xmlns:xlink="http://www.w3.org/1999/xlink" x="0px" y="0px"
	 viewBox="0 0 126 482" style="enable-background:new 0 0 126 482;" xml:space="preserve">
<style type="text/css">
	.st0{fill:#7F39FA;}
	.st1{fill:#C277FF;}
	.st2{fill:#F3F4F8;}
	.st3{fill:#788EF7;}
	.st4{fill:#3749BC;}
	.st5{fill:#242951;}
	.st6{fill:#FFFFFF;}
	.st7{fill:#D3D9FF;}
	.st8{fill:#F9A77B;}
	.st9{fill:#F4986C;}
	.st10{fill:#3E4A5A;}
	.st11{fill:#B5BAE0;}
	.st12{fill:#E5E8F2;}
</style>
<g>
	<path class="st0" d="M78.2,14.5c-0.1,0.1-0.2,0.2-0.2,0.3c0,0.1-0.1,0.1-0.1,0.2c-0.9,1.5-1.6,3-2.1,4.6c-0.4,1.2-0.7,2.4-1,3.6
		c-0.8,3.7-1.1,7.4-1.4,11.2c-0.4,0.2-0.9,0.4-1.5,0.6c-0.4,0.2-0.8,0.3-1.3,0.5c-0.7,0.2-1.5,0.4-2.4,0.6c-0.3,0.1-0.5,0.1-0.8,0.2
		c-0.5,0.1-1.1,0.2-1.7,0.2c-0.3,0.1-0.6,0.1-0.9,0.1c-5.5,0.3-6.6,0.9-10.8-0.2c-0.2,0-0.4-0.1-0.6-0.1c-1.5-0.3-2.8-0.1-3.8,0.3
		c-0.4,0.1-0.8,0.3-1.1,0.5c-0.5,0.3-0.9,0.6-1.1,0.8L47.3,38c-0.1,0.1-0.1,0.1-0.1,0.1v0.1c-0.1,1.1-0.9,18.7-0.6,21.5
		c0,0.6,0.4,1.4,1,2.4c0.8,1.3,1.9,2.7,3.1,4.1c-0.3,0.5-0.6,1-0.9,1.5c-0.5,0.7-1,1.4-1.6,2.1c-0.7,0.9-1.5,1.7-2.3,2.4
		c2.6,9.8,4.4,21.2,4.1,32.6c-0.7,23.4-18.1,52-18.1,52s-27.3-8.7-25.5-32.3c1.8-22.8,24.7-39.4,26.2-77v0c-0.1-0.9-0.1-1.7-0.2-2.5
		c-0.2-4.3-0.1-8.3,0.7-12.2c3.4-12.8,15.3-22.3,29.5-22.3c4,0,11.2,2.2,11.3,2.2C74.6,12.9,76.9,13.9,78.2,14.5z"/>
	<path class="st1" d="M110.9,125c0.2,20.9-13.3,30.3-13.3,30.3s-27.8-33.3-34-61.6c-3.3-15,4.9-27.3,13.3-35.5
		c2.4-5,4.7-10.2,5-10.8c-0.6-0.3-1.2-0.6-1.7-1c-0.2-0.1-0.4-0.3-0.6-0.4c-0.3-0.2-0.5-0.4-0.8-0.6c-0.2-0.2-0.5-0.4-0.7-0.6
		c-0.6-0.6-1.1-1.2-1.5-1.9c-1.2-1.8-1.7-3.7-1.9-5.3c0-0.2,0-0.4-0.1-0.6v-1.4c0-0.1,0-0.2,0-0.2v-0.9c0-0.1,0-0.1,0-0.2
		c0-0.1,0-0.1,0-0.2c0,0,0,0,0-0.1c-0.1,0-0.5,0.3-1.1,0.6c0.3-3.8,0.6-7.5,1.4-11.2c0.3-1.2,0.6-2.4,1-3.6c0.5-1.6,1.2-3.1,2.1-4.6
		c0-0.1,0.1-0.1,0.1-0.2s0.1-0.2,0.2-0.3c3.4,2,6.3,4.6,8.6,7.7c2.4,3.1,4.1,6.6,5.2,10.4c0.7,2.4,1,5,1,7.6c0,3.6-1,6.9-1.8,10.2
		c-0.2,1-0.6,2.1-1,3.4c-0.9,4.8-1.7,11.9-1.6,20.6C89,91.8,110.6,104.1,110.9,125z"/>
	<g>
		<path class="st2" d="M81,409.9c1.6-0.3,3.1-0.9,4.4-1.8c0.3,0.3,0.6,0.6,0.7,1c0.2,0.6,0,1.3-0.2,1.9c-1.1,4.2-2.1,8.5-2.3,12.8
			c-0.4,10.7,4.4,20.9,8.3,30.9c0.8,1.9,1.5,4.1,0.5,5.9c-0.6,1.1-1.6,1.8-2.8,2.2v-0.1C82.7,446,77.6,428.6,81,409.9z"/>
	</g>
	<g>
		<path class="st3" d="M69.6,408.5c3.3,1.2,7.5,2.1,11.4,1.4c-3.4,18.6,1.7,36.1,8.7,52.9v0.1c-0.9,0.4-1.9,0.6-2.9,0.8
			c-0.8,0.2-1.7,0.3-2.5,0.4C61.9,459.2,68.4,427.1,69.6,408.5z"/>
	</g>
	<g>
		<path class="st4" d="M81,409.9c-3.9,0.7-8.1-0.2-11.4-1.4c-1.2,18.5-7.7,50.7,14.7,55.6c-3,0.5-6.1,0.6-8.8-0.6
			c-1.6-0.7-2.9-1.8-4.2-3c-3.5-3.1-6.8-6.4-8.9-10.5c-2.9-5.5-3.5-11.8-3.4-18c0.1-4,0.4-8,0.9-12c1-6.8,2.6-13.9-0.2-20.2l1.1,0.3
			c6,4.6,13.5,7.2,21,7.2c1.2,0,2.6,0.1,3.5,0.8C84.1,409.1,82.6,409.7,81,409.9L81,409.9z"/>
	</g>
	<g>
		<path class="st4" d="M22.5,455.9c0,0.7,0,1.4,0.3,2.1c0.4,1,1.4,1.6,2.3,2.1c7.7,4.6,16,8.1,24.7,10.6
			c-6.4-4.6-14.8-7.6-15.9-16.1c-2.2-14-0.5-27.8,0.4-41.6c5,3.3,11,4.9,17.1,4.5c0.4,0,0.8,0,1.3,0c1.7,0,3.9-0.1,4.8-2
			c-0.6-1.4-1.9-1.8-4-3.5l0.5,0.6c-3.4,2-7.7,0.8-11.3-0.7c-2.8-1.2-5.5-2.4-8.1-3.9c-3.3-1.8-6.5-3.8-9.5-5.9
			c-0.1-0.1-0.2-0.1-0.3-0.2c-1.2,2.8-0.1,6,0.5,9C28.7,425.6,22.5,440.8,22.5,455.9z"/>
	</g>
	<g>
		<path class="st2" d="M59.8,464.2c-11-14.7-8.4-30.7-7.1-46.6c1.7,0,3.9-0.1,4.8-2c0.3,0.6,0.4,1.4,0.4,2.6
			c-0.1,3.8-1.5,11.8-1.8,15.6c-0.7,7.7,1.6,15.5,5.3,22.3c2.1,3.8,4.7,8.4,2.6,12.2c-0.9,1.6-2.6,2.7-4.4,3.3
			C61.4,469.8,61.8,466.8,59.8,464.2z"/>
	</g>
	<g>
		<path class="st3" d="M33.9,454.6c-2.2-14-0.5-27.8,0.4-41.6c5,3.3,11,4.9,17.1,4.5c0.4,0,0.8,0,1.3,0c-1.3,16-3.9,31.9,7.1,46.6
			c1.9,2.7,1.6,5.6-0.3,7.4c-0.6,0.2-1.2,0.3-1.9,0.4c-2.5,0.2-5-0.4-7.4-1.1c-0.1,0-0.3-0.1-0.4-0.1
			C43.4,466.1,35,463.1,33.9,454.6z"/>
	</g>
	<path class="st4" d="M92.9,242.9c-1,8.3-2.4,24-3.7,42.6c-0.5,7-1,14.4-1.5,21.9c-3.3,47.9-6.4,102.4-6.4,102.4s-3.8,4.2-12.8-2.8
		c-0.9-0.7-1.8-1.5-2.8-2.4L65.3,348c0.5-1.4,1.1-2.8,1.7-4.2c6.8-19.1,18.2-44.6-2-57.3l-0.2-39c-0.1,1.1-0.2,2.2-0.2,3.3
		c-1.2,17.5-2.8,37-4.5,56.3c-0.5,5.9-1.1,11.9-1.6,17.7c-4.5,48.8-9.2,91.8-9.2,91.8l-9.3-2.3l-5.3-1.3c0,0,0-26.1-0.8-59.9
		c3.2-9.9,6.2-19.8,7.9-30.3c0-1.7-4.1-5.3-9-7.1c-0.4-9.7-0.8-19.4-1.3-28.9c1.5-5,2.5-10.1,2.5-15.1c-0.6-27-8.1-53.3-2.3-80.3
		l32.8-4.1l27.2-3.8c0,0,0.6,3,1.2,8.2C94.1,202.3,95.5,221.9,92.9,242.9z"/>
	<path class="st5" d="M67,343.8c-0.6,1.4-1.2,2.8-1.7,4.2L65,286.5C85.2,299.2,73.8,324.7,67,343.8z"/>
	<path class="st5" d="M41.6,322.8c-1.7,10.5-4.7,20.4-7.9,30.3c-0.3-11.8-0.6-24.5-1.1-37.4C37.5,317.5,41.6,321.2,41.6,322.8z"/>
	<path class="st5" d="M24.3,206.3c0.5-3.8,4.4-14.5,4.4-14.5l2.9-0.4c-5.8,26.9,1.7,53.3,2.3,80.3c0,4.9-1,10.1-2.5,15.1
		c0-0.5,0-0.9-0.1-1.4C29.4,251.6,22.1,225,24.3,206.3z"/>
	<g>
		<path class="st6" d="M40.8,173.6c-0.2-0.1-0.3-0.1-0.5-0.2c-0.1,0-0.2-0.1-0.3-0.1c0.1,0,0.2,0.1,0.3,0.1
			C40.4,173.4,40.6,173.5,40.8,173.6z"/>
	</g>
	<g>
		<path class="st6" d="M40.8,173.6c-0.2-0.1-0.3-0.1-0.5-0.2c-0.1,0-0.2-0.1-0.3-0.1c0.1,0,0.2,0.1,0.3,0.1
			C40.4,173.4,40.6,173.5,40.8,173.6z"/>
	</g>
	<g>
		<path class="st7" d="M40.3,173.3L40.3,173.3c-0.1,0-0.2-0.1-0.3-0.1C40.1,173.3,40.2,173.3,40.3,173.3z"/>
	</g>
	<g>
		<path class="st3" d="M40.8,173.6c-0.2-0.1-0.3-0.1-0.5-0.2l0,0C40.4,173.4,40.6,173.5,40.8,173.6z"/>
	</g>
	<g>
		<path class="st8" d="M80.6,235.3c0.2-0.7,0.6-10.1,2.6-12.8c1.4-1.9,1.5-1.8,2.6-3.8c1.5-2.7,0.6-5.8,0.6-10.9l5.6,2.4
			c-1.5,8.6,0.8,17.1,0.2,25.7c-0.5,2.8-2.7,5-4.7,7.4c-0.8,0.5-1.7,0.9-2.6,0.8c-1.6-0.1-2.8-1.5-3.6-2.9
			C80.5,239.9,80.4,236.2,80.6,235.3z"/>
	</g>
	<g>
		<path class="st0" d="M48.5,37.2c0.3-0.2,0.7-0.4,1.1-0.5C49.2,36.8,48.9,37,48.5,37.2z"/>
	</g>
	<g>
		<path class="st0" d="M54.9,66.1c-0.7,0.9-1.2,1.8-1.6,2.8V69c-0.7,1.8-1,3.8-1.1,5.8l0,0c-0.4,8.9,3.3,19-3.7,22.2
			c-2,0.9-11.7,5.4-11.7,5.4c0.1,0-0.6-9.9-1.3-19.2c-0.1-1.9-0.3-3.8-0.4-5.6c5.1-1,9.8-3.8,13.1-7.8c0.6-0.7,1.1-1.4,1.6-2.1
			c0.3-0.5,0.6-1,0.9-1.5c-1.2-1.4-2.3-2.8-3.1-4.1c-0.6-1-1-1.8-1-2.4c0,0.3,2.9,2.3,5.2,3.9c0.1,0.1,0.2,0.2,0.4,0.3
			C53.6,64.9,54.7,65.8,54.9,66.1z"/>
	</g>
	<g>
		<path class="st0" d="M68.3,36.2c0.9-0.2,1.7-0.4,2.4-0.6C69.9,35.8,69.1,36,68.3,36.2c-0.3,0.1-0.5,0.1-0.8,0.2
			C67.7,36.3,68,36.3,68.3,36.2L68.3,36.2z"/>
	</g>
	<g>
		<path class="st7" d="M91.5,120.3L91.5,120.3C91.5,120.3,91.4,120.3,91.5,120.3C91.4,120.4,91.5,120.4,91.5,120.3z"/>
	</g>
	<g>
		<path class="st7" d="M52.6,62.6c-0.1,0.5-0.2,0.9-0.4,1.4c-0.3,0.9-0.7,1.8-1.1,2.6c-0.1,0.2-0.2,0.3-0.3,0.5
			c-0.2,0.3-0.3,0.6-0.5,0.8c-0.5,0.8-1.1,1.4-1.8,1.9c0,0-0.1,0-0.3,0c0.6-0.7,1.1-1.4,1.6-2.1c0.3-0.5,0.6-1,0.9-1.5
			c0.4-0.8,0.8-1.6,1.1-2.5c0.2-0.5,0.3-0.9,0.5-1.4C52.4,62.4,52.5,62.5,52.6,62.6z"/>
	</g>
	<g>
		<path class="st6" d="M32.4,170.3c0.8,0.3,1.5,0.6,2.3,0.9C33.9,170.8,33.2,170.6,32.4,170.3L32.4,170.3z"/>
	</g>
	<g>
		<path class="st2" d="M66.4,66.9L66.4,66.9C66.4,67,66.4,67,66.4,66.9L66.4,66.9z"/>
	</g>
	<g>
		<path class="st2" d="M67,72.5L67,72.5c0,0.3,0,0.6,0.1,0.9C67.1,73,67,72.7,67,72.5z"/>
	</g>
	<g>
		<path class="st2" d="M66.3,68.8C66.4,68.8,66.4,68.8,66.3,68.8C66.4,68.8,66.3,68.8,66.3,68.8L66.3,68.8z"/>
	</g>
	<g>
		<path class="st6" d="M65.3,64.3L65.3,64.3c0,0.1,0.2,0.4,0.4,1C65.6,64.9,65.5,64.5,65.3,64.3C65.4,64.2,65.4,64.2,65.3,64.3z"/>
	</g>
	<g>
		<path class="st6" d="M34.7,171.1c-0.8-0.3-1.5-0.6-2.3-0.9c-1.3-0.5-2.7-1-4-1.5l0,0c1.3,0.5,2.7,1,4,1.5
			C33.2,170.5,33.9,170.8,34.7,171.1z"/>
	</g>
	<g>
		<path class="st9" d="M91.5,120.3L91.5,120.3C91.5,120.3,91.4,120.3,91.5,120.3C91.4,120.4,91.5,120.4,91.5,120.3z"/>
	</g>
	<g>
		<path class="st7" d="M91.5,120.3L91.5,120.3C91.5,120.3,91.4,120.3,91.5,120.3C91.4,120.4,91.5,120.4,91.5,120.3z"/>
	</g>
	<g>
		<path class="st3" d="M67,72.5L67,72.5c0,0.3,0,0.6,0.1,0.9C67.1,73,67,72.7,67,72.5z"/>
	</g>
	<g>
		<path class="st7" d="M32.4,170.3c0.8,0.3,1.5,0.6,2.3,0.9C33.9,170.8,33.2,170.6,32.4,170.3c-1.3-0.5-2.7-1-4-1.5l0,0
			C29.8,169.3,31.1,169.8,32.4,170.3z"/>
	</g>
	<g>
		<path class="st4" d="M23.2,150.7c2,1.4,4,2.9,6.1,4.4s4.2,3,6.2,4.6c1.2,0.9,2.4,1.7,3.6,2.6c2.1,1.6,4.3,3.1,6.5,4.6
			c-1.4,1.6-2.8,3.3-4.2,5c-0.4,0.5-0.8,1-1.1,1.5c0.2,0.1,0.3,0.1,0.5,0.2c0,0,0.1,0,0.1,0.1c0.1,0.1,0.2,0.1,0.4,0.2
			c0.4,0.2,0.8,0.4,1.3,0.6c0.4,0.2,0.8,0.4,1.3,0.6c0.4,0.2,0.8,0.4,1.2,0.6c0.2,0.1,0.4,0.2,0.5,0.3c0.2,0.1,0.3,0.2,0.5,0.2
			c0.3,0.2,0.7,0.3,1,0.5c0.5,0.3,1,0.5,1.5,0.8c0.4,0.2,0.8,0.5,1.2,0.7l0.1,0.1c0.1,0,0.1,0.1,0.2,0.1c0.1-0.2,0.3-0.4,0.4-0.7
			c0.2-0.3,0.5-0.6,0.9-1c1.6-1.7,4.9-4.2,6.2-5.2c0.3-0.3,0.5-0.4,0.5-0.4c-2.5-3.2-5.5-6-8.7-8.4c-6.3-4.7-13.7-8.2-21.3-11.1
			c2.7-9.2,0.4-18.8-0.4-28.5c0,0.5,0,1.1-0.1,1.6v0.1c0,0.4,0,0.8-0.1,1.2c0,0.3,0,0.5,0,0.8c0,0.5-0.1,0.9-0.1,1.4
			c-0.1,0.9-0.1,1.7-0.2,2.6c-0.1,0.9-0.2,1.7-0.3,2.6c-0.1,0.5-0.1,1-0.2,1.5c0,0.1,0,0.1,0,0.2c-0.1,0.5-0.1,1.1-0.2,1.7
			c-0.1,0.7-0.2,1.3-0.3,2c-0.1,0.3-0.1,0.7-0.2,1c0,0.1,0,0.3-0.1,0.4c0,0.3-0.1,0.6-0.2,0.8c-0.1,0.4-0.2,0.8-0.2,1.3
			c-0.1,0.5-0.2,1-0.3,1.5c-0.3,1.2-0.5,2.3-0.8,3.5c-0.1,0.5-0.2,0.9-0.4,1.4C23.6,149.3,23.4,150,23.2,150.7z"/>
	</g>
	<path class="st9" d="M66.3,68.8L66.3,68.8C66.4,68.8,66.4,68.8,66.3,68.8C66.4,68.8,66.3,68.8,66.3,68.8z"/>
	<path class="st9" d="M66.4,66.9L66.4,66.9C66.4,67,66.4,67,66.4,66.9L66.4,66.9z"/>
	<path class="st3" d="M29.8,191.8c0,0.3,36.6-4.9,53.1-7.2c0.2,0,0.3-0.1,0.5-0.1s0.3,0,0.5-0.1c0.2,0,0.4-0.1,0.6-0.1l-0.1-1.8
		l-1.6-25c-5.8-4.1-13-7.5-18-10.1c-2.8-1.5-4-4.8-6.7-6.3c-1.6-0.4-3.4-0.1-5.1,0.5l-11.1,15l-0.6,0.8c2.8,1.5,5.4,3.2,7.9,5
		c3.2,2.4,6.2,5.2,8.7,8.4c0,0-6.4,5-7.6,6.6c-0.1,0.2-0.3,0.4-0.4,0.7c-0.1,0-0.1-0.1-0.2-0.1l-0.1-0.1c-0.4-0.2-0.8-0.5-1.2-0.7
		c-0.5-0.3-1-0.5-1.5-0.8c-0.3-0.2-0.7-0.4-1-0.5c-0.1-0.1-0.3-0.2-0.5-0.2c-0.2-0.1-0.4-0.2-0.5-0.3c-0.4-0.2-0.8-0.4-1.2-0.6
		c-0.4-0.2-0.8-0.4-1.3-0.6c-0.4-0.2-0.8-0.4-1.3-0.6c-0.1-0.1-0.2-0.1-0.4-0.2c0,0-0.1,0-0.1-0.1c-0.2-0.1-0.3-0.1-0.5-0.2
		c-0.1,0-0.2-0.1-0.3-0.1c-0.4-0.2-0.9-0.4-1.3-0.5c-1.3-0.5-2.6-1-4-1.6c-0.8-0.3-1.5-0.6-2.3-0.9c-0.1-0.1-0.3-0.1-0.4-0.2
		c-1.2-0.5-2.4-0.9-3.6-1.4c-0.6,2.9-0.9,5.4-1.1,7.7C26.4,188.2,29.8,191.8,29.8,191.8z"/>
	<path class="st3" d="M67,72.5c0,0.3,0.1,0.6,0.1,0.9C67.1,73,67,72.7,67,72.5L67,72.5z"/>
	<path class="st10" d="M66.3,68.8L66.3,68.8C66.4,68.8,66.4,68.8,66.3,68.8C66.4,68.8,66.3,68.8,66.3,68.8z"/>
	<g>
		<path class="st11" d="M20.9,186.1c0.1-0.8,0.5-1.5,1-2.2l3.3-4.5l2.2-2.9l4.7-6.3c0.1,0,0.3,0.1,0.4,0.2c0.8,0.3,1.5,0.6,2.3,0.9
			c0.9,0.3,1.7,0.7,2.6,1c-2.8,6.6-4.4,13.4-3.8,20.7c1,4,8.1,7,12.2,12c0.8,1.1,1.1,2.4,1.2,3.7l-20.4-14.6l-3.5-2.5
			C21.3,190.1,20.5,188.1,20.9,186.1z"/>
		<path class="st11" d="M91.8,167.1c0-0.1-0.1-0.1-0.1-0.2c0.1,0.1,0.1,0.2,0.2,0.4C91.9,167.2,91.8,167.1,91.8,167.1z"/>
		<path class="st10" d="M91.8,167.1c0-0.1-0.1-0.1-0.1-0.2c0.1,0.1,0.1,0.2,0.2,0.4C91.9,167.2,91.8,167.1,91.8,167.1z"/>
		<path class="st7" d="M39.1,162.2c2.1,1.6,4.3,3.1,6.5,4.6c-1.4,1.6-2.8,3.3-4.2,5c-2.4-1.6-4.8-3.1-7.3-4.5l-2.1,2.8
			c0.1,0.1,0.3,0.1,0.4,0.2c0.8,0.3,1.5,0.6,2.3,0.9c1.3,0.5,2.7,1,4,1.6c0.4,0.2,0.9,0.4,1.3,0.5c0.1,0,0.2,0.1,0.3,0.1
			c0.2,0.1,0.3,0.1,0.5,0.2c0,0,0.1,0,0.1,0.1c0.1,0.1,0.2,0.1,0.4,0.2c0.4,0.2,0.8,0.4,1.3,0.6c0.4,0.2,0.8,0.4,1.3,0.6
			c0.4,0.2,0.8,0.4,1.2,0.6c0.2,0.1,0.4,0.2,0.5,0.3c0.2,0.1,0.3,0.2,0.5,0.2c0.3,0.2,0.7,0.3,1,0.5c0.5,0.3,1,0.5,1.5,0.8
			c0.4,0.2,0.8,0.5,1.2,0.7l0.1,0.1c0.1,0,0.1,0.1,0.2,0.1c0.1-0.2,0.3-0.4,0.4-0.7c1.1-1.7,7.6-6.6,7.6-6.6c-2.5-3.2-5.5-6-8.7-8.4
			c-2.5-1.9-5.1-3.5-7.9-5c-4.3-2.3-8.8-4.3-13.5-6c2.7-9.2,0.4-18.8-0.4-28.5c0,0.5,0,1.1-0.1,1.6v0.1c0,0.4,0,0.8-0.1,1.2
			c0,0.3,0,0.5,0,0.8c0,0.5-0.1,0.9-0.1,1.4c-0.1,0.9-0.1,1.7-0.2,2.6c-0.1,0.9-0.2,1.7-0.3,2.6c-0.1,0.5-0.1,1-0.2,1.5
			c0,0.1,0,0.1,0,0.2c-0.1,0.5-0.1,1.1-0.2,1.7c-0.1,0.7-0.2,1.3-0.3,2c-0.1,0.3-0.1,0.7-0.2,1c0,0.1,0,0.3-0.1,0.4
			c0,0.3-0.1,0.6-0.2,0.8c-0.1,0.4-0.2,0.8-0.2,1.3c-0.1,0.5-0.2,1-0.3,1.5c-0.3,1.2-0.5,2.3-0.8,3.5c-0.1,0.5-0.2,0.9-0.4,1.4
			c-0.2,0.7-0.4,1.4-0.6,2.1c2,1.4,4,2.9,6.1,4.4s4.2,3,6.2,4.6c0.9,0.7,1.9,1.4,2.8,2C38.5,161.8,38.8,162,39.1,162.2z"/>
		<path class="st11" d="M57.3,136.5c-3.6,7.7-8.6,15.1-13.1,22.6c-0.9-0.6-1.8-1.1-2.8-1.6l0.6-0.8l11.1-15l0,0l3-4
			C56.3,137.3,56.8,136.9,57.3,136.5z"/>
		<path class="st12" d="M95,159.1l-9-6.4l-0.6-0.4l0,0l-3.1-2.2l-18.8-13.5c-1.9-1.4-4.4-1.3-6.3,0c-3.6,7.7-8.6,15.1-13.1,22.6
			c1.8,1.1,3.5,2.2,5.1,3.4c3.2,2.4,6.2,5.2,8.7,8.4c0,0-6.5,5-7.6,6.6c-0.2,0.2-0.3,0.4-0.4,0.7c0,0-0.1-0.1-0.2-0.1l-0.1-0.1
			c-0.4-0.2-0.8-0.5-1.2-0.7c-0.5-0.3-1-0.5-1.5-0.8c-0.3-0.2-0.7-0.4-1-0.5c-0.1-0.1-0.3-0.2-0.5-0.2c-0.2-0.1-0.4-0.2-0.5-0.3
			c-0.4-0.2-0.8-0.4-1.2-0.6c-0.4-0.2-0.8-0.4-1.3-0.6c-0.4-0.2-0.8-0.4-1.3-0.6c-0.1-0.1-0.2-0.1-0.4-0.2h-0.1
			c-0.2-0.1-0.3-0.1-0.5-0.2c-0.1,0-0.2-0.1-0.3-0.1c-0.4-0.2-0.9-0.4-1.3-0.5c-0.4-0.2-0.9-0.3-1.3-0.5c-2.8,6.6-4.4,13.4-3.8,20.7
			c1,4,8.1,7,12.2,12c0.8,1.1,1.1,2.4,1.2,3.7l7.6,5.4c2.4,1.8,5.8,1.2,7.6-1.2l10.6-14.4l10.2-13.8l1.5-2l1.6-2.2l0,0l0,0l5.8-7.8
			l1.1-1.5l0,0l3.3-4.5c0.4-0.5,0.6-1.1,0.8-1.6C97.7,162.9,96.9,160.5,95,159.1z M91.8,167.1c0-0.1-0.1-0.2-0.1-0.2
			C91.7,166.9,91.8,167,91.8,167.1L91.8,167.1L91.8,167.1z"/>
	</g>
	<path class="st8" d="M81.8,47.5L81.8,47.5L81.8,47.5c-0.5,1.1-7.9,17.8-10.2,20.2c-0.4,0.4-0.9,0.9-1.6,1.3l0,0
		c-1.5-10.9-1.7-21.8-1.7-32.7l0,0c0.9-0.2,1.7-0.4,2.4-0.6c0.5-0.2,0.9-0.3,1.3-0.5c0.6-0.2,1.1-0.4,1.5-0.6c0.6-0.3,1-0.5,1.1-0.6
		l0,0l0,0l0,0c0,0,0,0,0,0.1c0,0,0,0.1,0,0.2l0,0l0,0l0,0c0,0.1,0,0.1,0,0.2l0,0v0.1l0,0v0.1c0,0.1,0,0.2,0,0.3l0,0
		c0,0.1,0,0.2,0,0.3v0.1c0,0.1,0,0.2,0,0.2l0,0c0,0.1,0,0.2,0,0.3s0,0.2,0,0.4c0,0.1,0,0.2,0,0.4c0,0.1,0,0.2,0,0.3
		c0,0.2,0,0.4,0.1,0.6c0.2,1.6,0.7,3.5,1.9,5.3c0.4,0.6,0.9,1.3,1.5,1.9c0.2,0.2,0.5,0.4,0.7,0.6c0.2,0.2,0.5,0.4,0.8,0.6
		c0.2,0.1,0.4,0.3,0.6,0.4C80.6,46.8,81.2,47.2,81.8,47.5z"/>
	<path class="st8" d="M67.5,36.4c0.3,0,0.5-0.1,0.8-0.1l0,0l0,0C68,36.3,67.7,36.3,67.5,36.4z M48.5,37.2c0.3-0.2,0.7-0.4,1.1-0.5
		C49.2,36.8,48.9,37,48.5,37.2z"/>
	<path class="st9" d="M68.3,36.2c-0.3,0-0.5,0.1-0.8,0.1c-0.5,0.1-1.1,0.2-1.7,0.2c-0.3,0-0.6,0.1-0.9,0.1l0,0
		c-5.5,0.3-6.2-0.4-10.4-1.5c-0.2-0.1-0.8,1.2-1,1.2c-1.5-0.3-2.8-0.1-3.8,0.3c-0.4,0.2-0.8,0.3-1.1,0.5c-0.5,0.3-0.9,0.6-1.1,0.8
		L47.4,38c0,0,0,0-0.1,0.1l0,0c0,0,0,0,0,0.1c-0.1,1.1-0.9,18.7-0.6,21.5c0.1,0.6,0.4,1.4,1,2.4c0.7,1.2,1.8,2.7,3.1,4.1
		c0.1,0.1,0.2,0.3,0.4,0.5c0.8,0.6,1.5,1.5,2.3,2.3c0,0,0.1,0.1,0.2,0.2l0,0c0.7,0.7,1.4,1.2,2,1.7c0.9,0.7,1.8,1.2,2.5,1.4
		c0.2,0.1,0.3,0.1,0.5,0.1c0.5,0.1,1,0.1,1.7,0c0.8-0.1,1.7-0.2,2.6-0.4c1.3-0.3,2.7-0.8,3.9-1.3c0,0,0,0,0.1,0
		c0.3-0.1,0.7-0.3,1-0.5c0.2-0.1,0.3-0.2,0.5-0.2c0.4-0.2,0.8-0.5,1.2-0.7c0.2-0.1,0.4-0.2,0.5-0.3C68.4,58,68.3,47.1,68.3,36.2z
		 M66.3,68.8C66.3,68.8,66.4,68.8,66.3,68.8L66.3,68.8L66.3,68.8z"/>
	<path class="st7" d="M98.1,198.2l-13-3.2l-1.3,12.1c0,0,11,5.8,13,3.2L98.1,198.2z"/>
	<g>
		<path class="st9" d="M92.1,210.2l1.7,0.8c-1.2,3.7-1.3,7.9-0.2,11.6c0.4,1.4,0.9,2.7,1.3,4c1,3.5,0.8,7.4-0.5,10.8
			c-0.4,1-0.9,2-1.7,2.8c-0.9,0.8-2,1.2-3,1.8c-0.7,0.4-1.4,1-2.1,1.4c1.9-2.5,4.2-4.6,4.7-7.4C92.9,227.3,90.6,218.8,92.1,210.2z"
			/>
	</g>
	<path class="st12" d="M85.4,152.3l-3.1-2.2l-2.6-41.5c5.2,14.3,6.2,29.1,6.3,44.1L85.4,152.3L85.4,152.3z"/>
	<path class="st12" d="M86.8,195.4l-1.7-0.4c0,0-0.9-10.6-0.7-10.6l-0.1-1.8l1.6-2.2C86.1,185.5,86.3,190.5,86.8,195.4z"/>
	<path class="st6" d="M91.8,172.6c-0.1,13.9-0.1,24-0.1,24l0,0l-4.8-1.2c-0.5-5-0.7-10-0.8-15l0,0l0,0L91.8,172.6z"/>
	<g>
		<path class="st12" d="M67,72.5c-0.2,0.1-0.4,0.2-0.7,0.2c-0.4,0.1-0.9,0.3-1.4,0.4h-0.1c-0.1,0-0.2,0.1-0.3,0.1
			c-0.5,0.1-1,0.3-1.6,0.4c-0.4,0.1-0.7,0.2-1.1,0.2c-0.1,0-0.1,0-0.2,0s-0.1,0-0.2,0c-0.2,0-0.5,0.1-0.7,0.1s-0.3,0-0.5,0.1
			c-0.4,0.1-0.8,0.1-1.2,0.1c-0.1,0-0.1,0-0.2,0c-0.4,0-0.8,0-1.2,0l0,0c-0.4,0-0.8,0-1.2,0h-0.1c-0.2,0-0.4-0.1-0.6-0.1
			c-0.2,0-0.4-0.1-0.6-0.1c-0.2,0-0.5-0.1-0.7-0.2c-0.2,0-0.4-0.1-0.5-0.2c-0.2-0.1-0.4-0.2-0.6-0.3c-0.2,0.5-0.4,0.9-0.6,1.3l0,0
			c-0.2,0.4-0.5,0.8-0.8,1.2c-0.1,0.2-0.3,0.4-0.5,0.6c-0.1,0.2-0.3,0.3-0.5,0.5c-0.1,0.1-0.2,0.2-0.2,0.2c-0.3,0.3-0.5,0.5-0.8,0.7
			c-0.2,0.2-0.4,0.3-0.6,0.5c-0.4,0.3-0.8,0.6-1.2,0.8c-0.2,0.1-0.4,0.2-0.6,0.4c-0.2,0.1-0.3,0.2-0.5,0.3c-0.2,0.1-0.3,0.2-0.5,0.3
			c-0.4,0.2-0.8,0.4-1.2,0.5c-0.2,0.1-0.4,0.2-0.6,0.3C44.5,80.9,44.3,81,44,81c-0.2,0.1-0.5,0.2-0.7,0.3c-0.2,0.1-0.5,0.2-0.8,0.2
			c-0.1,0-0.3,0.1-0.4,0.1c-0.3,0.1-0.5,0.1-0.8,0.2c-0.1,0-0.2,0.1-0.3,0.1c-0.3,0.1-0.5,0.1-0.8,0.2c-0.1,0-0.2,0-0.3,0.1
			c-0.1,0-0.2,0-0.3,0.1c-0.5,0.1-1.1,0.2-1.7,0.3c-0.2,0-0.5,0.1-0.8,0.1c-0.1,0-0.3,0-0.4,0.1c-0.2,0-0.5,0.1-0.7,0.1
			c-0.1,0-0.2,0-0.2,0c-0.6,0.1-1.2,0.1-1.9,0.2c-0.2,0-0.5,0-0.8,0.1c-0.2,0-0.5,0-0.8,0s-0.5,0-0.7,0c-0.7,0-1.5,0-2.1,0
			c-12.4,3.2-15.3,57.3-13.3,71.6c0.1,0.5,0.1,1,0.2,1.5c0.9,3.4,4.4,4.3,7,5.2c2.9,1.2,5.7,2.5,8.4,4c0.9,0.5,1.7,1,2.5,1.4
			c0.7,0.4,1.4,0.8,2.1,1.3c0.8,0.5,1.7,1,2.5,1.6c0.9,0.6,1.8,1.1,2.6,1.7c-0.4,0.5-0.8,1-1.1,1.5l0,0c-0.1,0-0.2-0.1-0.2-0.1l0,0
			c-0.4-0.2-0.9-0.4-1.3-0.5c-0.2-0.1-0.4-0.2-0.7-0.3c-0.7-0.3-1.3-0.5-2-0.8c-0.4-0.2-0.9-0.3-1.3-0.5l0,0
			c-0.4-0.1-0.8-0.3-1.1-0.4c-0.4-0.1-0.8-0.3-1.1-0.4c-0.1,0-0.3-0.1-0.4-0.1c-1.2-0.5-2.4-0.9-3.6-1.4c-0.4-0.1-0.8-0.3-1.2-0.5
			c-1.2-0.5-12.3-5.8-13.7-6.7c-2.8-1.8-3.4-5.1-3.4-8.4c0-10.3-0.1-18.6,0.5-27.8c0.5-6.8,0.4-13.6,0.9-20.4
			c0.4-5.6,1.1-11.1,2.8-16.5c1-3,2.3-6.1,4.9-8c4.1-3,9.9-2.1,15-2.8c0.3,0,0.7-0.1,1-0.2c5.1-1,9.8-3.8,13.1-7.8
			c0.1,0,0.2,0,0.3,0c0.6-0.5,0.9-1,1.5-1.8c0.2-0.3,0.4-1,0.5-1.2c0.7,0.8,2,1.4,2.8,2.2c0,0,0.1,0.1,0.2,0.2l0,0
			c0.7,0.7,1.4,1.2,2,1.7c0.9,0.7,1.8,1.2,2.5,1.4C58.7,72,58.8,72,59,72c0.5,0.1,1,0.1,1.7,0c0.8-0.1,1.7-0.2,2.6-0.4
			c1.3-0.3,2.7-0.8,3.9-1.3c0,0,0,0,0.1,0c0.1,0.5,0.1,0.9,0.2,1.4C66.9,72.2,67,72.3,67,72.5z"/>
	</g>
	<path class="st9" d="M59.2,175.8c-1.6-1.2-3.6-1.2-5.5-1.4c1.4-1.2,2.9-2.4,3.7-3c2,2,6.9,6.2,12.4,6.7c2.9,0.2,4.8,3.8,6.9,5.9
		c3.2,3.1,4.1,6.2,4.2,8.7c0,0.3,0,0.5-0.1,0.7c-1-1.6-1.9-3.4-2.9-4.8C72.2,183.5,65,181.6,59.2,175.8z"/>
	<path class="st8" d="M59.2,175.8c5.8,5.8,13,7.7,18.8,12.8c1,1.4,1.9,3.2,2.9,4.8c-0.8,3.5-8.3,3.1-12.9,1.2
		c-4.9-2-10.6-12.5-12.4-14c-1.5-1.2-3.8-3.4-4.4-4c0.6-0.6,1.5-1.4,2.5-2.2C55.6,174.7,57.6,174.7,59.2,175.8z"/>
</g>
<path class="st2" d="M102,112.2c0,6.7-3.8,50.8-3.9,66.2c0,4.5,0,19.8,0,19.8l-6.5-1.5c0,0,0.1-13,0.2-29.6
	c-0.1-0.3-0.3-0.5-0.4-0.8c-0.1-0.1-0.1-0.2-0.2-0.3c-0.1-0.2-0.3-0.5-0.4-0.7c-0.1-0.1-0.2-0.2-0.3-0.4c-0.1-0.1-0.2-0.2-0.3-0.4
	c-0.1-0.2-0.3-0.4-0.5-0.6c-0.1-0.1-0.2-0.2-0.3-0.4c-0.1-0.1-0.2-0.2-0.3-0.4c-0.1-0.1-0.1-0.1-0.2-0.2c-0.1-0.1-0.1-0.1-0.2-0.2
	c0-0.1-0.1-0.1-0.2-0.2s-0.2-0.2-0.2-0.3c-0.1-0.1-0.3-0.3-0.4-0.4c-0.1-0.1-0.2-0.2-0.4-0.4l-0.1-0.1c0,0-0.1-0.1-0.2-0.1
	c0,0,0,0-0.1,0c-0.1-0.1-0.2-0.2-0.4-0.3c-0.3-0.2-0.6-0.5-0.8-0.7v-7.4c-0.1-15-1-29.8-6.3-44.1l2.6,41.5l0.5,7.6
	c0,0-0.1,0-0.1-0.1c-0.3-0.2-0.7-0.5-1-0.7c-0.4-0.2-0.8-0.5-1.1-0.7c-0.4-0.2-0.8-0.5-1.2-0.7c-0.4-0.2-0.8-0.5-1.2-0.7
	c-0.4-0.2-0.8-0.5-1.2-0.7c-0.4-0.2-0.8-0.5-1.2-0.7c-0.4-0.2-0.8-0.4-1.2-0.7c-2.2-1.2-4.4-2.3-6.4-3.4c-0.2-0.1-0.3-0.2-0.4-0.2
	c0,0-0.1,0-0.1-0.1c0,0-0.1,0-0.1-0.1c-0.3-0.2-0.6-0.3-0.9-0.5c-0.7-0.3-1.3-0.7-1.9-1c-0.2-0.1-0.3-0.2-0.5-0.3
	c-0.2-0.1-0.3-0.2-0.5-0.3c-0.2-0.1-0.3-0.2-0.4-0.4c-0.3-0.2-0.5-0.5-0.8-0.8c-0.1-0.1-0.3-0.3-0.4-0.4l-0.4-0.5
	c-0.2-0.3-0.5-0.6-0.8-0.9c-0.2-0.2-0.4-0.5-0.6-0.7c0-0.1-0.1-0.1-0.1-0.1c-0.1-0.2-0.3-0.3-0.4-0.4c-0.1-0.1-0.2-0.2-0.3-0.3
	c0,0,0,0-0.1,0c-0.1-0.1-0.1-0.1-0.2-0.2l-0.3-0.3c-0.1-0.1-0.3-0.2-0.4-0.3c-0.2-0.1-0.3-0.2-0.5-0.3c-0.5-0.1-1-0.2-1.5-0.2
	c-1.2,0-2.4,0.3-3.6,0.7l-11.1,15l-0.6,0.8c-4.3-2.3-8.8-4.3-13.4-6c2.7-9.2,0.4-18.8-0.4-28.5c0,0.5,0,1.1-0.1,1.6v0.1
	c0,0.4,0,0.8-0.1,1.2v0.8c0,0.5,0,0.9-0.1,1.4c0,0.9-0.1,1.7-0.2,2.6c-0.1,0.9-0.2,1.7-0.3,2.6c0,0.5-0.1,1-0.2,1.5
	c0,0.1,0,0.1,0,0.2c-0.1,0.5-0.1,1.1-0.2,1.7c-0.1,0.7-0.2,1.3-0.3,2c-0.1,0.3-0.1,0.7-0.2,1c0,0.1,0,0.3-0.1,0.4
	c0,0.3-0.1,0.6-0.2,0.8c-0.1,0.4-0.2,0.9-0.2,1.3c-0.1,0.5-0.2,1-0.3,1.5c-0.2,1.2-0.5,2.3-0.8,3.5c-0.1,0.5-0.2,0.9-0.4,1.4
	c-0.2,0.7-0.4,1.4-0.6,2.1c2,1.5,4,2.9,6.1,4.4c2.1,1.5,4.2,3,6.2,4.6c0.9,0.7,1.9,1.4,2.8,2c0.3,0.2,0.5,0.4,0.8,0.6
	c2.2,1.6,4.3,3.1,6.5,4.6c-1.4,1.6-2.8,3.3-4.2,5c-2.4-1.5-4.8-3.1-7.3-4.5c-0.8-0.5-1.7-1-2.5-1.4c-2.7-1.5-5.5-2.9-8.4-4
	c-2.6-0.8-6.1-1.7-7-5.2c-0.1-0.5-0.2-1-0.2-1.5c-2-14.3,0.2-28.8,0.2-42.9v-0.4L16,112c-0.2-4.4-0.2-9.3,0.8-13.8
	c1-4.7,2.2-10,5.3-13.5c1.7-1.9,4.5-2.1,7.1-2.2c7.7-0.1,17,1,24-9.3c0,0,8.4,1.5,13.7-1.2c-0.1-0.4-0.2-0.8-0.2-1.1c0,0,0,0,0.1,0
	c0.3-0.1,0.7-0.3,1-0.5l1.4,3.2c0.8,1.5,1.7,2.8,2.9,4c0.7,0.6,1.5,1.2,2.5,1.9l0.1,0.1c0,0,0,0,0.1,0c0.5,0.2,1.5,0.7,2.9,1.2
	c0,0,0,0,0.1,0c2.1,0.7,4.4,1.2,5.7,1.5c0.6,0.1,1.1,0.2,1.2,0.3c1.7,0.3,4.2,0.7,6.5,1.2c2.4,0.5,4.5,1.2,5.6,2.1
	c3.1,2.6,4.5,6.5,4.7,10.5v0.4C101.6,97.6,102,109.5,102,112.2z"/>
<path class="st0" d="M78.3,14.7c0,0-2.9,5-3.7,11.3s0,8,0,8s-4.4,3.1-11.8,3c-7.4-0.1-9.9-0.8-11.3-0.6c-1.4,0.1-3.9,1.1-4.1,2.2
	c-0.2,1-1.3,19.6,0.3,23.6S38,56.5,38,56.5l12.1-24.4l17.3,1.4C67.4,33.5,75.2,14.8,78.3,14.7z"/>
<polygon class="st0" points="78.2,14.5 78.3,14.7 77.8,15.4 77.1,14.7 "/>
</svg>
