<svg xmlns="http://www.w3.org/2000/svg" viewBox="0 0 460.07 371.84"><defs><style>.cls-1{fill:#e5e8f2;}.cls-2{fill:#7f39fa;}.cls-3{fill:#56d5f4;}.cls-4{fill:#b5bae0;}.cls-5{fill:#f9a77b;}.cls-6{opacity:0.23;}.cls-7{fill:#f4986c;}.cls-8{fill:#fff;}.cls-9{fill:#c277ff;}</style></defs><title>Blog-girl</title><g id="Calque_2" data-name="Calque 2"><g id="Calque_1-2" data-name="Calque 1"><path class="cls-1" d="M257.9,307c77.81.31,207.48,5.35,202,17.2S348.2,388.07,133,366.77C-.26,353.59-130,305.45,257.9,307Z"/><path class="cls-2" d="M258.24,59.34s-.38-5.8-1.47-8.31q-2-4.53-3.95-9.06a4.22,4.22,0,0,0-1.47-2.07c-1.29-.75-2.87.05-4.34.28a6.19,6.19,0,0,1-2.31-.09c1.78,5.92,6.66,10.12,9.28,16,4.48,8.22-1.31,17.17,4.27,24.69A121.11,121.11,0,0,0,258.24,59.34Z"/><path class="cls-3" d="M320.41,354.82q-22.85-.72-45.6-1.65l-89.09-3.7-1.36-.06c-28.6-1.13-57.39-.81-85.86-2.66a224.17,224.17,0,0,1-32.25-4c-11.54-2.47-21.87-6.32-32.1-10.14-6.63-2.48-13.33-5-18.68-8.26a35.67,35.67,0,0,1-5.21-3.84c-8.22-7.36-3.39-21,7.63-21.7,37.8-2.34,142-8.83,161.11-10.73a296,296,0,0,0,45.77-3.19c46,.13,92.13,1.81,139.27-1.4a6.38,6.38,0,0,0,1.8-.45c19.79-.38,58.93,2.79,60,33.6C427.31,358,382.24,356.76,320.41,354.82Z"/><path class="cls-1" d="M126.46,229.73l65,68.12,13.71-.42-.31-.31,67.68-3.45a4.79,4.79,0,0,0,3.36-1.55,4.9,4.9,0,0,0,1.39-3.43,5,5,0,0,0-5.26-5l-76.7,3.9-61.75-64.92a5,5,0,1,0-7.09,7.06Z"/><path class="cls-4" d="M104.92,304l88.2-6-65.05-76.31-97.72,3.11a2.39,2.39,0,0,0-1.62,4.08Z"/><path class="cls-5" d="M205.18,201.68a2.13,2.13,0,0,1-.3-.25c-7.6-12.92,2.28-28.88,2.28-41-.6-3.62-5.06-7.73-9.91-11.17a42.78,42.78,0,0,0-3.55,11.47c-4.76,29.37-4.36,61.52-14.29,71.44S152,250.39,152,250.39l12.7,15.87s30.56-19,34.53-26.59,8.73-31,8.73-31,.2.28.53.83C208.79,206.84,206.2,204.44,205.18,201.68Z"/><g class="cls-6"><path class="cls-1" d="M204.88,200.67a6.91,6.91,0,0,0,.3,1C206,202.22,204.19,198.59,204.88,200.67Z"/></g><g class="cls-6"><path class="cls-1" d="M233.76,113.3a45.57,45.57,0,0,0,3-3.5c-.47.4-.95.8-1.45,1.19A7.36,7.36,0,0,0,233.76,113.3Z"/></g><path class="cls-7" d="M241.53,105.18c-1.4,1.52-5.42,4.95-7.09,6.39-.16,1,1.1,6-1.84,8.24a13.91,13.91,0,0,1-2.06,1.08c-.1,3.09,1.47,5.62,4.74,7.58,10.64,6.08,22.8,3,32.69-3a25.55,25.55,0,0,0,5.55-5.19c-3.11-2-13.31-5.57-17.26-11.06,0,0-5.74-12.26-1.56-32-1.72,10.36-5.55,19.74-13.17,28"/><path class="cls-5" d="M215.45,47.47c-14.09,1.62-21.85,12.18-19.76,33.05,2.77,27.78,22.27,36.7,28.18,38.89,3.06,1.14,7.19-3.21,9.89-6.11a7.36,7.36,0,0,1,1.52-2.31c.5-.39,1-.79,1.45-1.19l.23-.31,0,.12a53.81,53.81,0,0,0,4.59-4.43C242.27,83.4,228.44,64.51,215.45,47.47Z"/><path class="cls-7" d="M231.41,48.77a47.34,47.34,0,0,0-16-1.3c13,17,26.82,35.93,26.08,57.71,7.62-8.23,11.45-17.61,13.17-28C249.69,64,242.17,51.28,231.41,48.77Z"/><path class="cls-8" d="M263,128.14c-8.81,4.12-18.79,5.42-27.7.33q-4.91-2.94-4.73-7.58c-6.5,3-25,10.63-33.31,28.33,4.87,3.44,9.32,7.55,9.92,11.17,0,12.16-9.88,28.12-2.28,41a1.15,1.15,0,0,0,.31.25,5.9,5.9,0,0,1-.31-1c-.69-2.08,1.15,1.55.31,1,1,2.76,3.6,5.16,3.33,7.86,2.4,4,11.64,22.81.5,60.66,4.83,1.18,10,3.85,13.34,1.15,33-21.29,41.26-56.76,42.46-92v0a.48.48,0,0,0,0-.18c.09-1.26.22-5.54.35-10.13h0l0-1c.13-4.52.25-9.13.3-11.29C266.66,146.82,266.83,136.77,263,128.14Zm1.28,43a13.87,13.87,0,0,1,.7-1.65A16.69,16.69,0,0,0,264.26,171.1Z"/><path class="cls-8" d="M264.26,171.1a13.87,13.87,0,0,1,.7-1.65A16.69,16.69,0,0,0,264.26,171.1Z"/><path class="cls-8" d="M265.38,167.83c0,.3,0,.59,0,.87h0a2.54,2.54,0,0,0-.16.28l0-1Z"/><path class="cls-8" d="M264,168a1.24,1.24,0,0,0-.09.59Z"/><path class="cls-4" d="M299.33,144.52c-9,9.27-24,13.2-32.89,22.71a5.79,5.79,0,0,0-.84,1.08l-.24.4h0c0-.28,0-.57,0-.87l-.15.12c.13-4.52.25-9.13.3-11.29,1.13-9.84,1.3-19.89-2.55-28.52a48.86,48.86,0,0,0,5-2.71,25.84,25.84,0,0,0,5.56-5.19c6.55,4.15,12.23,4.13,21.39,15.44A23.59,23.59,0,0,1,299.33,144.52Z"/><path class="cls-5" d="M265,169.45a16.69,16.69,0,0,0-.7,1.65A13.87,13.87,0,0,1,265,169.45Z"/><path class="cls-5" d="M290.94,188.47a115.71,115.71,0,0,0-2.63,14.26c-7,26.78-15.5,51.57-38.59,67.86a90.38,90.38,0,0,1-54.67,17.52c2-.37,2.3-.56.25-.52-15.07.29-12.71-3.47-7.15-13S208.78,271,208.78,271c.09-.28.16-.54.24-.82,4.83,1.18,10,3.85,13.34,1.15,33-21.29,41.26-56.76,42.46-92v0a.48.48,0,0,0,0-.18c.09-1.26.22-5.54.35-10.13h0a2.69,2.69,0,0,1,.16-.29q.12-.21.24-.39a5.79,5.79,0,0,1,.84-1.08c8.93-9.51,23.88-13.44,32.89-22.71C303.79,161.18,292.61,182.8,290.94,188.47Z"/><path class="cls-8" d="M249.72,270.59A91.4,91.4,0,0,1,220,284.92c21.54.11,43.15,1.36,65.1-.32-5-14.81-5.53-32.86-8.43-47.42C270.67,250.16,262.39,261.66,249.72,270.59Z"/><path class="cls-4" d="M297.07,283.06a37.57,37.57,0,0,0-6.13.67s-6.35-28.58-5.56-48c.47-11.53,1.64-23.63,2.93-33-3.15,12.09-6.62,23.77-11.6,34.45,2.9,14.56,3.42,32.61,8.43,47.42,3.64-.28,7.29-.63,10.95-1.09A2.18,2.18,0,0,0,297.07,283.06Z"/><path class="cls-5" d="M231.21,331.47c-4.56-4.54-6.07-11-9.56-16-4.41-6.84-14.69-1.52-21.31,3-6.61,3.8-11-3-17.63-3-5.87.76-11.75,3-18.36,3.8,7.48,7.23,17.67,11.29,28.27,14.12.12-.15.24-.29.38-.44-.14.15-.26.29-.38.44,5,1.33,10.12,2.39,15.07,3.37,4.41.76,7.35,4.56,11,6.84,3.55,1.83,6.63,1.69,8.89.27l-1.55-1,1.55,1C230.93,341.74,232.5,336.88,231.21,331.47Z"/><path class="cls-7" d="M218.71,343.56c-3.67-2.28-6.61-6.08-11-6.84-4.95-1-10.06-2-15.07-3.37a6,6,0,0,0-.36,7.17,34.07,34.07,0,0,1,1.39,9c15.7,1.18,31.35,2.52,47,3.7-3.9-3.67-8.92-6.61-13.07-9.34C225.34,345.25,222.26,345.39,218.71,343.56Z"/><path class="cls-2" d="M242.15,9.45c7.39-4.44,17.51-7.77,25.51-5.18a14.55,14.55,0,0,0-2.61-1.79c-5.88-3.22-13.22-3.12-19.5-.75S234,8.52,229.49,13.53c-2.09,2.35-4.08,5-4.67,8.07s.34,6.42,1.09,9.65a28.71,28.71,0,0,0-6.72.93c4.28,1.63,8.94.66,13,2.27C226.15,24.45,234.15,15.45,242.15,9.45Z"/><path class="cls-9" d="M285.21,36.26c-1.5-1.91-2.71-11.75-4.33-13.55-4.83-5.39-7-4.54-9.18-11.45a17.38,17.38,0,0,0-2.3-5.14,10.88,10.88,0,0,0-1.74-1.85c-8-2.59-18.12.74-25.51,5.18-8,6-16,15-10,25-4-1.61-8.68-.64-13-2.27a39.66,39.66,0,0,0-4.37,1.38,41.79,41.79,0,0,0-15.49,9.67,26,26,0,0,0-7.62,16.33c-.36,6.3,3.31,19.06,3.31,19.06,1.36-7.14,7.67-12.71,8.46-19.93,2.3,2.93,4.79,5.86,8.11,7.54,3.06,1.55,6.55,1.9,9.9,2.6s6.83,1.92,8.94,4.62c1.28,1.64,2.66,4,4.66,3.5a4.05,4.05,0,0,0,1.34-.79,5.7,5.7,0,0,1,2.76-1.43c2-.2,3.56,1.84,3.76,3.82s-.53,3.91-1,5.85c-.87,3.91,2.91,7.79,3.26,11.78.07.79,4.29,7.18,7.12,8.56.26.12,4.46-7.7,4.59-8.12,2.19-7.53.6-8,1.29-15.81-5.58-7.53.21-16.48-4.27-24.7,0-.1-.09-.21-.15-.31a13.27,13.27,0,0,0,4.12.89c10.1.19,9.2-.47,18-5.4C282.55,47.6,286.7,38.17,285.21,36.26Z"/></g></g></svg>