<?xml version="1.0" encoding="utf-8"?>
<!-- Generator: Adobe Illustrator 22.0.1, SVG Export Plug-In . SVG Version: 6.00 Build 0)  -->
<svg version="1.1" id="Calque_1" xmlns="http://www.w3.org/2000/svg" xmlns:xlink="http://www.w3.org/1999/xlink" x="0px" y="0px"
	 viewBox="0 0 386 486" style="enable-background:new 0 0 386 486;" xml:space="preserve">
<style type="text/css">
	.st0{fill:#FFFFFF;}
	.st1{fill:#B5BAE0;stroke:#B5BAE0;stroke-width:6.5502;stroke-linecap:round;stroke-miterlimit:10;}
	.st2{fill:#E5E8F2;}
	.st3{fill:none;stroke:#E5E8F2;stroke-width:3.9301;stroke-linecap:round;stroke-miterlimit:10;}
	.st4{fill:#FC6DE6;}
	.st5{fill:#F2C5F3;}
	.st6{fill:#F4986C;}
	.st7{fill:#F9A77B;}
	.st8{fill:#FF841F;}
	.st9{fill:#B5BAE0;}
	.st10{opacity:0.31;fill:#B5BAE0;}
	.st11{fill:#F7F8FC;}
	.st12{fill:#7F39FA;}
	.st13{fill:#C277FF;}
	.st14{opacity:0.45;fill:#B5BAE0;}
	.st15{fill:#3248E7;}
	.st16{fill:#FFD6C7;}
	.st17{fill:#56D5F4;}
	.st18{fill:#B5BAE0;stroke:#E5E8F2;stroke-width:6.5502;stroke-linecap:round;stroke-miterlimit:10;}
	.st19{fill:#242951;}
</style>
<g>
	<g>
		<g>
			<path class="st0" d="M349.7,123.1v72.2c0,3.8-3.1,6.9-6.9,6.9H13.6c-3.8,0-6.9-3.1-6.9-6.9V56.7c0-3.8,3.1-6.9,6.9-6.9h232.9
				c-1.6,5.7-2.4,11.7-2.4,17.9c0,37.2,30.2,67.4,67.4,67.4C325.7,135,338.9,130.6,349.7,123.1z"/>
			<line class="st1" x1="90" y1="375.4" x2="105.7" y2="279.5"/>
			<line class="st1" x1="195.2" y1="382.6" x2="180.3" y2="280.6"/>
			<path class="st2" d="M247.1,190.9l-43,43l-7.7-0.2l0.2-0.2l-37.8-1.9c-0.7,0-1.4-0.4-1.9-0.9c-0.5-0.5-0.8-1.2-0.8-1.9
				c0-1.6,1.3-2.9,2.9-2.8l42.8,2.2l41.2-41.2c0.6-0.6,1.3-0.8,2-0.8c0.7,0,1.4,0.3,2,0.8C248.1,188.1,248.1,189.8,247.1,190.9z"/>
			<line class="st3" x1="28.1" y1="95.7" x2="69.9" y2="95.7"/>
			<line class="st3" x1="28.1" y1="106.4" x2="102.4" y2="106.4"/>
			<line class="st3" x1="109.1" y1="117" x2="150.9" y2="117"/>
			<line class="st3" x1="86.7" y1="127.6" x2="128.5" y2="127.6"/>
			<line class="st3" x1="141.6" y1="138.3" x2="183.4" y2="138.3"/>
			<line class="st3" x1="170.7" y1="148.9" x2="237.4" y2="148.9"/>
			<line class="st3" x1="226.1" y1="159.5" x2="253.8" y2="159.5"/>
			<line class="st3" x1="151.8" y1="170.2" x2="287.7" y2="170.2"/>
			<line class="st3" x1="277.1" y1="180.8" x2="316.3" y2="180.8"/>
			<g>
				<path class="st4" d="M105.7,270.7l1.5-2.5l-4.9-89.3c-1.7-5.5-8.2-8.7-13.9-7.7c-5.7,1-10.4,5.4-13,10.5
					c-2.6,5.2-3.4,11-3.8,16.8c-0.9,14.8,1,29.6,1.1,44.5c0.1,9.6,0.8,24.7,9.2,31.7c8.9,7.4,18.3,5.8,27.3,6.8
					C106,279.1,105.4,275.2,105.7,270.7z"/>
			</g>
			<g>
				<path class="st5" d="M199.5,268.7l-93.7,2c-0.4,4.5,0.3,8.4,3.5,10.9c0.9,0.1,1.8,0.2,2.7,0.4c9.2,1.7,53.6-0.2,69.9-0.2
					c6,0,12.3-2.5,15.8-6.3C201.3,271.5,202,273.5,199.5,268.7z"/>
			</g>
			<path class="st6" d="M155.8,137.8c-0.8-0.2-1.3,0.1-1.3,0.1l1.4-3l1.7-3.8c-2.4-3.4-12.7-7.9-21.7-11.4c2.2,5.8,4.8,8.6,4.8,8.6
				l-4.9,3.9C140,140.1,149.5,145.9,155.8,137.8z"/>
			<path class="st7" d="M161.7,90.2c-4.5,2-22-6-24.5,11.3c-1.3,9,0.1,15.6,1.7,19.9c6.2,2.4,15,10.9,19.1,11.4
				c1.3,0.2,5.3-5.2,8.3-10.4c-0.9-10.4-0.9-20.8-0.9-31.2C164.3,90.2,163.1,89.6,161.7,90.2z"/>
			<path class="st6" d="M169.5,113.7c-0.4-4.9,1-11.3,0.8-12.7c-0.2-1-2.1-7.1-4.9-9.8c0,10.4,0,20.8,0.9,31.2
				C168.3,119,169.7,115.7,169.5,113.7z"/>
			<path class="st8" d="M245.3,258.6l-30.6,185.3l-31.6,2.1l24.6-128.8l30.3-63.3c2.4-4.7,1.5-10-1.3-13.7
				C244.6,241.9,249.2,250.9,245.3,258.6z"/>
			<path class="st9" d="M160.1,183.6c-0.3,0.5-0.6,0.8-0.9,1.1c0.2-0.3,0.4-0.6,0.7-0.9C160,183.7,160.1,183.6,160.1,183.6z"/>
			<path class="st10" d="M176.6,212.8l-4.8,6.8c-5.3-1.7-11.6-4.7-19.1-10.6c0,0,2.3-16.1,6-23.3
				C160.5,194.2,166.4,203.6,176.6,212.8z"/>
			<path class="st9" d="M151.6,209.5l8.6,5c0,0-19.6-10.2-21.6-14.6c-2-4.3-0.5-43.2-0.5-46.9s0.8-13.4-7.4-14.1
				c-1.2-0.1-2.3,0-3.2,0.3c1.3-0.8,2.9-1.2,4.9-1.1c8.2,0.7,7.4,10.4,7.4,14.1c0,3.7-1.9,43.9,0.1,48.3
				C141.9,204.9,151.6,209.5,151.6,209.5z"/>
			<path class="st11" d="M158,222.5l-0.3,1.7c0,0-26.3-6.2-32.7-17.1c-6.4-10.9-5.9-48.7-5.5-53.4c0.2-3,0.9-7.9,3.6-10.8
				c-1.8,2.9-2.3,6.8-2.5,9.3c-0.3,4.7-0.8,42.5,5.5,53.4C131.9,215.4,153.5,221.4,158,222.5z"/>
			<line class="st9" x1="178.9" y1="214.3" x2="174.1" y2="220.7"/>
			<path class="st12" d="M170.1,101.3c0,0-1-7.1-6.7-11.7c0,0-1.4-18-15.6-21.1C187.5,67.2,170.1,101.3,170.1,101.3z"/>
			<path class="st13" d="M154.2,68.4c-37.4-5.8-38.4,42.5-23.4,50.4c6.9,3.6-30.7-1-37.9,11.8c-6.8,12-2.1,19.2-3.8,30.1
				c-1.8,11.6-9.4,24.3-8.2,29.3c4.4,19.2,19.2,21.7,22.6,30.8c2.8,7.5,9.9-40.2,10.4-47.5c0.2-2.5,0.6-5.4,1-8.2
				c-1.3-15.9,6.5-36.3,23.4-38.3c1.1-5.2,0.5-4.7-0.2-8.3c-1-5.4-0.6-7,2-11.2c2.6-4.3,4.4-6.3,6-8.1c3.9-4.1,12-7.2,17.6-8.4
				c1.7-0.4,2.1-7.3,2.7-8.4C168.5,78.1,172.7,71.2,154.2,68.4z"/>
			<path class="st6" d="M200.7,229.8l-0.5,0.6c0,0,0,0-0.1-0.1C200.3,230.1,200.5,229.9,200.7,229.8z"/>
			<path class="st14" d="M200.7,229.8c3.4-2.6,6-6.6,6.2-6.9L200.7,229.8z M158.9,185.1c0.1-0.1,0.1-0.1,0.2-0.2c0-0.1,0-0.1,0-0.1
				C159,184.9,159,185,158.9,185.1z"/>
			<path class="st7" d="M200.1,230.2c-1.4,1-2.9,1.7-4.4,1.7c-2.8,0.1-13.7-2.7-24-5.6c-4.8-1.3-9.4-2.6-12.9-3.7l1.4-8.1
				c0,0,6.7,4.3,11.6,5.1c0.2,0.1,0.5,0.1,0.7,0.2c9.2,2.7,15.1,1.1,18,2.5C194.8,224.4,199.4,229.4,200.1,230.2z"/>
			<path class="st6" d="M207,222.8L207,222.8l-6.3,6.9c-0.2,0.2-0.4,0.3-0.6,0.5c-0.7-0.8-5.3-5.9-9.6-7.9c-3-1.4-9.2,0.3-18.8-2.7
				l4.8-6.7l0.1-0.1c0.2,0.2,0.5,0.5,0.7,0.7C187.6,222.5,207,222.8,207,222.8z"/>
			<path class="st6" d="M176.5,212.9l-4.8,6.7c-4.5-0.7-10.6-4.5-11.4-5c0,0,0,0-0.1,0c0,0-0.1,0-0.1,0s-0.9-0.5-2.4-1.3
				c-0.2-0.1-0.4-0.2-0.7-0.4c0,0,0,0,0,0c-0.4-0.2-0.9-0.5-1.3-0.7c-1.2-0.7-2.5-1.4-3.9-2.2c-0.1,0-0.1-0.1-0.2-0.1
				c0,0-0.1,0-0.1-0.1c0.9-5,3.6-18.6,7-24.1c0,0.1,0,0.1,0,0.2C160.3,193.3,167.6,204.1,176.5,212.9z"/>
			<path class="st9" d="M151.6,209.7c0,0,0.1,0,0.1,0.1c0.1,0,0.1,0.1,0.2,0.1c-0.1,0-0.2,0.1-0.2,0.1"/>
			<path class="st9" d="M159.1,184.8c0,0,0,0.1,0,0.1c-0.1,0.2-0.4,0.8-0.4,0.9c0-0.1,0-0.1,0-0.2c0.1-0.2,0.2-0.3,0.3-0.5
				C159,185,159,184.9,159.1,184.8z"/>
			<path class="st9" d="M172.5,219.8c-0.2-0.1-0.5-0.1-0.7-0.2C172,219.7,172.3,219.7,172.5,219.8z"/>
			<circle class="st15" cx="37.4" cy="64.6" r="2.6"/>
			<circle class="st15" cx="47.1" cy="64.6" r="2.6"/>
			<circle class="st15" cx="111.1" cy="106.4" r="2"/>
			<circle class="st15" cx="190.8" cy="138.3" r="2"/>
			<circle class="st15" cx="245.9" cy="148.8" r="2"/>
			<circle class="st15" cx="261.7" cy="159.6" r="2"/>
			<circle class="st15" cx="294" cy="170" r="2"/>
			<circle class="st15" cx="323" cy="180.7" r="2"/>
			<circle class="st15" cx="76.8" cy="95.7" r="2"/>
			<path class="st2" d="M367.5,66.1c0,31.1-25.2,56.3-56.3,56.3s-56.3-25.2-56.3-56.3c0-2.6,0.2-5.2,0.5-7.8l55.8,7.8l53.3-18.1
				C366.4,53.6,367.5,59.7,367.5,66.1z"/>
			<path class="st16" d="M341.8,18.8l-30.7,47.2l-51.1-23.6c8.9-19.3,28.5-32.7,51.1-32.7C322.5,9.8,333,13.1,341.8,18.8z"/>
			<path class="st15" d="M241.7,36.3"/>
			<path class="st17" d="M378.8,37.3l-53.3,18.1l30.7-47.2C366.7,15,374.7,25.2,378.8,37.3z"/>
			<path class="st4" d="M313.3,71.8l-55.8-7.8v0c0.8-5.6,2.4-10.9,4.7-15.8L313.3,71.8z"/>
			<path class="st9" d="M236.4,236.5l-32.3-2.6l40.8-47.7l37.6,1c1.2,0,1.7,1.4,0.9,2.3L236.4,236.5z"/>
			<line class="st18" x1="68.8" y1="385.5" x2="97.6" y2="280.6"/>
			<line class="st18" x1="157.5" y1="388.9" x2="175.2" y2="279.5"/>
			<path class="st19" d="M204.2,348.4"/>
			<path class="st12" d="M138.6,119.5c0,0,1.8,6.2-0.4,9.8c-1.8,2.9-15.1,1.9-22.5,43.6c-1.7,9.6-3.9,19.7-6.9,33.6
				c-7.4-30.7,2.3-73.1,12.1-77.1S138.6,119.5,138.6,119.5z"/>
			<path class="st11" d="M161.2,143.2c-2.4-4.1-4.3-5.2-5.4-5.4c-6.2,8.1-15.8,2.2-20-5.5l-0.3,0.2c0,0-1.2-0.1-3,0.6
				c-5.1,2-15.5,10.1-21.8,42.5c-3.6,18.9-6.7,36.1-6.4,49.4c0,1.3,0.1,2.6,0.2,3.9l49.3,2.2c-0.1-0.7-0.5-2.4-0.9-4.3
				c-0.4-2.2-0.5-5.9-0.5-7.4c0,0-19.8-2.9-26.1-13.8c-6.4-10.9-5.9-48.7-5.5-53.4c0.3-4.7,1.8-13.9,10-13.2
				c8.2,0.7,7.4,10.4,7.4,14.1s-1.5,42.5,0.5,46.9c0.1,0.1,0.1,0.3,0.2,0.4c0.1,0.1,0.2,0.3,0.3,0.4c1.7,2,5.8,4.9,10,7.5
				c0.8,0.5,1.6,1,2.4,1.4c0,0,0,0,0,0c0.9-5,3.6-18.6,7-24.1c0,0,0,0,0-0.1c0,0,0-0.1,0-0.1c0,0,0.1-0.1,0.3-0.2c0,0,0-0.1,0.1-0.1
				c0.1-0.1,0.1-0.2,0.2-0.3c0,0,0,0.1,0,0.1c0.1-0.1,0.1-0.2,0.2-0.3c0.3-0.3,0.6-0.6,0.9-1.1c0,0,0,0,0,0c1.2-1.7,2.7-4.8,3.7-9.6
				C165.5,165.3,165.3,150.2,161.2,143.2z"/>
			<path class="st11" d="M138.1,153c0-3.7,0.8-13.4-7.4-14.1c-1.2-0.1-2.3,0-3.2,0.3c0,0,0,0,0,0c-1.9,0.6-3.3,1.9-4.3,3.6
				c0,0,0,0,0,0c-1.8,2.9-2.3,6.8-2.5,9.3c-0.1,1.4-0.2,5.8-0.2,11.6c6.2-0.7,12.4-2.5,17.5-5.6C138,155.6,138.1,153.7,138.1,153z"
				/>
			<path class="st7" d="M138.6,199.9c-1.6-3.6-0.9-30.1-0.6-41.8c-5.1,3.1-11.3,4.9-17.5,5.6c0.1,13.4,1.2,34.2,5.7,41.9
				c5.7,9.7,27.2,15.7,31.8,16.9c0.6,0.1,0.9,0.2,0.9,0.2l0.2-1.2l1.1-7.1C160.2,214.5,140.6,204.3,138.6,199.9z"/>
		</g>
		<g>
			<path class="st0" d="M222.5,465.1c-6.5-2.1-21.4-3.2-21.4-3.2l-12.1,0.9l2.6,6.1C201.2,466.5,213.1,473.3,222.5,465.1z"/>
			<path class="st9" d="M225.3,466.8c-0.3-0.6-1.4-1.2-2.9-1.6c-9.4,8.2-21.3,1.4-30.9,3.8l0.7,1.7
				C192.4,470.7,226.9,470,225.3,466.8z"/>
		</g>
		<polygon class="st6" points="191.3,462.5 189.4,444.8 201.3,444.3 199.6,461.9 		"/>
	</g>
	<path class="st16" d="M240.8,255.7l-68.2,202.4l-28.4-17.2l54-168.4c0,0-49.8,2.4-81.1,1.3c-19-0.7-24.4-19.2-12.7-44.9l49.3,2.2
		c0,0.2,0.1,0.3,0.1,0.3l73.2,3.7c4,0.2,7.4,2.2,9.6,5C239.5,243.9,243.2,251,240.8,255.7z"/>
	<g>
		<path class="st9" d="M144.7,471.8c0,0,24.8,8.3,23.9,5.3c-0.1-0.3-0.3-0.7-0.7-1.1c-8.1-0.6-14.8-5.2-22.4-6.5L144.7,471.8z"/>
		<path class="st0" d="M154.7,465.3l-6.5-2.4l-2.6,6.5c7.5,1.3,14.3,5.9,22.4,6.5C165.2,472.4,154.7,465.3,154.7,465.3z"/>
	</g>
	<polygon class="st7" points="148.2,462.9 152.9,446.2 160.6,451.4 155.8,465.6 	"/>
</g>
</svg>
