<svg id="Calque_1" data-name="Calque 1" xmlns="http://www.w3.org/2000/svg" viewBox="0 0 87.15 78">
  <title>LauraDemessine_website</title>
  <g>
    <g>
      <path d="M30.42,34.18a6.3,6.3,0,0,0,0-12.17l-.18,0A6.31,6.31,0,0,0,28,9.77H12.23v.59h.62a1,1,0,0,1,1,1V32.81a1,1,0,0,1-1,1h-.62v.59H28.78A5.38,5.38,0,0,0,30.42,34.18Zm-3-14.6a2.21,2.21,0,0,1-2.2,2.21H22.34V10.36h2.84a2.21,2.21,0,0,1,2.2,2.2Zm0,5v7a2.21,2.21,0,0,1-2.2,2.21H22.34V22.38h2.84A2.21,2.21,0,0,1,27.38,24.58Z"/>
      <path d="M36.07,15.72l.91-.55h.12a.4.4,0,0,1,.4.38V32.81a1,1,0,0,1-1,1h-.62v.59H47.62v-.59H47a1,1,0,0,1-1-1V10h0A5.51,5.51,0,1,0,39,1.55a5.51,5.51,0,0,0-1.55,4,3.42,3.42,0,0,0,3.42,3.42h.1a3.47,3.47,0,0,0,3.33-3.33,3.44,3.44,0,0,0-4.62-3.31.21.21,0,0,1-.27-.12.19.19,0,0,1,0-.22,5,5,0,0,1,4-1.31A4.64,4.64,0,0,1,46.9,2.68a4.94,4.94,0,0,1-1.2,6.78l-2.42,1.4-1.7,1h0l-5.79,3.34Z"/>
      <path d="M61,34.72a13.05,13.05,0,0,0,4.1-.68A11.38,11.38,0,0,0,67,33.23l.06,0h0a4.73,4.73,0,0,1,2.16-.54,4.56,4.56,0,0,1,3.54,1.67l.07.08h.5V23.45a1,1,0,0,1,1-1h.62v-.59H63.19v.59h.62a1,1,0,0,1,1,1v9.33a1,1,0,0,1-.66.93l0,0-.09,0h-.06a13.21,13.21,0,0,1-1.66.32h-.45a7.86,7.86,0,0,1-.84,0,8,8,0,0,1-.87,0h-.23a.65.65,0,0,0-.19,0,3,3,0,0,1-2.53-3v-18a3,3,0,0,1,2.39-3h.06l.28,0a2.72,2.72,0,0,0,.31,0h.38a6.42,6.42,0,0,1,.76,0h.38c.11,0,.23,0,.34,0l.29,0a11.91,11.91,0,0,1,5,1.78l.11.08a.42.42,0,0,1,.14.29.38.38,0,0,1-.28.37l-.14,0a3.44,3.44,0,1,0,3.11,5.81,3.57,3.57,0,0,0,.86-2.43,3.74,3.74,0,0,0-.28-1.49,2.09,2.09,0,0,0-.1-.21l0,0A4.05,4.05,0,0,0,70.6,14l-.27-.38,0-.05-.07-.08a1.57,1.57,0,0,0-.19-.18A10.34,10.34,0,0,0,68.62,12l-.25-.18A12.63,12.63,0,1,0,61,34.72Z"/>
      <path d="M42.1,39.39,43,37.94l-.59-.36-.86,1.49a12.46,12.46,0,0,0-6-1.54A12.64,12.64,0,0,0,28.87,61L28,62.4l.58.36.84-1.49a12.62,12.62,0,0,0,18.66-11.1A12.75,12.75,0,0,0,42.1,39.39ZM36.84,38.2a3,3,0,0,1,2.46,3v1.72l-6.92,12a.4.4,0,0,1-.72-.19V41.16a3,3,0,0,1,2.45-3h0a3.75,3.75,0,0,1,.56-.05,9.9,9.9,0,0,1,1.54,0A3.68,3.68,0,0,1,36.84,38.2ZM34.23,62.14a3,3,0,0,1-2.57-3V57.46l6.88-11.9.09-.15a.38.38,0,0,1,.67.22V59.18a3,3,0,0,1-2.54,3l-.19,0-.22,0a8.33,8.33,0,0,1-.87,0,7.68,7.68,0,0,1-.84,0l-.22,0Z"/>
      <path d="M18.18,50.09l-.18,0a6.31,6.31,0,0,0-2.26-12.2H0v.6H.62a1,1,0,0,1,1,1V60.9a1,1,0,0,1-1,1H0v.6H16.55a5.36,5.36,0,0,0,1.64-.23,6.3,6.3,0,0,0,0-12.17Zm-3-2.42a2.21,2.21,0,0,1-2.2,2.2H10.11V38.45H13a2.21,2.21,0,0,1,2.2,2.2Zm0,5v7a2.21,2.21,0,0,1-2.2,2.2H10.11V50.47H13A2.21,2.21,0,0,1,15.15,52.67Z"/>
      <path d="M64.71,48.23A7.85,7.85,0,0,0,62,46.69a3,3,0,0,0-.44-.14L56,44.83a3.47,3.47,0,0,1-2.46-3.29,3.42,3.42,0,0,1,3.42-3.42h.8A8.48,8.48,0,0,1,63,39.93l0,0a.29.29,0,0,0,.08.07.31.31,0,0,1,.08.23.38.38,0,0,1-.31.38l-.07,0h0a2.63,2.63,0,1,0,2.65,4,2.75,2.75,0,0,0,.38-1.45,3,3,0,0,0-.22-1.11,1,1,0,0,0-.15-.3l-.06-.12a2.92,2.92,0,0,0-.23-.34,9,9,0,0,0-7.41-3.86h-.83a8.42,8.42,0,0,0-1.66.17,8.26,8.26,0,0,0-3.7,14.41,7.72,7.72,0,0,0,2.68,1.55l.11,0a2.68,2.68,0,0,0,.35.1l5.57,1.72a3.38,3.38,0,0,1,2.48,3.29,3.42,3.42,0,0,1-3.41,3.42H56.74A8.28,8.28,0,0,1,52.45,61l-.1,0a.41.41,0,0,1-.15-.32.43.43,0,0,1,.31-.37h.1a3.45,3.45,0,1,0-3.25-5.55,4,4,0,0,0-.63,2.13,4,4,0,0,0,.2,1.29,4.51,4.51,0,0,0,.43.85l.11.16.09.09a9.12,9.12,0,0,0,7.11,3.53h2.66A7.88,7.88,0,0,0,61,62.64a8.28,8.28,0,0,0,3.73-14.41Z"/>
      <path d="M84.25,48.23a7.85,7.85,0,0,0-2.7-1.54,2.71,2.71,0,0,0-.45-.14l-5.62-1.72A3.48,3.48,0,0,1,73,41.54a3.42,3.42,0,0,1,3.41-3.42h.81a8.44,8.44,0,0,1,5.24,1.81l.05,0,.08.07a.32.32,0,0,1,.09.23.39.39,0,0,1-.31.38l-.08,0h0a2.62,2.62,0,0,0,.44,5.21A2.6,2.6,0,0,0,85,44.71a2.71,2.71,0,0,0,.38-1.45,2.74,2.74,0,0,0-.22-1.1.69.69,0,0,0-.15-.31l0-.12a2.92,2.92,0,0,0-.23-.34,9.07,9.07,0,0,0-7.41-3.86h-.84a8.27,8.27,0,0,0-5.36,14.58,7.67,7.67,0,0,0,2.69,1.55l.11,0a2.3,2.3,0,0,0,.35.1l5.57,1.72a3.39,3.39,0,0,1,2.48,3.29,3.42,3.42,0,0,1-3.42,3.42H76.28A8.35,8.35,0,0,1,72,61l-.09,0a.38.38,0,0,1-.15-.32.43.43,0,0,1,.3-.37h.11a3.45,3.45,0,1,0-3.26-5.55,3.94,3.94,0,0,0-.62,2.13,3.59,3.59,0,0,0,.2,1.28,3.82,3.82,0,0,0,.42.86l.11.16.09.09a9.14,9.14,0,0,0,7.11,3.53h2.66a8.05,8.05,0,0,0,1.66-.17,8.28,8.28,0,0,0,3.73-14.41Z"/>
    </g>
    <path d="M23,72.07a1.52,1.52,0,0,0-.81.2.67.67,0,0,0-.32.61.7.7,0,0,0,.32.63,5,5,0,0,0,1.35.47,3.66,3.66,0,0,1,1.56.7A1.68,1.68,0,0,1,25.63,76,1.78,1.78,0,0,1,25,77.45a2.67,2.67,0,0,1-1.74.55,4.14,4.14,0,0,1-2.81-1.09l.71-.86a3.25,3.25,0,0,0,2.13.89,1.45,1.45,0,0,0,.87-.24.76.76,0,0,0,.32-.63.69.69,0,0,0-.3-.6,3.14,3.14,0,0,0-1.05-.4A10,10,0,0,1,22,74.74a2.68,2.68,0,0,1-.68-.39,1.61,1.61,0,0,1-.6-1.38,1.68,1.68,0,0,1,.68-1.44A2.71,2.71,0,0,1,23,71a4.15,4.15,0,0,1,1.29.21,3.19,3.19,0,0,1,1.09.6l-.6.86a2.39,2.39,0,0,0-.81-.45A3.29,3.29,0,0,0,23,72.07Z"/>
    <path d="M31.41,72.22v5.7H30.27v-5.7h-2v-1h5.22v1Z"/>
    <path d="M38,76.38a1.73,1.73,0,0,0,2.51,0A2.18,2.18,0,0,0,41,74.91V71.18h1.14V75a3,3,0,0,1-.8,2.24,3.07,3.07,0,0,1-4.11,0,3,3,0,0,1-.8-2.24V71.18h1.14v3.73A2.18,2.18,0,0,0,38,76.38Z"/>
    <path d="M50.85,72.06a3.15,3.15,0,0,1,1,2.46A3.28,3.28,0,0,1,50.88,77a4,4,0,0,1-2.89.92H45.75V71.18h2.32A4,4,0,0,1,50.85,72.06Zm-.17,2.49c0-1.55-.89-2.32-2.65-2.32H46.89v4.62h1.26A2.73,2.73,0,0,0,50,76.27,2.2,2.2,0,0,0,50.68,74.55Z"/>
    <path d="M55.12,71.18h1.14v6.74H55.12Z"/>
    <path d="M65.6,77a3.69,3.69,0,0,1-5,0,3.54,3.54,0,0,1,0-5,3.69,3.69,0,0,1,5,0,3.54,3.54,0,0,1,0,5Zm-.84-4.22a2.37,2.37,0,0,0-3.38,0,2.51,2.51,0,0,0,0,3.46,2.34,2.34,0,0,0,3.38,0,2.51,2.51,0,0,0,0-3.46Z"/>
  </g>
</svg>
