<svg id="Calque_1" data-name="Calque 1" xmlns="http://www.w3.org/2000/svg" viewBox="0 0 334 71.65">
  <title>LauraDemessine_website</title>
  <g id="m50QkA.tif">
    <g>
      <path d="M55.91,0a.87.87,0,0,1,0,1.19,12.78,12.78,0,0,1-5.1,4.38c-.23.13-.45.36-.72,0s-.09-.51,0-.77A11.29,11.29,0,0,1,55.48,0Z"/>
      <path d="M101.19,40.07c1.13-1.83,2.22-3.54,3.24-5.27.32-.53.77-.42,1.2-.42h23.15a10,10,0,0,0,10-8.33,2.36,2.36,0,0,0,0-.38h-1.17c-10.52,0-21,0-31.59,0-.87,0-1.13-.25-1.19-1.09-.56-7.1,2.47-14.66,9.32-17.81a14.45,14.45,0,0,1,6-1.41c9.28,0,18.56,0,27.85,0h.83c-1.22,2-2.33,3.78-3.48,5.6-.26.4-.73.21-1.09.21-7.62,0-15.21,0-22.83,0A10,10,0,0,0,111.3,18.8c-.27.92-.06,1.07.84,1.07,10.56,0,21.12,0,31.69-.05,1,0,1.28.35,1.32,1.31.21,4.88-.79,9.41-3.89,13.29a14.41,14.41,0,0,1-11.43,5.72c-9.39.11-18.78,0-28.17,0A1.91,1.91,0,0,0,101.19,40.07Z"/>
      <path d="M193,5.36c-1.17,1.87-2.26,3.6-3.33,5.37-.3.49-.72.37-1.11.37H165.61A10,10,0,0,0,155.43,19c-.21.83,0,.92.79.92q15.78,0,31.58,0c.41,0,1-.22,1.2.1s-.3.82-.51,1.18c-.75,1.24-1.58,2.45-2.33,3.71a1.48,1.48,0,0,1-1.53.83q-14.08,0-28.17,0c-1.3,0-1.3,0-.92,1.3,1.52,5.13,5,7.75,10.37,7.75h26.46a44.28,44.28,0,0,0-2.5,3.95c-.72,1.45-1.72,1.79-3.28,1.79-7.11-.06-14.21,0-21.34,0a15,15,0,0,1-12.44-5.89,18.64,18.64,0,0,1-3.76-13.23,17.58,17.58,0,0,1,5.21-11.82,14.24,14.24,0,0,1,10-4.23c9.38-.08,18.77,0,28.16-.06A2.8,2.8,0,0,0,193,5.36Z"/>
      <path d="M266.7,26.29c4.9,4.74,9.68,9.32,14.7,14.15a33.52,33.52,0,0,0-4.16,0c-3.1.45-5.25-.79-7.41-3-5.29-5.42-10.84-10.56-16.3-15.81-.34-.34-.73-.64-1.17-1a2.31,2.31,0,0,1,1.34-.2h16.86a4.67,4.67,0,0,0,1.06-9.24,5.6,5.6,0,0,0-1.17-.1c-7.19,0-14.36,0-21.55,0-.9,0-1,.32-1,1.08,0,9.07,0,18.14,0,27.21,0,.94-.22,1.24-1.18,1.18a41.84,41.84,0,0,0-4.48,0c-.76,0-.94-.26-.94-1q0-9.69,0-19.41c0-4.64,0-9.24,0-13.87,0-.82.24-1,1-1,9.56,0,19.12,0,28.68.07a10.44,10.44,0,0,1,1.41,20.72C270.64,26.35,268.79,26.18,266.7,26.29Z"/>
      <path d="M193.59,11.14c1.24-2,2.34-3.74,3.45-5.51a.78.78,0,0,1,.73-.3q19,0,38.09,0s.06,0,.23.12c-1.15,1.82-2.28,3.65-3.43,5.45-.24.36-.66.19-1,.19-4.27,0-8.54,0-12.81,0-.91,0-1.11.27-1.11,1.13,0,9.07,0,18.14.05,27.2,0,.88-.22,1.18-1.11,1.11a25.84,25.84,0,0,0-3.52,0c-.94.07-1.24-.17-1.24-1.19,0-9,0-18,0-27,0-1-.28-1.29-1.28-1.29-5.23.07-10.45,0-15.68,0C194.61,11.14,194.21,11.14,193.59,11.14Z"/>
      <path d="M81.26,20.81a8.65,8.65,0,0,1,3.5,5.5A6.29,6.29,0,0,1,80,33.61c-4.22,1.19-9-1.47-9.86-5.51-.91-4.33,2-8.08,6.68-8.49.07,0,.15-.08.2-.06A19.92,19.92,0,0,0,81.26,20.81Z"/>
      <path d="M298.13,46.13c-.51.82-.9,1.43-1.28,2-.26.43-.64.24-1,.24-2.84,0-5.7,0-8.54,0a3.75,3.75,0,0,0-3.9,3.37c4.05,0,8.11,0,12.14,0,.87,0,1,.28,1,1.05.05,3.6-2.32,7.08-6.78,6.95-3.42-.08-6.83,0-10.31,0a9.62,9.62,0,0,1,1.13-2c.22-.38.64-.23,1-.23H290a3.89,3.89,0,0,0,3.84-2.33c.32-.68.4-1-.62-1-3.78.06-7.53,0-11.31,0-.92,0-1.07-.34-1.07-1.11,0-4,2.56-6.83,6.49-6.93C290.85,46.07,294.37,46.13,298.13,46.13Z"/>
      <path d="M315.05,46.18c-.45.74-.83,1.36-1.2,2-.23.41-.61.28-1,.28h-8.32c-2.24,0-3.54,1-4.05,3.37h13.1c-.47.75-.85,1.33-1.22,1.92s-.66.34-1,.34c-3.31,0-6.62,0-9.92,0-1,0-1,.3-.67,1.07a3.75,3.75,0,0,0,3.7,2.37c3.05,0,6.1,0,9.17,0h1.2c-.47.75-.86,1.32-1.22,1.92-.23.38-.58.32-.94.32-2.71,0-5.4,0-8.11,0A6.36,6.36,0,0,1,298,52.58c.34-4.25,2.73-6.47,7-6.47h9.6A1.61,1.61,0,0,0,315.05,46.18Z"/>
      <path d="M66.68,27.7a9.48,9.48,0,0,1,2.89,3.37c1.3,2.82-.09,5-3.18,5-3.61,0-8.54-3.29-9.93-6.62-1.09-2.6.52-4.46,3.61-4.22.43,0,.85.06,1.28.1,1.51-.23,2.73.6,4,1.2A2.29,2.29,0,0,1,66.68,27.7Z"/>
      <path d="M262.47,52.94c0-2,0-4,0-6,0-.62.08-.86.79-.86,3.43,0,6.89,0,10.33,0a4,4,0,0,1,4.24,4.32c0,2.83,0,5.67,0,8.53,0,.9-.42.9-1,.81s-1.3.36-1.26-.81c.06-2.69,0-5.4,0-8.11,0-1.88-.55-2.43-2.39-2.43-2.49,0-5,0-7.47,0-.62,0-.76.17-.76.77,0,3.2,0,6.4,0,9.6,0,.77-.13,1.15-1,1a1.55,1.55,0,0,0-.43,0c-.88.15-1.24-.1-1.17-1.11C262.56,56.78,262.47,54.86,262.47,52.94Z"/>
      <path d="M237.65,57.51c-.55,1.83-1.66,2.41-3.45,2.28-2.33-.17-4.7,0-7,0a6.12,6.12,0,0,1-6-5.12c-.68-3.42.77-6.68,3.53-7.94a5.31,5.31,0,0,1,2.26-.53c3.35,0,6.68,0,10,0H238c-.45.74-.84,1.36-1.2,2-.23.41-.6.32-.94.32h-8.43c-2.56,0-4.14,1.71-4.14,4.48s1.54,4.57,4.08,4.57Z"/>
      <path d="M61.71,9.6c2.5,1.54,3.5,3.67,2.9,6.23a5,5,0,0,1-5.74,4c-2.47-.47-4.18-3.25-3.73-6a6.51,6.51,0,0,1,2-3.63A3.64,3.64,0,0,1,61.71,9.6Z"/>
      <path d="M76.61,40.07s.06,0,.08,0c2.8,1.32,3,2.32.77,4.48a8.1,8.1,0,0,1-5.12,2.3,3.52,3.52,0,0,1-3.59-2,3.77,3.77,0,0,1,.86-4.21,4.79,4.79,0,0,1,.34-.53C71.23,38.88,75.2,38.82,76.61,40.07Z"/>
      <path d="M66.68,27.7a15,15,0,0,0-5.33-2.33,8.61,8.61,0,0,1,4.08-6.06c1.55-1,3.3-1,4.28-.19s1.09,2.43.39,4.16A12.64,12.64,0,0,1,66.68,27.7Z"/>
      <path d="M333.4,57.68q-.6.93-1.17,1.86c-.19.29-.49.25-.77.25-3,0-6.1,0-9.18,0-.66,0-.72-.23-.72-.79,0-4,0-8,0-12.05,0-1,.55-.84,1.13-.84s1.26-.23,1.21.88c-.06,3.2,0,6.4,0,9.6,0,.75.19.94.94.94,2.5,0,5,0,7.47,0A1.84,1.84,0,0,1,333.4,57.68Z"/>
      <path d="M82.18,9.62c-.32,1.05-.69,2.1-1,3.14-.14.53-.36.75-1,.66-1.57-.23-3.15-.42-4.73-.62a.85.85,0,0,1-.83-.66c-.47-1.3-1-2.58-1.5-3.86-.17-.43-.08-.66.34-.79a1.11,1.11,0,0,0,.19-.09C75,7,76.14,5.7,77.5,6.15a15.07,15.07,0,0,1,3.35,2.19,1.7,1.7,0,0,1,.6.34C81.73,9,82.26,9.07,82.18,9.62Z"/>
      <path d="M70,16.9a3.49,3.49,0,0,1-3.63-3.29,3.23,3.23,0,0,1,3.57-3,3.54,3.54,0,0,1,3.65,3.28A3.27,3.27,0,0,1,70,16.9Z"/>
      <path d="M89.67,24.69a1.37,1.37,0,0,1-1.56-1.22,7.34,7.34,0,0,0-.77-2c-1.56-2.56-1.13-5.1-.13-7.68.22-.58.39-.56.79-.3A8.83,8.83,0,0,1,92.25,20a1.84,1.84,0,0,0-2.26.66c-.54.92-1.24,1.9-.52,3.08C89.65,24,89.86,24.31,89.67,24.69Z"/>
      <path d="M319.06,53.05c0,2-.06,4,0,6,.05,1.09-.64.77-1.17.77s-1.17.24-1.15-.81q.09-6,0-12c0-1.18.74-.73,1.28-.79s1.06-.07,1,.83C319,49,319.06,51,319.06,53.05Z"/>
      <path d="M82.18,9.62c-.3-.29-.6-.61-.9-.91s.06-.69-.17-1c.06-.47-.36-1.11.06-1.4A18.14,18.14,0,0,1,83.73,5c.13,0,.37.15.54.28a11.25,11.25,0,0,0,1.38,1c1.75.79,2.07,2.35,2.25,4a1.06,1.06,0,0,1,0,.43c-.17.55-2.8,1.32-3.27.94Z"/>
      <path d="M81.26,20.81a6.75,6.75,0,0,1-4.38-1.2,8.27,8.27,0,0,1-.61-.85,1.72,1.72,0,0,1,.85-2.63,6.38,6.38,0,0,1,6.32,1.71A1.48,1.48,0,0,1,83,20.25,4.59,4.59,0,0,1,81.26,20.81Z"/>
      <path d="M89.67,24.69a1.8,1.8,0,0,0-.2-.49c-1.21-1.35-.29-2.58.24-3.78A1.77,1.77,0,0,1,92.25,20,4.1,4.1,0,0,0,92.91,21c1.54,1.36,1.22,2.9.47,4.5-.47,1-1.49.56-2.24.86-.56.23-.6-.35-.81-.65S89.9,25,89.67,24.69Z"/>
      <path d="M76.61,40.07a8.87,8.87,0,0,0-4.87-.42,5.28,5.28,0,0,0-2.13,1.06,3.09,3.09,0,0,1,1.51-3.54,6.82,6.82,0,0,1,5.3-.91c1.13.23,1.45.81,1.13,1.94A5.78,5.78,0,0,1,76.61,40.07Z"/>
      <path d="M61.76,42.21c0,1-.32,1.26-1.11.94A7,7,0,0,1,58.3,41.5a21.12,21.12,0,0,1-3.16-3.45A1.14,1.14,0,0,1,55,36.58c.39-.5.9-.33,1.37-.13a10.66,10.66,0,0,1,5.12,4.76A4.94,4.94,0,0,1,61.76,42.21Z"/>
      <path d="M65.79,42.72c-1.58,0-4-2.26-4.06-3.86a1,1,0,0,1,.73-1c2-.89,5,.83,5.21,3A1.76,1.76,0,0,1,65.79,42.72Z"/>
      <path d="M89.18,36a4.48,4.48,0,0,1-2.37,3.5,1.7,1.7,0,0,1-1.92,0,2,2,0,0,1-.79-1.88,5.47,5.47,0,0,1,3.62-3.84C88.58,33.63,89.2,34.51,89.18,36Z"/>
      <path d="M44.17,21.45a9.67,9.67,0,0,1,.51-3.27c.11-.34.2-.7.71-.6a.82.82,0,0,1,.72.62,17.33,17.33,0,0,1,.37,9.09c0,.26-.07.47-.43.49a.74.74,0,0,1-.79-.55A15.68,15.68,0,0,1,44.17,21.45Z"/>
      <path d="M53.33,16.84A12.41,12.41,0,0,1,52,22a2.62,2.62,0,0,1-.49.69c-.32.32-.68.72-1.19.53s-.54-.73-.54-1.17a16.84,16.84,0,0,1,1.43-6.6c.22-.51.49-1.06,1.22-1s.79.81.9,1.39A7.37,7.37,0,0,1,53.33,16.84Z"/>
      <path d="M55.14,33.12a4,4,0,0,1,0,.49c-.13.53-.09,1.24-.75,1.41s-1-.45-1.26-.94a17.1,17.1,0,0,1-2-6.34c-.07-.53,0-1.11.6-1.34s1,.21,1.32.64A11.4,11.4,0,0,1,55.14,33.12Z"/>
      <path d="M63.63,6.89a14.26,14.26,0,0,1,7.19-1.53c.41.1.79-.2,1.2-.07.9.26.81.75.32,1.33a14.61,14.61,0,0,0-1.94.85c-2.12,1.24-4.36.92-6.6.64a1.07,1.07,0,0,1-.38-.66A.53.53,0,0,1,63.63,6.89Z"/>
      <path d="M63.63,6.89l-.06.56c-.11.21,0,.49-.17.68L61.69,9.6a5.28,5.28,0,0,0-4.5.66c-.56-.53-.47-1,.06-1.51a11.36,11.36,0,0,1,5.38-3.24c1.17-.32,1.17-.35,1,.85A4.88,4.88,0,0,0,63.63,6.89Z"/>
      <path d="M94.32,45.22a26.08,26.08,0,0,1-11,3.07C86.51,45.52,89.92,44.09,94.32,45.22Z"/>
      <path d="M71.06,5.31c-1.22-.49-1.32-.62-1.88-2.45a9.68,9.68,0,0,1,7.7,1.24c-1.11.53-1.89,1.51-3.22,1.45-.57-.24-1.15,0-1.73-.11C71.61,5.4,71.32,5.55,71.06,5.31Z"/>
      <path d="M35.25,64.12c1.58-.64,2.9-1.17,4.21-1.72a1.39,1.39,0,0,1,.83-.07l4.78,1.32-4.33,1.73a1.08,1.08,0,0,1-.73,0C38.52,65,37,64.59,35.25,64.12Z"/>
      <path d="M44.88,66.68c3-2.32,6.16-1.75,9.3-.36-1.37.54-2.71,1.05-4,1.56a1.42,1.42,0,0,1-.84,0C47.84,67.47,46.39,67.09,44.88,66.68Z"/>
      <path d="M93.74,48.16c1.6-.7,3-1.28,4.31-1.88a1.1,1.1,0,0,1,.62,0c1.52.32,3,.62,4.82,1l-4.31,2a1.08,1.08,0,0,1-.81,0C96.92,48.85,95.47,48.52,93.74,48.16Z"/>
      <path d="M26.29,62.18c3-2.17,4.31-2.3,9.15-.89-1.9.53-3.39,2.3-5.69,1.62C28.66,62.59,27.53,62.44,26.29,62.18Z"/>
      <path d="M72.15,50.17a30,30,0,0,1,11.31-4.31A17.83,17.83,0,0,1,73,50.38C72.7,50.42,72.32,50.72,72.15,50.17Z"/>
      <path d="M103.24,49.93c1.32-.66,2.64-1.32,4-2a1.19,1.19,0,0,1,.72-.09c1.43.15,2.88.32,4.46.51-1.43.94-2.79,2-4.31,2.27s-3.2-.28-4.82-.47Z"/>
      <path d="M54.14,69.12c3-2.2,6.06-1.77,9.26-.54l-4,1.56a1.34,1.34,0,0,1-.84,0C57.06,69.82,55.59,69.46,54.14,69.12Z"/>
      <path d="M26.18,59.34a8.88,8.88,0,0,1-8.7,1.56A8.43,8.43,0,0,1,26.18,59.34Z"/>
      <path d="M53.3,60.94,49,62.35a1.58,1.58,0,0,1-.94-.08L43.6,61C47.05,59.39,49.57,59.39,53.3,60.94Z"/>
      <path d="M43.83,58.38c-4.37,1.69-4.63,1.69-9.37.26C37.11,56.91,40.1,56.83,43.83,58.38Z"/>
      <path d="M86,51.45c.4-.22.83-.41,1.21-.66A5.79,5.79,0,0,1,92.5,50c.84.28,1.71.43,2.61.77-1.92.47-3.57,2-5.78,1.3a20.47,20.47,0,0,0-2.84-.43C86.23,51.75,86,51.85,86,51.45Z"/>
      <path d="M8.68,60.92a8.31,8.31,0,0,1,8.5-2.52A10,10,0,0,1,8.68,60.92Z"/>
      <path d="M121,48.38c-2.39,2.28-5.18,3.58-8.58,2.6A10.35,10.35,0,0,1,121,48.38Z"/>
      <path d="M71.78,66.07c-3.18,1.64-6.27,1.38-9.49.12A12,12,0,0,1,71.78,66.07Z"/>
      <path d="M104.28,52.45c-3.56,2-5.61,2.18-9.19.85C98.56,51.53,99.55,51.45,104.28,52.45Z"/>
      <path d="M25.41,56.87c2.76-2.09,5.85-2,8.92-.86C31.56,57.91,28.49,57.87,25.41,56.87Z"/>
      <path d="M53.24,63.59c3-1.81,6.1-1.24,8.92.3C59.24,65,56.16,65.32,53.24,63.59Z"/>
      <path d="M42.78,55.72c1.48-.35,3-1.11,4.42-.94A12,12,0,0,1,52,56.36c-1.6,0-2.92,1.34-4.6.89S44.3,56.4,42.74,56C42.76,55.89,42.76,55.8,42.78,55.72Z"/>
      <path d="M93.23,28.06A7,7,0,0,1,91,33.54c-.49.52-1.28.15-1.9,0-.28-.08-.07-.38,0-.53.3-.9.66-1.79,1-2.69a1.29,1.29,0,0,1,.77-.81C91.52,29,92.27,28.59,93.23,28.06Z"/>
      <path d="M96.5,10.56c1.51.73,3.3,3.63,3.11,5.08-.08.64-.7,1-1.17,1.43-.2.17-.34-.17-.45-.34-.56-.81-1.09-1.64-1.67-2.45a1.32,1.32,0,0,1-.15-1C96.3,12.42,96.39,11.52,96.5,10.56Z"/>
      <path d="M104.26,55a10.54,10.54,0,0,1,8.88-1.69C110.07,55.44,108.89,55.67,104.26,55Z"/>
      <path d="M42.66,53.48c-3,1.68-6.11,1.36-9.12.19C36.87,52.13,38.47,52.09,42.66,53.48Z"/>
      <path d="M63.48,71.08c2.78-1.92,5.81-1.83,8.82-.87C70.78,71.68,66.71,72.13,63.48,71.08Z"/>
      <path d="M25.2,54.46a10.22,10.22,0,0,1-8.68,1.6A8.86,8.86,0,0,1,25.2,54.46Z"/>
      <path d="M8.56,58.6a29.09,29.09,0,0,1-4.38,3A16.23,16.23,0,0,1,0,62.37C2.33,59.79,4.91,58.11,8.56,58.6Z"/>
      <path d="M73.85,53.24a33.13,33.13,0,0,1,11-3.48C82.82,51.83,77.29,53.56,73.85,53.24Z"/>
      <path d="M86.76,55.8C91,54.35,91,54.35,96,55.59,93,57.4,89.9,57.06,86.76,55.8Z"/>
      <path d="M129.12,47.39c-1.09.92-2.11,1.9-3.26,2.71-.92.64-2.11.45-3.18.67-.51.1-1.07.1-1.73.17,2.3-2,4.57-3.76,7.7-3.8C128.89,47.07,129.14,47,129.12,47.39Z"/>
      <path d="M61.22,59.69a14.47,14.47,0,0,1-9.13-1C55.29,57,58.23,58,61.22,59.69Z"/>
      <path d="M121.82,53.11a11.27,11.27,0,0,0-1.4.92c-2.12,1.84-4.61,1.77-7.2,1.58a11.63,11.63,0,0,1,8-2.71C121.42,52.9,121.76,52.58,121.82,53.11Z"/>
      <path d="M41.89,51.36c3.09-1.66,6.14-.94,9,.6C47.84,53.22,44.81,52.28,41.89,51.36Z"/>
      <path d="M95.94,58c2.9-1.58,5.14-1.79,9.3-.92a15,15,0,0,1-4.5,1.58A28.24,28.24,0,0,1,95.94,58Z"/>
      <path d="M33.46,51.49a11.15,11.15,0,0,1-8.81.81C26.12,50.79,30.69,50.36,33.46,51.49Z"/>
      <path d="M7.92,56.16a20.2,20.2,0,0,0,2-1.34c2-1.58,4.19-1,6.58-1.11-2.5,1.6-4.83,3-7.73,2.67C8.47,56.4,8.09,56.7,7.92,56.16Z"/>
      <path d="M86.83,53.75A21.61,21.61,0,0,1,76.2,55.67,17.73,17.73,0,0,1,86.83,53.75Z"/>
      <path d="M78.19,58.43A11.43,11.43,0,0,1,87.64,58C84.57,59.47,81.41,59,78.19,58.43Z"/>
      <path d="M96.79,59.88a10.89,10.89,0,0,1-9.07.23A11.93,11.93,0,0,1,96.79,59.88Z"/>
      <path d="M41.89,49.17a12.14,12.14,0,0,1-9.13.29C35.4,48.2,37,48.14,41.89,49.17Z"/>
      <path d="M24.35,50.23a11.47,11.47,0,0,1-8.67,1.54A10.06,10.06,0,0,1,24.35,50.23Z"/>
      <path d="M105.27,59.11a12,12,0,0,1,8.64-1.6A10.11,10.11,0,0,1,105.27,59.11Z"/>
      <path d="M79.25,62.05a11.64,11.64,0,0,1,9,0C86.66,63.16,82.77,63.18,79.25,62.05Z"/>
      <path d="M80.62,67.69a11.57,11.57,0,0,1-8.92.49A11.1,11.1,0,0,1,80.62,67.69Z"/>
      <path d="M70.55,64a13,13,0,0,1,9.51,0A15.81,15.81,0,0,1,70.55,64Z"/>
      <path d="M70.21,62.29c-3.06.87-6.88.55-8.75-.71a11,11,0,0,1,7.59.13,7.43,7.43,0,0,0,1.16.22A.22.22,0,0,1,70.21,62.29Z"/>
      <path d="M62.29,48.61c3-.6,5.93,0,8.9.11A7.82,7.82,0,0,1,62.29,48.61Z"/>
      <path d="M32.63,47.56a12.67,12.67,0,0,1-8.82.86A11.24,11.24,0,0,1,32.63,47.56Z"/>
      <path d="M60.13,56.14c-3.43.34-6.23-.72-9-2a7.15,7.15,0,0,1,4.52-.09C57,54.65,58.4,55.35,60.13,56.14Z"/>
      <path d="M105.88,60.9c-2.81,1.41-4.24,1.56-9,.94C98.91,60.62,102,60.3,105.88,60.9Z"/>
      <path d="M80.09,65.87a12.64,12.64,0,0,1,9-.27A12.65,12.65,0,0,1,80.09,65.87Z"/>
      <path d="M88.36,64c3.08-1.43,6.13-1.25,9.37-.47a24,24,0,0,1-4.63,1.07A22,22,0,0,1,88.36,64Z"/>
      <path d="M48.44,44.15a17.41,17.41,0,0,1-7.92-.32,8.87,8.87,0,0,1,8.33,0C49,44.19,48.55,44,48.44,44.15Z"/>
      <path d="M41,47.29c4-1.22,6.49-1,9.09.68C47,48.1,44,48.27,41,47.29Z"/>
      <path d="M79.21,60.28a16.6,16.6,0,0,1-9.67.09A16.59,16.59,0,0,1,79.21,60.28Z"/>
      <path d="M40.74,45.64a16.14,16.14,0,0,0-2,.47c-2.26.88-4.44,0-6.63-.21a11.61,11.61,0,0,1,7.34-.81c.34.08.7.11,1,.17C40.67,45.37,40.89,45.41,40.74,45.64Z"/>
      <path d="M60.07,57.74c3.16-.62,6,.07,9.07,1.18A13.74,13.74,0,0,1,60.07,57.74Z"/>
      <path d="M55.35,43C58.26,42.91,60,45,62,46.48,60.43,47.14,57.25,45.54,55.35,43Z"/>
      <path d="M78,56.83c-3.43,1.64-6.65,1.4-10.09.68C71.23,56.57,74.45,56.68,78,56.83Z"/>
      <path d="M58.36,52.73c-3.09-.07-5.57-1.62-8.28-2.82C52.56,49.38,55.8,50.49,58.36,52.73Z"/>
      <path d="M56,45.6c-2.73-.81-5-2.28-7.44-3.41C52.3,41.72,52.52,41.63,56,45.6Z"/>
      <path d="M75.09,54.61c-2.94,1.45-6,1.13-9.11.34,2.92-1,5.83-.41,8.69-.56C74.86,54.35,75.11,54.2,75.09,54.61Z"/>
      <path d="M49.36,46c3.43-.85,5.46,1.24,7.64,3.35C54.07,49,52,47,49.36,46Z"/>
      <path d="M64,52c3.18-.32,6.21-.08,9.21-.32C71.87,53.33,67.45,53.48,64,52Z"/>
      <path d="M63.38,50.66c-2.63-.13-3.59-.58-7.37-3.37C57.55,47.1,60.58,48.46,63.38,50.66Z"/>
      <path d="M65,53.67a12.93,12.93,0,0,1-7.81-2.78C60.15,51,62.54,52.39,65,53.67Z"/>
      <path d="M66.73,55.93c-2.84.26-5.57,0-8-1.73a22.33,22.33,0,0,1,2.26.32C62.93,55,64.83,55.44,66.73,55.93Z"/>
      <path d="M71.91,5.36a3.52,3.52,0,0,1,1.73.19c-.49,0-.92,0-.87.68,0,.26-.2.36-.41.39.38-.56.51-1-.4-1.11-.09,0-.11-.07-.09-.11A0,0,0,0,1,71.91,5.36Z"/>
      <path d="M72.15,50.17c.23.32.59.06.87.21a2.92,2.92,0,0,1-1.45.19A.65.65,0,0,1,72.15,50.17Z"/>
      <path d="M86,51.45c.08.21.32.13.45.23-.35.24-.75.15-1.2.22A.92.92,0,0,1,86,51.45Z"/>
      <path d="M7.92,56.16c.23.32.59.05.87.22a2,2,0,0,1-1,.19c-.13,0-.32,0-.21-.19S7.81,56.23,7.92,56.16Z"/>
      <path d="M70.21,62.29v-.36c.23,0,.46,0,.83,0C70.72,62.16,70.5,62.33,70.21,62.29Z"/>
      <path d="M81.11,7.7a1.64,1.64,0,0,1,.17,1,.58.58,0,0,1-.41-.35C81.13,8.19,81.05,7.92,81.11,7.7Z"/>
      <path d="M48.44,44.15l.41-.34.53.19v.15Z"/>
      <path d="M71.91,5.36c0,.06,0,.1,0,.17a1.71,1.71,0,0,1-1.11-.15,1,1,0,0,1,.24,0A8,8,0,0,1,71.91,5.36Z"/>
      <path d="M75.09,54.61l-.42-.22c.25-.17.59-.32.83-.1C75.58,54.37,75.28,54.56,75.09,54.61Z"/>
      <path d="M63.42,8.13a.75.75,0,0,1,.17-.68c.06.21.15.42.21.66Z"/>
      <path d="M40.74,45.64c-.07-.12-.13-.25-.22-.38.24,0,.54-.15.6.19S40.93,45.67,40.74,45.64Z"/>
      <path d="M333.14,39.05Q323.06,23.18,313,7.3a3.84,3.84,0,0,0-2.15-1.79,3.89,3.89,0,0,0-4.61,1.94q-10.18,16.13-20.32,32.26c-.15.22-.4.43-.25.81,1.94,0,3.88,0,5.82,0a1.52,1.52,0,0,0,1.52-.87c1.75-2.84,3.56-5.66,5.29-8.49a1.46,1.46,0,0,1,1.45-.79c6.66,0,13.29,0,20,0a1.47,1.47,0,0,1,1.45.81c1.73,2.81,3.55,5.57,5.27,8.38a1.68,1.68,0,0,0,1.69,1c1.94-.06,3.91,0,5.87,0v-.42C333.53,39.9,333.38,39.43,333.14,39.05ZM302.5,24.5c2.43-3.8,4.8-7.54,7.24-11.33,2.41,3.79,4.75,7.51,7.17,11.33Z"/>
      <path d="M261,51.94a6.18,6.18,0,0,0-6.15-5.78c-3.24-.07-6.46,0-9.71,0a6.08,6.08,0,0,0-1.88.32c-3.11,1-4.9,4.48-4.16,8a6.15,6.15,0,0,0,6.45,5.29h4.8a36.93,36.93,0,0,0,5.76-.15C259.48,59,261.36,56,261,51.94Zm-2.78,3.5a3.52,3.52,0,0,1-3.33,2.07c-3.22,0-6.46,0-9.68,0-2.88,0-4.66-2.9-3.78-6a3.82,3.82,0,0,1,4-3h9.49a3.52,3.52,0,0,1,3.33,2.07A5.26,5.26,0,0,1,258.22,55.44Z"/>
    </g>
  </g>
</svg>
