<svg id="Calque_1" data-name="Calque 1" xmlns="http://www.w3.org/2000/svg" viewBox="0 0 120.84 78.21">
  <defs>
    <style>
      .cls-1 {
        fill: none;
        stroke: #000;
        stroke-miterlimit: 10;
        stroke-width: 0.25px;
      }

      .cls-2 {
        fill: #221f22;
      }

      .cls-3 {
        fill: #fefefe;
      }
    </style>
  </defs>
  <title>LauraDemessine_website</title>
  <g id="AAJ73W">
    <g>
      <path class="cls-1" d="M.93,57.62c-.07-1.23.08-2.46.08-3.7C1,53,1,52.1,1,51.2c.12-2.54.05-5.08.1-7.61.16-7.8.08-15.6,0-23.4,0-1.81,0-3.63-.09-5.44C1,13.53,1.06,12.32,1,11.1.84,8.37.81,5.63.79,2.9c0-.2-.05-.4-.05-.59a1,1,0,0,1,.05-.56c.72.14,1.44.28,2.17.4s1.56.22,2.35.28,1.28.07,1.93.06a29.15,29.15,0,0,0,4.46-.43l.73-.13c.3-.05.38,0,.35.29-.1.85-.06,1.71-.14,2.57,0,.11,0,.22,0,.34-.09,3.21-.14,6.43-.11,9.64,0,.14-.05.3.09.42a1,1,0,0,0-.1.42c0,1.12,0,2.23-.07,3.35-.06.88,0,1.77,0,2.66,0,1.13,0,2.27-.06,3.4-.09,2.9,0,5.8-.1,8.7s-.05,6-.05,9c0,2.07,0,4.15.09,6.22a51.78,51.78,0,0,0,.58,5.43,1.06,1.06,0,0,0-.06.58c0,3,0,5.93.06,8.9.08,2.69,0,5.4.12,8.09,0,.76,0,1.52.06,2.27a5.46,5.46,0,0,1,0,1l-.71-.35A21,21,0,0,1,6,69.68,23.26,23.26,0,0,1,1.41,60C1.23,59.2,1.09,58.41.93,57.62Z"/>
      <path class="cls-1" d="M62.82,60.37c0,.52,0,1.05,0,1.58.07,2.68.12,5.36.23,8,.08,2,0,4,.13,6,0,.49-.06.46-.48.37a27.92,27.92,0,0,0-5.08-.65,29.46,29.46,0,0,0-6.14.54l-.3,0a2.38,2.38,0,0,1,0-.84c.11-1.71.15-3.42.2-5.13.06-2.29.06-4.58.06-6.87,0-.15,0-.3,0-.44,0-.74,0-1.48,0-2.23.76,0,1.52-.05,2.28-.05s1.48,0,2.22,0c.12,0,.31.05.32-.13s-.18-.14-.3-.16h0c-.72,0-.72,0-.72-.77,0-1.77,0-3.53,0-5.29a1.52,1.52,0,0,0-.16-.9,4.31,4.31,0,0,1-2,.59l-.09,0a.1.1,0,0,0-.08.11c0,.07,0,.08.09.09h.6c.18,0,.28.07.28.26s0,.19,0,.29v5.25c0,.19-.09.32-.3.31-.4,0-.8.22-1.21,0a.33.33,0,0,0-.1,0c-.48,0-.49,0-.49-.53,0-1.3,0-2.6,0-3.9a5.44,5.44,0,0,0-.21-1.61c0-1,0-2,.07-3.06,0-3,0-5.94.09-8.9.05-3.42,0-6.83.05-10.24,0-1.62-.08-3.23-.24-4.84.35-1.1.69-2.2,1-3.29l.87-2.68c.16-.46.29-.56.74-.57h.45c.08,0,.18,0,.19-.12s-.11-.15-.2-.15H52.41c-.12,0-.28,0-.29.13s.14.15.26.16h.39c.27,0,.31.08.26.35a2.17,2.17,0,0,1-.07.24c-.47,1.56-1,3.1-1.53,4.64a20.7,20.7,0,0,1-.29-2.48v-.76l0-8.1c0-.15,0-.3,0-.44q0-5.62-.21-11.25c.16-.06.29,0,.42.11a20.76,20.76,0,0,1,6.27,4.9,23,23,0,0,1,4.88,9.7c.24.93.37,1.87.57,2.8.06,1.29-.05,2.57-.07,3.86,0,3.13-.09,6.26-.13,9.39-.09,5.65-.07,11.31-.08,17,0,2.31,0,4.61,0,6.92,0,.73,0,1.45.06,2.17l-.26.23a.77.77,0,0,1-.81.24c-.32-.11-.32-.43-.33-.71,0-1.07,0-2.14,0-3.21,0-.5,0-1,0-1.48a1.33,1.33,0,0,0-.9-1.19,2.72,2.72,0,0,0-.62-.17,3.6,3.6,0,0,0-1.95.15,1.81,1.81,0,0,0-1.23,1.64.89.89,0,0,0,.26.72.87.87,0,0,0,.92.17.56.56,0,0,0,.37-.58c0-.37-.09-.54-.49-.7-.2-.08-.23-.19-.17-.38a1.21,1.21,0,0,1,1.23-.8,1.07,1.07,0,0,1,1.17.79,6.31,6.31,0,0,1,.14,1.62c0,.62,0,.63-.59.76a4.68,4.68,0,0,0-1.87.74,2.28,2.28,0,0,0-.87,1.11A1.51,1.51,0,0,0,58.32,61a2,2,0,0,0,1.55-.73c.08-.09.11-.25.28-.23a1,1,0,0,0,1.26.9A2.82,2.82,0,0,0,62.82,60.37Zm-3-36.94v-.05h1a13,13,0,0,0,1.53,0c.23,0,.31-.13.27-.36a3.08,3.08,0,0,0-1-1.82,3.74,3.74,0,0,0-4.95.32,5,5,0,0,0-1.24,4.35,4.09,4.09,0,0,0,4.33,3.57,3.21,3.21,0,0,0,2.87-2.15c0-.12.11-.28-.06-.35s-.24.07-.3.18a7.68,7.68,0,0,1-.57.87,1.74,1.74,0,0,1-.89.67,2.57,2.57,0,0,1-2.93-1,3.84,3.84,0,0,1-.47-1,7.79,7.79,0,0,1-.19-2.89c0-.2.09-.29.3-.29Zm-4.7,27.23a.66.66,0,0,0-.74-.72.69.69,0,0,0-.73.75.72.72,0,0,0,.77.71A.63.63,0,0,0,55.15,50.66Z"/>
      <path class="cls-1" d="M51.49,60.81c0,.75,0,1.49,0,2.23l-.27.41A29.59,29.59,0,0,1,38,75.57a26.53,26.53,0,0,1-8.47,2.36,32.54,32.54,0,0,1-7.25-.1,28.66,28.66,0,0,1-8.33-2.2l-.85-.38a.21.21,0,0,1,0-.06,5.46,5.46,0,0,0,0-1c0-.75,0-1.51-.06-2.27-.11-2.69,0-5.4-.12-8.09-.09-3,0-5.93-.06-8.9a1.06,1.06,0,0,1,.06-.58,32.19,32.19,0,0,0,.75,3.23,16.22,16.22,0,0,0,2.77,5.75A17.28,17.28,0,0,0,30.6,69.93a18,18,0,0,0,6.81-1.49A30.58,30.58,0,0,0,44.9,64a27.41,27.41,0,0,0,3.4-3.15l.25,0c.21,0,.17-.15.07-.27l1.77-2.14c0,.58,0,1.15,0,1.73,0,.37,0,.39-.39.41a1.2,1.2,0,0,0-.75.21C50.07,60.87,50.79,60.74,51.49,60.81Z"/>
      <path class="cls-1" d="M51.15,22.89v.76a1.21,1.21,0,0,1-.17-.46,16.88,16.88,0,0,0-.58-2.33.27.27,0,0,0-.07-.26,2,2,0,0,0,0-.24,15.91,15.91,0,0,0-5.48-8.31A17.8,17.8,0,0,0,34,8.27,18.43,18.43,0,0,0,26.61,9.7a30.56,30.56,0,0,0-9.84,6.4,21.17,21.17,0,0,0-4.22,5.33c0,.07-.1.12-.15.19,0-.89,0-1.78,0-2.66.07-1.12.05-2.23.07-3.35a1,1,0,0,1,.1-.42,31.27,31.27,0,0,1,5.73-7.27A28.38,28.38,0,0,1,33.14.46a27.52,27.52,0,0,1,6.6-.25A32.9,32.9,0,0,1,46.5,1.32a25.54,25.54,0,0,1,4.29,1.62l.1.16q.2,5.63.21,11.25c0,.14,0,.29,0,.44Z"/>
      <path class="cls-1" d="M13.05,75.19a.21.21,0,0,0,0,.06v1.29a26.93,26.93,0,0,0-12.9,0,1.41,1.41,0,0,1,0-.7c.08-1.64.19-3.29.26-4.93.12-2.48.22-5,.31-7.45.08-1.94.14-3.88.21-5.83.16.79.3,1.58.48,2.37A23.26,23.26,0,0,0,6,69.68a21,21,0,0,0,6.32,5.16Z"/>
      <path class="cls-1" d="M50.89,3.1l-.1-.16c.13-.11.09-.27.09-.41s0-.37,0-.55.1-.27.31-.22q.75.15,1.5.27a25.4,25.4,0,0,0,3.48.4c.6,0,1.21.08,1.82,0a31.3,31.3,0,0,0,5.37-.68,2.1,2.1,0,0,1,.24-.06c.16,0,.26,0,.25.2s-.07.58-.07.88c0,1.68-.18,3.35-.24,5s-.13,3.15-.2,4.73c-.09,2-.15,3.94-.2,5.92,0,.7,0,1.41-.1,2.11-.2-.93-.33-1.87-.57-2.8a23,23,0,0,0-4.88-9.7,20.76,20.76,0,0,0-6.27-4.9C51.18,3.14,51.05,3,50.89,3.1Z"/>
      <path class="cls-2" d="M70.44,49.42c.18.09.17.26.22.39,1.22,3.32,2.45,6.63,3.65,10a.92.92,0,0,0,1,.71c.32,0,.65.07,1,.07s.37-.07.42-.37a1.92,1.92,0,0,0,0-.24c0-1.59,0-3.17,0-4.75a.75.75,0,0,0,0-.15c0-.46-.06-.49-.53-.5a3.2,3.2,0,0,1-.44,0c-.1,0-.21,0-.2-.15s.1-.12.18-.13l.54-.06a3.11,3.11,0,0,0,1.47-.53c.17-.14.27-.09.29.12s0,.43,0,.66c.22,0,.29-.16.4-.25a2.55,2.55,0,0,1,2.41-.53A1.57,1.57,0,0,1,82,54.88a5.82,5.82,0,0,1,.11,1.18v3.66c0,.14,0,.29,0,.44s.15.37.4.39.4-.07.55.1c0,.15-.14.14-.23.14h-3c-.07,0-.12,0-.11-.13s.06-.08.1-.08a3.92,3.92,0,0,1,.59,0c.24,0,.37-.1.37-.35,0-.08,0-.16,0-.25,0-1.53,0-3.06-.06-4.59,0-1-.6-1.25-1.16-1.26A1.48,1.48,0,0,0,78,55.41v4.65c0,.42,0,.43.45.47l.39,0c.07,0,.13,0,.14.11a.12.12,0,0,1-.13.12h-.2c-1.61,0-3.23,0-4.84-.07-.83,0-1.65.06-2.47.06h-.45a.16.16,0,0,1-.13-.13.16.16,0,0,1,.12-.18,1.3,1.3,0,0,1,.44-.06,3.62,3.62,0,0,0,.93-.08c.31-.08.35-.12.26-.4-.26-.83-.53-1.66-.8-2.49a.29.29,0,0,0-.32-.24h-3a.27.27,0,0,0-.29.21c-.29.81-.6,1.6-.82,2.43-.12.44,0,.53.4.57l.73.07c.1,0,.22,0,.23.14s-.14.16-.25.17H68.2c-.56,0-1.12,0-1.67-.07a2.64,2.64,0,0,0-.84,0,1.28,1.28,0,0,1-.39,0,.13.13,0,0,1-.1-.09c0-.07,0-.13.07-.16a1.09,1.09,0,0,1,.44-.05,1.07,1.07,0,0,0,1.09-.81q1.68-4.85,3.41-9.68C70.27,49.8,70.25,49.56,70.44,49.42Zm-2.08,7.36h3.19L70,52.27C69.36,53.8,68.85,55.26,68.36,56.78Z"/>
      <path class="cls-2" d="M94.37,54.22c.1,0,.14,0,.16,0,.76-.91,2.62-.76,3.59.18a3.63,3.63,0,0,1,1.1,2.51A4,4,0,0,1,98,60.19a2.74,2.74,0,0,1-2.56.7,2,2,0,0,1-.94-.54.32.32,0,0,0-.1.31V64c0,.42,0,.45.44.47l.69,0c.09,0,.16.06.15.16s-.08.1-.14.11H92.35a.33.33,0,0,1-.1,0c-.12,0-.31,0-.3-.15s.19-.15.32-.14c1,0,.8-.13.8-.86q0-4.18,0-8.36v-.35c0-.4-.09-.47-.51-.49-.2,0-.4,0-.59,0s-.14,0-.12-.12,0-.09.09-.1a1,1,0,0,1,.29-.06,2.9,2.9,0,0,0,1.6-.43L94,53.6c.2-.07.33,0,.36.2S94.35,54.06,94.37,54.22Zm0,3h0c0,.36,0,.72,0,1.08s0,.73,0,1.09a1.49,1.49,0,0,0,1.14,1.27A1.42,1.42,0,0,0,97.13,60a3.77,3.77,0,0,0,.36-.76,6.48,6.48,0,0,0,.26-2.73,4.11,4.11,0,0,0-.65-1.95,1.51,1.51,0,0,0-1.7-.6,1.42,1.42,0,0,0-1,1.44Z"/>
      <path class="cls-2" d="M94.88,23.42H92.61c-.2,0-.32.06-.34.27a7,7,0,0,0,.39,3.45,2.54,2.54,0,0,0,2.74,1.58,1.73,1.73,0,0,0,1.21-.6,5.57,5.57,0,0,0,.6-.84,3,3,0,0,1,.18-.3c.06-.07.15-.14.26-.07a.18.18,0,0,1,.07.21,3,3,0,0,1-.17.41,3.47,3.47,0,0,1-5,1.37,4.17,4.17,0,0,1-2.1-3.23,5.17,5.17,0,0,1,.5-3.12,3.7,3.7,0,0,1,2.56-2.08,3.52,3.52,0,0,1,3.38.91,2.88,2.88,0,0,1,.77,1.52c.06.37,0,.4-.32.44a7.87,7.87,0,0,1-.84,0c-.54,0-1.09,0-1.63,0ZM92.4,23h2.68c1.07,0,1.09,0,.77-1.09l0-.1a1.45,1.45,0,0,0-1.2-1.1,1.6,1.6,0,0,0-1.64.67A3.5,3.5,0,0,0,92.4,23Z"/>
      <path class="cls-2" d="M71.73,27.9c0-.4,0-.8,0-1.19,0-.12,0-.3.17-.3s.16.14.17.26.06.32.1.48A2.49,2.49,0,0,0,75,29a1.32,1.32,0,0,0,1.12-.85,1.65,1.65,0,0,0-.24-1.68,1.71,1.71,0,0,0-.75-.55l-1.19-.47a4.57,4.57,0,0,1-1.3-.71,2.25,2.25,0,0,1-.78-2.57,2.47,2.47,0,0,1,2.09-1.79,3,3,0,0,1,1.07.08c.21.06.42.12.63.16.37.07.49,0,.67-.33.06-.1.09-.23.23-.2s.1.2.1.3a17.92,17.92,0,0,0,.09,2.07s0,.07,0,.1,0,.26-.09.3-.21-.13-.25-.25-.12-.34-.18-.51a2.1,2.1,0,0,0-1.63-1.37,1.67,1.67,0,0,0-1,.12,1.37,1.37,0,0,0-.36,2.32,3.11,3.11,0,0,0,.91.5,15.87,15.87,0,0,1,1.83.84A2.37,2.37,0,0,1,77.36,27a2.83,2.83,0,0,1-2.07,2.33,2.89,2.89,0,0,1-1.79-.15c-.23-.09-.45-.2-.68-.3s-.5-.09-.69.24c0,0,0,.09-.07.13a.2.2,0,0,1-.23.14c-.08,0-.09-.13-.1-.21s0-.2,0-.3v-1Z"/>
      <path class="cls-2" d="M67,20.41l.13,1.16a3.34,3.34,0,0,1,.52-.68,1.64,1.64,0,0,1,1.79-.36,1.29,1.29,0,0,1,.78,1.65,1,1,0,0,1-1.21.59.72.72,0,0,1-.41-1.11s0-.05.06-.08.22-.24.1-.39a.44.44,0,0,0-.45-.14,1.05,1.05,0,0,0-.71.49,3,3,0,0,0-.47,1.39A10.27,10.27,0,0,0,67,24.5v3.81c0,.48,0,.5.49.55.25,0,.5,0,.74.06a.15.15,0,0,1,.14.12c0,.11-.07.15-.15.16a1.46,1.46,0,0,1-.29,0H64.32c-.1,0-.27,0-.26-.14s.17-.12.28-.13.46,0,.69,0a.31.31,0,0,0,.32-.36V22.38c0-.1,0-.2,0-.3-.06-.55-.21-.7-.77-.78L64,21.23c-.08,0-.17,0-.17-.14s.08-.14.16-.15a2.14,2.14,0,0,1,.44,0,3.58,3.58,0,0,0,2.25-.4Z"/>
      <path class="cls-2" d="M85.26,24.45v-3c0-.49,0-.49-.51-.49h-.59c-.11,0-.26,0-.26-.17s.16-.13.27-.16l.14,0a2.89,2.89,0,0,0,2-1.2c.08-.11.15-.22.23-.32a.25.25,0,0,1,.31-.09c.12.05.09.17.09.26,0,.31,0,.63,0,.94s0,.39.41.4a7.51,7.51,0,0,0,1.57-.07.71.71,0,0,1,.25,0,.11.11,0,0,1,.11.08.17.17,0,0,1,0,.18.8.8,0,0,1-.41.14,9.88,9.88,0,0,1-1.63.06c-.21,0-.29.07-.28.29,0,2.12-.07,4.25.09,6.37.07,1,.67,1.32,1.56.91a3.08,3.08,0,0,0,.81-.56c.08-.07.19-.13.27-.06s0,.21,0,.3a3,3,0,0,1-2.89,1.14,2.81,2.81,0,0,1-.48-.12,1.24,1.24,0,0,1-.92-1.2c-.08-.91,0-1.81,0-2.72Z"/>
      <path class="cls-2" d="M62.82,60.37a2.82,2.82,0,0,1-1.41.53,1,1,0,0,1-1.26-.9c-.17,0-.2.14-.28.23a2,2,0,0,1-1.55.73,1.51,1.51,0,0,1-1.53-2.1,2.28,2.28,0,0,1,.87-1.11A4.68,4.68,0,0,1,59.53,57c.61-.13.61-.14.59-.76A6.31,6.31,0,0,0,60,54.63a1.07,1.07,0,0,0-1.17-.79,1.21,1.21,0,0,0-1.23.8c-.06.19,0,.3.17.38.4.16.5.33.49.7a.56.56,0,0,1-.37.58.87.87,0,0,1-.92-.17.89.89,0,0,1-.26-.72,1.81,1.81,0,0,1,1.23-1.64,3.6,3.6,0,0,1,1.95-.15,2.72,2.72,0,0,1,.62.17,1.33,1.33,0,0,1,.9,1.19c0,.49,0,1,0,1.48,0,1.07,0,2.14,0,3.21,0,.28,0,.6.33.71a.77.77,0,0,0,.81-.24l.26-.23C63.11,60.08,62.87,60.22,62.82,60.37Zm-2.7-3.13a3.38,3.38,0,0,0-1.67.65,1.49,1.49,0,0,0-.51,1.18,1.07,1.07,0,0,0,.89,1.13,1.16,1.16,0,0,0,1.24-.9A12.86,12.86,0,0,0,60.12,57.24Z"/>
      <path class="cls-2" d="M100.25,57.25a4,4,0,0,1,.5-2A3.24,3.24,0,0,1,106.3,55a4.2,4.2,0,0,1,.14,4.4,3.28,3.28,0,0,1-5.7-.14A3.87,3.87,0,0,1,100.25,57.25Zm1.49,0a6.84,6.84,0,0,0,.11,1.43,3.11,3.11,0,0,0,.71,1.55,1.45,1.45,0,0,0,2.45-.36,4.59,4.59,0,0,0,.28-.73,7.75,7.75,0,0,0,.17-2.8,6.12,6.12,0,0,0-.39-1.57,1.55,1.55,0,0,0-2.7-.22,3.67,3.67,0,0,0-.42.95A6.08,6.08,0,0,0,101.74,57.22Z"/>
      <path class="cls-2" d="M109.93,49.42a3.05,3.05,0,0,1,.13,1.19c0,3.06,0,6.13,0,9.19,0,.72-.08.71.68.71.15,0,.37,0,.37.15s-.23.14-.36.13c-.91,0-1.82,0-2.72,0a1.06,1.06,0,0,1-.25,0,.18.18,0,0,1-.09-.1c0-.07,0-.12.11-.13s.33,0,.49,0c.36,0,.39-.05.41-.4s0-.46,0-.69q0-4.15,0-8.3c0-.26.07-.56-.08-.77s-.47-.07-.7-.11a.71.71,0,0,1-.2,0,.1.1,0,0,1-.08-.1.12.12,0,0,1,.09-.11l.19,0a5.87,5.87,0,0,0,1-.17Z"/>
      <path class="cls-2" d="M81.75,24.72c0,1.17,0,2.34,0,3.51,0,.55,0,.57.58.62l.59,0c.09,0,.17.05.17.15s-.09.17-.19.18a1.8,1.8,0,0,1-.4,0c-.93-.09-1.87-.06-2.81-.07a1.89,1.89,0,0,0-.58.08c-.11,0-.25,0-.27-.13s.1-.2.22-.22.42,0,.64,0,.38-.12.38-.39c0-.46,0-.92,0-1.38,0-1.68,0-3.36,0-5,0-.68,0-.65-.64-.65a1.33,1.33,0,0,1-.49,0s-.1-.06-.11-.1A.13.13,0,0,1,79,21.1c.14,0,.29-.05.44-.06a4.71,4.71,0,0,0,1.93-.55c.29-.16.29-.15.36.18a3.09,3.09,0,0,1,.07.74c0,1.1,0,2.21,0,3.31Z"/>
      <path class="cls-2" d="M116.21,59.7v-1c0-.08,0-.18.11-.19s.16.08.18.18a3.86,3.86,0,0,0,.1.49,2,2,0,0,0,2,1.48,1.19,1.19,0,0,0,1.19-.72,1.41,1.41,0,0,0-.31-1.51,1.66,1.66,0,0,0-.58-.36l-.92-.36a4.06,4.06,0,0,1-.88-.45,1.91,1.91,0,0,1-.71-2.43,2.05,2.05,0,0,1,2.28-1.24c.21,0,.42.11.63.16s.56.09.68-.28c0-.09.09-.14.18-.12s.1.13.1.21a11.7,11.7,0,0,0,.07,1.87.16.16,0,0,1-.08.17c-.1,0-.16,0-.19-.12s-.13-.37-.2-.55a1.66,1.66,0,0,0-1.67-1.07,1.19,1.19,0,0,0-1.07.82,1.12,1.12,0,0,0,.47,1.26,2.53,2.53,0,0,0,.61.32,14,14,0,0,1,1.48.67,2,2,0,0,1,1.15,2.1,2.31,2.31,0,0,1-1.76,1.86,2.17,2.17,0,0,1-1.21-.06l-.6-.24c-.45-.2-.47-.2-.75.21,0,.07-.1.14-.18.13s-.11-.11-.11-.2v-1Z"/>
      <path class="cls-2" d="M83.27,53.93c.07-.14.21-.13.34-.15a2.41,2.41,0,0,0,1.63-1c.1-.14.18-.39.39-.31s.1.32.1.48c0,.84,0,.84.84.83a4.13,4.13,0,0,0,.93-.09.15.15,0,0,1,.17.08c0,.1,0,.16-.11.19a2.34,2.34,0,0,1-.38.09c-.16,0-.33,0-.49,0-.31,0-.71-.14-.9.08s-.05.6-.05.91c0,1.38,0,2.76.06,4.15,0,.14,0,.29,0,.44a.74.74,0,0,0,1.08.68,2.62,2.62,0,0,0,.84-.52c.06-.05.13-.12.21-.06s0,.17,0,.26a2.51,2.51,0,0,1-3,.73.91.91,0,0,1-.51-.78c0-.35,0-.69,0-1q0-2.1,0-4.2c0-.77-.07-.65-.64-.65A.63.63,0,0,1,83.27,53.93Z"/>
      <path class="cls-2" d="M90.4,53.54a1.9,1.9,0,0,1,.15.88V59.8c0,.67,0,.66.69.71.14,0,.4-.07.39.16s-.26.13-.41.13a21,21,0,0,0-2.86,0c-.08,0-.17,0-.18-.11a.17.17,0,0,1,.15-.17c.13,0,.26,0,.39,0,.44,0,.44,0,.47-.45,0-.11,0-.23,0-.34,0-1.53,0-3.06,0-4.6v-.29c0-.43,0-.43-.46-.44h-.39c-.07,0-.14,0-.15-.1s.06-.11.12-.12l.15,0A4,4,0,0,0,90.4,53.54Z"/>
      <path class="cls-2" d="M114,53.54a2,2,0,0,1,.15,1c0,1.75,0,3.49,0,5.24,0,.13,0,.26,0,.39a.29.29,0,0,0,.29.33c.13,0,.27,0,.39,0s.41-.08.38.17-.26.11-.41.12l-.6,0a16.33,16.33,0,0,0-2.21,0c-.1,0-.22,0-.22-.12s.11-.16.21-.17.33,0,.49,0a.27.27,0,0,0,.3-.3V55a2.08,2.08,0,0,0,0-.25c0-.41,0-.41-.42-.42h-.49a.09.09,0,0,1-.08-.1.1.1,0,0,1,.08-.1l.15,0A4.31,4.31,0,0,0,114,53.54Z"/>
      <path class="cls-2" d="M97,16.15c-1,1-1.88,2-2.86,2.93a1,1,0,0,1-.2.15.19.19,0,0,1-.19,0c-.09-.06,0-.14,0-.22.37-.91.77-1.82,1.19-2.71a.25.25,0,0,1,.26-.17Z"/>
      <path class="cls-2" d="M80.74,16a.8.8,0,0,1,.91.87.81.81,0,0,1-.85.92.89.89,0,0,1-.94-.91A.8.8,0,0,1,80.74,16Z"/>
      <path class="cls-2" d="M114,50.66c0,.5-.22.74-.7.74a.7.7,0,0,1-.76-.72.68.68,0,0,1,.73-.74A.64.64,0,0,1,114,50.66Z"/>
      <path class="cls-2" d="M89.72,49.94a.67.67,0,0,1,.75.72.64.64,0,0,1-.71.74.7.7,0,0,1-.76-.71A.67.67,0,0,1,89.72,49.94Z"/>
      <path class="cls-2" d="M48.3,60.82l-.54,0H45.64c-.1,0-.28.06-.28-.1s.17-.11.28-.11c.71,0,.71,0,.71-.77,0-2.92,0-5.83,0-8.75,0-.81,0-.81-.82-.86-.14,0-.36,0-.36-.15s.23-.14.36-.14a4.1,4.1,0,0,0,1.72-.37c.31-.13.36-.1.39.25s0,.43,0,.64v4.1a2.47,2.47,0,0,1,2-1,2.17,2.17,0,0,1,1.92.92,5.44,5.44,0,0,1,.21,1.61c0,1.3,0,2.6,0,3.9,0,.49,0,.49.49.53a.33.33,0,0,1,.1,0c.41.18.81-.07,1.21,0,.21,0,.3-.12.3-.31V54.92c0-.1,0-.19,0-.29s-.1-.26-.28-.26H53s-.09,0-.09-.09a.1.1,0,0,1,.08-.11l.09,0a4.31,4.31,0,0,0,2-.59,1.52,1.52,0,0,1,.16.9c0,1.76,0,3.52,0,5.29,0,.72,0,.72.72.77h0c.12,0,.32,0,.3.16s-.2.13-.32.13c-.74,0-1.48,0-2.22,0s-1.52,0-2.28.05-1.42.06-2.23-.08a1.2,1.2,0,0,1,.75-.21c.36,0,.39,0,.39-.41,0-.58,0-1.15,0-1.73,0-1,0-2.07,0-3.1a2.15,2.15,0,0,0-.09-.44.94.94,0,0,0-.48-.59,1.5,1.5,0,0,0-2,.53,1.86,1.86,0,0,0-.15,1c0,1.3,0,2.6,0,3.89,0,1-.1.87.91.89.1.12.14.23-.07.27Z"/>
      <path class="cls-2" d="M59.85,23.43H57.52c-.21,0-.28.09-.3.29a7.79,7.79,0,0,0,.19,2.89,3.84,3.84,0,0,0,.47,1,2.57,2.57,0,0,0,2.93,1A1.74,1.74,0,0,0,61.7,28a7.68,7.68,0,0,0,.57-.87c.06-.11.15-.24.3-.18s.11.23.06.35a3.21,3.21,0,0,1-2.87,2.15,4.09,4.09,0,0,1-4.33-3.57,5,5,0,0,1,1.24-4.35,3.74,3.74,0,0,1,4.95-.32,3.08,3.08,0,0,1,1,1.82c0,.23,0,.33-.27.36a13,13,0,0,1-1.53,0h-1ZM57.33,23h3.4c.15,0,.25,0,.22-.22a4.68,4.68,0,0,0-.24-1.11,1.44,1.44,0,0,0-1.53-1,1.61,1.61,0,0,0-1.34.81A3.86,3.86,0,0,0,57.33,23Z"/>
      <path class="cls-2" d="M51.54,27.44c-.17.5-.34,1-.52,1.49-.06.18-.1.44-.32.44s-.25-.27-.32-.45c-.85-2.29-1.7-4.59-2.56-6.88-.08-.22-.18-.43-.25-.65a.66.66,0,0,0-.74-.5,2.26,2.26,0,0,1-.45,0c-.09,0-.16-.05-.15-.15s.07-.11.14-.12h4a.27.27,0,0,1,.07.26,2.29,2.29,0,0,1-.64.07c-.56,0-.61.08-.44.6l0,.09c.6,1.53,1.12,3.08,1.67,4.62.05.16.07.35.23.46a2.12,2.12,0,0,0,.19-.57c.52-1.54,1.06-3.08,1.53-4.64a2.17,2.17,0,0,0,.07-.24c0-.27,0-.33-.26-.35h-.39c-.12,0-.27,0-.26-.16s.17-.13.29-.13h2.22c.09,0,.22,0,.2.15s-.11.11-.19.12h-.45c-.45,0-.58.11-.74.57l-.87,2.68C52.23,25.24,51.89,26.34,51.54,27.44Z"/>
      <path class="cls-2" d="M55.15,50.66a.63.63,0,0,1-.7.74.72.72,0,0,1-.77-.71.69.69,0,0,1,.73-.75A.66.66,0,0,1,55.15,50.66Z"/>
      <path class="cls-3" d="M51.15,22.89l0-8.1Z"/>
      <path class="cls-2" d="M22.29,33.67c.18-.05.27-.22.39-.35a5,5,0,0,1,5.55-.89,3.76,3.76,0,0,1,2.08,3,16.8,16.8,0,0,1,.05,3.4c-.07,1.9-.08,3.79,0,5.68,0,.3,0,.31-.31.27a9.27,9.27,0,0,0-2,0c-.32,0-.33,0-.31-.31.05-1.37.12-2.74.15-4.1,0-1.16,0-2.31,0-3.46a4.06,4.06,0,0,0-.36-1.68,2.19,2.19,0,0,0-2.17-1.42,4.48,4.48,0,0,0-.73.05,2.52,2.52,0,0,0-2.08,1.68,5.48,5.48,0,0,0-.37,2c0,1.95,0,3.89.09,5.84,0,.44.08.88.13,1.36-.47.06-.92-.08-1.38,0l-1.36.07a96.71,96.71,0,0,0,0-12.51c.4,0,.83.12,1.26.12a10,10,0,0,0,1.3-.15,4.35,4.35,0,0,1,0,1c0,.16-.09.32,0,.47,0,0-.05,0-.07,0s0,0,0,.05S22.29,33.72,22.29,33.67Z"/>
      <path class="cls-2" d="M27.88,16.62a5.08,5.08,0,0,0,2.51,0c-.23,4.21-.25,8.37-.08,12.55a13,13,0,0,0-2.25,0c-.21,0-.23-.09-.2-.23a7.18,7.18,0,0,0,.06-1.22c-.13,0-.16,0-.21.1a4.71,4.71,0,0,1-4.32,1.56,4,4,0,0,1-.77-.15,3.74,3.74,0,0,1-2.92-3.55c-.06-1.17,0-2.34,0-3.51,0-1.68,0-3.36,0-5a1.28,1.28,0,0,1,0-.5,5.16,5.16,0,0,0,2.44,0c.14.14.08.28.07.4-.2,2.45-.28,4.91-.25,7.36a5,5,0,0,0,.3,1.75,2.35,2.35,0,0,0,1.43,1.41,2.89,2.89,0,0,0,3.75-1.63,5.45,5.45,0,0,0,.33-1.69c.06-2.34.07-4.68,0-7A1.2,1.2,0,0,1,27.88,16.62Z"/>
      <path class="cls-2" d="M20.31,57.71h.35a.54.54,0,0,1,.56.28,4.26,4.26,0,0,0,4.53,1.41,2.81,2.81,0,0,0,.8-.38,1.92,1.92,0,0,0,.88-1.92,1.26,1.26,0,0,0-.54-.9,4.77,4.77,0,0,0-1.56-.74c-.63-.18-1.27-.33-1.91-.5a7.41,7.41,0,0,1-1.75-.66,3.19,3.19,0,0,1-1.7-4,3.78,3.78,0,0,1,1.81-2.38,6.53,6.53,0,0,1,3-.88,7.61,7.61,0,0,1,3.07.4c.46.16.93.3,1.44.46a7.22,7.22,0,0,0-.9,2.11c0,.14-.11.17-.24.18-.3,0-.55,0-.7-.36a1.79,1.79,0,0,0-.88-.9,3.08,3.08,0,0,0-3.24,0,1.76,1.76,0,0,0-.89,1.51,1.53,1.53,0,0,0,.74,1.46,6.09,6.09,0,0,0,1.82.73c.68.19,1.39.29,2.06.51a7.77,7.77,0,0,1,1.37.57,3.12,3.12,0,0,1,1.36,4,4.78,4.78,0,0,1-2.7,2.61,8.53,8.53,0,0,1-4,.55A9.07,9.07,0,0,1,20,60.2c-.36-.16-.36-.16-.2-.51A5.08,5.08,0,0,0,20.31,57.71Z"/>
      <path class="cls-2" d="M34.63,21.51c.19,0,.26-.18.36-.28a3.23,3.23,0,0,1,2.89-.79A2,2,0,0,1,39.5,22.1a8,8,0,0,1,.11,1.38v4.45c0,.2,0,.39,0,.59a.33.33,0,0,0,.35.38c.22,0,.43,0,.64,0s.14,0,.15.1,0,.15-.13.17a1.51,1.51,0,0,1-.3,0H37.07c-.15,0-.41.06-.41-.14s.24-.16.39-.16c1.05,0,.9-.06.91-.94,0-1.53,0-3.07,0-4.6a7.74,7.74,0,0,0,0-1.08A1.35,1.35,0,0,0,36.24,21a2,2,0,0,0-1.42.9,1.07,1.07,0,0,0-.16.61c0,2,0,3.95,0,5.93,0,.34.06.41.39.44s.43,0,.64,0a.12.12,0,0,1,.14.11c0,.1-.05.15-.13.16a1.06,1.06,0,0,1-.25,0H32c-.06,0-.14,0-.15-.11s.06-.14.14-.15a4.89,4.89,0,0,1,.54,0c.46,0,.5-.06.52-.52v-.1c0-2,0-4.05,0-6.08v-.1c0-.49-.06-.54-.54-.55-.18,0-.36,0-.54,0s-.36,0-.36-.18.21-.16.35-.18.46,0,.69-.08a3.54,3.54,0,0,0,1.64-.62c.23-.19.33-.13.36.18A7.81,7.81,0,0,0,34.63,21.51Z"/>
      <path class="cls-2" d="M40.21,54.28A2.73,2.73,0,0,1,44,54.4a3.35,3.35,0,0,1,1,2,4.08,4.08,0,0,1-1.16,3.76,2.73,2.73,0,0,1-2.51.7,1.87,1.87,0,0,1-.95-.53c-.14.06-.12.15-.12.23V64c0,.45,0,.47.47.5l.69,0a.15.15,0,0,1,.13.13.12.12,0,0,1-.13.12h-.25c-1,0-2,0-3,0-.16,0-.44.09-.44-.16s.27-.11.42-.13h.05c.66,0,.67,0,.67-.66q0-4.36,0-8.75c0-.59-.07-.65-.65-.65h-.45a.12.12,0,0,1-.13-.11.13.13,0,0,1,.13-.13,1.74,1.74,0,0,1,.39,0,2.71,2.71,0,0,0,1.36-.38l.22-.11c.2-.09.32,0,.36.19A4.81,4.81,0,0,1,40.21,54.28Zm3.39,3A5.11,5.11,0,0,0,43.18,55a2.06,2.06,0,0,0-.66-.85,1.43,1.43,0,0,0-2.16.6,2,2,0,0,0-.12.77c0,1.28,0,2.57.06,3.85a1.07,1.07,0,0,0,.19.6A1.43,1.43,0,0,0,43,59.9,5.23,5.23,0,0,0,43.6,57.24Z"/>
      <path class="cls-2" d="M30.89,57.5a4,4,0,0,1,1.09-3,3.24,3.24,0,0,1,4.36-.16,4.06,4.06,0,0,1,.35,5.57,3.26,3.26,0,0,1-5-.16A3.49,3.49,0,0,1,30.89,57.5Zm1.49-.22a5.72,5.72,0,0,0,.11,1.37,3,3,0,0,0,.68,1.51,1.45,1.45,0,0,0,2.47-.32,3.7,3.7,0,0,0,.3-.78,7.71,7.71,0,0,0,.15-2.75,5.74,5.74,0,0,0-.39-1.57A1.54,1.54,0,0,0,33,54.53a3.18,3.18,0,0,0-.42.94A6.11,6.11,0,0,0,32.38,57.28Z"/>
      <path class="cls-2" d="M44.74,24.73c0,1.17,0,2.34,0,3.51,0,.53,0,.56.55.61.2,0,.4,0,.59,0s.21.06.19.19-.11.15-.21.15-.23,0-.35,0a22.41,22.41,0,0,0-2.72-.07,1.51,1.51,0,0,0-.63.06c-.12,0-.3.05-.33-.11s.15-.23.29-.24.4,0,.6,0,.34-.13.34-.37c0-2.25,0-4.49,0-6.73,0-.34,0-.35-.39-.36s-.46,0-.69,0a.21.21,0,0,1-.15-.1c0-.1.06-.14.15-.16l.44-.05a4.59,4.59,0,0,0,1.84-.53c.34-.18.34-.17.42.22a4.75,4.75,0,0,1,.06.84Z"/>
      <path class="cls-2" d="M46.36,39.8H44.48c-.16,0-.29,0-.31.22a5.8,5.8,0,0,0,.31,2.77,2.09,2.09,0,0,0,2.4,1.3,1.51,1.51,0,0,0,.91-.54,5.88,5.88,0,0,0,.52-.78c0-.09.12-.18.23-.14s.1.2.06.29a2.68,2.68,0,0,1-1.68,1.64,3.14,3.14,0,0,1-2.74-.44,3.47,3.47,0,0,1-1.52-2.76,4.13,4.13,0,0,1,.75-2.8,3,3,0,0,1,3.52-1.1,2.33,2.33,0,0,1,1.64,1.81c.09.4.07.44-.33.45H46.36Zm.84-.39a1.89,1.89,0,0,0-.11-.89,1.21,1.21,0,0,0-1.06-1,1.33,1.33,0,0,0-1.34.65,2.76,2.76,0,0,0-.4,1.2Z"/>
      <path class="cls-2" d="M37.48,40.76a6.86,6.86,0,0,0,.23,1.81,3.28,3.28,0,0,0,.36.81,1.79,1.79,0,0,0,2.78.33c.17-.17.31-.38.47-.57s.17-.19.29-.12.08.21,0,.31a2.7,2.7,0,0,1-2,1.34,3.23,3.23,0,0,1-3.54-3,4.45,4.45,0,0,1,.38-2.51,3.3,3.3,0,0,1,4-1.76,2.46,2.46,0,0,1,1.12.69,1.18,1.18,0,0,1,.33,1,.7.7,0,0,1-.93.56.63.63,0,0,1-.49-.82c0-.1.07-.19.1-.28a.65.65,0,0,0-.44-.94,1.72,1.72,0,0,0-2,.58,3.23,3.23,0,0,0-.57,1.61C37.5,40.14,37.5,40.45,37.48,40.76Z"/>
      <path class="cls-2" d="M31.78,38a9.58,9.58,0,0,1,1.2-.22A10.52,10.52,0,0,0,34,37.3a1,1,0,0,1,.15.75v5.28c0,.89,0,.86.86.92l.15,0a.11.11,0,0,1,.1.09.13.13,0,0,1-.09.15.74.74,0,0,1-.39,0,13.3,13.3,0,0,0-2.75,0c-.11,0-.22,0-.24-.12s.1-.15.2-.16l.19,0c.63-.07.64-.07.65-.71V38.78a2.29,2.29,0,0,0,0-.25c0-.42,0-.41-.47-.43C32.19,38.1,32,38.18,31.78,38Z"/>
      <path class="cls-2" d="M43.76,16a.8.8,0,0,1,.88.89.82.82,0,0,1-.88.9.86.86,0,0,1-.91-.93A.8.8,0,0,1,43.76,16Z"/>
      <path class="cls-2" d="M33.39,33.67a.66.66,0,0,1,.73.73.68.68,0,0,1-.73.74.71.71,0,0,1-.73-.75A.64.64,0,0,1,33.39,33.67Z"/>
      <path class="cls-3" d="M22.29,33.67s0,.07-.06.07,0,0,0-.05.05,0,.07,0Z"/>
    </g>
  </g>
</svg>
