<svg id="Calque_1" data-name="Calque 1" xmlns="http://www.w3.org/2000/svg" viewBox="0 0 201.53 80">
  <title>LauraDemessine_website</title>
  <g>
    <g>
      <path d="M40,0V19.35c0,.07,0,.14,0,.23a20.23,20.23,0,0,0-16.44,8.53,19.64,19.64,0,0,0-3.82,12.76,20.39,20.39,0,0,0,38.75,8L43.53,53,40,40,78.61,29.48c.14.58.3,1.15.42,1.72A38.74,38.74,0,0,1,80,41.6,39.34,39.34,0,0,1,68.89,67.66,39.21,39.21,0,0,1,49.34,78.91,40.05,40.05,0,0,1,2,52.53,39.53,39.53,0,0,1,.06,37.85,39.88,39.88,0,0,1,21.59,4.43a39.17,39.17,0,0,1,12.78-4C35.55.23,36.75.16,37.94.05l.35,0Z"/>
      <path d="M201.53,54.75h-2.27c-.51,0-.51,0-.51.5v7.51c0,.48,0,.48-.49.49-.65,0-1.3,0-1.94,0-.34,0-.44-.1-.44-.44,0-2.5,0-5,0-7.51,0-.55,0-.55-.57-.55s-1.17,0-1.75,0c-.31,0-.41-.11-.41-.41,0-.62,0-1.24,0-1.87,0-.36.13-.45.48-.45H201a5.42,5.42,0,0,0,.58-.06Z"/>
      <path d="M169.49,23.36a2.82,2.82,0,0,1,1.58,3.4,3.11,3.11,0,0,1-2.89,2.63c-2.17.07-4.35.05-6.52.08-.22,0-.32-.09-.31-.31v-.22c0-3.38,0-6.76,0-10.15,0-.55,0-.56.54-.56,2,0,4,0,6,0a2.62,2.62,0,0,1,2.52,1.81,2.67,2.67,0,0,1-.59,3Zm-5.4,3.34h3c.11,0,.24,0,.32,0a1.58,1.58,0,0,0,.58-.46.81.81,0,0,0-.78-1.17c-1,0-1.95,0-2.93,0a1,1,0,0,0-.21,0Zm0-4.41h3a.67.67,0,1,0,0-1.33h-2.71a2,2,0,0,0-.24,0Z"/>
      <path d="M124.21,25.41l2.33,4c-.11.05-.15.08-.2.08-1,0-2,0-3,0a.59.59,0,0,1-.4-.3c-.58-1-1.16-2-1.72-3a.69.69,0,0,0-.69-.41c-1,0-1,0-1,1.07,0,.76,0,1.51,0,2.27,0,.3-.08.42-.39.41-.67,0-1.34,0-2,0-.28,0-.4-.07-.4-.37,0-3.49,0-7,0-10.48,0-.29.11-.39.39-.39,2,0,4,0,6,0a3.57,3.57,0,0,1,3.3,3.17,3.66,3.66,0,0,1-2,3.88ZM119.48,23c1,0,2,0,3,0a1,1,0,0,0,1-1,1,1,0,0,0-1-1c-1,0-2,0-3.09,0Z"/>
      <path d="M167.74,40.73V35.61c0-.5,0-.5.48-.5h4.32a5.61,5.61,0,0,1,.94,11.14,4.78,4.78,0,0,1-.84.08h-4.5c-.3,0-.41-.1-.4-.4C167.75,44.2,167.74,42.47,167.74,40.73Zm2.87,2.81c.76,0,1.5.06,2.22,0a2.89,2.89,0,0,0,2.51-2.65A2.72,2.72,0,0,0,173.28,38a19.23,19.23,0,0,0-2.67-.22Z"/>
      <path d="M148.37,23.83a5.82,5.82,0,0,1,5.9-5.88,5.89,5.89,0,1,1-5.9,5.88Zm8.89,0a3,3,0,1,0-3,3.07A3,3,0,0,0,157.26,23.85Z"/>
      <path d="M132.73,46.62a5.89,5.89,0,1,1,5.9-5.91A5.86,5.86,0,0,1,132.73,46.62Zm0-2.79a3,3,0,0,0,3-3.13,3,3,0,1,0-3,3.13Z"/>
      <path d="M145.58,59.59c-.65,0-1.31,0-2,0-.35,0-.45-.12-.43-.45,0-.58,0-1.17,0-1.76,0-.26.08-.37.35-.37h5.24c.28,0,.36.11.37.37a5.85,5.85,0,1,1-5.29-5.63,5.79,5.79,0,0,1,3.48,1.55c.34.31.33.36,0,.7s-.94.92-1.38,1.41c-.2.21-.32.19-.51,0a2.82,2.82,0,0,0-2.7-.85,3.14,3.14,0,0,0-1.88,4.92,3,3,0,0,0,4.23.75,4.76,4.76,0,0,0,.55-.55Z"/>
      <path d="M112.05,25.75h-1.77c-.67,0-.67,0-.67-.69,0-.5,0-1,0-1.5,0-.24.09-.33.32-.33h5.31c.25,0,.31.12.33.34A5.85,5.85,0,1,1,108.92,18a5.78,5.78,0,0,1,4.86,1.51c.26.23.28.41,0,.66-.48.46-.94.95-1.4,1.44-.21.23-.35.16-.53,0a2.92,2.92,0,0,0-4-.26,3.2,3.2,0,0,0-1.1,3.24A3.13,3.13,0,0,0,109.3,27a2.78,2.78,0,0,0,2.7-1,.31.31,0,0,0,0-.1S112.05,25.85,112.05,25.75Z"/>
      <path d="M185.51,22.45c.2,0,.38,0,.56,0q1.83,0,3.66,0c.33,0,.46.09.45.43,0,.63,0,1.25,0,1.87,0,.35-.13.43-.45.43-1.26,0-2.52,0-3.77,0h-.46v1.47H186c1.71,0,3.42,0,5.13,0,.35,0,.48.1.47.46,0,.66,0,1.32,0,2,0,.26-.09.36-.36.36H183c-.28,0-.36-.11-.36-.37,0-3.49,0-7,0-10.48,0-.28.11-.39.39-.39h8.13c.29,0,.38.13.37.41,0,.64,0,1.29,0,1.94,0,.31-.11.39-.41.39H186c-.48,0-.48,0-.48.48v.84A.8.8,0,0,0,185.51,22.45Z"/>
      <path d="M130.61,21c0,.13-.06.21-.07.29-.17,1.12-.08,1.23,1,1.23s2.18,0,3.27,0c.33,0,.45.11.43.44,0,.64,0,1.27,0,1.91,0,.29-.09.38-.38.38h-4.32v1.47h.48c1.72,0,3.44,0,5.16,0,.36,0,.47.11.46.46q0,1,0,1.95c0,.27-.07.39-.37.39h-8.14c-.28,0-.39-.1-.39-.38q0-5.22,0-10.45c0-.29.11-.41.41-.41h8.1c.28,0,.39.1.39.39,0,.64,0,1.29,0,1.94,0,.33-.12.41-.43.41h-5.63Z"/>
      <path d="M179.39,40.7c0-1.71,0-3.41,0-5.12,0-.38.12-.48.48-.48,2.65,0,5.3,0,7.95,0,.45,0,.47,0,.47.48v1.76c0,.46,0,.49-.51.49h-5.23c-.25,0-.39.09-.36.37a6.59,6.59,0,0,1,0,.77c0,.28.08.38.38.38,1.28,0,2.56,0,3.84,0,.36,0,.51.09.49.47,0,.59,0,1.19,0,1.79,0,.35-.1.47-.46.47-1.24,0-2.49,0-3.74,0-.5,0-.51,0-.51.52a4.86,4.86,0,0,1,0,.54c0,.36.12.47.46.47h5.13c.5,0,.51,0,.51.51s0,1.22,0,1.83c0,.28-.1.39-.39.39q-4.06,0-8.13,0c-.33,0-.37-.16-.37-.43Z"/>
      <path d="M176,59v1.46a6.12,6.12,0,0,0,.63.06h4.94c.48,0,.5,0,.5.49s0,1.25,0,1.87c0,.26-.08.37-.36.37h-8.17c-.27,0-.35-.11-.35-.37V52.41c0-.29.11-.38.39-.38h8.09c.31,0,.41.11.4.41,0,.63,0,1.27,0,1.9,0,.33-.12.42-.43.42h-5.2c-.36,0-.52.08-.48.47a8.42,8.42,0,0,1,0,1c.21,0,.39.05.57.05h3.63c.49,0,.5,0,.5.48s0,1.17,0,1.76c0,.36-.08.49-.47.48-1.24,0-2.49,0-3.73,0Z"/>
      <path d="M153,54.78v1.45a5.48,5.48,0,0,0,.57.05c1.22,0,2.44,0,3.66,0,.36,0,.47.11.46.46,0,.63,0,1.25,0,1.87,0,.31-.11.4-.41.4H153v1.47c.21,0,.42.05.64.05h4.94c.46,0,.49,0,.49.47,0,.62,0,1.24,0,1.87,0,.27-.07.39-.37.39h-8.14c-.28,0-.38-.09-.38-.38q0-5.22,0-10.44c0-.31.1-.41.4-.41h8.1c.28,0,.4.09.39.38,0,.64,0,1.27,0,1.91,0,.33-.09.45-.43.44h-5.1Z"/>
      <path d="M110,39.36h4.32c.29,0,.39.09.39.38,0,.63,0,1.27,0,1.9,0,.34-.1.45-.44.45-1.27,0-2.54,0-3.81,0-.47,0-.5,0-.5.5,0,1.25-.07,1,1,1,1.56,0,3.12,0,4.69,0,.35,0,.47.11.45.46,0,.64,0,1.27,0,1.91,0,.26-.09.37-.36.37-2.72,0-5.45,0-8.17,0-.38,0-.36-.23-.36-.49V35.48c0-.25.07-.37.35-.37h8.21c.26,0,.33.11.33.35,0,.65,0,1.3,0,1.95,0,.34-.12.44-.45.43-1.66,0-3.32,0-5,0-.72,0-.72,0-.71.73C109.93,38.83,110,39.08,110,39.36Z"/>
      <path d="M152.84,39.36h2.77c.51,0,1,0,1.54,0,.29,0,.41.07.41.39,0,.64,0,1.29,0,1.94,0,.31-.12.4-.41.4-1.28,0-2.57,0-3.85,0-.36,0-.5.12-.5.48,0,1.29-.06,1,1,1.05,1.56,0,3.12,0,4.69,0,.32,0,.46.09.44.44,0,.63,0,1.26,0,1.9,0,.27-.07.4-.37.4q-4.07,0-8.13,0c-.29,0-.4-.11-.4-.39q0-5.23,0-10.48c0-.26.09-.36.36-.36h8.17c.28,0,.36.1.36.36,0,.64,0,1.27,0,1.91,0,.35-.1.47-.46.47-1.67,0-3.34,0-5,0-.66,0-.67,0-.66.67C152.81,38.78,152.83,39,152.84,39.36Z"/>
      <path d="M168.54,57.2c-.77.48-1.46.88-2.12,1.33a.71.71,0,0,1-.92,0c-.66-.45-1.34-.85-2.09-1.32v.54c0,1.69,0,3.39,0,5.09,0,.34-.1.44-.44.43-.67,0-1.34,0-2,0-.26,0-.34-.1-.34-.35V52.25c0-.09,0-.18.05-.34.19.11.35.18.5.28l4.36,2.89a.63.63,0,0,0,.84,0c1.49-1,3-2,4.52-3,.11-.07.23-.12.39-.21a4,4,0,0,1,0,.41c0,3.5,0,7,0,10.51,0,.31-.08.44-.41.43q-1,0-2,0c-.33,0-.41-.11-.41-.42,0-1.64,0-3.28,0-4.91Z"/>
      <path d="M104.63,51.88V62.76c0,.49,0,.5-.51.5s-1.27,0-1.9,0c-.29,0-.38-.1-.38-.38,0-1.7,0-3.4,0-5.1V57.2c-.69.43-1.33.78-1.91,1.22a1,1,0,0,1-1.33,0c-.57-.41-1.19-.76-1.85-1.18,0,.26,0,.45,0,.64,0,1.64,0,3.29,0,4.94,0,.38-.11.49-.48.47-.59,0-1.19,0-1.79,0s-.48,0-.48-.48c0-1.53,0-3.07,0-4.61,0-1.89,0-3.79,0-5.68,0-.16,0-.33,0-.57l.46.25c1.45,1,2.9,1.9,4.33,2.87a.7.7,0,0,0,.93,0c1.46-1,2.94-1.94,4.41-2.9C104.26,52.08,104.4,52,104.63,51.88Z"/>
      <path d="M141,24.18c0,.31,0,.51,0,.71,0,1.38,0,2.76,0,4.14,0,.34-.09.45-.43.44-.67,0-1.35,0-2,0-.25,0-.35-.08-.35-.34,0-3.57,0-7.13,0-10.7a2.94,2.94,0,0,1,.05-.33c2.07,1.77,4,3.6,6,5.32l.09-.05V22.8c0-1.37,0-2.73,0-4.1,0-.35.1-.48.45-.47.66,0,1.32,0,2,0,.27,0,.37.1.37.37q0,5.31,0,10.63a3.51,3.51,0,0,1,0,.37Z"/>
      <path d="M117.13,51.87l6.08,5.43c0-.31,0-.5,0-.69q0-2.07,0-4.14c0-.33.1-.45.44-.44.65,0,1.31,0,2,0,.29,0,.39.1.39.38q0,5.3,0,10.59c0,.09,0,.19,0,.41L119.9,58c0,.22,0,.36,0,.49,0,1.45,0,2.91,0,4.36,0,.33-.08.46-.43.44-.66,0-1.32,0-2,0-.28,0-.39-.08-.39-.37,0-3.54,0-7.08,0-10.62C117.08,52.18,117.1,52.1,117.13,51.87Z"/>
      <path d="M116.4,63.26h-1.94c-1.1,0-1.08,0-1.48-1s-.12-.84-1.21-.85c-.78,0-1.56,0-2.34,0-.34,0-.54.07-.64.43s-.27.75-.39,1.14a.41.41,0,0,1-.47.34h-2.2c-.44,0-.47,0-.32-.47L107,58.46q1.08-3,2.15-6a.55.55,0,0,1,.63-.44c.67,0,1.35,0,2,0a.55.55,0,0,1,.62.43q1.64,4.4,3.3,8.79c.18.5.38,1,.56,1.51C116.3,62.89,116.33,63,116.4,63.26Zm-5.65-7.06-.81,2.36h1.67Z"/>
      <path d="M136.23,63.26c-.38,0-.76,0-1.14,0a.42.42,0,0,1-.46-.32c-.14-.43-.31-.85-.46-1.27a.4.4,0,0,0-.45-.32h-3a.42.42,0,0,0-.47.35c-.14.41-.3.82-.43,1.24a.42.42,0,0,1-.46.32H127c-.3,0-.36-.09-.26-.37q1.9-5.26,3.79-10.52A.44.44,0,0,1,131,52h2.19a.48.48,0,0,1,.52.36l3.93,10.46c.14.36.11.4-.27.4ZM133,58.57l-.83-2.26-.08,0-.76,2.24Z"/>
      <path d="M192.46,63.37l-6-5.4c0,.3,0,.5,0,.7,0,1.37,0,2.74,0,4.11,0,.35-.08.5-.47.48-.64,0-1.29,0-1.94,0-.27,0-.39-.07-.39-.37,0-3.54,0-7.08,0-10.62a4.31,4.31,0,0,1,.05-.43l6.1,5.45c0-.34.06-.58.06-.82,0-1.32,0-2.64,0-4,0-.45,0-.47.47-.48h1.87c.28,0,.4.09.4.38,0,3.51,0,7,0,10.52A3,3,0,0,1,192.46,63.37Z"/>
      <path d="M122.58,34.86a5.62,5.62,0,0,1,4,1.61c.23.21.23.35,0,.56-.46.47-.92.94-1.36,1.43-.22.24-.39.24-.61,0a2.88,2.88,0,0,0-1.52-.82,3.1,3.1,0,1,0-.41,6.16,2.92,2.92,0,0,0,2-1c.2-.21.33-.21.53,0,.44.48.9,1,1.37,1.42.23.24.19.4,0,.61a5.82,5.82,0,0,1-9.84-3.07,5.83,5.83,0,0,1,4.88-6.9C122,34.86,122.28,34.88,122.58,34.86Z"/>
      <path d="M172.5,23.86c0-1.72,0-3.44,0-5.16,0-.35.11-.48.46-.47.6,0,1.2,0,1.8,0s.56,0,.56.55v7.11c0,.86,0,.86.86.86,1.59,0,3.17,0,4.76,0,.35,0,.48.12.47.47,0,.61,0,1.22,0,1.83,0,.3-.08.43-.41.43h-8.09c-.32,0-.4-.12-.4-.41C172.5,27.33,172.5,25.59,172.5,23.86Z"/>
      <path d="M142.67,43.62c.26,0,.46.05.67.05h4.94c.36,0,.5.09.49.47,0,.61,0,1.22,0,1.83,0,.28-.1.37-.37.37q-4.06,0-8.13,0c-.31,0-.39-.13-.39-.42,0-3.47,0-6.93,0-10.4,0-.32.12-.42.44-.41.63,0,1.27,0,1.9,0,.37,0,.48.1.48.47q0,3.74,0,7.47Z"/>
      <path d="M117.45,75.66V74.18c0-.7,0-1.39,0-2.09,0-.1.11-.21.17-.31.07.09.2.18.2.28,0,1.44,0,2.88,0,4.32a1,1,0,0,1,0,.12.45.45,0,0,1-.6-.21c-.83-1.24-1.68-2.46-2.61-3.67,0,.22,0,.44,0,.66,0,1,0,1.93,0,2.89,0,.12-.1.34-.17.35-.28,0-.19-.22-.2-.36,0-1.33,0-2.66,0-4a1.05,1.05,0,0,1,.16-.4c.15.08.36.11.44.23.73,1,1.42,2,2.13,3.07l.45.61Z"/>
      <path d="M166.28,75.77c0-.36.05-.61.06-.86,0-.93,0-1.86,0-2.78,0-.12.11-.24.17-.35.06.12.19.24.19.36,0,1.35,0,2.71,0,4.06a1.26,1.26,0,0,1-.12.34c-.16-.07-.37-.09-.45-.21-.85-1.19-1.68-2.39-2.52-3.6a.29.29,0,0,0-.2-.12v.59c0,1,0,2,0,3,0,.12-.1.34-.17.35-.28,0-.2-.21-.2-.36q0-2,0-4a1.37,1.37,0,0,1,.17-.43c.15.08.35.12.44.24.65.91,1.28,1.85,1.92,2.77C165.78,75.09,166,75.38,166.28,75.77Z"/>
      <path d="M198.71,76.5a.44.44,0,0,1-.59-.21c-.72-1.09-1.47-2.16-2.21-3.23-.11-.16-.23-.31-.4-.53,0,.35,0,.6,0,.85,0,1,0,1.9,0,2.86,0,.1-.13.2-.19.3-.06-.1-.17-.2-.17-.3,0-1.37,0-2.74,0-4.1,0-.13.11-.35.15-.35a.63.63,0,0,1,.43.18c.55.76,1.08,1.54,1.61,2.31l.86,1.23.25.27V74.7c0-.88,0-1.76,0-2.64,0-.09.11-.19.16-.28.07.09.21.18.21.27,0,1.44,0,2.88,0,4.32A.5.5,0,0,1,198.71,76.5Z"/>
      <path d="M193.68,74.12a2.73,2.73,0,0,1-.84,2,2.18,2.18,0,0,1-3.51-.92,2.69,2.69,0,0,1,.56-3,2.17,2.17,0,0,1,3.5.73A9.22,9.22,0,0,1,193.68,74.12Zm-.43,0a7.13,7.13,0,0,0-.33-1.14A1.53,1.53,0,0,0,191.4,72a1.59,1.59,0,0,0-1.54.92,2.55,2.55,0,0,0,0,2.33,1.6,1.6,0,0,0,1.6,1,1.55,1.55,0,0,0,1.52-1A8.28,8.28,0,0,0,193.25,74.13Z"/>
      <path d="M161.25,76.51a.44.44,0,0,1-.56-.21c-.81-1.2-1.65-2.38-2.48-3.58a.3.3,0,0,0-.21-.11v1c0,.87,0,1.74,0,2.6,0,.11-.12.21-.18.32-.07-.11-.18-.22-.18-.32,0-1.37,0-2.74,0-4.11a.56.56,0,0,1,.14-.32.75.75,0,0,1,.44.16c.46.63.9,1.28,1.34,1.92l1.16,1.65a.35.35,0,0,0,.22.15V75c0-1,0-2,0-3,0-.09.1-.19.16-.28.07.09.2.18.2.27,0,1.46,0,2.91,0,4.36A.49.49,0,0,1,161.25,76.51Z"/>
      <path d="M131.47,71.68a2,2,0,0,1,2.12,1.65,2.67,2.67,0,0,1-.66,2.76,2.16,2.16,0,0,1-3.37-.57,3,3,0,0,1-.19-2.31A2,2,0,0,1,131.47,71.68Zm-1.8,2.57s0,.21,0,.37a1.81,1.81,0,0,0,1.43,1.61,1.69,1.69,0,0,0,1.91-1A2.6,2.6,0,0,0,133,73a1.68,1.68,0,0,0-2.07-.92A2,2,0,0,0,129.67,74.25Z"/>
      <path d="M168.13,74.14a2.35,2.35,0,0,1,1.55-2.36,2.22,2.22,0,0,1,3,2.14,2.91,2.91,0,0,1-.35,1.66,2.07,2.07,0,0,1-2.1,1.06,2,2,0,0,1-1.85-1.47A7.26,7.26,0,0,1,168.13,74.14Zm.49,0c0,.11,0,.22,0,.33a1.81,1.81,0,0,0,1.59,1.77,1.68,1.68,0,0,0,1.9-1.34,3.33,3.33,0,0,0,.08-1.09,1.78,1.78,0,0,0-2.39-1.68A2,2,0,0,0,168.62,74.14Z"/>
      <path d="M149,73.82a6.58,6.58,0,0,1-.42-.84A.85.85,0,0,1,149,71.9a1.13,1.13,0,0,1,1.35.2,1.06,1.06,0,0,1,0,1.26,8.43,8.43,0,0,1-.67.64l1,1.24a3.22,3.22,0,0,1,.18-.57c0-.08.15-.12.23-.18s.12.19.1.24a1.31,1.31,0,0,0,.51,1.72l-.11.12a2.1,2.1,0,0,1-.46-.18,2.53,2.53,0,0,1-.38-.42c-1.15.82-2.07.88-2.6.16a1.12,1.12,0,0,1-.14-1.3A6.75,6.75,0,0,1,149,73.82Zm.34.36c-.72.33-1.05.77-1,1.29a1,1,0,0,0,.88.81,1.26,1.26,0,0,0,1.25-.71Zm.15-.41a5.87,5.87,0,0,0,.65-.8.56.56,0,0,0-.19-.75.66.66,0,0,0-.79,0A.58.58,0,0,0,149,73C149.07,73.23,149.25,73.45,149.45,73.77Z"/>
      <path d="M121.57,71.68a2,2,0,0,1,2.06,1.54,2.72,2.72,0,0,1-.87,3.06,2.18,2.18,0,0,1-3.32-1.16,3.2,3.2,0,0,1,0-1.84A2.06,2.06,0,0,1,121.57,71.68Zm1.82,2.44a7.72,7.72,0,0,0-.34-1.16,1.57,1.57,0,0,0-1.51-.92A1.59,1.59,0,0,0,120,73a2.56,2.56,0,0,0,0,2.36,1.6,1.6,0,0,0,1.61.93,1.57,1.57,0,0,0,1.51-1A9.79,9.79,0,0,0,123.39,74.12Z"/>
      <path d="M139,76.6l-.2-.9c-.1.15-.15.26-.22.34a1.91,1.91,0,0,1-2,.52A2.06,2.06,0,0,1,135,75a2.68,2.68,0,0,1,.73-2.82,2.12,2.12,0,0,1,3.26.67,1,1,0,0,1,0,.39c-.11-.08-.28-.13-.33-.24a1.71,1.71,0,0,0-3.08,0,2.62,2.62,0,0,0,0,2.33,1.72,1.72,0,0,0,1.82.93,1.56,1.56,0,0,0,1.39-1.43c0-.26,0-.36-.3-.36s-.66,0-1,0c-.08,0-.16-.09-.23-.13s.15-.16.23-.17c.46,0,.93,0,1.39,0,.09,0,.24.13.24.21,0,.68,0,1.36,0,2C139.13,76.46,139.09,76.49,139,76.6Z"/>
      <path d="M101.88,76.54h-3c-.26,0-.22-.17-.22-.33,0-.94,0-1.88,0-2.82,0-.43,0-.86,0-1.28,0-.25.08-.36.34-.35.86,0,1.71,0,2.57,0,.1,0,.21.1.31.16-.11.07-.22.18-.33.19-.7,0-1.41,0-2.12,0-.28,0-.4.07-.39.36,0,.45,0,.9,0,1.41h1.76c.21,0,.42,0,.63,0a1.14,1.14,0,0,1,.3.17c-.1.07-.19.18-.29.18-.63,0-1.25,0-1.87,0s-.53,0-.53.51c0,.36,0,.71,0,1.07s.08.34.34.33h2.16C101.79,76.16,102,76.19,101.88,76.54Z"/>
      <path d="M177.88,76.48c.1-.24.18-.47.27-.69.49-1.22,1-2.44,1.48-3.66.06-.15.25-.34.38-.34s.32.19.38.34c.54,1.33,1.06,2.67,1.58,4,0,.11.07.23.11.35-.28.11-.43.05-.52-.22s-.24-.54-.31-.82a.54.54,0,0,0-.61-.45c-.46,0-.93,0-1.39,0a.47.47,0,0,0-.51.37c-.09.3-.23.59-.33.89S178.2,76.61,177.88,76.48Zm3-1.82L180,72.21c-.34.87-.64,1.64-1,2.45Z"/>
      <path d="M105.33,71.68a1.82,1.82,0,0,1,1.78,1,1,1,0,0,1,0,.39c-.12-.07-.29-.11-.35-.22a1.52,1.52,0,0,0-1.4-.89,1.59,1.59,0,0,0-1.51.87,2.57,2.57,0,0,0,0,2.52,1.62,1.62,0,0,0,1.58.88,1.51,1.51,0,0,0,1.4-1.11c.06-.17,0-.45.33-.36.06,0,.09.34,0,.5a1.77,1.77,0,0,1-1.55,1.31,2,2,0,0,1-2.09-.91,2.88,2.88,0,0,1,.33-3.5A2,2,0,0,1,105.33,71.68Z"/>
      <path d="M112,74.19H111c-.48,0-1,0-1.43,0-.29,0-.4.12-.4.39,0,.55,0,1.1,0,1.65,0,.11-.12.21-.19.32-.06-.11-.18-.21-.18-.32,0-1.37,0-2.73,0-4.1,0-.11.11-.23.17-.34.07.12.19.24.2.36,0,.45,0,.9,0,1.35,0,.18,0,.36.27.36H112V72.31a1.53,1.53,0,0,1,0-.37.22.22,0,0,1,.16-.15.24.24,0,0,1,.18.13,1.2,1.2,0,0,1,0,.33c0,1.28,0,2.56,0,3.84a.54.54,0,0,1,0,.22,2.19,2.19,0,0,1-.21.23c0-.08-.16-.15-.16-.23,0-.54,0-1.07,0-1.61Z"/>
      <path d="M175.64,75.93c.27-.76.55-1.52.83-2.28.17-.48.34-1,.52-1.44a.69.69,0,0,1,.13-.3,1,1,0,0,1,.31-.13c0,.1.07.2,0,.29-.08.26-.19.52-.29.79-.41,1.12-.83,2.24-1.25,3.36-.06.17-.1.33-.36.33s-.3-.13-.37-.31l-1.5-4c0-.12,0-.37,0-.39.23-.1.31.09.38.27l1.17,3.23c.08.22.17.42.26.63Z"/>
      <path d="M140.35,71.85c.31-.17.45,0,.58.17l1.14,1.75.29.4c.47-.73.93-1.42,1.37-2.12.14-.2.27-.38.59-.21a2.69,2.69,0,0,1-.2.38c-.45.67-.91,1.33-1.33,2a1.88,1.88,0,0,0-.25.81c0,.41,0,.83,0,1.24,0,.09-.12.17-.18.25-.06-.08-.18-.16-.18-.25,0-.44,0-.88,0-1.32a1.43,1.43,0,0,0-.21-.67c-.43-.7-.9-1.37-1.35-2C140.5,72.13,140.44,72,140.35,71.85Z"/>
      <path d="M95.84,72.12v4.36c-.31.12-.45.07-.45-.27,0-1.18,0-2.37,0-3.55v-.51H93.75l0-.34c.05,0,.08,0,.11,0h3.29c.11,0,.21.1.32.16-.11.06-.21.18-.32.19C96.71,72.14,96.31,72.12,95.84,72.12Z"/>
      <path d="M184,72.12c-.45,0-.88,0-1.3,0-.11,0-.21-.11-.31-.17.1-.07.2-.18.3-.18h3.11c.1,0,.2.11.3.17-.1.06-.2.17-.3.18-.42,0-.83,0-1.31,0,0,.2-.05.39-.05.57,0,1.17,0,2.34,0,3.51,0,.11-.09.31-.17.32-.25,0-.2-.17-.2-.31,0-1.16,0-2.32,0-3.48C184,72.54,184,72.35,184,72.12Z"/>
      <path d="M125.64,76.16H128c.24,0,.39.06.31.36l-.36,0h-2.38c-.2,0-.31,0-.31-.28,0-1.41,0-2.81,0-4.22,0-.09.12-.18.19-.27.06.1.17.2.17.31,0,1.14,0,2.29,0,3.44C125.6,75.72,125.63,75.92,125.64,76.16Z"/>
      <path d="M187.68,74.17c0,.69,0,1.39,0,2.08,0,.1-.11.19-.17.29-.07-.09-.2-.18-.2-.28,0-1.38,0-2.77,0-4.16,0-.11.13-.22.2-.32.06.11.17.23.17.34C187.69,72.8,187.68,73.49,187.68,74.17Z"/>
      <path d="M155.49,74.18c0-.68,0-1.37,0-2.05,0-.12.13-.23.2-.35a.85.85,0,0,1,.16.35c0,1.36,0,2.72,0,4.09,0,.11-.11.21-.18.32-.06-.11-.18-.21-.18-.31C155.48,75.54,155.49,74.86,155.49,74.18Z"/>
    </g>
  </g>
</svg>
