<svg id="Calque_1" data-name="Calque 1" xmlns="http://www.w3.org/2000/svg" viewBox="0 0 181.29 79.89">
  <title>LauraDemessine_website</title>
  <g>
    <g>
      <path d="M181.29,34.42c-.73,1.25-1.23,2.74-2.24,3.71a7,7,0,0,1-11.69-3.33l-.19-.71h-6.36a13.91,13.91,0,0,1-5.39,10,14,14,0,0,1-18-.72,13.88,13.88,0,0,1-4.53-9.3h-14c-1.4,3.76-3.53,5.44-6.74,5.34-3-.08-5.19-2-6.17-5.33H98.88c.07,4-.24,7.87.54,11.73a5.75,5.75,0,0,0,5.1,4.91,41.44,41.44,0,0,0,12.82.07c3.2-.48,4.69-2.22,4.9-5.45.1-1.52,0-3.06,0-4.67h10s.1.07.09.11a74.73,74.73,0,0,1-.45,9c-.86,5.26-3.81,8.19-9.12,9-4.1.62-8.28.77-12.43,1a41,41,0,0,1-9.77-.53c-6.4-1.21-10-4.56-11-11-.57-3.55-.59-7.2-.82-10.8-.07-1.08,0-2.17,0-3.37h-10c0-4.86,0-9.62,0-14.38S79,10.22,79,5.43c-.13.3-.27.6-.38.91q-5,13.29-9.94,26.61c-.25.67-.54.95-1.28.91-1.35-.06-2.69,0-4,0A1.08,1.08,0,0,1,62.06,33c-3.27-8.71-6.58-17.42-9.87-26.12A1.86,1.86,0,0,0,51.57,6c.17,9.25.35,18.5.52,27.84H41.47a2.4,2.4,0,0,0-.2.38c-1.33,4.77-4.69,7.18-9.4,7.88a53.15,53.15,0,0,1-6.78.57c-4.93.08-9.87,0-14.91,0V59.76H0V7a2.25,2.25,0,0,1,.36-.06c8.72,0,17.44-.07,26.15.08a30.6,30.6,0,0,1,7.65,1.21c4.59,1.31,6.71,4.85,7.5,9.32A46.27,46.27,0,0,1,41.91,31a5.57,5.57,0,0,0,0,.63h3.6a5.68,5.68,0,0,0,.07-.61q0-15.34,0-30.68c0-.12,0-.25,0-.38H56.09c0,.15.07.31.12.46L65,24.32c.09.22.2.43.39.86.71-2,1.35-3.74,2-5.5q3.53-9.84,7-19.68H85.13V31.88h3.66c0-1.23-.06-2.41,0-3.58.16-2.84.19-5.71.61-8.52,1-6.72,4.54-10.72,10.93-12a60.79,60.79,0,0,1,22.26-.21,9.69,9.69,0,0,1,8.27,7.7,49.87,49.87,0,0,1,1,6.25,26.88,26.88,0,0,1,0,3.11H121.71c0-1.51.09-3,0-4.44-.21-2.74-1.31-4-4.07-4.39a42.84,42.84,0,0,0-12.64,0c-3.67.54-5.4,2.23-5.74,5.89-.31,3.33-.22,6.71-.31,10.06,0,.05.07.1.16.21H106c.93-3.45,3.15-5.36,6.31-5.47a6.33,6.33,0,0,1,3.81,1.12,6.68,6.68,0,0,1,2.76,4.27h14a14,14,0,0,1,12.34-12.61,13.7,13.7,0,0,1,10.41,3,13.88,13.88,0,0,1,5.14,9.59h6.39l.1-.43a7.12,7.12,0,0,1,13.79-.29,1.71,1.71,0,0,0,.21.4ZM10.19,15.73V33.89a.59.59,0,0,0,.22.09c4.51,0,9,0,13.55,0a24.53,24.53,0,0,0,3.53-.34,4.48,4.48,0,0,0,4.2-4.08,25.86,25.86,0,0,0,.06-9c-.49-3.15-2.07-4.65-5.3-4.76-5.34-.18-10.7-.13-16-.17C10.35,15.63,10.29,15.68,10.19,15.73Z"/>
      <path d="M48.32,77.31c-.35,0-.63,0-.91,0-.58.07-.84-.12-1-.73-.46-2.22-1-4.43-1.65-6.63v7.3H42.87V66.83c.91,0,1.83,0,2.74,0,.18,0,.44.4.49.65.41,1.84.77,3.69,1.15,5.54,0,.2.12.4.26.87.53-2.53,1-4.79,1.47-7h3.1V77.26H50.19V70l-.2,0C49.44,72.34,48.89,74.76,48.32,77.31Z"/>
      <path d="M154.12,70h-1.89s-.1-.09-.11-.14c-.13-.75-.25-1.56-1.23-1.54s-1.14.8-1.17,1.5q-.09,2.34,0,4.68c0,.71.3,1.44,1.22,1.46.72,0,1.25-.75,1.28-1.75v-.83l-1.31-.1c0-.25-.06-.5-.07-.74s0-.5,0-.8h3.34v5.74L152.59,77a15.91,15.91,0,0,1-2.52.46,2.15,2.15,0,0,1-2.22-1.66,12.66,12.66,0,0,1,0-7.19c.51-1.69,2.11-2.33,4.19-1.89C153.49,67.05,154.23,68.17,154.12,70Z"/>
      <path d="M142.44,69.32c0,3,.05,5.76,0,8.54a1.94,1.94,0,0,1-1.7,1.94,9.53,9.53,0,0,1-2.92,0,1.61,1.61,0,0,1-1.25-1.83c.84,0,1.65-.3,2.36.54.46.54,1.38.13,1.56-.61a8.88,8.88,0,0,0,.09-1.35c-.34.2-.56.36-.8.49a2,2,0,0,1-2.89-1,7.75,7.75,0,0,1,0-5.45,2,2,0,0,1,3.3-.87Zm-4,4a5.43,5.43,0,0,0,.16,1.44c.14.35.53.81.83.81a1.17,1.17,0,0,0,.88-.74,19,19,0,0,0,0-3.29,1.09,1.09,0,0,0-.85-.65,1.23,1.23,0,0,0-.8.76A7.85,7.85,0,0,0,138.46,73.29Z"/>
      <path d="M64.35,69.86v-3h2V77.28c-.71-.09-1.47.34-2.09-.39-1.92,1.32-3.57.66-3.9-1.71a13.13,13.13,0,0,1,0-3.43C60.62,69.25,62,68.58,64.35,69.86Zm0,3.6a9.7,9.7,0,0,0-.26-1.85,1.22,1.22,0,0,0-.82-.75,1.09,1.09,0,0,0-.84.68,26.59,26.59,0,0,0,0,3.68,1,1,0,0,0,.77.65,1.25,1.25,0,0,0,.87-.68A8.34,8.34,0,0,0,64.37,73.46Z"/>
      <path d="M174.9,69.4c.73.2,1.52-.36,2,.45,2-1.33,3.67-.61,4,1.84a14.72,14.72,0,0,1,0,3.25c-.3,2.51-1.75,3.23-4,2v2.93h-2Zm4.15,4a7.35,7.35,0,0,0-.31-2,1,1,0,0,0-.74-.59c-.3,0-.83.35-.84.57a29.55,29.55,0,0,0,0,3.88c0,.22.54.59.82.57a1.12,1.12,0,0,0,.79-.65A5.74,5.74,0,0,0,179.05,73.4Z"/>
      <path d="M88.39,70.34h-2a3.66,3.66,0,0,0-.25-1.25c-.22-.35-.66-.78-1-.78s-1,.46-1,.74q-.13,3,0,6.09c0,.28.68.74,1,.73a1.47,1.47,0,0,0,1-.81,7.37,7.37,0,0,0,.34-1.73h2a3.32,3.32,0,0,1-2.27,4.12c-2.27.49-4-.46-4.29-2.62a21.77,21.77,0,0,1,0-5.35c.27-2.23,1.66-3.08,4-2.81C87.66,66.89,88.5,68.05,88.39,70.34Z"/>
      <path d="M0,66.94a43.53,43.53,0,0,1,4.57,0c1.31.14,2.08,1.54,2,3.18a2.78,2.78,0,0,1-2.38,2.92c-.66.1-1.33.11-2.07.18v4H0ZM2.14,68.5v3c.78.05,1.65.29,2-.55a2.65,2.65,0,0,0,0-1.9C3.78,68.22,2.92,68.41,2.14,68.5Z"/>
      <path d="M114.46,69.45h2v7.84c-.7-.11-1.48.36-2.14-.46a6,6,0,0,1-.63.43,2,2,0,0,1-3.16-1.51c-.11-2.07,0-4.15,0-6.28h2.06v4.6a2.3,2.3,0,0,0,0,1c.17.35.55.88.76.84a1.42,1.42,0,0,0,1-.78,5.7,5.7,0,0,0,.09-1.71Z"/>
      <path d="M167.5,69.45h2.05V74c0,.29,0,.57,0,.86,0,.55.12,1.07.8,1.1s1-.43,1.07-1.09c0-1.15,0-2.31,0-3.46V69.49h2.06v7.67c-1.24.3-1.75.22-2.09-.37-.26.17-.51.36-.78.5a2,2,0,0,1-3.11-1.61C167.41,73.64,167.5,71.59,167.5,69.45Z"/>
      <path d="M135.27,77.28h-2.06V73a3.6,3.6,0,0,0,0-1.14c-.15-.39-.44-.91-.77-1-.62-.16-1,.31-1.08.93a13,13,0,0,0,0,1.53c0,1.31,0,2.61,0,4h-2v-7.8c.73.1,1.55-.47,2.14.44a8.91,8.91,0,0,1,.8-.48,2,2,0,0,1,3,1.72C135.35,73.14,135.27,75.16,135.27,77.28Z"/>
      <path d="M102.66,77.27h-2c0-1.5,0-3,0-4.42a3.07,3.07,0,0,0-.07-1.14,1,1,0,0,0-.79-.7,1,1,0,0,0-1,.73,17.16,17.16,0,0,0-.09,2.78v2.73h-2V69.46c.67.12,1.49-.47,2,.38a9.92,9.92,0,0,1,2.08-.6,1.59,1.59,0,0,1,1.85,1.63C102.71,73,102.66,75.08,102.66,77.27Z"/>
      <path d="M8.89,71.86H7.27a1.59,1.59,0,0,1-.11-.38C7.22,70,8.18,69.2,10,69.2s2.78.65,2.82,2.23c0,1.41,0,2.82,0,4.23,0,.51.06,1,.1,1.62-.7-.11-1.55.46-2.12-.45a6,6,0,0,1-1.23.63A1.92,1.92,0,0,1,7,76.21a2.45,2.45,0,0,1,1.07-3.14,10.54,10.54,0,0,1,1.73-.55c.58-.15,1.11-.39.94-1.07a1.24,1.24,0,0,0-.77-.79c-.66-.11-.95.38-1,1A1.25,1.25,0,0,1,8.89,71.86Zm2,1.63A12.67,12.67,0,0,0,9.46,74,1.07,1.07,0,0,0,9,75.48a.69.69,0,0,0,.7.44,1.36,1.36,0,0,0,1.09-.83A4.94,4.94,0,0,0,10.88,73.49Z"/>
      <path d="M72.94,71.87H71.37a1.84,1.84,0,0,1,1-2.36,4.33,4.33,0,0,1,3.37,0,1.81,1.81,0,0,1,1.08,1.87c0,1.25,0,2.5,0,3.75v2.13c-.58-.11-1.43.43-2-.44a6,6,0,0,1-1.3.64,1.91,1.91,0,0,1-2.51-1.32,2.39,2.39,0,0,1,1.14-3.1,11.36,11.36,0,0,1,1.74-.55c.54-.14,1-.4.9-1a1.25,1.25,0,0,0-.75-.83c-.65-.14-1,.33-1.06,1A2,2,0,0,1,72.94,71.87Zm2,1.61c-.59.23-1.19.28-1.49.61A2.29,2.29,0,0,0,73,75.52c0,.19.57.61.69.55a2.16,2.16,0,0,0,1.06-.9A5.21,5.21,0,0,0,74.92,73.48Z"/>
      <path d="M166.51,73.36c-.07.58-.11,1.12-.2,1.65a2.66,2.66,0,0,1-2.95,2.52c-1.9,0-2.89-.75-3-2.67a13.7,13.7,0,0,1,.22-3.78c.3-1.44,1.42-2,3.22-1.86a2.43,2.43,0,0,1,2.51,2.18C166.4,72.05,166.44,72.73,166.51,73.36Zm-2.21.07a7.48,7.48,0,0,0-.18-2.12,1.08,1.08,0,0,0-.81-.64c-.28,0-.79.39-.8.64a34.72,34.72,0,0,0,0,4.08c0,.26.55.64.87.67s.68-.39.77-.69A6.54,6.54,0,0,0,164.3,73.43Z"/>
      <path d="M59.39,73.68h-3.9c-.3,1.17,0,2.28.65,2.38,1,.16,1-.74,1.26-1.39h1.7a2.39,2.39,0,0,1-1.79,2.77c-1.62.41-3.22-.16-3.68-1.44a7.71,7.71,0,0,1,0-5.19c.44-1.24,1.6-1.73,3.28-1.58a2.31,2.31,0,0,1,2.22,2C59.28,72,59.3,72.77,59.39,73.68Zm-2.13-1.26c0-1.3-.26-1.81-.92-1.8s-1.05.73-.91,1.8Z"/>
      <path d="M109.27,71.8c-.71-.11-1.68.55-2-.8,0-.17-.59-.35-.88-.31a.88.88,0,0,0-.64.58,1,1,0,0,0,.39.85,8.84,8.84,0,0,0,1.6.62,2.23,2.23,0,0,1,1.76,2.68,2.39,2.39,0,0,1-2.39,2.08,7.34,7.34,0,0,1-1.24,0c-1.6-.13-2.29-1-2.14-2.72.25,0,.53,0,.8-.06h.89c.12.73.27,1.48,1.16,1.37a1.27,1.27,0,0,0,.91-.76c.13-.92-.74-1-1.32-1.22s-.91-.32-1.33-.54a2.08,2.08,0,0,1-1.13-2.15,1.85,1.85,0,0,1,1.34-1.89,7.45,7.45,0,0,1,2.9-.08C109.07,69.64,109.44,70.5,109.27,71.8Z"/>
      <path d="M18.06,74.3h1.76A2.5,2.5,0,0,1,18,77.45c-2.29.55-3.84-.52-3.95-2.87a11.74,11.74,0,0,1,.28-3.5c.38-1.52,1.92-2.18,3.63-1.81a2.58,2.58,0,0,1,2,3H18.08a3.23,3.23,0,0,1,0-.61c0-.45-.12-.81-1-.84-.34,0-.82.55-.87.91a22.06,22.06,0,0,0-.06,3.15c0,.6.2,1.21.94,1.22s.86-.63,1-1.21C18,74.72,18,74.56,18.06,74.3Z"/>
      <path d="M38.13,72.25H36.27a2.24,2.24,0,0,0-.2-.78c-.19-.29-.51-.69-.75-.68s-.89.38-.9.62a29.52,29.52,0,0,0,0,4c0,.25.58.68.86.65s.61-.45.81-.77a3,3,0,0,0,.19-1h1.8a2.58,2.58,0,0,1-2,3.14c-1.89.39-3.37-.22-3.67-1.82a12.9,12.9,0,0,1-.07-4.16c.25-1.73,1.66-2.5,3.54-2.24C37.32,69.44,38.12,70.49,38.13,72.25Z"/>
      <path d="M28.18,66.75V68c-.69.1-1.42.25-1.08,1.34l1,.1v1.25l-1.1.16v6.38H25V70.89L24,70.73V69.48l.81-.1C25.32,66.73,25.8,66.34,28.18,66.75Z"/>
      <path d="M125.06,76.23v1a8.67,8.67,0,0,1-1,.12c-1.89.08-2.26-.28-2.27-2.15V70.89l-1-.17V69.49l1-.14V67.2h2l.12,2.18,1.11.09V70.7l-1.11.18c0,1.5,0,3,0,4.53C124,75.66,124.59,75.89,125.06,76.23Z"/>
      <path d="M119.89,77.27H118V66.89h1.91Z"/>
      <path d="M157.57,77.26h-2V69.44c.73.11,1.56-.41,2.08.47l2-.91v2.07c-2,.38-2.07.46-2.07,2.56,0,1.12,0,2.24,0,3.35A1.85,1.85,0,0,1,157.57,77.26Z"/>
      <path d="M23.1,77.28H21.16v-7.8H23.1Z"/>
      <path d="M30.94,77.26H29V69.49h1.92Z"/>
      <path d="M67.77,77.26V69.49h2v7.77Z"/>
      <path d="M125.88,69.47h1.92v7.76h-1.92Z"/>
      <path d="M21.16,66.78h2v1.66h-2Z"/>
      <path d="M29,66.76h1.92v1.67H29Z"/>
      <path d="M125.88,66.77h1.9v1.65h-1.9Z"/>
      <path d="M67.81,66.77H69.7v1.65H67.81Z"/>
    </g>
    <path d="M95.32,70.92a2.25,2.25,0,0,0-1.91-1.66c-2.26-.42-3.58.51-3.94,2.77-.07.43-.09.88-.15,1.48a19.78,19.78,0,0,0,.29,2,2.43,2.43,0,0,0,2.57,2c1.7.07,2.72-.47,3.13-1.79A8.25,8.25,0,0,0,95.32,70.92ZM93.55,75a1,1,0,0,1-.94,1l-.07,0h0a1,1,0,0,1-1-1V71.71a1,1,0,0,1,1-1h0a1,1,0,0,1,1,1Z"/>
  </g>
</svg>
