<svg id="Calque_1" data-name="Calque 1" xmlns="http://www.w3.org/2000/svg" viewBox="0 0 151.26 80">
  <title>LauraDemessine_website</title>
  <g>
    <g id="mrLrPM.tif">
      <g>
        <path d="M75.25,8.32q-36.34,0-72.68,0c-1,0-1.2-.29-1.17-1.21.06-2.11,0-4.22,0-6.33,0-.59.13-.88.78-.79A10.08,10.08,0,0,0,3.42,0Q75.72,0,148,0c1,0,1.22.3,1.19,1.24-.07,2-.06,4.09,0,6.14,0,.82-.25,1-1,1Q111.73,8.31,75.25,8.32Z"/>
        <path d="M4.54,45.67c1.26,0,2.52,0,3.78,0,.44,0,.69.08.75.59a3.7,3.7,0,0,0,2.59,3.18,7.64,7.64,0,0,0,6-.23,2.43,2.43,0,0,0,1.56-2.29,2.18,2.18,0,0,0-1.58-2,31,31,0,0,0-6.38-1.56,25.79,25.79,0,0,1-6.1-1.88C-.34,38.75-.46,31.52,2.52,27.82a11.93,11.93,0,0,1,7.86-4.22,20,20,0,0,1,10.58,1,10.06,10.06,0,0,1,6.58,8.7c.06.51-.09.67-.6.67-2.61,0-5.22,0-7.84,0-.28,0-.55,0-.61-.39-.36-3-3.25-3.74-5.53-3.63a5.78,5.78,0,0,0-2.88.79,2,2,0,0,0,.09,3.74,11.35,11.35,0,0,0,3.1,1.1,79.2,79.2,0,0,1,8.45,1.88c3,1,5.49,2.68,6.28,6a9.89,9.89,0,0,1-5.5,11.36,20,20,0,0,1-10.22,1.6,15.11,15.11,0,0,1-8.21-2.7A10.3,10.3,0,0,1,0,46.37c-.07-.53.09-.73.65-.71,1.29,0,2.58,0,3.87,0Z"/>
        <path d="M33.47,43.31c0-3.74,0-7.49,0-11.24,0-.66-.09-1-.85-.89s-1.45,0-2.17,0-.9-.25-.89-.93c0-1.76,0-3.53,0-5.29,0-.6.13-.86.78-.82.81.06,1.64,0,2.45,0,.56,0,.68-.18.68-.7,0-2.49,0-5,0-7.46,0-.62.09-.89.8-.88,2.49,0,5,0,7.47,0,.61,0,.81.17.8.8,0,2.49,0,5,0,7.46,0,.63.18.81.79.78,1,0,2,0,3,0,.59,0,.83.1.81.76,0,1.82,0,3.65,0,5.48,0,.66-.24.8-.82.78-1,0-2,0-2.93,0-.71-.05-.88.18-.88.88,0,5.26,0,10.52,0,15.78,0,2.3,0,4.6,0,6.9,0,.66-.1.94-.85.92q-3.74-.07-7.47,0c-.68,0-.75-.25-.75-.82C33.48,51,33.47,47.16,33.47,43.31Z"/>
        <path d="M115.68,43.45c0,3.78,0,7.56,0,11.34,0,.74-.21.88-.9.87-2.42,0-4.85,0-7.27,0-.7,0-.9-.15-.89-.88,0-7.52,0-15.05,0-22.58,0-.83-.19-1.11-1-1s-1.45,0-2.18,0c-.48,0-.67-.13-.66-.64q0-2.88,0-5.76c0-.52.18-.63.65-.61.82,0,1.64,0,2.46,0,.58,0,.75-.15.75-.73,0-2.49,0-5,0-7.47,0-.56.07-.85.75-.84,2.52,0,5,0,7.56,0,.59,0,.75.18.74.76,0,2.48,0,5,0,7.46,0,.68.21.86.86.82,1-.05,2.08,0,3.11,0,.49,0,.66.13.65.64q0,2.88,0,5.76c0,.52-.2.64-.67.62-1.07,0-2.14,0-3.21,0-.6,0-.73.17-.73.74C115.69,35.76,115.68,39.61,115.68,43.45Z"/>
        <path d="M58.9,28.14c.61-.6,1-1.27,1.52-1.84,2.16-2.3,4.92-2.88,7.91-2.84.39,0,.47.19.47.52q0,3.89,0,7.75c0,.54-.31.53-.68.53a15.89,15.89,0,0,0-2.92.16,6.78,6.78,0,0,0-5.64,5.83,18.43,18.43,0,0,0-.28,3.48c0,4.35,0,8.69,0,13,0,.72-.21.9-.9.89q-3.69-.06-7.38,0c-.62,0-.78-.18-.78-.8q0-14.93,0-29.86c0-.66.19-.84.85-.83,2.33,0,4.66,0,7,0,.67,0,.86.21.83.86C58.87,26.06,58.9,27.1,58.9,28.14Z"/>
        <path d="M143.82,73.82c0,1.76,0,3.49,0,5.21,0,.33.21.82-.44.83s-.58-.41-.58-.84q0-3.21,0-6.42c0-.32-.14-.75.32-.88a.91.91,0,0,1,1.09.51c1.2,1.84,2.44,3.66,3.67,5.49.06.09.14.18.36.45,0-2,0-3.84,0-5.64,0-.39-.13-.87.55-.84s.45.49.45.82q0,3.27,0,6.52c0,.31.2.75-.33.84a.91.91,0,0,1-1-.43c-1.17-1.79-2.38-3.56-3.57-5.33A.47.47,0,0,0,143.82,73.82Z"/>
        <path d="M135.73,75.66H136c1.82,0,1.89.11,1.34,1.83A3.27,3.27,0,0,1,133.91,80a3.45,3.45,0,0,1-3.72-2.55,4.45,4.45,0,0,1,1.07-4.87,4,4,0,0,1,4.41-.7A2.42,2.42,0,0,1,137,72.93c.15.26.54.61.11.89s-.65.1-.94-.29a2.65,2.65,0,0,0-3.08-1,3,3,0,0,0-2,2.89,3.26,3.26,0,0,0,1.67,3.41,2.7,2.7,0,0,0,3.66-1.31c.28-.69.25-1.09-.65-1-.43,0-.88,0-1.32,0s-.53-.08-.53-.47.25-.44.56-.44S135.28,75.66,135.73,75.66Z"/>
        <path d="M27,80a3.89,3.89,0,0,1-4.13-4.22,4.08,4.08,0,0,1,4.21-4.23,4,4,0,0,1,4.09,4.21A4,4,0,0,1,27,80Zm3.08-4.2c0-2.07-1.19-3.37-3.1-3.37a3,3,0,0,0-3,3.34c0,2.09,1.14,3.32,3.1,3.33S30.12,77.86,30.12,75.8Z"/>
        <path d="M91,75.73c0-1.14,0-2.27,0-3.4,0-.42.1-.67.57-.64a20,20,0,0,1,3.19.14c2.11.45,3.16,2,3,4.42a3.84,3.84,0,0,1-3.62,3.57c-.82,0-1.64,0-2.45,0-.55,0-.71-.19-.7-.72C91,78,91,76.86,91,75.73Zm1,0c0,.85,0,1.7,0,2.55,0,.31,0,.67.41.71,2.55.22,4.61-.81,4.23-3.89a3.31,3.31,0,0,0-4.33-2.5c-.34.11-.31.35-.31.59C92,74.05,92,74.9,92,75.74Z"/>
        <path d="M115.3,80c-1.48,0-2.46-.59-2.75-1.67-.07-.25-.24-.6.13-.73a.57.57,0,0,1,.81.37,2.19,2.19,0,0,0,3.11.84,1.37,1.37,0,0,0,.67-1.36,1.09,1.09,0,0,0-.89-1c-.77-.25-1.58-.4-2.36-.64a1.81,1.81,0,0,1-1.37-1.9A2.06,2.06,0,0,1,114,71.86c1.76-.78,3.76-.12,4.13,1.33.06.24.18.55-.14.65s-.64.17-.79-.26a1.22,1.22,0,0,0-.07-.17,2.08,2.08,0,0,0-2.87-.69,1.28,1.28,0,0,0-.6,1.2,1.07,1.07,0,0,0,.75,1,16.28,16.28,0,0,0,1.82.49c1.71.43,2.29,1.08,2.16,2.44A2.53,2.53,0,0,1,115.59,80Z"/>
        <path d="M14.68,80a3.61,3.61,0,0,1-3.48-2.33,4.52,4.52,0,0,1,1.06-5.11A4.46,4.46,0,0,1,17,71.94a3,3,0,0,1,1.22,1.14c.15.26.3.51-.09.7s-.52.23-.8-.12A2.62,2.62,0,0,0,14,72.6a3.12,3.12,0,0,0-2.07,3c-.07,2.38,1.22,3.66,3.49,3.52A2.24,2.24,0,0,0,17.26,78c.23-.37.43-.49.82-.25s.13.6,0,.84A3.64,3.64,0,0,1,14.68,80Z"/>
        <path d="M74.36,75.74c0-1.13,0-2.26,0-3.4,0-.49.17-.66.65-.66,1.13,0,2.27,0,3.4,0,.35,0,.63,0,.61.5s-.31.41-.6.41c-.79,0-1.58,0-2.36,0-.48,0-.65.14-.67.64-.11,2-.13,2,1.92,2h.94c.31,0,.66-.06.67.42s-.31.48-.63.48c-.73,0-1.45,0-2.17,0-.52,0-.75.14-.73.69.08,2.41-.44,2.15,2.12,2.17.38,0,.75,0,1.13-.05s.39.24.38.51-.08.43-.38.42l-3.86-.07c-.49,0-.41-.38-.41-.68C74.35,78,74.36,76.87,74.36,75.74Z"/>
        <path d="M1.39,75.7c0-1.1,0-2.2,0-3.3,0-.53.16-.73.7-.72,1.13,0,2.27,0,3.4,0,.3,0,.56,0,.59.42s-.28.49-.62.49c-.78,0-1.57,0-2.36,0-.46,0-.66.1-.69.62-.12,2-.14,2,1.9,2H5.44c.25,0,.52,0,.51.37s-.16.52-.52.52c-.78,0-1.57,0-2.36,0-.48,0-.67.16-.66.65,0,2.72-.34,2.15,2.06,2.21A10.73,10.73,0,0,0,5.6,79c.31,0,.47.06.47.4s-.1.5-.49.49c-1.19,0-2.39,0-3.58,0-.54,0-.62-.25-.62-.7C1.4,78,1.39,76.86,1.39,75.7Z"/>
        <path d="M45.75,75.83c0-1.16,0-2.33,0-3.49,0-.5.16-.67.66-.66,1.13,0,2.26,0,3.4,0,.36,0,.62.09.61.52s-.32.39-.6.39c-.82,0-1.64,0-2.46,0-.48,0-.64.15-.66.65-.09,2-.11,2,1.91,2h1.14c.25,0,.51,0,.52.37s-.2.51-.52.51c-.79,0-1.58,0-2.36,0-.55,0-.68.19-.69.71C46.64,79,46.62,79,48.77,79h1.14c.26,0,.5,0,.51.39s-.2.42-.48.42c-1.23,0-2.46,0-3.69,0-.53,0-.5-.33-.5-.69C45.76,78,45.75,76.93,45.75,75.83Z"/>
        <path d="M103,75.77c0-1.1,0-2.21,0-3.31,0-.54.12-.8.73-.78,1.07,0,2.14,0,3.21,0,.32,0,.66,0,.67.45s-.31.46-.64.46c-.78,0-1.57,0-2.36,0-.49,0-.64.17-.66.65-.09,2-.11,2,1.94,2,.31,0,.63,0,.94,0s.68-.11.68.4-.37.5-.72.5c-.69,0-1.39,0-2.08,0s-.77.18-.75.75c.07,2.56-.38,2,2.05,2.11.41,0,.82,0,1.23,0a.36.36,0,0,1,.4.41.36.36,0,0,1-.41.4h-3.78c-.49,0-.44-.35-.44-.66C103,78,103,76.9,103,75.77Z"/>
        <path d="M36.36,75.72V72.41c0-.34-.07-.71.48-.72s.55.37.55.75c0,1.86,0,3.72,0,5.58,0,.75.23,1,1,1s1.33,0,2,0c.33,0,.53.08.53.47s-.22.46-.54.46c-1.11,0-2.21,0-3.31,0-.5,0-.66-.19-.65-.67C36.38,78.05,36.36,76.89,36.36,75.72Z"/>
        <path d="M124.62,75.73v3.49c0,.34,0,.61-.48.62s-.5-.24-.5-.59V72.37c0-.36,0-.71.52-.68s.46.32.46.65Z"/>
        <path d="M100.31,33.63a8.63,8.63,0,0,0-5.49-8.58,21.67,21.67,0,0,0-16.2-.48c-4.12,1.46-6.42,4.56-7.06,8.9-.09.63,0,.83.69.82,2.26,0,4.53,0,6.8,0,.66,0,.89-.17,1-.83a4.17,4.17,0,0,1,2.64-3A6.89,6.89,0,0,1,85.11,30c3.81-.15,6.56,1.42,6.5,5.6,0,.75-.26.9-1,1-3.72.37-7.48.43-11.17,1.11a16.69,16.69,0,0,0-3.86,1.16,8,8,0,0,0-5.14,8c.08,3.78,1.45,6.86,5,8.39A14.76,14.76,0,0,0,91,53.34c.27-.2.44-.54.94-.6,0,.71,0,1.39,0,2.06s.17.87.84.86c2.2,0,4.41-.06,6.61,0,.79,0,.93-.24.92-.95Q100.29,44.17,100.31,33.63ZM91.6,42.92a5.9,5.9,0,0,0,0,.94c0,2.88-1,4.4-3.75,5.42a9.47,9.47,0,0,1-6.28.28,3.1,3.1,0,0,1-2.5-3,3.21,3.21,0,0,1,2.44-3.19,34.3,34.3,0,0,1,6-1c1-.16,2.13-.22,3.18-.4C91.44,41.86,91.71,42.13,91.6,42.92Z"/>
        <path d="M150.86,35.44c-1-4.82-3.36-8.64-8-10.75a16.94,16.94,0,0,0-9.14-1.22c-4.66.56-8.47,2.62-10.69,6.83a19.82,19.82,0,0,0-.36,18.5,13.23,13.23,0,0,0,8.63,7.11,19.74,19.74,0,0,0,7.58.46,12.91,12.91,0,0,0,11.45-9.14c.16-.5.2-.72-.46-.71-2.45,0-4.91,0-7.37,0a.93.93,0,0,0-.83.46,6.54,6.54,0,0,1-7.43,2.23c-2.78-.88-4-3.07-4.65-5.7-.19-.71-.13-1,.72-1,3.33.05,6.67,0,10,0h10.2c.39,0,.73.07.72-.54A34.64,34.64,0,0,0,150.86,35.44Zm-21.34,1.22a6.73,6.73,0,0,1,6.54-6.35c3.62-.08,6.27,2.41,6.76,6.35Z"/>
      </g>
    </g>
    <path d="M67.22,72.19a4,4,0,0,0-1-.35,14.47,14.47,0,0,0-3-.14H63c-.49,0-.56.25-.56.65,0,.65,0,1.31,0,2v2.56a2.94,2.94,0,0,1,0,.42v2.48H65.9l.18,0a3.46,3.46,0,0,0,1.14-.41,4.16,4.16,0,0,0,2-3.35A3.71,3.71,0,0,0,67.22,72.19Zm.6,5A2.75,2.75,0,0,1,67,78.29a2.57,2.57,0,0,1-1.58.53h-2a.9.9,0,0,1-.08-.47v-4c0-.35,0-.7,0-1s-.06-.53.19-.62l.15,0a11.17,11.17,0,0,1,1.92,0,2.64,2.64,0,0,1,1.75.94A3.42,3.42,0,0,1,67.82,77.22Z"/>
  </g>
</svg>
