<svg id="Calque_1" data-name="Calque 1" xmlns="http://www.w3.org/2000/svg" viewBox="0 0 473.05 462"><defs><style>.cls-1{fill:#788ef7;}.cls-2{fill:#3749bc;}.cls-3{fill:#3248e7;}.cls-4{fill:#e5e8f2;}</style></defs><title>exp_plant_1</title><path class="cls-1" d="M63.5,443.1s152.9-29.3,249.2-27.2,92.2,27.2,92.2,27.2Z"/><path class="cls-1" d="M350.5,361.4S361,87,430.1,110.1,350.5,361.4,350.5,361.4Z"/><path class="cls-1" d="M342.1,415.9s29-134.8,71.2-104.7C457.3,342.6,342.1,415.9,342.1,415.9Z"/><path class="cls-2" d="M335.8,409.6S363,179.2,430,206.4,335.8,409.6,335.8,409.6Z"/><path class="cls-3" d="M329.5,418s-73.3-44-44-64.9S329.5,418,329.5,418Z"/><path class="cls-1" d="M331.6,409.6s-12.6-56.5-33.5-88-64.9-98.4-37.7-117.3C275.2,194.1,304.4,170.8,331.6,409.6Z"/><path class="cls-2" d="M335.8,390.7S327.4,336,317,269.2c-16.5-105.1-34.1-240-2.1-238.8,27.7,1.1,41.9,100.1,39.8,194.8C352.8,309.5,335.8,390.7,335.8,390.7Z"/><path class="cls-4" d="M311.7,29.5c5.9,29.8,10.4,59.8,14.2,89.9s6.6,60.3,8.8,90.6,3.2,60.6,3.4,91l-.1,22.8c-.2,7.6-.4,15.2-.7,22.7l-.4,11.4c-.2,3.8-.5,7.6-.7,11.4L334.7,392l1-22.7c.2-3.8.4-7.6.5-11.4l.2-11.4c.1-7.6.3-15.2.4-22.7l-.2-22.7c0-7.6-.3-15.1-.5-22.7l-.3-11.4c-.1-3.8-.2-7.6-.4-11.4l-1.1-22.7c-.2-3.8-.5-7.6-.7-11.3l-.8-11.3c-2-30.2-4.9-60.4-8.3-90.5l-2.7-22.6-3-22.5C316.6,59.4,314.3,44.4,311.7,29.5Z"/><path class="cls-4" d="M429,111.1c-3.3,8.9-6.5,17.8-9.7,26.6s-6.3,17.8-9.4,26.7-6,17.9-8.8,26.9-5.4,18.1-7.9,27.2c1.7-9.3,3.8-18.5,6.3-27.7s5.4-18.2,8.4-27.1,6.3-17.8,9.9-26.6S425,119.7,429,111.1Z"/><path class="cls-4" d="M429,205.4c.1-.1.3,0,.4.2a.6.6,0,0,1,.1.4v.9c-.1.6-.2,1.2-.3,1.7a18.87,18.87,0,0,1-.9,3.4c-.7,2.2-1.4,4.5-2.2,6.7-1.6,4.4-3.3,8.8-5,13.1q-5.4,13-11.1,25.8c-3.8,8.6-7.8,17-11.8,25.5s-8.1,16.9-12.1,25.4c-8.3,16.8-16.6,33.6-25.2,50.3l-12.9,25c-4.4,8.3-8.7,16.6-13.2,24.8,4-8.5,8.2-16.8,12.3-25.3l12.4-25.2c8.2-16.8,16.6-33.6,24.7-50.5q12.45-25.2,24.3-50.6,6-12.75,11.7-25.5c1.9-4.3,3.7-8.6,5.5-12.9q1.35-3.3,2.4-6.6a33.74,33.74,0,0,0,1-3.4c.1-.6.3-1.1.4-1.7a2.72,2.72,0,0,0,0-.9.6.6,0,0,0-.1-.4C429.3,205.4,429.2,205.3,429,205.4Z"/><path class="cls-4" d="M261.5,203.3c10,14.7,18.1,30.6,25.5,46.7s13.7,32.8,19.5,49.6l4.1,12.7,1,3.2.9,3.2,1.8,6.4,1.8,6.4.9,3.2.8,3.2,3.3,12.9c.5,2.2,1.1,4.3,1.6,6.5l1.4,6.5,2.8,13c.9,4.3,1.6,8.7,2.4,13.1s1.6,8.7,2.3,13.1c-2-8.7-3.7-17.4-5.7-26l-3.1-12.9-1.6-6.5c-.5-2.2-1.1-4.3-1.7-6.4-1.2-4.3-2.3-8.6-3.4-12.8l-.9-3.2-.9-3.2-1.9-6.4-1.9-6.4-.9-3.2-1-3.2-4.1-12.6c-5.6-16.8-11.9-33.4-18.9-49.6l-2.7-6.1-1.3-3-1.4-3-2.8-6c-.9-2-2-4-3-6C270.3,218.7,266.1,210.8,261.5,203.3Z"/><path class="cls-4" d="M329.3,416.5c-1.5-2.9-2.9-5.8-4.5-8.7s-3.1-5.7-4.7-8.5c-3.2-5.6-6.6-11.2-10.2-16.5-1.8-2.7-3.7-5.3-5.7-7.9s-4-5-6.2-7.5a73.82,73.82,0,0,0-6.9-6.8,49.33,49.33,0,0,0-7.8-5.8,51.39,51.39,0,0,1,15.8,11.5,113.63,113.63,0,0,1,12.4,15.3c1.8,2.7,3.6,5.5,5.2,8.3s3.2,5.7,4.7,8.6A158.59,158.59,0,0,1,329.3,416.5Z"/><path class="cls-4" d="M341.1,414.8c6.3-8.5,12.7-16.9,19.1-25.3s12.8-16.9,19.1-25.3,12.6-17,18.7-25.6c3-4.3,6-8.7,8.8-13.2,1.4-2.2,2.8-4.5,4-6.8a39.71,39.71,0,0,0,1.7-3.6,12.56,12.56,0,0,0,1-3.8,10.72,10.72,0,0,1-.7,3.9,23.88,23.88,0,0,1-1.5,3.7c-1.1,2.4-2.3,4.8-3.6,7.1-2.6,4.6-5.4,9.1-8.3,13.6-5.8,8.9-12,17.5-18.3,26s-12.8,16.8-19.5,25.1C354.8,398.7,348,406.9,341.1,414.8Z"/></svg>