<svg id="Calque_1" data-name="Calque 1" xmlns="http://www.w3.org/2000/svg" viewBox="0 0 473.05 462"><defs><style>.cls-1{fill:#e5e8f2;}.cls-2{fill:#788ef7;}</style></defs><title>exp_plant_1</title><path class="cls-1" d="M256.2,426.3S48.9,428.4,51,438.9s88,10.5,104.7,12.6S193.4,462,220.6,462s113.1-12.6,161.3-10.5S616.5,422.2,256.2,426.3Z"/><path class="cls-2" d="M227.9,412.2c1.7-4.6,3.1-9.2,4.4-13.9s2.5-9.4,3.5-14.2a278.43,278.43,0,0,0,4.6-28.8,250.89,250.89,0,0,0-.2-58.1,251.08,251.08,0,0,0-5.4-28.5,222.32,222.32,0,0,0-9.3-27.5,198.26,198.26,0,0,0-30.3-49.3l-4.7-5.6-4.8-5.4-2.4-2.8-2.5-2.6c-1.7-1.7-3.3-3.5-5-5.2-6.9-6.8-14.1-13.4-21.5-19.5s-15.4-11.9-23.4-17.3-16.4-10.4-24.8-15.3-17-9.5-25.5-14.2-17-9.6-24.9-15.3-15.3-12.2-21.2-20A79.66,79.66,0,0,1,21.8,42.5,77.27,77.27,0,0,0,34.9,68.4,99.19,99.19,0,0,0,56.3,87.9c8,5.5,16.5,10.3,25,15s17.2,9.2,25.6,14a343,343,0,0,1,48.6,32.5c7.6,6.2,14.8,12.7,21.8,19.6,1.7,1.7,3.4,3.5,5.1,5.3l2.5,2.6,2.4,2.7,4.9,5.4,4.7,5.6a199.51,199.51,0,0,1,30.5,49.9,210.91,210.91,0,0,1,9.3,27.8,235.22,235.22,0,0,1,5.3,28.8A259,259,0,0,1,227.9,412.2Z"/><path class="cls-2" d="M17.4,65.5a58.87,58.87,0,0,1,7,2.6c2.3,1,4.5,2.1,6.7,3.2s4.3,2.4,6.4,3.7a42.69,42.69,0,0,1,6,4.5c-2.3-1-4.5-2-6.8-3s-4.4-2.2-6.6-3.3-4.3-2.3-6.4-3.6S19.5,67,17.4,65.5Z"/><path class="cls-2" d="M.7,57.2a8.06,8.06,0,0,1,3.4-4.3,7.47,7.47,0,0,1,5.5-.3c3.7,1,6.9,3.2,9.9,5.4A100.11,100.11,0,0,1,28,65.4c2.7,2.7,5.2,5.5,7.6,8.4L37,75.6l-2.3-.1a81.76,81.76,0,0,1-11-1A79.07,79.07,0,0,1,13,72a28.47,28.47,0,0,1-9.8-5,9.22,9.22,0,0,1-3-4.5A8.76,8.76,0,0,1,.7,57.2Zm0,0a8.06,8.06,0,0,0-.3,5.3,8.43,8.43,0,0,0,3.1,4.3,21.61,21.61,0,0,0,4.7,2.6A33.32,33.32,0,0,0,13.3,71,64.44,64.44,0,0,0,24,72.7c1.8.2,3.6.3,5.4.4s3.6.2,5.4.2l-.9,1.8q-3.45-4.35-7.2-8.4c-2.5-2.7-5.1-5.4-7.9-7.9a31.56,31.56,0,0,0-9.3-6,6.76,6.76,0,0,0-5.4.1A7.39,7.39,0,0,0,.7,57.2Z"/><path class="cls-2" d="M19.5,27.8a5,5,0,0,1,1.2-.2h.6a1.27,1.27,0,0,1,.6.1l.6.1.6.3a3.59,3.59,0,0,1,1,.7,9.81,9.81,0,0,1,2.7,4,38,38,0,0,1,2.5,9.5c.5,3.2.8,6.5,1,9.8a80.11,80.11,0,0,1,0,9.8l-.1,2-1.6-1.3c-1.5-1.2-2.8-2.5-4.2-3.8s-2.6-2.7-3.9-4.1a55,55,0,0,1-6.6-9.2,30.4,30.4,0,0,1-2.3-5.2,11.87,11.87,0,0,1-.4-5.6,7.8,7.8,0,0,1,3.1-4.6A21.74,21.74,0,0,1,19.5,27.8Zm0,0a17.53,17.53,0,0,0-5,2.3,7.14,7.14,0,0,0-2.9,4.5,9.73,9.73,0,0,0,.8,5.3A22.31,22.31,0,0,0,15,44.7a63.25,63.25,0,0,0,7,8.5c2.5,2.7,5.2,5.2,7.9,7.6l-1.7.7c.2-3.2.3-6.4.4-9.7s0-6.5-.2-9.7a38.88,38.88,0,0,0-1.8-9.5,10.8,10.8,0,0,0-2.5-4.1,8.65,8.65,0,0,0-1-.7,2.19,2.19,0,0,1-.5-.3l-.6-.2a1.27,1.27,0,0,0-.6-.1h-.6A1.7,1.7,0,0,1,19.5,27.8Z"/><path class="cls-2" d="M46.8,46.7l-1,8.8c-.3,2.9-.6,5.8-.7,8.7a61.7,61.7,0,0,0,0,8.6,31.14,31.14,0,0,0,1.6,8.5A20.7,20.7,0,0,1,43.4,73a34.41,34.41,0,0,1-.5-4.5c0-1.5-.1-3,0-4.5s.2-3,.4-4.5a33.92,33.92,0,0,1,.8-4.4A51.32,51.32,0,0,1,46.8,46.7Z"/><path class="cls-2" d="M55.1,36.2a3,3,0,0,1,2,1,4.19,4.19,0,0,1,.8,2.2,14.2,14.2,0,0,1-.6,4.6A58.6,58.6,0,0,1,54,52.8c-1.3,2.8-2.8,5.6-4.3,8.4s-3.2,5.4-4.9,8l-1,1.5L43,69.1a52.76,52.76,0,0,1-4-10.9,32.34,32.34,0,0,1-1.2-11.6A14,14,0,0,1,39.5,41a9.55,9.55,0,0,1,4.3-3.9,13.76,13.76,0,0,1,5.6-1.2,28.05,28.05,0,0,1,2.9,0Zm0,0-2.8-.3a28.05,28.05,0,0,0-2.9,0A12.46,12.46,0,0,0,44,37.4a9.18,9.18,0,0,0-3.8,4A14.1,14.1,0,0,0,39,46.7a37.8,37.8,0,0,0,1.8,11,78.26,78.26,0,0,0,4,10.5l-1.6-.1c1.8-2.5,3.5-5.1,5.2-7.7s3.3-5.2,4.9-8a50.41,50.41,0,0,0,3.9-8.5,12.06,12.06,0,0,0,.8-4.6,4.1,4.1,0,0,0-.7-2.2A4.31,4.31,0,0,0,55.1,36.2Z"/><path class="cls-2" d="M81.4,103.8a18.46,18.46,0,0,1-5.8-4.6,26.39,26.39,0,0,1-3.8-6.5,29.4,29.4,0,0,1-1.9-7.2,26.16,26.16,0,0,1-.1-7.4c.5,2.4,1.1,4.7,1.7,7.1s1.4,4.6,2.2,6.7a46.55,46.55,0,0,0,3.2,6.3A39.44,39.44,0,0,0,81.4,103.8Z"/><path class="cls-2" d="M67.7,65.5a3.72,3.72,0,0,1,2.1.1,4.39,4.39,0,0,1,1.8,1.2,10.89,10.89,0,0,1,2.1,3.8,41.52,41.52,0,0,1,1.8,8.5q.45,4.35.6,8.7a86.82,86.82,0,0,1-.2,8.8l-.2,2.1-1.6-1.5c-1.2-1.2-2.4-2.4-3.5-3.7l-3.3-3.9A59.71,59.71,0,0,1,61.8,81,19.78,19.78,0,0,1,60,76.2a9.81,9.81,0,0,1-.1-5.1c.1-.4.3-.8.4-1.2a6.73,6.73,0,0,1,.7-1.1l.9-.9,1-.8A27,27,0,0,1,67.7,65.5Zm0,0A15.78,15.78,0,0,0,63,67.3a6.2,6.2,0,0,0-2.7,4,9.78,9.78,0,0,0,.5,4.8,26.22,26.22,0,0,0,2.1,4.5,74.83,74.83,0,0,0,5.9,8c2.2,2.5,4.4,5,6.7,7.3l-1.7.6c.3-2.8.5-5.7.6-8.6a82.56,82.56,0,0,0,.1-8.6,34.15,34.15,0,0,0-1.1-8.5A10.46,10.46,0,0,0,71.5,67a4.07,4.07,0,0,0-1.7-1.2A3,3,0,0,0,67.7,65.5Z"/><path class="cls-2" d="M32.1,90.7A17.75,17.75,0,0,1,38,87.2a8.45,8.45,0,0,1,1.7-.5l1.7-.4a20.85,20.85,0,0,1,3.5-.4h1.8a10.87,10.87,0,0,1,1.8.1,18.63,18.63,0,0,1,3.4.7,21.21,21.21,0,0,1,6.2,3.1,50.8,50.8,0,0,0-6.5-1.5,28.42,28.42,0,0,0-6.5-.4,48.07,48.07,0,0,0-6.5.8A35,35,0,0,0,32.1,90.7Z"/><path class="cls-2" d="M19.5,94.9a3.86,3.86,0,0,0,.8,2,5,5,0,0,0,.8.7,3.81,3.81,0,0,0,1,.3,10.42,10.42,0,0,0,4.3-.2,46.67,46.67,0,0,0,8.1-3.1c2.6-1.3,5.1-2.7,7.6-4.1s5-2.9,7.4-4.4l.2,1.9a91.25,91.25,0,0,0-9-2.3,57.71,57.71,0,0,0-9.3-1.2,23.16,23.16,0,0,0-4.6.4,11.4,11.4,0,0,0-4.3,1.7,7,7,0,0,0-2.7,3.8A13.14,13.14,0,0,0,19.5,94.9Zm0,0a14.72,14.72,0,0,1,.3-4.7,7.58,7.58,0,0,1,2.6-4A12.51,12.51,0,0,1,26.7,84a26.73,26.73,0,0,1,4.8-.8,38.44,38.44,0,0,1,4.8,0,39.06,39.06,0,0,1,4.8.5,35.5,35.5,0,0,1,4.7.9c1.6.4,3.1.8,4.7,1.3l2.1.7-1.9,1.1c-2.5,1.5-5.1,2.9-7.7,4.2a80.76,80.76,0,0,1-8,3.5,47.84,47.84,0,0,1-8.4,2.5,10.38,10.38,0,0,1-4.3,0,1.78,1.78,0,0,1-1-.4,2.7,2.7,0,0,1-.8-.7A3,3,0,0,1,19.5,94.9Z"/><path class="cls-2" d="M50.9,105.3a31,31,0,0,1,8.8-3.7,38.06,38.06,0,0,1,9.5-1.2,31,31,0,0,1,9.5,1.6c.8.3,1.5.6,2.3.9l2.1,1.1c.3.2.7.4,1,.6l1,.7c.6.5,1.3,1,1.9,1.5a21.4,21.4,0,0,1-2.2-1l-1.1-.5c-.4-.1-.7-.3-1.1-.4l-2.2-.8-2.2-.6a39.57,39.57,0,0,0-9-1.1,55.79,55.79,0,0,0-9.1.7C57,103.7,54,104.4,50.9,105.3Z"/><path class="cls-2" d="M38.4,115.8,39,117a10.47,10.47,0,0,0,.8,1.1,4,4,0,0,0,2.2,1.4,5.65,5.65,0,0,0,2.6-.2,10.08,10.08,0,0,0,2.3-1.2,52.63,52.63,0,0,0,7.8-7.1c2.5-2.5,4.9-5.1,7.7-7.4a14.63,14.63,0,0,1,4.9-2.8,8,8,0,0,1,1.5-.3h.7l-.3.3c0,.1-.1.2-.1.4v.4c.1.4.2.4.2.4h0a.35.35,0,0,0-.2-.1c-.2-.1-.4-.1-.5-.2l-1.2-.3a45.43,45.43,0,0,0-5.1-.9c-1.7-.2-3.5-.4-5.2-.5a45.1,45.1,0,0,0-10.4.5,14.3,14.3,0,0,0-4.9,1.7,9.13,9.13,0,0,0-3.8,3.5,9.74,9.74,0,0,0-1,5.1A18.75,18.75,0,0,0,38.4,115.8Zm0,0a17.52,17.52,0,0,1-1.4-5.1,8.91,8.91,0,0,1,4.5-9.1,18.31,18.31,0,0,1,5-2.1,42.94,42.94,0,0,1,10.7-1.3,48,48,0,0,1,10.7,1.1,10.26,10.26,0,0,1,1.4.4c.2.1.5.1.7.3s.3.1.4.2.2.1.3.2a1.65,1.65,0,0,1,.5.6c0,.1.1.3,0,.5a.52.52,0,0,1-.2.4,1.4,1.4,0,0,1-.4.4c-.2.1-.3.1-.4.2a.9.9,0,0,1-.5.1,1.48,1.48,0,0,0-.7.1,4.25,4.25,0,0,0-1.1.2,14.31,14.31,0,0,0-4.4,2.3c-2.8,2-5.4,4.4-8.1,6.7a67.83,67.83,0,0,1-8.4,6.6,12.81,12.81,0,0,1-2.4,1.1,5.86,5.86,0,0,1-2.6.2,3.68,3.68,0,0,1-2.2-1.4,10.47,10.47,0,0,1-.8-1.1Z"/><path class="cls-2" d="M96.6,112.1c1.7-3.9,3.2-7.9,4.5-11.9s2.5-8.1,3.5-12.2a124.6,124.6,0,0,0,3.6-25,84.46,84.46,0,0,0-2.6-25A71,71,0,0,0,94.9,15.2a49.06,49.06,0,0,1,3.9,5.1l1.8,2.7,1.6,2.8a62.39,62.39,0,0,1,5,11.9c.4,1,.6,2.1.9,3.1a17.29,17.29,0,0,1,.7,3.1l.6,3.2.4,3.2a92.77,92.77,0,0,1,.5,12.9,113.26,113.26,0,0,1-4.1,25.3A109.32,109.32,0,0,1,96.6,112.1Z"/><path class="cls-2" d="M90.7,4.8a43.72,43.72,0,0,1,4.4-3.1A10.69,10.69,0,0,1,100.3,0a5.3,5.3,0,0,1,2.7.8A6.25,6.25,0,0,1,104.8,3a14.52,14.52,0,0,1,1.5,5.4,45,45,0,0,1,0,11c-.2,1.8-.4,3.6-.7,5.4s-.7,3.6-1.1,5.4l-.4,1.5-1.2-.9a52.32,52.32,0,0,1-6.1-5.4,51.51,51.51,0,0,1-5.3-6.1A19.75,19.75,0,0,1,88,12a7.78,7.78,0,0,1,.2-4A8.93,8.93,0,0,1,90.7,4.8Zm0,0A7.32,7.32,0,0,0,88.4,8a7.38,7.38,0,0,0-.1,3.9,11.66,11.66,0,0,0,1.6,3.6,37.12,37.12,0,0,0,2.3,3.2,59.2,59.2,0,0,0,5.6,5.6,68.72,68.72,0,0,0,6.2,4.8l-1.6.6c.4-1.7.7-3.5,1-5.3s.6-3.5.8-5.3.4-3.5.6-5.3a47.31,47.31,0,0,0,.1-5.3,14.47,14.47,0,0,0-1-5.1,5.11,5.11,0,0,0-1.5-2.1,3.88,3.88,0,0,0-2.3-.9A10.3,10.3,0,0,0,95,1.8,48.5,48.5,0,0,0,90.7,4.8Z"/><path class="cls-2" d="M118,21.6c-1,2.3-2,4.6-2.9,6.9s-1.7,4.6-2.4,7a57.1,57.1,0,0,0-1.9,7.1c-.6,2.4-.9,4.9-1.4,7.4a27.66,27.66,0,0,1-.2-7.6l.1-1,.2-.9c.1-.6.2-1.3.3-1.9.3-1.2.6-2.5,1-3.7a36,36,0,0,1,3-7A20.44,20.44,0,0,1,118,21.6Z"/><path class="cls-2" d="M122.2,9a7,7,0,0,1,3.8,2.2,5.43,5.43,0,0,1,.7,4.3,24,24,0,0,1-3.5,8.2A74.37,74.37,0,0,1,118,31a75.68,75.68,0,0,1-6.1,6.6L110.5,39l-.3-2a68.38,68.38,0,0,1-.8-9,45.65,45.65,0,0,1,.8-9c.6-2.9,1.6-6,3.7-8.2a7.12,7.12,0,0,1,3.9-2.1A11.06,11.06,0,0,1,122.2,9Zm0,0a11,11,0,0,0-4.4-.2,6.4,6.4,0,0,0-3.7,2.2c-1.9,2.3-2.5,5.3-2.9,8.1a51.72,51.72,0,0,0,0,8.8,82.66,82.66,0,0,0,1,8.7l-1.7-.6c1.1-1,2.1-2,3.1-3.1s2.1-2.1,3-3.2a61.07,61.07,0,0,0,5.7-6.7c1.7-2.4,3.4-4.9,4.1-7.7a5.55,5.55,0,0,0-.5-4.2A7.21,7.21,0,0,0,122.2,9Z"/><path class="cls-2" d="M128.4,50.9a61.42,61.42,0,0,0-6.4,2.7,36.2,36.2,0,0,0-5.6,3.7,20.69,20.69,0,0,0-4.3,5,27.48,27.48,0,0,0-2.8,6.3,16,16,0,0,1,1.3-7.1l.4-.9.5-.8a7.84,7.84,0,0,1,1-1.5c.4-.5.8-.9,1.2-1.4a15.93,15.93,0,0,0,1.3-1.3,19.82,19.82,0,0,1,6.3-3.6A21.91,21.91,0,0,1,128.4,50.9Z"/><path class="cls-2" d="M136.8,46.7a9.66,9.66,0,0,1,1.5,4.1,5.94,5.94,0,0,1-1.3,4.1,13.12,13.12,0,0,1-3.5,2.7,20.88,20.88,0,0,1-4.1,1.7,51.08,51.08,0,0,1-8.6,2,64,64,0,0,1-8.8.7h-1.7l.7-1.5a63.67,63.67,0,0,1,4.6-8,39.71,39.71,0,0,1,6-7,25.67,25.67,0,0,1,3.7-2.8,7.7,7.7,0,0,1,4.4-1.2,7,7,0,0,1,4.2,1.6A16.38,16.38,0,0,1,136.8,46.7Zm0,0a16.26,16.26,0,0,0-3-3.4,6.38,6.38,0,0,0-4.1-1.4,8.5,8.5,0,0,0-4.1,1.5,22.85,22.85,0,0,0-3.3,2.9,52.69,52.69,0,0,0-5.2,7.2c-1.5,2.6-3,5.2-4.3,7.8l-.9-1.5c1.4,0,2.9-.1,4.3-.1s2.9-.1,4.3-.3a60,60,0,0,0,8.5-1.2,28,28,0,0,0,4.1-1.3,12.29,12.29,0,0,0,3.6-2.3,5.19,5.19,0,0,0,1.5-3.9A8.37,8.37,0,0,0,136.8,46.7Z"/><path class="cls-2" d="M82.4,34.1a48.12,48.12,0,0,1,8.8,3,65.34,65.34,0,0,1,8.2,4.5,32.25,32.25,0,0,1,7,6.3,16.94,16.94,0,0,1,2.4,4.1,9.27,9.27,0,0,1,.7,4.6,14.76,14.76,0,0,0-4.3-7.7,23.52,23.52,0,0,0-3.3-3l-3.6-2.7c-2.5-1.7-5.1-3.3-7.7-4.8C87.8,37.1,85.1,35.6,82.4,34.1Z"/><path class="cls-2" d="M76.1,29.9a14.12,14.12,0,0,1,8.5-4,12.67,12.67,0,0,1,4.7.9,15.85,15.85,0,0,1,4.1,2.6,31.3,31.3,0,0,1,6.2,7.4,53.58,53.58,0,0,1,4.4,8.6l.5,1.3H103c-1.8,0-3.6,0-5.5-.1s-3.6-.2-5.4-.4a67.94,67.94,0,0,1-10.8-1.9,32,32,0,0,1-5.2-1.8A9,9,0,0,1,71.9,39a4.25,4.25,0,0,1-.5-2.7,6,6,0,0,1,1-2.5A22.59,22.59,0,0,1,76.1,29.9Zm0,0A17.28,17.28,0,0,0,72.6,34a5.81,5.81,0,0,0-.9,2.5,3.61,3.61,0,0,0,.6,2.5,9.07,9.07,0,0,0,4.2,3,32.28,32.28,0,0,0,5.1,1.4,76.21,76.21,0,0,0,10.6,1.1c1.8.1,3.6.2,5.4.2s3.6.1,5.4.1l-.9,1.4a72,72,0,0,0-3.9-8.5,31.16,31.16,0,0,0-5.4-7.5c-2.2-2.1-5-3.9-8.2-3.9a10,10,0,0,0-4.5,1.1A12.83,12.83,0,0,0,76.1,29.9Z"/><path class="cls-2" d="M90.7,65.5a37.09,37.09,0,0,1,5.5,5,52.15,52.15,0,0,1,4.5,6,29.72,29.72,0,0,1,3.1,6.8,20.9,20.9,0,0,1,.9,7.4,40.19,40.19,0,0,0-2.4-6.9c-.3-.5-.5-1.1-.8-1.6s-.6-1.1-.8-1.6a31.36,31.36,0,0,0-1.8-3.1c-1.2-2.1-2.6-4.1-3.9-6.1Z"/><path class="cls-2" d="M86.5,59.2a6.28,6.28,0,0,1,4.2-1.4,6.41,6.41,0,0,1,4,2,22.32,22.32,0,0,1,4.8,7.6,66.06,66.06,0,0,1,3,8.5,65.64,65.64,0,0,1,1.9,8.8l.3,2-1.8-.9a81.3,81.3,0,0,1-8.1-4.7,45.86,45.86,0,0,1-7.2-6,26,26,0,0,1-3-3.6,11.12,11.12,0,0,1-1.9-4.3,6.39,6.39,0,0,1,.7-4.5A10.46,10.46,0,0,1,86.5,59.2Zm0,0a10.12,10.12,0,0,0-3.1,3.4A6.14,6.14,0,0,0,83,67a10.49,10.49,0,0,0,2.2,4,19.37,19.37,0,0,0,3.2,3.2,55.66,55.66,0,0,0,7.5,5.2,89.39,89.39,0,0,0,8,4.4l-1.5,1.1c-.2-1.4-.5-2.9-.7-4.3s-.5-2.9-.9-4.3a62.78,62.78,0,0,0-2.3-8.5,22.91,22.91,0,0,0-4.1-7.7A5.83,5.83,0,0,0,90.6,58,6.34,6.34,0,0,0,86.5,59.2Z"/><path class="cls-2" d="M126.3,73.9a57.64,57.64,0,0,0-6.9,3.8,48.08,48.08,0,0,0-6.2,4.7,41.13,41.13,0,0,0-5.3,5.7,63.07,63.07,0,0,0-4.4,6.6,23.37,23.37,0,0,1,3.1-7.5,22.82,22.82,0,0,1,3.8-4.9l.7-.7.8-.7a39.19,39.19,0,0,1,3.2-2.5l1.7-1.1a16.18,16.18,0,0,0,1.8-1A23.77,23.77,0,0,1,126.3,73.9Z"/><path class="cls-2" d="M136.8,69.7l.5.9c.1.3.3.7.4,1a6.1,6.1,0,0,1,0,2.2,6.68,6.68,0,0,1-2.6,3.4,26.92,26.92,0,0,1-7.8,3.8,74,74,0,0,1-8.4,2.3,81.12,81.12,0,0,1-8.6,1.4l-1.7.2.7-1.6c.6-1.5,1.4-3,2.1-4.4s1.6-2.8,2.5-4.2a39.48,39.48,0,0,1,2.9-3.9,28.31,28.31,0,0,1,3.4-3.5,16.19,16.19,0,0,1,4.1-2.7,8.21,8.21,0,0,1,4.9-.7,9.81,9.81,0,0,1,4.3,2.2A14,14,0,0,1,136.8,69.7Zm0,0a18.34,18.34,0,0,0-3.2-3.6,8.55,8.55,0,0,0-4.3-2,7.86,7.86,0,0,0-4.5,1,14.83,14.83,0,0,0-3.7,2.9,38.47,38.47,0,0,0-5.5,7.7c-.8,1.4-1.6,2.8-2.3,4.2s-1.4,2.9-2.1,4.3l-1-1.4c2.8-.3,5.6-.6,8.5-1a82.76,82.76,0,0,0,8.4-1.6,28.26,28.26,0,0,0,7.9-3.1,6,6,0,0,0,2.7-3.2c.1-.3.1-.7.2-1s-.1-.7-.1-1.1a4.18,4.18,0,0,0-.4-1Z"/><path class="cls-2" d="M269.8,56.1a60.15,60.15,0,0,0-6.3,11c-.5,1-.8,1.9-1.2,2.9l-.6,1.5-.5,1.5c-.3,1-.7,2-1,3l-.8,3c-.3,1-.4,2.1-.7,3.1a28.37,28.37,0,0,0-.6,3.1l-.4,3.1a7.77,7.77,0,0,0-.2,1.6l-.1,1.6-.2,3.1c-.1,1-.1,2.1-.1,3.2V101c0,1.1.1,2.1.2,3.2l.2,3.2a29.09,29.09,0,0,0,.4,3.1c.3,2.1.5,4.2.9,6.3.7,4.2,1.4,8.4,2.2,12.5s1.7,8.3,2.8,12.4c.3,1,.5,2,.9,3.1s.7,2,1,3a25.5,25.5,0,0,0,1.3,2.9,10,10,0,0,0,.8,1.4,2.91,2.91,0,0,0,1.1,1.1,4.12,4.12,0,0,1-1.3-1,11.32,11.32,0,0,1-1-1.3,19.1,19.1,0,0,1-1.5-2.8c-.4-1-.9-2-1.2-3s-.8-2-1.1-3c-1.3-4.1-2.5-8.2-3.4-12.4s-1.8-8.4-2.6-12.5c-.4-2.1-.7-4.2-1-6.4-.1-1.1-.3-2.1-.4-3.2l-.2-3.2A79,79,0,0,1,258,78.8C260.3,70.5,264.1,62.5,269.8,56.1Z"/><path class="cls-2" d="M275,44.6a4.31,4.31,0,0,1,1.7,1.3,9.29,9.29,0,0,1,.5,1c.1.4.1.7.2,1.1a11.68,11.68,0,0,1-.9,4.2,56.82,56.82,0,0,1-4.1,7.7c-1.6,2.4-3.3,4.8-5.1,7.1a70.92,70.92,0,0,1-5.8,6.5l-1.8,1.8V72.8a58.24,58.24,0,0,1,.7-9.3,56.86,56.86,0,0,1,2-9.1,32,32,0,0,1,1.7-4.3,16.58,16.58,0,0,1,2.6-3.9,6.94,6.94,0,0,1,4-2.2A6.53,6.53,0,0,1,275,44.6Zm0,0a7.76,7.76,0,0,0-4.5-.6,6.74,6.74,0,0,0-3.8,2.4,15,15,0,0,0-2.2,3.9,35.17,35.17,0,0,0-1.3,4.3,55.54,55.54,0,0,0-1.2,9c-.2,3-.4,6.1-.4,9.1l-1.8-.7c2-2,4-4.1,5.9-6.2s3.9-4.2,5.7-6.5c.9-1.1,1.7-2.3,2.5-3.5a19.5,19.5,0,0,0,2.1-3.7,10,10,0,0,0,1.1-4.1A3.18,3.18,0,0,0,275,44.6Z"/><path class="cls-2" d="M247.8,63.4a24.16,24.16,0,0,1,4.4,5.7,39.29,39.29,0,0,1,3,6.6,35.74,35.74,0,0,1,1,3.5,22.26,22.26,0,0,1,.5,3.6,24.73,24.73,0,0,1-.3,7.2c-.5-2.4-.8-4.7-1.3-7a51.24,51.24,0,0,0-1.9-6.7c-.7-2.2-1.6-4.4-2.5-6.5S248.9,65.6,247.8,63.4Z"/><path class="cls-2" d="M243.6,53l.9-.7a4.67,4.67,0,0,1,1-.5,3.33,3.33,0,0,1,2.2-.1.76.76,0,0,1,.5.2c.2.1.3.2.5.3a5.5,5.5,0,0,0,.9.7,7.49,7.49,0,0,1,1.3,1.8,36.28,36.28,0,0,1,3.2,8.5,87.9,87.9,0,0,1,1.9,8.9c.5,3,.8,6,1,9l.1,1.8-1.6-.8a43.26,43.26,0,0,1-8.2-5.1,37.28,37.28,0,0,1-3.6-3.2,28.54,28.54,0,0,1-3.1-3.8,14.58,14.58,0,0,1-2-4.4,9.76,9.76,0,0,1-.1-4.8,11.31,11.31,0,0,1,2-4.3A15,15,0,0,1,243.6,53Zm0,0c-2.3,2.1-4.4,4.7-4.9,7.9a10.38,10.38,0,0,0,.5,4.6,13.41,13.41,0,0,0,2.3,4,30.84,30.84,0,0,0,6.9,6.1,79.79,79.79,0,0,0,8,4.7l-1.5,1c-.2-3-.4-5.9-.6-8.9s-.6-5.9-1.1-8.9a30.87,30.87,0,0,0-2.5-8.5,7.61,7.61,0,0,0-1.2-1.9,6,6,0,0,0-.8-.8c-.2-.1-.3-.2-.5-.3s-.3-.2-.5-.2a3.33,3.33,0,0,0-2.2.1c-.3.2-.7.3-1,.5Z"/><path class="cls-2" d="M279.2,76a77.73,77.73,0,0,1-6.6,5.1c-2.2,1.6-4.5,3.2-6.6,5a44.5,44.5,0,0,0-5.9,5.6,21.42,21.42,0,0,0-4.2,7,14.24,14.24,0,0,1,2.9-8,28.94,28.94,0,0,1,5.9-6.2,53.5,53.5,0,0,1,7-4.7C274.2,78.4,276.7,77.2,279.2,76Z"/><path class="cls-2" d="M287.6,69.7a7.78,7.78,0,0,1,2,4.4,6.62,6.62,0,0,1-1.7,4.5c-2.1,2.6-5.1,4.2-8,5.7a92.93,92.93,0,0,1-9.2,3.7,74.84,74.84,0,0,1-9.6,2.4l-2.1.4,1-1.9a87,87,0,0,1,5-8.3,73.9,73.9,0,0,1,6.1-7.5,24.15,24.15,0,0,1,7.8-5.7,7.88,7.88,0,0,1,4.8-.4A7.69,7.69,0,0,1,287.6,69.7Zm0,0a7.94,7.94,0,0,0-3.9-2.6,7.29,7.29,0,0,0-4.6.5,17,17,0,0,0-3.9,2.7,26.58,26.58,0,0,0-3.2,3.5,60.14,60.14,0,0,0-5.4,7.8c-.8,1.3-1.6,2.7-2.4,4.1s-1.6,2.8-2.3,4.2l-1.1-1.5c3.1-.6,6.3-1.3,9.4-2.1a75.44,75.44,0,0,0,9.2-2.9c3-1.2,6-2.6,8.2-4.9a6.53,6.53,0,0,0,1.9-4.3A8.26,8.26,0,0,0,287.6,69.7Z"/><path class="cls-2" d="M275,109.5a28.54,28.54,0,0,0-4.7,5.7c-1.3,2.1-2.6,4.2-3.7,6.4s-2.1,4.4-3,6.7a73.74,73.74,0,0,0-2.3,7.1,24.52,24.52,0,0,1,.7-7.6c.3-1.3.7-2.5,1.1-3.7a37.27,37.27,0,0,1,1.6-3.5,39.24,39.24,0,0,1,4.2-6.4,17.24,17.24,0,0,1,2.7-2.7A15.09,15.09,0,0,1,275,109.5Z"/><path class="cls-2" d="M283.4,101.1a13.55,13.55,0,0,1,4.6,2.8,5.64,5.64,0,0,1,1.3,2.4,5,5,0,0,1-.3,2.7,13.66,13.66,0,0,1-3,4.5,47.34,47.34,0,0,1-4,3.7,79,79,0,0,1-9,6.1,80.05,80.05,0,0,1-9.7,4.9l-1.5.7v-1.6a49,49,0,0,1,1.1-10.2,37.06,37.06,0,0,1,3.3-9.7,17.86,17.86,0,0,1,3-4.2,12.31,12.31,0,0,1,4.3-2.8C276.8,99.2,280.3,99.9,283.4,101.1Zm0,0a20.65,20.65,0,0,0-4.9-1.2,11.46,11.46,0,0,0-4.9.7,9.55,9.55,0,0,0-3.9,3,15.07,15.07,0,0,0-2.5,4.2,38.76,38.76,0,0,0-2.5,9.6c-.2,1.6-.4,3.3-.5,4.9s-.2,3.3-.2,4.9l-1.5-.9c3.2-1.4,6.4-3,9.6-4.6a65.17,65.17,0,0,0,9.2-5.4,33.92,33.92,0,0,0,4.2-3.3,12.06,12.06,0,0,0,3.2-4.2,5.69,5.69,0,0,0,.4-2.6,4.51,4.51,0,0,0-1.1-2.3A15.34,15.34,0,0,0,283.4,101.1Z"/><path class="cls-2" d="M239.4,92.8a18.26,18.26,0,0,1,6.1,1.1,19.64,19.64,0,0,1,5.5,3,15.66,15.66,0,0,1,4.1,4.8,13,13,0,0,1,1.4,6.1,19.91,19.91,0,0,0-6.8-9.2A39.79,39.79,0,0,0,239.4,92.8Z"/><path class="cls-2" d="M229,86.5a8.62,8.62,0,0,1,2.5-3.4,5.21,5.21,0,0,1,4.2-.9,11.8,11.8,0,0,1,4,1.7c1.2.8,2.4,1.7,3.5,2.6a59.52,59.52,0,0,1,6.1,6.2,60.47,60.47,0,0,1,5.2,7l.9,1.4-1.6.2a56.77,56.77,0,0,1-9.2.5,40,40,0,0,1-9.1-1.3,15.67,15.67,0,0,1-4.2-1.8,7.65,7.65,0,0,1-3.7-7.9A16.65,16.65,0,0,1,229,86.5Zm0,0a16.2,16.2,0,0,0-1.2,4.3,7.09,7.09,0,0,0,.8,4.3,7.49,7.49,0,0,0,3.2,2.9,14.84,14.84,0,0,0,4.2,1.4,37.19,37.19,0,0,0,8.8.5,86.61,86.61,0,0,0,8.9-.7l-.7,1.6c-.7-1.2-1.6-2.4-2.4-3.5s-1.6-2.3-2.5-3.5q-2.55-3.45-5.4-6.6a27.89,27.89,0,0,0-3.2-2.8,10.86,10.86,0,0,0-3.7-1.9,4.93,4.93,0,0,0-4.1.6A7.47,7.47,0,0,0,229,86.5Z"/><path class="cls-2" d="M241.5,115.8a15.26,15.26,0,0,1,6.6,1.3,20.55,20.55,0,0,1,10.1,8.9,28,28,0,0,1,1.5,3,16.81,16.81,0,0,1,.9,3.2c-.7-.9-1.2-1.9-1.8-2.7l-.9-1.3a11.32,11.32,0,0,0-1-1.3c-.3-.4-.7-.8-1-1.2l-1.1-1.2a5.73,5.73,0,0,0-1.1-1.1,6.28,6.28,0,0,0-1.2-1.1l-1.2-1c-.4-.3-.9-.6-1.3-.9a17.77,17.77,0,0,0-2.7-1.7A26.21,26.21,0,0,0,241.5,115.8Z"/><path class="cls-2" d="M229,113.7a9.66,9.66,0,0,1,2.4-3.3,5.85,5.85,0,0,1,3.8-1.3,17,17,0,0,1,7.9,2.4,51.74,51.74,0,0,1,6.9,4.6,64.22,64.22,0,0,1,6.1,5.6l1.1,1.2-1.6.5c-1.5.4-3,.8-4.5,1.1s-3,.6-4.5.8a46.93,46.93,0,0,1-9.2.4,18.51,18.51,0,0,1-4.6-.8,7.76,7.76,0,0,1-3.9-2.5,5.72,5.72,0,0,1-1-4.4A9.47,9.47,0,0,1,229,113.7Zm0,0a15.89,15.89,0,0,0-1.2,4.4,5.67,5.67,0,0,0,1.2,4.2,7.68,7.68,0,0,0,3.9,2,21.19,21.19,0,0,0,4.4.4,54.11,54.11,0,0,0,8.9-1.1l4.4-.9c1.5-.3,2.9-.7,4.3-1.1l-.5,1.7c-1.8-2-3.7-3.9-5.6-5.7a60,60,0,0,0-6.2-5.1,39.72,39.72,0,0,0-3.5-2,12.44,12.44,0,0,0-3.9-1,6.48,6.48,0,0,0-3.8,1.1A7.43,7.43,0,0,0,229,113.7Z"/><path class="cls-2" d="M340,82.3a18.12,18.12,0,0,1-.5,3.1c-.2,1-.5,2-.8,3-.6,2-1.2,3.9-1.9,5.9-1.3,3.9-2.8,7.8-4.3,11.6s-3.2,7.6-5.1,11.3a58.59,58.59,0,0,1-3,5.5,30.81,30.81,0,0,1-3.7,5.2l-.1.1-.1.1c-11.9,6.4-24,12.5-36.1,18.5s-24.2,12-36.8,17.1a62.39,62.39,0,0,0-9,4.4c-2.9,1.7-5.7,3.6-8.4,5.5s-5.6,3.8-8.6,5.5a30,30,0,0,1-9.8,3.4,27.58,27.58,0,0,1-10.3-.6,60.6,60.6,0,0,1-9.6-3.4c-3.1-1.3-6.2-2.6-9.3-4.2-1.5-.8-3-1.6-4.4-2.5-.7-.5-1.4-1-2-1.5l-.9-.9a2.22,2.22,0,0,1-.5-1.1,1.27,1.27,0,0,0,.5,1.1l.9.9c.7.5,1.4,1,2.1,1.4a38.12,38.12,0,0,0,4.5,2.3c3.1,1.4,6.2,2.7,9.3,3.8a82,82,0,0,0,9.6,3,27,27,0,0,0,9.8.4,27.62,27.62,0,0,0,9.2-3.4,87.56,87.56,0,0,0,8.4-5.6c2.8-1.9,5.6-3.9,8.5-5.6a71.78,71.78,0,0,1,9.2-4.6c6.2-2.6,12.3-5.4,18.4-8.3s12.2-5.8,18.2-8.8c12.1-5.9,24.1-12.1,36.2-18.1l-.2.1a28.65,28.65,0,0,0,3.6-4.8,55.41,55.41,0,0,0,3-5.3c1.9-3.6,3.6-7.4,5.3-11.1s3.3-7.6,4.7-11.4c.7-1.9,1.4-3.9,2.1-5.8A27.26,27.26,0,0,0,340,82.3Z"/><path class="cls-2" d="M346.2,69.7a10.15,10.15,0,0,1,2.5.6,4.53,4.53,0,0,1,2.1,1.5,6.48,6.48,0,0,1,.6,5.1,33.89,33.89,0,0,1-4.3,9.5,86.38,86.38,0,0,1-6,8.5,101.27,101.27,0,0,1-6.9,7.8l-1.5,1.5-.3-2.1a70.09,70.09,0,0,1-.8-10.2,42.83,42.83,0,0,1,1.1-10.1,20.2,20.2,0,0,1,4.3-9.1,9.1,9.1,0,0,1,4.3-2.6A13.58,13.58,0,0,1,346.2,69.7Zm0,0a12,12,0,0,0-5,.5,8.89,8.89,0,0,0-4.1,2.8,15.23,15.23,0,0,0-2.4,4.3,27.69,27.69,0,0,0-1.1,4.8,46.87,46.87,0,0,0-.3,9.9c.1,1.7.2,3.3.4,4.9s.4,3.3.6,4.9l-1.8-.6c2.4-2.4,4.7-5,7-7.5s4.5-5.2,6.5-7.9a39.55,39.55,0,0,0,2.8-4.3,24.91,24.91,0,0,0,2.1-4.7,10.86,10.86,0,0,0,.4-2.5,4.2,4.2,0,0,0-.7-2.4,5.26,5.26,0,0,0-2-1.6A7.66,7.66,0,0,0,346.2,69.7Z"/><path class="cls-2" d="M350.4,105.3c-2.1,1.5-4.2,2.9-6.3,4.3s-4.3,2.6-6.5,3.9-4.4,2.5-6.6,3.7-4.4,2.4-6.6,3.8a28.22,28.22,0,0,1,5.7-5.2c2.1-1.5,4.2-2.9,6.4-4.2a62.45,62.45,0,0,1,6.8-3.5C345.6,107.1,348,106.1,350.4,105.3Z"/><path class="cls-2" d="M363,96.9a8.34,8.34,0,0,1,1.6,2.1,5.94,5.94,0,0,1,.7,2.6,6.87,6.87,0,0,1-2.7,4.5,34.89,34.89,0,0,1-9.5,5.1,94.85,94.85,0,0,1-10.3,3.3,94.6,94.6,0,0,1-10.6,2.1l-2,.3.9-1.8a67.07,67.07,0,0,1,5.7-9.2,49.62,49.62,0,0,1,7.2-8c2.7-2.3,5.9-4.4,9.5-4.9a9.21,9.21,0,0,1,5.2.7A22.89,22.89,0,0,1,363,96.9Zm0,0a14.93,14.93,0,0,0-4.4-3,9.24,9.24,0,0,0-5.2-.5,14.41,14.41,0,0,0-4.8,2,21.3,21.3,0,0,0-4,3.3,50.92,50.92,0,0,0-6.5,8.2c-1,1.5-1.9,2.9-2.8,4.5s-1.7,3-2.5,4.6l-1.1-1.5q5.25-.75,10.5-1.8c3.5-.7,7-1.5,10.4-2.5a36.79,36.79,0,0,0,9.7-4.3,6.87,6.87,0,0,0,1.9-1.9,5.13,5.13,0,0,0,1-2.4,4.75,4.75,0,0,0-.6-2.6A14.62,14.62,0,0,0,363,96.9Z"/><path class="cls-2" d="M319,99a36.86,36.86,0,0,1,3.1,8,35,35,0,0,1,1.3,8.5,18.24,18.24,0,0,1-1.5,8.6,10.4,10.4,0,0,1-2.6,3.6,8.39,8.39,0,0,1-3.9,1.9,11.29,11.29,0,0,0,3.1-2.6,13.07,13.07,0,0,0,1.9-3.5,18,18,0,0,0,.8-3.9,27.73,27.73,0,0,0,.1-4.1,75.84,75.84,0,0,0-.8-8.2C320.1,104.6,319.6,101.8,319,99Z"/><path class="cls-2" d="M314.8,88.6a18.31,18.31,0,0,1,4.7-.5,6.81,6.81,0,0,1,4.3,1.9,11.18,11.18,0,0,1,2.3,4.3,19.73,19.73,0,0,1,.6,4.8,44,44,0,0,1-.9,9.6,57.9,57.9,0,0,1-2.5,9.3l-.6,1.6-1.2-1.2a79.29,79.29,0,0,1-5.9-7.1,48.42,48.42,0,0,1-4.7-7.9,32,32,0,0,1-1.7-4.3,11.87,11.87,0,0,1-.5-4.6,6.06,6.06,0,0,1,1.9-4A12.15,12.15,0,0,1,314.8,88.6Zm0,0a9.45,9.45,0,0,0-4,2,5.44,5.44,0,0,0-1.7,4A11.17,11.17,0,0,0,310,99a21.35,21.35,0,0,0,2,4,46.81,46.81,0,0,0,5.3,7.3c.9,1.2,1.9,2.3,2.9,3.4s2,2.3,3,3.3l-1.7.4c1-2.9,1.9-6,2.7-9a56.45,56.45,0,0,0,1.6-9.3,18.53,18.53,0,0,0-.2-4.7,9.28,9.28,0,0,0-1.8-4.2,6.3,6.3,0,0,0-4.1-2.1A19.89,19.89,0,0,0,314.8,88.6Z"/><path class="cls-2" d="M346.2,134.6a5.88,5.88,0,0,1-1.9,3.2,5.7,5.7,0,0,1-3.6,1.1,23.22,23.22,0,0,1-7.4-1.5,64.93,64.93,0,0,1-13.4-7.2l-1.2-.8,1.2-.8c1.4-1,2.8-1.8,4.2-2.7s2.9-1.6,4.4-2.3a31.6,31.6,0,0,1,9.6-3,11,11,0,0,1,5.1.4,6.72,6.72,0,0,1,1.2.6l.5.4a1.76,1.76,0,0,1,.4.5,4.13,4.13,0,0,1,.7,1.1c.2.4.3.8.5,1.2a11.63,11.63,0,0,1,.3,4.9c-.1.8-.2,1.6-.3,2.5Zm0,0,.5-2.4c.1-.8.2-1.6.3-2.5a11.17,11.17,0,0,0-.6-4.8,5.16,5.16,0,0,0-3.2-3.1,9,9,0,0,0-4.6,0,24.74,24.74,0,0,0-4.6,1.5,35.48,35.48,0,0,0-4.4,2.1c-1.4.7-2.9,1.5-4.3,2.3s-2.8,1.7-4.1,2.5v-1.6c2,1.5,4,2.9,6.1,4.3a51.91,51.91,0,0,0,6.5,3.7,36.46,36.46,0,0,0,3.5,1.4,11.56,11.56,0,0,0,3.7.7,6.12,6.12,0,0,0,3.5-.9A5.86,5.86,0,0,0,346.2,134.6Z"/><path class="cls-2" d="M306.5,117.9a27.83,27.83,0,0,1,3,4,16.37,16.37,0,0,1,1.8,4.8,8.2,8.2,0,0,1-.8,5.3,8.5,8.5,0,0,1-4.2,3.5l-.7-1.8c2.7-1.2,5.5-2.3,8.3-3.3a84.19,84.19,0,0,1,8.6-2.4c1.5-.3,2.9-.6,4.4-.8a34.19,34.19,0,0,1,4.5-.4,17.66,17.66,0,0,1,8.8,1.5,23.18,23.18,0,0,0-8.7-.3,61.15,61.15,0,0,0-8.5,1.8c-2.8.8-5.6,1.6-8.4,2.6s-5.5,2-8.2,3.1l-.7-1.8a7.23,7.23,0,0,0,3.4-2.5,6.89,6.89,0,0,0,1-4.3,14.89,14.89,0,0,0-1.2-4.6C308.1,120.8,307.3,119.3,306.5,117.9Z"/><path class="cls-2" d="M207.9,182c8.9,1.3,17.8,2.7,26.6,4.3s17.6,3.3,26.4,5.2,17.5,3.8,26.3,6.1c4.4,1.1,8.7,2.3,13,3.6,2.1.7,4.3,1.3,6.4,2.1a34.22,34.22,0,0,1,6.2,2.7,36.23,36.23,0,0,0-6.3-2.2c-2.2-.6-4.3-1.1-6.5-1.6l-13.1-3-26.3-5.6L234.3,188Q221,185,207.9,182Z"/><path class="cls-2" d="M270.9,166.1a31.07,31.07,0,0,1,4.5,2.2,8.66,8.66,0,0,1,3.6,3.5,2.77,2.77,0,0,1,.3,1.3,3.08,3.08,0,0,1-.3,1.3,7.82,7.82,0,0,1-1.5,2.2,24,24,0,0,1-4.1,3,44.66,44.66,0,0,1-9.3,3.9c-3.2,1-6.4,1.8-9.7,2.5l-1.5.3.4-1.5a39.14,39.14,0,0,1,2.4-6.8,48.86,48.86,0,0,1,3.4-6.4,17.7,17.7,0,0,1,5.1-5.1,6.74,6.74,0,0,1,3.4-1A5.7,5.7,0,0,1,270.9,166.1Zm0,0a8.34,8.34,0,0,0-3.5-.6,7.6,7.6,0,0,0-3.3,1.1,11.78,11.78,0,0,0-2.6,2.4,18.08,18.08,0,0,0-1.9,2.9,37.1,37.1,0,0,0-2.7,6.5,33.74,33.74,0,0,0-1,3.4c-.3,1.1-.6,2.3-.8,3.4l-1.2-1.2c3.2-.7,6.4-1.6,9.5-2.5,1.6-.4,3.1-.9,4.7-1.4s3.1-1.1,4.6-1.7a18.4,18.4,0,0,0,4.1-2.4,6.55,6.55,0,0,0,1.5-1.8,3.36,3.36,0,0,0,.2-2.2,5.33,5.33,0,0,0-1.3-2,9,9,0,0,0-1.9-1.5A17.28,17.28,0,0,0,270.9,166.1Z"/><path class="cls-2" d="M234.7,187.2a36.53,36.53,0,0,0,8.8-.7c1.4-.3,2.9-.6,4.2-1l2.1-.7,2-.8a17.6,17.6,0,0,0,2-.9l1-.5a3.13,3.13,0,0,1,1-.5l1.9-1.1,1.8-1.2.9-.6c.3-.2.6-.5.9-.7l1.8-1.3c1.2-.9,2.3-1.9,3.5-2.8-.9,1.2-1.8,2.5-2.8,3.6a31.93,31.93,0,0,1-3.3,3.1,31.47,31.47,0,0,1-7.9,4.8,30.57,30.57,0,0,1-8.9,2.2A24.9,24.9,0,0,1,234.7,187.2Z"/><path class="cls-2" d="M287.6,184.9a26.52,26.52,0,0,1-5.6,4.4,29.89,29.89,0,0,1-6.5,3.1,25,25,0,0,1-7.1,1.5,14.58,14.58,0,0,1-7.1-1.4,26.25,26.25,0,0,0,6.9-.3l1.7-.3c.6-.1,1.1-.3,1.6-.4a7.49,7.49,0,0,0,1.6-.5c.5-.2,1.1-.3,1.6-.5l1.6-.6a11.11,11.11,0,0,0,1.6-.7c1.1-.4,2.1-.9,3.2-1.4A64,64,0,0,0,287.6,184.9Z"/><path class="cls-2" d="M296,178.6a9.76,9.76,0,0,1,2.3,3.4l.1.5v.5a1.64,1.64,0,0,1-.1,1,4.18,4.18,0,0,1-.4,1,5.55,5.55,0,0,1-.6.8,10.72,10.72,0,0,1-3.4,2.5,18,18,0,0,1-3.8,1.6,55.39,55.39,0,0,1-8,2.1,76.44,76.44,0,0,1-8.2,1l-1.8.1.8-1.6A47.65,47.65,0,0,1,277,185a35.15,35.15,0,0,1,5.3-5.6,14,14,0,0,1,6.9-3.4,7.06,7.06,0,0,1,3.8.5A10.19,10.19,0,0,1,296,178.6Zm0,0a10.62,10.62,0,0,0-3.1-2.1,5.91,5.91,0,0,0-3.7-.3,12,12,0,0,0-6.2,3.9,36.8,36.8,0,0,0-4.5,5.9c-1.3,2.1-2.6,4.3-3.7,6.5l-1-1.5c2.7-.2,5.4-.4,8.1-.8a70.2,70.2,0,0,0,8-1.3,29.07,29.07,0,0,0,3.9-1.2,10.53,10.53,0,0,0,3.4-2,2.41,2.41,0,0,0,.6-.8,3.55,3.55,0,0,0,.4-.9,1.64,1.64,0,0,0,.1-1v-.5l-.1-.5A9.49,9.49,0,0,0,296,178.6Z"/><path class="cls-2" d="M245.2,189.3a19.68,19.68,0,0,1,4.7,4.4,24.65,24.65,0,0,1,3.4,5.6,20.07,20.07,0,0,1,1.6,6.4,16,16,0,0,1-.8,6.5,40.36,40.36,0,0,0-.8-6.2c-.1-.5-.3-1-.4-1.5s-.3-1-.4-1.5l-.5-1.4-.6-1.4a56.82,56.82,0,0,0-2.8-5.5C247.5,192.8,246.4,191.1,245.2,189.3Z"/><path class="cls-2" d="M252,218.4a3.34,3.34,0,0,0,2.4.2,2.42,2.42,0,0,0,1.3-1.9,12.35,12.35,0,0,0-.4-4.7c-.4-1.6-.8-3.1-1.3-4.6s-1-3.1-1.5-4.5l1.7.4a36.5,36.5,0,0,0-3.1,3.6,16.74,16.74,0,0,0-2.5,4,5.45,5.45,0,0,0-.2,4.5A6.71,6.71,0,0,0,252,218.4Zm0,0a11.3,11.3,0,0,1-2.2-1.1,4.9,4.9,0,0,1-1.7-1.8,7.18,7.18,0,0,1-.6-5,15.16,15.16,0,0,1,2-4.7,20.36,20.36,0,0,1,3.1-4l1.2-1.2.5,1.6c.5,1.6.9,3.2,1.3,4.8a41,41,0,0,1,.6,4.9,16.19,16.19,0,0,1-.3,4.9,2.65,2.65,0,0,1-1.5,1.9A3.93,3.93,0,0,1,252,218.4Z"/><path class="cls-2" d="M275.1,195.6a25.31,25.31,0,0,1,5.4,5.9,30.73,30.73,0,0,1,3.5,7.3,25.85,25.85,0,0,1,.9,4c.1.7.1,1.4.2,2,0,.3.1.7.1,1v1a23.67,23.67,0,0,1-1.6,7.9,50.77,50.77,0,0,0,0-7.8,32.19,32.19,0,0,0-1.5-7.5,39.25,39.25,0,0,0-2.9-7.1C277.9,200,276.6,197.8,275.1,195.6Z"/><path class="cls-2" d="M281.3,233.1a13.68,13.68,0,0,0,4.5-.3A4.76,4.76,0,0,0,289,230a8,8,0,0,0,.4-4.3,20.69,20.69,0,0,0-1-4.3,53.77,53.77,0,0,0-3.6-8.2c-.7-1.3-1.4-2.6-2.2-3.9s-1.5-2.6-2.3-3.8l1.7.1c-1.8,2.3-3.5,4.8-5.1,7.3a34.85,34.85,0,0,0-3.9,8,16.29,16.29,0,0,0-.8,4.3,7.55,7.55,0,0,0,1.1,4.2,7.89,7.89,0,0,0,3.5,2.7A24.24,24.24,0,0,0,281.3,233.1Zm0,0a16.54,16.54,0,0,1-4.4-1,8.09,8.09,0,0,1-3.7-2.6,8.25,8.25,0,0,1-1.5-4.3,17.53,17.53,0,0,1,.4-4.6,37.31,37.31,0,0,1,3.3-8.6,48.32,48.32,0,0,1,5-7.7l.9-1.2.8,1.3a78.21,78.21,0,0,1,4.3,8.1,52.58,52.58,0,0,1,3,8.7,23.21,23.21,0,0,1,.7,4.6,8.8,8.8,0,0,1-.8,4.5,5.47,5.47,0,0,1-3.5,2.8A33.78,33.78,0,0,1,281.3,233.1Z"/><path class="cls-2" d="M296.8,200.7a68.66,68.66,0,0,1,7.5-1.9,41.14,41.14,0,0,1,7.8-.7,18.1,18.1,0,0,1,4,.4,10.33,10.33,0,0,1,3.9,1.7,6.43,6.43,0,0,1,2.4,3.8,10.34,10.34,0,0,1-.3,4.3,10,10,0,0,1-2,3.8A6.3,6.3,0,0,1,316,214a9.84,9.84,0,0,1-4.2-.8,15.47,15.47,0,0,1-3.6-1.9,41.74,41.74,0,0,1-6.2-4.9A70.28,70.28,0,0,1,296.8,200.7Zm0,0a77.28,77.28,0,0,0,12.3,9.2,20.65,20.65,0,0,0,3.4,1.5,8,8,0,0,0,3.4.5,3.87,3.87,0,0,0,2.7-1.3,7.71,7.71,0,0,0,1.5-3,7.89,7.89,0,0,0,.3-3.4,4,4,0,0,0-1.6-2.6,9.93,9.93,0,0,0-3.1-1.5,22,22,0,0,0-3.7-.6A79.15,79.15,0,0,0,296.8,200.7Z"/><path class="cls-2" d="M99.1,218.4c8.6,6.4,16.9,13.1,25.2,19.9s16.4,13.8,24.4,20.9,15.8,14.5,23.5,22,15.1,15.2,22.3,23.2a287.92,287.92,0,0,1,20.2,25.1c3.1,4.4,6.1,8.9,8.8,13.5a97.88,97.88,0,0,1,7,14.6,48,48,0,0,1,3.3,15.9v2l-.1,2-.2,4c-.2,2.7-.3,5.3-.5,8-.4,5.3-.9,10.7-1.5,16-.3,2.7-.7,5.3-1.2,7.9-.3,1.3-.6,2.6-1,3.9a9.82,9.82,0,0,1-.8,1.8,1.58,1.58,0,0,1-.7.7.69.69,0,0,1-.8-.5c.2.3.5.6.8.4a1.58,1.58,0,0,0,.7-.7,10.66,10.66,0,0,0,.7-1.9,27,27,0,0,0,.8-3.9c.4-2.6.7-5.3,1-8,.5-5.3.8-10.7,1.1-16l.4-8,.1-4,.1-2v-2a48,48,0,0,0-3.5-15.3c-3.9-9.9-9.6-18.9-15.8-27.6a299.39,299.39,0,0,0-20.2-24.8c-14.2-16-29.6-30.9-45.3-45.4q-11.85-11-24-21.3C115.6,232,107.4,225.2,99.1,218.4Z"/><path class="cls-2" d="M90.7,342a65.94,65.94,0,0,1,9.2-9.1,84.26,84.26,0,0,1,10.7-7.3,97.3,97.3,0,0,1,11.7-5.7l12-4.8c4-1.6,8-3.1,11.9-4.9a46,46,0,0,0,10.8-6.6l2.4-2.1c.8-.7,1.6-1.5,2.4-2.2,1.6-1.4,3.2-2.9,4.9-4.2,3.4-2.7,6.8-5.3,10.4-7.7-3.3,2.7-6.6,5.5-9.7,8.5-1.6,1.5-3.1,2.9-4.6,4.4l-2.3,2.3a26.08,26.08,0,0,1-2.4,2.3c-.8.7-1.7,1.4-2.5,2.1s-1.8,1.3-2.7,1.9c-1.9,1.2-3.8,2.2-5.7,3.2-3.9,1.9-8,3.4-12,5l-12,4.6a104.28,104.28,0,0,0-22.5,12A72.23,72.23,0,0,0,90.7,342Z"/><path class="cls-2" d="M239.4,224.7a11.31,11.31,0,0,0-4.3,2c-.7.4-1.2,1-1.9,1.5l-1.7,1.7a24.76,24.76,0,0,0-2.7,3.9,21.1,21.1,0,0,0-2,4.3c-2.4,5.9-3.2,12.3-3.6,18.6-.8,12.7.9,25.5,2.1,38.2s2.5,25.5,3.9,38.3,2.9,25.5,3.8,38.3c-.8-6.4-1.9-12.7-2.8-19s-1.8-12.7-2.6-19.1c-1.7-12.7-3-25.5-4.3-38.3-.6-6.4-1.1-12.8-1.6-19.2l-.2-4.8-.1-2.4v-7.2c0-.8.1-1.6.1-2.4l.2-2.4c.6-6.4,1.6-12.9,4.3-18.9a29.33,29.33,0,0,1,2.3-4.3,28.19,28.19,0,0,1,2.9-3.9A14.06,14.06,0,0,1,239.4,224.7Z"/><path class="cls-2" d="M155.7,239.4c.7,5.4,1,10.8,1.6,16.1l.2,2,.3,2c.2,1.3.4,2.6.6,4a30.64,30.64,0,0,0,2.2,7.7,16.89,16.89,0,0,1-3.7-7.3,46.1,46.1,0,0,1-1.5-8.1,56.22,56.22,0,0,1-.3-8.2A28.14,28.14,0,0,1,155.7,239.4Z"/><path class="cls-2" d="M159.9,222.6a20.94,20.94,0,0,1,6.6.3,10.11,10.11,0,0,1,3,1.3,6.72,6.72,0,0,1,2.1,2.6,12.47,12.47,0,0,1,.8,6.6,36.3,36.3,0,0,1-1.6,6.5,78.54,78.54,0,0,1-5.5,12.2c-1.1,1.9-2.2,3.9-3.4,5.7s-2.4,3.7-3.8,5.5l-1,1.3-.7-1.4a76.94,76.94,0,0,1-4.7-11.1,58.66,58.66,0,0,1-2.8-11.7,30.12,30.12,0,0,1-.2-6,14.66,14.66,0,0,1,1.5-5.8,10,10,0,0,1,4.1-4.3A13.11,13.11,0,0,1,159.9,222.6Zm0,0a14.47,14.47,0,0,0-5.7,1.7,9.8,9.8,0,0,0-3.9,4.4,14.11,14.11,0,0,0-1.1,5.7,29.53,29.53,0,0,0,.6,5.9,56.81,56.81,0,0,0,3.5,11.3,116.16,116.16,0,0,0,4.9,10.7l-1.7-.1c2.5-3.5,5-7.2,7.2-10.9a107,107,0,0,0,6.1-11.6,34.12,34.12,0,0,0,1.9-6.2,11.6,11.6,0,0,0-.3-6.4,5.46,5.46,0,0,0-2-2.5,8.64,8.64,0,0,0-2.9-1.4A15,15,0,0,0,159.9,222.6Z"/><path class="cls-2" d="M132.6,226.8c.2,4,.2,7.9.5,11.7a34.34,34.34,0,0,0,.8,5.6,12.59,12.59,0,0,0,2.4,5.1,8.27,8.27,0,0,1-4-4.6,17.94,17.94,0,0,1-1.3-6,24,24,0,0,1,.2-6A30.59,30.59,0,0,1,132.6,226.8Z"/><path class="cls-2" d="M132.6,212.1l1.1.1c.3.1.7.2,1,.3a4.39,4.39,0,0,1,1.8,1.2,7.23,7.23,0,0,1,1.7,3.9,27.6,27.6,0,0,1-.1,8.6,59.78,59.78,0,0,1-1.8,8.4,78.62,78.62,0,0,1-2.7,8.2l-.7,1.8-1.1-1.6c-.9-1.4-1.8-2.7-2.6-4.1s-1.6-2.8-2.3-4.3a42,42,0,0,1-3.3-9.2,19.93,19.93,0,0,1-.6-4.9,9.57,9.57,0,0,1,1.1-4.7,6.89,6.89,0,0,1,3.8-2.9A15,15,0,0,1,132.6,212.1Zm0,0a15,15,0,0,0-4.7.8,6.49,6.49,0,0,0-3.5,3,8.94,8.94,0,0,0-.7,4.6,18,18,0,0,0,1,4.6,55.35,55.35,0,0,0,3.9,8.6c.8,1.4,1.6,2.8,2.4,4.1s1.7,2.7,2.5,4l-1.8.2c1.1-2.6,2.1-5.2,3-7.9a82.76,82.76,0,0,0,2.4-8.1,26.38,26.38,0,0,0,.8-8.4,7,7,0,0,0-1.5-3.9,4.07,4.07,0,0,0-1.7-1.2c-.3-.1-.7-.2-1-.3Z"/><path class="cls-2" d="M86.5,203.8a12.28,12.28,0,0,1,4.9-3.2,8.28,8.28,0,0,1,5.8.3,16.46,16.46,0,0,1,4.8,3.5,32.41,32.41,0,0,1,3.7,4.6,70.06,70.06,0,0,1,5.7,10.4,82.9,82.9,0,0,1,4.1,11.2l.5,1.7-1.7-.4a109.72,109.72,0,0,1-11.5-3.6A72,72,0,0,1,92,223a28,28,0,0,1-4.9-3.6,15.83,15.83,0,0,1-3.7-4.8,7.55,7.55,0,0,1-.2-5.9A15.12,15.12,0,0,1,86.5,203.8Zm0,0a14.62,14.62,0,0,0-3.3,4.9,7.06,7.06,0,0,0,.4,5.7,13.47,13.47,0,0,0,3.8,4.4,28.42,28.42,0,0,0,5,3.2,86.18,86.18,0,0,0,10.9,4.5c3.7,1.2,7.6,2.4,11.4,3.3l-1.2,1.3c-.5-1.8-1.1-3.7-1.8-5.5s-1.3-3.7-2-5.5a77.27,77.27,0,0,0-4.9-10.5,32.76,32.76,0,0,0-3.3-4.7,14.32,14.32,0,0,0-4.5-3.6,7.77,7.77,0,0,0-5.6-.5A11.08,11.08,0,0,0,86.5,203.8Z"/><path class="cls-2" d="M76.1,235.2a108.61,108.61,0,0,1,12.8-.9c4.3-.1,8.5,0,12.8.2,2.1.2,4.3.3,6.4.6s4.3.6,6.4,1a43.69,43.69,0,0,1,6.2,1.7,17.32,17.32,0,0,1,5.7,3,24.9,24.9,0,0,0-6-2,44.44,44.44,0,0,0-6.2-1c-4.2-.5-8.4-.9-12.6-1.1C93.1,236,84.6,235.7,76.1,235.2Z"/><path class="cls-2" d="M61.4,235.2a5.64,5.64,0,0,0,1.6,4.3,7.25,7.25,0,0,0,4.2,1.8,29.09,29.09,0,0,0,9.3-.8,67.18,67.18,0,0,0,9-2.8c2.9-1.1,5.9-2.2,8.7-3.5L94,236c-1.4-.9-2.9-1.9-4.4-2.8s-3-1.8-4.5-2.6a67.48,67.48,0,0,0-9.5-4.3,28.92,28.92,0,0,0-5.1-1.1,9.46,9.46,0,0,0-5,.8,7.1,7.1,0,0,0-3.3,3.9A18.9,18.9,0,0,0,61.4,235.2Zm0,0a15.28,15.28,0,0,1,.8-5.2,7.73,7.73,0,0,1,3.2-4.1,10.47,10.47,0,0,1,5.2-1.2,23.33,23.33,0,0,1,5.3.7A45.3,45.3,0,0,1,86,229.1c1.6.8,3.2,1.6,4.7,2.5a34.61,34.61,0,0,1,4.5,2.9l1.5,1.1-1.7.7a80.76,80.76,0,0,1-9,3.2,77.73,77.73,0,0,1-9.3,2.1,30.93,30.93,0,0,1-9.6.2,7.87,7.87,0,0,1-4.2-2A7.44,7.44,0,0,1,61.4,235.2Z"/><path class="cls-2" d="M92.8,258.2a43,43,0,0,1,8.4-8.1,41.85,41.85,0,0,1,10.4-5.7,29.09,29.09,0,0,1,5.8-1.5,24.1,24.1,0,0,1,6-.1,23.59,23.59,0,0,1,5.8,1.5,23.26,23.26,0,0,1,5,3.1,38.89,38.89,0,0,0-5.3-2.1,26.18,26.18,0,0,0-5.6-.9,29.65,29.65,0,0,0-11,1.9,34.29,34.29,0,0,0-5.2,2.3c-1.7.8-3.3,1.8-5,2.8A100.42,100.42,0,0,0,92.8,258.2Z"/><path class="cls-2" d="M82.4,268.7c.7,1.9,1.6,3.9,3.5,5a5.18,5.18,0,0,0,3,.5,10.21,10.21,0,0,0,2.9-1.1,20,20,0,0,0,4.8-3.9,58.68,58.68,0,0,0,4.1-4.6,122.64,122.64,0,0,0,7.2-10.1c1.1-1.7,2.2-3.5,3.3-5.3s2.2-3.5,3.2-5.3l.7,1.5a77.89,77.89,0,0,0-12.8-.7A38.37,38.37,0,0,0,89.8,247a15.54,15.54,0,0,0-5.3,3.4,11.62,11.62,0,0,0-3.1,5.5,17.32,17.32,0,0,0-.4,6.4c.1,1.1.4,2.1.5,3.2S82.1,267.6,82.4,268.7Zm0,0c-.3-1-.6-2.1-.9-3.1s-.5-2.1-.6-3.2a17.78,17.78,0,0,1,.2-6.5A13.62,13.62,0,0,1,84,250a17.25,17.25,0,0,1,5.3-4,35.37,35.37,0,0,1,12.8-3.1,64.84,64.84,0,0,1,13.2.5l1.5.2-.8,1.3c-2.1,3.6-4.4,7.1-6.8,10.5a124.13,124.13,0,0,1-7.8,9.8,45.67,45.67,0,0,1-4.4,4.4,22.45,22.45,0,0,1-5.1,3.6,9.64,9.64,0,0,1-3,1,4.37,4.37,0,0,1-3.1-.6C84,272.7,83,270.6,82.4,268.7Z"/><path class="cls-2" d="M132.6,270.8a32.31,32.31,0,0,1,8-2.5,40.08,40.08,0,0,1,8.5-.6,27.47,27.47,0,0,1,8.4,1.8,22.18,22.18,0,0,1,3.7,2.1,17.67,17.67,0,0,1,3,3.1,25.64,25.64,0,0,0-3.5-2.2A28.7,28.7,0,0,0,157,271a27.44,27.44,0,0,0-3.9-.9,27.1,27.1,0,0,0-4-.4,54.76,54.76,0,0,0-8.1.1C138.1,270.1,135.4,270.4,132.6,270.8Z"/><path class="cls-2" d="M118,270.8l.1,1.2.3,1.2a6,6,0,0,0,.6,1.1,7.27,7.27,0,0,0,.8.9,7.83,7.83,0,0,0,4.5,1.5,31,31,0,0,0,9.5-1.6c3.1-.9,6.1-2.1,9.1-3.3s5.9-2.6,8.8-4l-.1,1.8c-3-1.8-6.2-3.4-9.3-4.9a58.63,58.63,0,0,0-9.9-3.6,22.47,22.47,0,0,0-5.2-.7,9.73,9.73,0,0,0-5,1.2,8.63,8.63,0,0,0-3.3,4A13,13,0,0,0,118,270.8Zm0,0a15.86,15.86,0,0,1,.8-5.3,7.5,7.5,0,0,1,3.2-4.2,10.58,10.58,0,0,1,5.2-1.6,24.49,24.49,0,0,1,5.4.3,45.37,45.37,0,0,1,5.3,1.2A51.73,51.73,0,0,1,143,263c1.7.7,3.3,1.4,4.9,2.2s3.2,1.6,4.8,2.6l1.6,1-1.7.8c-3,1.4-6,2.6-9.1,3.7a77.45,77.45,0,0,1-9.4,2.7,32.31,32.31,0,0,1-9.8.9,8,8,0,0,1-4.5-1.7,3.45,3.45,0,0,1-.8-.9,10.91,10.91,0,0,1-.6-1.1l-.3-1.2Z"/><path class="cls-2" d="M78.2,350.4a15.39,15.39,0,0,0,4.2,3,8.17,8.17,0,0,0,5.1.6,9.69,9.69,0,0,0,4.5-2.3,24.4,24.4,0,0,0,3.5-3.7,44.39,44.39,0,0,0,5.1-9c.7-1.6,1.4-3.2,2-4.8l1.8-4.8,1.1,1.3c-3.4.5-6.9,1.2-10.3,1.9a88.91,88.91,0,0,0-10.1,2.8,34.12,34.12,0,0,0-4.8,2.2,12.87,12.87,0,0,0-4,3.3,5.43,5.43,0,0,0-1,4.9A11,11,0,0,0,78.2,350.4Zm0,0a11.66,11.66,0,0,1-2.9-4.4l-.2-.6a2,2,0,0,0-.1-.7,1.63,1.63,0,0,1,0-.7l.1-.7a5,5,0,0,1,.4-1.3l.6-1.2a13.76,13.76,0,0,1,3.9-3.7,43.09,43.09,0,0,1,4.7-2.6,60.73,60.73,0,0,1,10.1-3.6,74,74,0,0,1,10.4-2.2l1.7-.3-.5,1.6a60.24,60.24,0,0,1-4.2,9.8,52,52,0,0,1-5.9,8.8,26.43,26.43,0,0,1-3.9,3.6,11.09,11.09,0,0,1-4.9,2,8.09,8.09,0,0,1-5.1-.9A12.18,12.18,0,0,1,78.2,350.4Z"/><path class="cls-2" d="M124.2,337.8a32.22,32.22,0,0,1,.3-6.2,40.24,40.24,0,0,1,1.4-6,19.6,19.6,0,0,1,2.8-5.6,10,10,0,0,1,2.2-2.4,5.65,5.65,0,0,1,2.9-1.2c-1.9,1-2.8,2.7-3.7,4.4a45,45,0,0,0-2.2,5.5C126.7,330,125.7,333.9,124.2,337.8Z"/><path class="cls-2" d="M120.1,352.5a6.71,6.71,0,0,0,4.6.8,5.1,5.1,0,0,0,3.3-3.1,17.83,17.83,0,0,0,1.3-4.5c.2-1.6.3-3.1.4-4.7a75.48,75.48,0,0,0-.4-9.5c-.3-3.1-.6-6.3-1.1-9.4l1.7.6c-1.2,1-2.3,2.1-3.4,3.2s-2.2,2.2-3.3,3.4a52.58,52.58,0,0,0-5.8,7.4,20.28,20.28,0,0,0-2,4.2,10.34,10.34,0,0,0-.7,4.6,7.43,7.43,0,0,0,1.7,4.3A15.38,15.38,0,0,0,120.1,352.5Zm0,0a12.9,12.9,0,0,1-3.8-2.8,7.8,7.8,0,0,1-2-4.3,13,13,0,0,1,.4-4.8,17.65,17.65,0,0,1,1.8-4.5,48.25,48.25,0,0,1,5.3-8,55.14,55.14,0,0,1,6.7-7l1.4-1.3.3,1.9a77.68,77.68,0,0,1,.8,9.6,79.2,79.2,0,0,1-.3,9.7,24.6,24.6,0,0,1-2.4,9.3,6.12,6.12,0,0,1-3.6,3.1A7.37,7.37,0,0,1,120.1,352.5Z"/><path class="cls-2" d="M149.4,329.4a25.54,25.54,0,0,1-1.2-6,25.81,25.81,0,0,1,.1-6.2,20.64,20.64,0,0,1,1.7-6,8.24,8.24,0,0,1,4.4-4.4,11.55,11.55,0,0,0-2.9,5,33.84,33.84,0,0,0-1.2,5.7C149.9,321.4,149.7,325.3,149.4,329.4Z"/><path class="cls-2" d="M149.4,346.2l1.2.2h1.2a3.72,3.72,0,0,0,2.2-1,7.27,7.27,0,0,0,.8-.9,5.36,5.36,0,0,0,.5-1.1,9.48,9.48,0,0,0,.5-2.3,19.29,19.29,0,0,0-.1-4.8,40,40,0,0,0-.8-4.8c-.7-3.1-1.5-6.3-2.5-9.3s-1.9-6.1-3-9.2l1.8.3a78.13,78.13,0,0,0-6,8.2,40.57,40.57,0,0,0-4.5,9.1,16.87,16.87,0,0,0-.8,5,10.44,10.44,0,0,0,1.2,4.9,11.25,11.25,0,0,0,3.6,3.6A18.2,18.2,0,0,0,149.4,346.2Zm0,0a20,20,0,0,1-4.8-1.9,10.65,10.65,0,0,1-3.8-3.5,11,11,0,0,1-1.7-5,23.25,23.25,0,0,1,.4-5.3,34.88,34.88,0,0,1,4-9.8,51.54,51.54,0,0,1,6.1-8.6l1.2-1.4.6,1.7a77.45,77.45,0,0,1,2.7,9.4c.7,3.2,1.4,6.4,1.8,9.6a35.68,35.68,0,0,1,.2,9.8c-.3,1.6-.7,3.3-2,4.4a3.6,3.6,0,0,1-2.2.9h-1.2Z"/><path class="cls-2" d="M76.1,321c6.7,1,13.3,2.2,20,2.9,3.3.4,6.7.7,10,.8a37.56,37.56,0,0,0,10-.8c-3,1.7-6.5,2.2-9.9,2.4a43.41,43.41,0,0,1-5.1.1c-1.7-.1-3.4-.2-5.1-.4a67.83,67.83,0,0,1-10-1.9A45.69,45.69,0,0,1,76.1,321Z"/><path class="cls-2" d="M59.3,316.9a16,16,0,0,1,2.1-4.6,8.18,8.18,0,0,1,3.9-3.2,8.84,8.84,0,0,1,5.1-.2,19.78,19.78,0,0,1,4.8,1.8,40.76,40.76,0,0,1,8.5,5.7,70.82,70.82,0,0,1,7.3,7.2l1,1.2-1.4.5a85.23,85.23,0,0,1-9.9,2.7,50.54,50.54,0,0,1-10.2,1.1,22.06,22.06,0,0,1-5.1-.5,10.21,10.21,0,0,1-4.7-2.2l-.9-.9c-.2-.4-.4-.7-.6-1.1s-.3-.8-.4-1.2l-.2-1.3A16.79,16.79,0,0,1,59.3,316.9Zm0,0a14,14,0,0,0-.6,5,5.87,5.87,0,0,0,2.2,4.3,9.54,9.54,0,0,0,4.6,1.7,27.66,27.66,0,0,0,5,.1,65,65,0,0,0,9.8-1.8c3.2-.9,6.5-1.8,9.6-2.9l-.4,1.7c-1.1-1.2-2.2-2.5-3.4-3.7s-2.3-2.4-3.5-3.5a45.59,45.59,0,0,0-7.8-6.1,18.18,18.18,0,0,0-4.5-2,9.07,9.07,0,0,0-4.9-.1,8.06,8.06,0,0,0-3.9,2.9A13,13,0,0,0,59.3,316.9Z"/><path class="cls-2" d="M90.7,302.2c2.4,2.2,4.7,4.3,7.1,6.4s4.8,4.1,7.3,6a38.28,38.28,0,0,0,3.9,2.7,23.21,23.21,0,0,0,4.1,2.2c2.8,1.3,5.8,2.2,9,1.6a9.6,9.6,0,0,1-4.8.9,16.45,16.45,0,0,1-4.9-1,36,36,0,0,1-8.6-4.7,55.62,55.62,0,0,1-7.2-6.5A73.38,73.38,0,0,1,90.7,302.2Z"/><path class="cls-2" d="M82.4,295.9a12.76,12.76,0,0,1,3.4-4.9,6.78,6.78,0,0,1,2.7-1.3,5.14,5.14,0,0,1,3,.4,17.19,17.19,0,0,1,5.1,3.3,43.78,43.78,0,0,1,4.1,4.5,85,85,0,0,1,6.8,10.1c1,1.8,2,3.5,2.9,5.3s1.8,3.6,2.6,5.5l.7,1.7-1.8-.2a65,65,0,0,1-10.8-2.4,53.41,53.41,0,0,1-10.2-4.2c-3.2-1.8-6.3-4-8.2-7.2a10.67,10.67,0,0,1-1.4-5.2A10.12,10.12,0,0,1,82.4,295.9Zm0,0a14.1,14.1,0,0,0-1.2,5.3,9.32,9.32,0,0,0,1.6,5.1,13.75,13.75,0,0,0,3.8,3.8,27.29,27.29,0,0,0,4.7,2.7,53.12,53.12,0,0,0,10.2,3.4c3.5.8,7.1,1.5,10.6,2l-1.1,1.4c-1.6-3.6-3.4-7.2-5.2-10.7s-3.8-7-6-10.3a40.13,40.13,0,0,0-3.7-4.7,16.37,16.37,0,0,0-4.7-3.6,5.76,5.76,0,0,0-2.9-.5,4.74,4.74,0,0,0-2.7,1.2A12.76,12.76,0,0,0,82.4,295.9Z"/><path class="cls-2" d="M130.5,298a49,49,0,0,0,7.6,3.8,38,38,0,0,0,8,2.2,28.15,28.15,0,0,0,4.1.2,29,29,0,0,0,4.1-.6,29.21,29.21,0,0,0,7.7-3.4,17.37,17.37,0,0,1-7.2,5,19.18,19.18,0,0,1-8.9,1,24.51,24.51,0,0,1-8.4-2.8A28.47,28.47,0,0,1,130.5,298Z"/><path class="cls-2" d="M120.1,293.8a7.91,7.91,0,0,1,3.6-2.4,10.46,10.46,0,0,1,4.3-.3,24.9,24.9,0,0,1,8.3,2.9,61.94,61.94,0,0,1,7.4,4.7c1.2.9,2.3,1.8,3.4,2.7s2.2,1.9,3.3,3l1.4,1.5-2.1.3a92.56,92.56,0,0,1-10.5.7,62.83,62.83,0,0,1-10.6-.6,29.87,29.87,0,0,1-5.2-1,12.55,12.55,0,0,1-4.8-2.3,4.17,4.17,0,0,1-1.5-2.2,4.57,4.57,0,0,1,.1-2.6A13,13,0,0,1,120.1,293.8Zm0,0a13.42,13.42,0,0,0-2.7,4.4,4.26,4.26,0,0,0,0,2.5,5,5,0,0,0,1.5,2,13.25,13.25,0,0,0,4.8,1.8,44.29,44.29,0,0,0,5.1.6,90.26,90.26,0,0,0,10.4-.2c3.5-.2,6.9-.5,10.4-.8l-.6,1.7c-2-2-4.1-4-6.3-5.9a49.86,49.86,0,0,0-6.9-5.2,22.3,22.3,0,0,0-7.9-3.4,10.39,10.39,0,0,0-4.3.1A8.46,8.46,0,0,0,120.1,293.8Z"/><path class="cls-2" d="M57.2,180.7a106.79,106.79,0,0,1,17.6-19.2,90,90,0,0,1,10.5-7.9,99.18,99.18,0,0,1,11.5-6.4,76.43,76.43,0,0,1,12.4-4.5,63,63,0,0,1,13-2.1,62.22,62.22,0,0,1,25.7,4,79,79,0,0,0-12.7-2.4l-1.6-.2-1.6-.1c-1.1,0-2.1-.1-3.2-.1l-3.2.1c-1.1,0-2.1.2-3.2.2s-2.1.2-3.2.4-2.1.3-3.2.5l-3.1.7c-1,.2-2.1.6-3.1.8a72.11,72.11,0,0,0-12,4.5A105.16,105.16,0,0,0,76,162.7c-3.4,2.7-6.6,5.5-9.7,8.5A115.59,115.59,0,0,0,57.2,180.7Z"/><path class="cls-2" d="M50.9,191.2a10.43,10.43,0,0,0,3.8,1.5,5.75,5.75,0,0,0,3.9-.7,7.79,7.79,0,0,0,2.8-2.9,16.89,16.89,0,0,0,1.7-3.6,41.39,41.39,0,0,0,1.9-7.9c.4-2.7.7-5.4.9-8l1.4,1c-2.7,1-5.4,2.1-8.1,3.2a47.48,47.48,0,0,0-7.7,4.1,21.58,21.58,0,0,0-3.3,2.7,6.76,6.76,0,0,0-2,3.7,5.76,5.76,0,0,0,1.2,4A18.58,18.58,0,0,0,50.9,191.2Zm0,0a13,13,0,0,1-3.4-2.8,6.1,6.1,0,0,1-1.5-4.1,8,8,0,0,1,1.8-4.1A19.37,19.37,0,0,1,51,177a39.74,39.74,0,0,1,7.5-4.8,59.44,59.44,0,0,1,8.2-3.5l1.5-.5-.1,1.6a59.61,59.61,0,0,1-1.3,8.3,43.3,43.3,0,0,1-2.7,7.9,16.54,16.54,0,0,1-2.2,3.6,9.25,9.25,0,0,1-3.2,2.7,6.4,6.4,0,0,1-4.1.6A20.31,20.31,0,0,1,50.9,191.2Z"/><path class="cls-2" d="M80.3,182.8a31,31,0,0,1-1.3-7.5,32.28,32.28,0,0,1,.3-7.6,27.23,27.23,0,0,1,2.1-7.4,16.34,16.34,0,0,1,4.7-6,28.71,28.71,0,0,0-3.2,6.6c-.2.6-.3,1.2-.5,1.7a11.63,11.63,0,0,0-.4,1.8,11.63,11.63,0,0,0-.4,1.8l-.3,1.8-.3,1.8c-.1.6-.1,1.2-.2,1.8-.1,1.2-.2,2.5-.3,3.7C80.4,177.8,80.3,180.3,80.3,182.8Z"/><path class="cls-2" d="M82.4,193.3a7.87,7.87,0,0,0,4.5-.8c.4-.1.6-.5.9-.7a5.5,5.5,0,0,0,.7-.9,5.79,5.79,0,0,0,.7-2.1c.5-3-.3-6.1-1.2-8.9a68.46,68.46,0,0,0-3.4-8.5c-1.3-2.8-2.7-5.5-4.1-8.2l1.7.1a86.7,86.7,0,0,0-5.3,8.1,41,41,0,0,0-4,8.8,18.42,18.42,0,0,0-.7,4.7,8.84,8.84,0,0,0,1.4,4.5,9.09,9.09,0,0,0,3.9,2.8A20.47,20.47,0,0,0,82.4,193.3Zm0,0a19.53,19.53,0,0,1-4.8-1,10.13,10.13,0,0,1-4.1-2.7,8.57,8.57,0,0,1-1.9-4.6,16.65,16.65,0,0,1,.3-5,39.15,39.15,0,0,1,3.4-9.4,57.48,57.48,0,0,1,5.3-8.5l1-1.3.8,1.4a92.79,92.79,0,0,1,3.9,8.5,70.58,70.58,0,0,1,2.8,8.9,20.87,20.87,0,0,1,.5,9.3,8.49,8.49,0,0,1-.9,2.2,6.47,6.47,0,0,1-.8.9c-.3.2-.6.5-.9.7A10.46,10.46,0,0,1,82.4,193.3Z"/><path class="cls-2" d="M105.4,164a26.76,26.76,0,0,1,1.3-7.4,30.79,30.79,0,0,1,3-7,20.13,20.13,0,0,1,5.1-5.8,14.13,14.13,0,0,1,3.4-1.9,12.1,12.1,0,0,1,3.7-.7,16.82,16.82,0,0,0-6.1,3.9,20.41,20.41,0,0,0-2.3,2.7,22.34,22.34,0,0,0-2,3,44,44,0,0,0-3.3,6.5A71.27,71.27,0,0,0,105.4,164Z"/><path class="cls-2" d="M99.1,172.3a6.42,6.42,0,0,0,4.1.2,7.29,7.29,0,0,0,3.3-2.5,18.76,18.76,0,0,0,2.1-3.6,27,27,0,0,0,1.4-4,59.75,59.75,0,0,0,1.7-8.2c.4-2.8.7-5.6.9-8.3l1.6.9c-2.5,1.7-5,3.5-7.5,5.3a66.17,66.17,0,0,0-7,5.9c-2.1,2.1-4.3,4.5-5.2,7.4a4.72,4.72,0,0,0,.8,4.3A8.14,8.14,0,0,0,99.1,172.3Zm0,0a10.06,10.06,0,0,1-3.9-2.5,5,5,0,0,1-1-4.4,12.66,12.66,0,0,1,1.8-4.3,33.75,33.75,0,0,1,2.8-3.8,59.59,59.59,0,0,1,6.7-6.6c1.2-1,2.4-2,3.7-2.9s2.5-1.8,3.9-2.7l1.8-1.1-.2,2a60.11,60.11,0,0,1-1.3,8.5,59.14,59.14,0,0,1-2.4,8.2,22.57,22.57,0,0,1-4.2,7.4,7.14,7.14,0,0,1-3.5,2.4A6.06,6.06,0,0,1,99.1,172.3Z"/><path class="cls-2" d="M59.3,159.8c4.4-.3,8.7-.6,13-1.1,2.1-.3,4.2-.7,6.3-1.1s4.1-1.2,6.2-1.9a21.37,21.37,0,0,1-5.8,3.5,29.42,29.42,0,0,1-6.5,1.6,30.06,30.06,0,0,1-6.7.2A30.83,30.83,0,0,1,59.3,159.8Z"/><path class="cls-2" d="M42.6,161.9a9.25,9.25,0,0,1,.9-4.3,6.65,6.65,0,0,1,3.1-3.1c2.7-1.3,5.8-1.3,8.8-1.1a49.72,49.72,0,0,1,8.7,1.8,64.54,64.54,0,0,1,8.3,3.2l1.8.9-1.7,1q-3.9,2.1-7.8,3.9a62.31,62.31,0,0,1-8.3,2.8,23.3,23.3,0,0,1-8.7.9,6,6,0,0,1-3.8-1.9A5.77,5.77,0,0,1,42.6,161.9Zm0,0a5.15,5.15,0,0,0,5.1,5.7A21.16,21.16,0,0,0,56,166a68.58,68.58,0,0,0,7.8-3.5c1.3-.6,2.5-1.3,3.8-2s2.5-1.4,3.7-2.1l.1,1.8c-2.6-1.2-5.3-2.4-8-3.4a60.89,60.89,0,0,0-8.3-2.5,21,21,0,0,0-4.3-.5,12,12,0,0,0-4.2.7,6.26,6.26,0,0,0-3.1,2.9A10.35,10.35,0,0,0,42.6,161.9Z"/><path class="cls-2" d="M78.2,143c1.4.8,2.8,1.6,4.1,2.3a36.52,36.52,0,0,0,4.1,1.8,30.3,30.3,0,0,0,4.3,1.2c1.5.3,3,.4,4.6.7a12.87,12.87,0,0,1-4.8,1,13.72,13.72,0,0,1-4.9-.9,16.41,16.41,0,0,1-4.3-2.4A12.49,12.49,0,0,1,78.2,143Z"/><path class="cls-2" d="M69.8,136.7a3.61,3.61,0,0,1,2.8-1,7.54,7.54,0,0,1,2.9.9,29,29,0,0,1,5.2,3.4c1.6,1.3,3.1,2.7,4.6,4.1a62,62,0,0,1,4.2,4.6l1.2,1.5-1.9.1c-1.4.1-2.8.1-4.1.2s-2.8-.1-4.1-.2a39.11,39.11,0,0,1-8.2-1.4,14.3,14.3,0,0,1-3.8-1.7l-.9-.6a6,6,0,0,1-.8-.8,3.55,3.55,0,0,1-.8-2,6,6,0,0,1,1.2-3.9A12.62,12.62,0,0,1,69.8,136.7Zm0,0a15.36,15.36,0,0,0-2.5,3.2,5.18,5.18,0,0,0-.9,3.8,4,4,0,0,0,.9,1.7c.2.2.5.4.7.6a3.51,3.51,0,0,0,.8.5,16.8,16.8,0,0,0,3.8,1.2,52.87,52.87,0,0,0,8,.7c1.3.1,2.7.1,4,.1s2.7,0,4-.1l-.7,1.6c-1.2-1.6-2.4-3.2-3.7-4.8a58.23,58.23,0,0,0-4-4.5,21.75,21.75,0,0,0-4.7-3.8,7.26,7.26,0,0,0-2.8-1A3.28,3.28,0,0,0,69.8,136.7Z"/><path class="cls-2" d="M97,134.6l3.3,3a27.85,27.85,0,0,0,3.4,2.6,18.51,18.51,0,0,0,3.7,1.9,14.29,14.29,0,0,0,4.3.8,8.06,8.06,0,0,1-4.6.8,11,11,0,0,1-4.5-1.8,15.18,15.18,0,0,1-3.4-3.3A9.2,9.2,0,0,1,97,134.6Z"/><path class="cls-2" d="M90.7,124.2a2.63,2.63,0,0,1,.9-1.4,1.54,1.54,0,0,1,1.6-.2,9.34,9.34,0,0,1,2.7,2.1,43.63,43.63,0,0,1,4.1,5.5c1.2,1.9,2.4,3.9,3.5,5.9s2.2,4,3.2,6.1l.4.9-1,.4a25,25,0,0,1-8.9,2,12.57,12.57,0,0,1-4.7-.8,6.65,6.65,0,0,1-3.6-3.2,9.08,9.08,0,0,1-1.1-4.5,22.82,22.82,0,0,1,.4-4.5,17.42,17.42,0,0,1,.5-2.2l.6-2.1C89.8,126.9,90.3,125.6,90.7,124.2Zm0,0c-.5,1.4-.9,2.8-1.3,4.2-.2.7-.3,1.4-.5,2.2a7.8,7.8,0,0,0-.3,2.2,15.48,15.48,0,0,0,0,4.3A8.72,8.72,0,0,0,90,141a5.61,5.61,0,0,0,3.1,2.2,10.71,10.71,0,0,0,4,.4,20.48,20.48,0,0,0,4.2-.7,23.38,23.38,0,0,0,4-1.2l-.5,1.3c-.9-2.1-1.8-4.2-2.7-6.2s-1.9-4.1-2.9-6.1a42.54,42.54,0,0,0-3.5-5.8,6.55,6.55,0,0,0-2.5-2.2,1.81,1.81,0,0,0-1.6.1A2.84,2.84,0,0,0,90.7,124.2Z"/><path class="cls-2" d="M237.3,281.3a13,13,0,0,0-9.2,6.1,22.74,22.74,0,0,0-2.2,5.3c-.2,1-.5,1.9-.7,2.9l-.6,3a29.09,29.09,0,0,1-.4-3.1c0-1,0-2.1.1-3.1a14.23,14.23,0,0,1,2-6,10.54,10.54,0,0,1,4.8-4.3A8,8,0,0,1,237.3,281.3Z"/><path class="cls-2" d="M245.7,272.9a13.51,13.51,0,0,1,2.6,3.3,5.51,5.51,0,0,1,.6,4.2,7.33,7.33,0,0,1-2.5,3.5,17.62,17.62,0,0,1-3.7,2.3,40.93,40.93,0,0,1-8.1,2.8l-4.2.9c-1.4.2-2.8.4-4.3.5l-1.6.1.5-1.5a56.9,56.9,0,0,1,3.2-7.1,41.21,41.21,0,0,1,4.4-6.5c1.7-2,3.6-3.9,6.1-4.7a5.52,5.52,0,0,1,3.8.1A7.78,7.78,0,0,1,245.7,272.9Zm0,0a8.49,8.49,0,0,0-3.2-2.1,5.86,5.86,0,0,0-3.7.1,13.3,13.3,0,0,0-5.5,5,53.79,53.79,0,0,0-3.6,6.7c-1,2.3-2,4.7-2.8,7l-1.1-1.4c2.7-.3,5.5-.7,8.3-1.2a56.35,56.35,0,0,0,8.1-2,15.86,15.86,0,0,0,3.7-1.8,7.1,7.1,0,0,0,2.7-3,5.08,5.08,0,0,0-.4-4A13.08,13.08,0,0,0,245.7,272.9Z"/><path class="cls-2" d="M203.8,283.3a21.79,21.79,0,0,1,7.7,2.2,27.15,27.15,0,0,1,6.7,4.5,25.23,25.23,0,0,1,2.7,3,9.91,9.91,0,0,1,1.1,1.7,4.05,4.05,0,0,1,.5.9l.4.9a19.27,19.27,0,0,1,2.1,7.7,41,41,0,0,0-3.6-6.9,26.84,26.84,0,0,0-4.9-5.7,45.38,45.38,0,0,0-6-4.6A38.78,38.78,0,0,0,203.8,283.3Z"/><path class="cls-2" d="M205.9,258.2a31.65,31.65,0,0,1,5.6,3.3,38.85,38.85,0,0,1,4.8,4.3,28.26,28.26,0,0,1,3.9,5.2,19.36,19.36,0,0,1,2.4,6c-1.2-1.8-2.4-3.5-3.7-5.1s-2.7-3.2-4.1-4.7C212,264.2,208.9,261.3,205.9,258.2Z"/><path class="cls-2" d="M216.4,231a53,53,0,0,1,2.8,6.5c.8,2.2,1.4,4.5,2,6.7a55.37,55.37,0,0,1,1.2,6.9,33.7,33.7,0,0,1,0,7.1l-3.2-13.5c-.5-2.3-1-4.5-1.5-6.8A55.79,55.79,0,0,1,216.4,231Z"/><path class="cls-2" d="M191.3,277.1a9,9,0,0,1,3.6-2.5,7.33,7.33,0,0,1,4.4-.1,21.1,21.1,0,0,1,7.9,4,47,47,0,0,1,6.6,6,77.39,77.39,0,0,1,5.7,6.9l1.1,1.6h-2c-1.7,0-3.3-.1-4.9-.2s-3.3-.3-4.9-.5a64.22,64.22,0,0,1-9.7-2,37.53,37.53,0,0,1-4.7-1.7,11.53,11.53,0,0,1-4.1-2.8,8.74,8.74,0,0,1-.8-1,5.36,5.36,0,0,1-.5-1.1,5,5,0,0,1-.2-1.2v-.6l.1-.6A9.83,9.83,0,0,1,191.3,277.1Zm0,0a10.59,10.59,0,0,0-2.3,4.3l-.1.6v.6a5.27,5.27,0,0,0,.3,1.2,3.33,3.33,0,0,0,.6,1c.3.3.5.6.8.9a11.53,11.53,0,0,0,4.2,2.3,36.16,36.16,0,0,0,4.7,1.3,78.68,78.68,0,0,0,9.6,1.2l4.8.3c1.6.1,3.2.1,4.8.2l-.9,1.6a70.21,70.21,0,0,0-5.3-6.9,51.71,51.71,0,0,0-6-6.4,20.21,20.21,0,0,0-7.4-4.5,7,7,0,0,0-4.3,0A6.75,6.75,0,0,0,191.3,277.1Z"/><path class="cls-2" d="M197.5,249.8a5,5,0,0,1,3.1-1.8,5.8,5.8,0,0,1,3.6,1,20.53,20.53,0,0,1,5.4,5.2c1.5,2,2.9,4.1,4.2,6.2.7,1.1,1.2,2.2,1.8,3.3a35.39,35.39,0,0,1,1.6,3.4l.6,1.5h-1.6a52.72,52.72,0,0,1-8.9-1,32.87,32.87,0,0,1-8.5-2.9,12.08,12.08,0,0,1-3.6-2.8,6.35,6.35,0,0,1-1.7-4.2,8.65,8.65,0,0,1,1.3-4.2C195.7,252.1,196.6,251,197.5,249.8Zm0,0a23.05,23.05,0,0,0-2.5,3.6,7.69,7.69,0,0,0-1,4.2,5.58,5.58,0,0,0,1.9,3.7,12,12,0,0,0,3.6,2.2,40.42,40.42,0,0,0,8.3,2.1c2.8.4,5.8.7,8.6.9l-1,1.4c-.9-2.2-1.9-4.5-3-6.7s-2.2-4.4-3.5-6.5a19.44,19.44,0,0,0-4.8-5.5,4.61,4.61,0,0,0-6.6.6Z"/><path class="cls-2" d="M212.2,218.4a5.58,5.58,0,0,1,3.8-.5,5.47,5.47,0,0,1,2.9,2.5,19.57,19.57,0,0,1,2.1,7.5,67.83,67.83,0,0,1-.1,15.6l-.2,1.6-1.4-.8c-1.3-.8-2.4-1.6-3.6-2.5a35,35,0,0,1-8.8-9.6,14.58,14.58,0,0,1-1.6-4.1,7,7,0,0,1,.4-4.3,8.14,8.14,0,0,1,2.8-3.3A22.18,22.18,0,0,1,212.2,218.4Zm0,0a14.46,14.46,0,0,0-3.6,2.2,8.07,8.07,0,0,0-2.5,3.3,6.39,6.39,0,0,0,0,4.1,14.43,14.43,0,0,0,1.9,3.7,33,33,0,0,0,5.8,6,77.64,77.64,0,0,0,6.7,5l-1.6.7c.3-2.5.6-5.1.9-7.6a66.08,66.08,0,0,0,.3-7.7,19.22,19.22,0,0,0-1.4-7.5A4.92,4.92,0,0,0,216,218,5.54,5.54,0,0,0,212.2,218.4Z"/><path class="cls-2" d="M222.3,265a19.54,19.54,0,0,1,3.3-6,25.82,25.82,0,0,1,5-4.9,30.49,30.49,0,0,1,3-1.9l1.6-.7a5.23,5.23,0,0,1,1.6-.6,19.78,19.78,0,0,1,6.8-1.1,42.62,42.62,0,0,0-6.2,2.6,39.78,39.78,0,0,0-5.6,3.4,40.58,40.58,0,0,0-5,4.3C225.3,261.6,223.8,263.3,222.3,265Z"/><path class="cls-2" d="M249.9,247.7a5.06,5.06,0,0,1,.4,3.4,5.61,5.61,0,0,1-2,2.8,18.58,18.58,0,0,1-6.4,2.9,56.25,56.25,0,0,1-6.9,1.4,53.64,53.64,0,0,1-7,.5h-1.8l1-1.6c.7-1.1,1.4-2.1,2.2-3.2l2.4-3a39.24,39.24,0,0,1,5.6-5.2,13.85,13.85,0,0,1,3.3-2,8.38,8.38,0,0,1,3.8-.8,5,5,0,0,1,3.4,1.6A12.17,12.17,0,0,1,249.9,247.7Zm0,0a9.45,9.45,0,0,0-2.1-3.1,4.3,4.3,0,0,0-3.4-1.3,7.56,7.56,0,0,0-3.5,1.1,12.78,12.78,0,0,0-2.9,2.3,43.68,43.68,0,0,0-4.9,5.6c-1.5,2-3,4-4.3,6.1l-.9-1.6c2.3,0,4.6,0,6.8-.1a50.52,50.52,0,0,0,6.8-.7,16.27,16.27,0,0,0,6.4-2.2,4.91,4.91,0,0,0,2.1-2.6A4.7,4.7,0,0,0,249.9,247.7Z"/><path class="cls-2" d="M228,234.5a41.88,41.88,0,0,1,1.3-6.9,28.3,28.3,0,0,1,2.6-6.6,12.88,12.88,0,0,1,2.2-3,6.35,6.35,0,0,1,3.5-1.9,5.6,5.6,0,0,1,3.9,1,13.52,13.52,0,0,1,2.8,2.5,12.65,12.65,0,0,1,2,3.1,6.47,6.47,0,0,1,.6,3.9,7.18,7.18,0,0,1-2,3.5,12.17,12.17,0,0,1-3.2,2,23.62,23.62,0,0,1-6.8,1.8A26.86,26.86,0,0,1,228,234.5Zm0,0c2.3-.4,4.6-.8,6.8-1.4a34.8,34.8,0,0,0,6.4-2.3,10,10,0,0,0,2.6-1.8,4.1,4.1,0,0,0,1.3-2.4c.3-1.8-.9-3.8-2.3-5.4a15.84,15.84,0,0,0-2.3-2.2,3.66,3.66,0,0,0-2.6-.8,4.49,4.49,0,0,0-2.5,1.2,12.21,12.21,0,0,0-2,2.5,31.44,31.44,0,0,0-3,6.1A50.69,50.69,0,0,0,228,234.5Z"/></svg>