<svg id="Calque_1" data-name="Calque 1" xmlns="http://www.w3.org/2000/svg" viewBox="0 0 224.78 641.4"><defs><style>.cls-1{fill:#7f39fa;}.cls-2{fill:#c277ff;}.cls-3{fill:#f9a77b;}.cls-4{fill:#f4986c;}.cls-5{fill:#fff;}.cls-6{fill:#d3d9ff;}.cls-7{fill:#b5bae0;}.cls-8{fill:#788ef7;}</style></defs><title>exp_girl_walking</title><path class="cls-1" d="M163.41,59.8c-.55.27-5.4-.6-5.4-.6-.3-.1-.7-.1-1-.2a16,16,0,0,1-2.1-.5c-.3-.1-.7-.2-1-.3-.7-.2-1.4-.4-2-.6a9.83,9.83,0,0,0-1.6-.5,6.89,6.89,0,0,1-.8-.3h0c-.5-.2-.9-.3-1.3-.5a11.73,11.73,0,0,1-1.1-.5l-.6-.3-1.2-.6h0c-.5-.2-1-.5-1.4-.7-.2-.1-.5-.3-.7-.4s-.5-.3-.7-.4c-.5-.3-.9-.5-1.4-.8a10.54,10.54,0,0,1-1.1-.7c-.1-.1-.3-.2-.4-.3h0a10.47,10.47,0,0,1-1.1-.8,1.76,1.76,0,0,1-.5-.4c-.1-.1-.2-.1-.3-.2a52.57,52.57,0,0,1-17.4-22.5c-.2-.4-.3-.8-.5-1.2l-.9-2.7c-.1-.4-.2-.7-.3-1.1s-.1-.5-.2-.8a3.09,3.09,0,0,1-.2-.8c-.5-2.1-.9-4.2-1.2-6.4a44,44,0,0,1,6.3-5.9c7.7,7.3,3.4,20.3,9,25.9,12.2,6.3,25.77,9.59,31.1,25.1h-.1"/><path class="cls-2" d="M163.86,60l-.1-.1h.1c-.1,0-.1,0,0,.1Z"/><path class="cls-2" d="M162.77,59.54c-6.1-12.6-17.91-18.54-30.51-24.84-5.6-5.6-1.3-18.6-9-25.9A43.63,43.63,0,0,1,149.66,0c20.8,0,38.1,14.4,41.8,33.4a73.59,73.59,0,0,1,2.2,18.7c.1,5.2-.2,10.2-.5,14.3-1.1,16.6-9.7,31.8-14.9,47.7a7.81,7.81,0,0,0-.6,3.7,8.73,8.73,0,0,0,1.3,3.5c3.2,5.7,6.8,11.3,9.2,17.5s3.2,13.2.6,19.3-8.2,10.3-14.1,13.8c-.8-7.7,6.4-15.1-1.4-20.3-10.4-5.2-10.1-14.7-9.7-24.9a43.45,43.45,0,0,0,1-5.2,29.18,29.18,0,0,0-6.8-22.6h0a27.3,27.3,0,0,0-3.4-3.4,5.5,5.5,0,0,0-.9-.7c-.5-.4-1.1-.8-1.6-1.2h0a23.42,23.42,0,0,1-4-3.7,13.5,13.5,0,0,1-1.5-2.6c-1.2-4.5.8-8.6,3.8-12.4l1.5-1.8a1.38,1.38,0,0,0,.3-.4,5,5,0,0,1,.7-.8c1.2-1.4,2.5-2.7,3.8-4.1a4.62,4.62,0,0,1,.7-.7l.2-.2c.1-.2.3-.3.4-.5h0c.4-.5.9-1,1.3-1.5.1-.2.3-.3.4-.5.3-.3.5-.7.8-1v-.1c.1-.1.2-.3.3-.4a3.51,3.51,0,0,0,.5-.8,6.73,6.73,0,0,0,.7-1.1c.2-.4.5-.8.7-1.2A.28.28,0,0,0,162.77,59.54Z"/><path class="cls-2" d="M163.36,61c.4,0,.8-1.1,1.2-1.1"/><path class="cls-2" d="M150.26,74.8l1.5-1.8Z"/><path class="cls-2" d="M162.66,59.8h0A7.46,7.46,0,0,1,162,61,7.46,7.46,0,0,0,162.66,59.8Z"/><path class="cls-2" d="M163.66,59.8h0a3.4,3.4,0,0,1-1-.1A3.4,3.4,0,0,0,163.66,59.8Z"/><path class="cls-1" d="M174.66,171.8c-1.3.8-2.5,1.5-3.8,2.2-2.4-4.2-2.1-9.3-2.9-14.1-.9-5.2-3.1-10.1-4.5-15.1h0a29.56,29.56,0,0,1-1.4-9.3,35.89,35.89,0,0,1,1.2-7.3h0c.1-.6.3-1.1.4-1.7-.4,10.2-.7,19.7,9.7,24.9C181.16,156.7,173.86,164.1,174.66,171.8Z"/><path class="cls-3" d="M138.56,50.9a1.76,1.76,0,0,1-.5-.4h-2.6A10.55,10.55,0,0,1,138.56,50.9Z"/><path class="cls-3" d="M130.06,81.1a13.4,13.4,0,0,1-4,0C127.26,81.1,128.56,81.2,130.06,81.1Z"/><path class="cls-4" d="M162.66,59.8h0A7.46,7.46,0,0,1,162,61c-.2.4-.5.7-.7,1.1a5.55,5.55,0,0,0-.6.8c-.1.1-.2.3-.3.4v.1c-.3.3-.5.7-.8,1-.1.2-.3.3-.4.5a17.38,17.38,0,0,1-1.3,1.5h0a1.76,1.76,0,0,0-.4.5l-.2.2-.7.7c-1.3,1.4-2.6,2.7-3.8,4.1a5.72,5.72,0,0,0-.7.8,1.38,1.38,0,0,0-.3.4l-1.5,1.8c-3.1,3.9-5.1,7.9-3.8,12.4a13.5,13.5,0,0,0,1.5,2.6,23.42,23.42,0,0,0,4,3.7c-8.8-3.7-16.5,1.2-16.5,1.2v-15a19.92,19.92,0,0,1-5.3,1.4h-4a11.64,11.64,0,0,1-5.5-2.2c-2.7-6-6.5-22-7.8-24.7-1.6-3.4,1.7-10.9,1.7-14.9a51.47,51.47,0,0,0-.7-6.5c-.4-2.1-.8-3.8-.8-4h0a39.54,39.54,0,0,1,4-14.1,51.82,51.82,0,0,0,5.52,17.58,6.56,6.56,0,0,0,1.78,2.07c11,8.44,28.11,22.36,32.09,23.8.25.1.44.31.69.41.44.19,1.12.47,1.32.54C159.36,59.4,162.26,59.7,162.66,59.8Z"/><path class="cls-5" d="M165.16,290.9c1.6-29.2.8-56.8-10.4-84.4l-23,35.4,20.5,21.8,5.6,5.9a9.23,9.23,0,0,1,1.8,3,7.77,7.77,0,0,1-2.1,8l-4.5,4.2-36.3,34.1a7.76,7.76,0,0,1-11-.3l-17.9-18.9-5.2-5.5c-7.1,15.6-13.6,24.6-13.6,24.6s8.8,2.4,20.8,4.8H90a245.81,245.81,0,0,0,31.3,4.4c2.7.2,5.3.3,7.9.3h33.7C162.76,315.7,164.16,303.1,165.16,290.9Z"/><path class="cls-6" d="M173.26,328.2s0-94.7-6.3-110.5a97.78,97.78,0,0,1-5.7-21.3l-6.4,9.9c11.3,27.6,12,55.2,10.4,84.4-1.1,12.3-2.5,24.9-2.4,37.4h1C169.76,328.2,173.26,328.2,173.26,328.2Z"/><path class="cls-3" d="M163.86,192.5l-2.6,4-29.5,45.3-9,13.8s-9.5,31.6-18.9,22.1,9.5-28.4,9.5-28.4l10-16.4,24.7-40.4-9.2-76.7-.3-2.2a9.5,9.5,0,1,1,19,0l4.8,59.6Z"/><path class="cls-3" d="M86,343.5l-56.8,282c2.6,5.1,5.2,6.1,9.4,6.3l77.3-287.3C106,343.9,96,343.4,86,343.5Z"/><path class="cls-5" d="M36.46,638.5l2.1-6.6c-4.2-.2-6.8-1.1-9.4-6.3,0,0-17.9-5.1-26.1-3.8C8.66,633.8,25.56,632.2,36.46,638.5Z"/><path class="cls-7" d="M3.06,621.8a8.43,8.43,0,0,0-2.4.7c-6.3,3.2,34.7,18.9,34.7,18.9l.9-2.9C25.56,632.2,8.66,633.8,3.06,621.8Z"/><path class="cls-4" d="M89.86,323.6l-4,20c10-.1,20,.4,29.9.9l5.3-16.5Z"/><path class="cls-4" d="M162.26,345.5l1.6-17.3h-28.8l.2,17.2A243.36,243.36,0,0,0,162.26,345.5Z"/><path class="cls-5" d="M211.26,605.9c5.5-1.2,9.1-6.1,9.9-11.9a11.31,11.31,0,0,0-2-2.8c-4.5,3.3-10.8,2.8-16.5,2.6-.7.6-8.5,6.9-12.9,11.5C195.76,609.6,204.76,608.1,211.26,605.9Z"/><path class="cls-7" d="M221.16,594c-.8,5.8-4.4,10.7-9.9,11.9-6.5,2.2-15.6,3.7-21.5-.6-1.7,1.8-2.8,3.3-2.8,4.2,0,3.2,15.8,3.2,25.2-3.2C219.86,601.3,223.36,598.3,221.16,594Z"/><path class="cls-3" d="M221.26,594.2a4.35,4.35,0,0,1-.6-.7c-6.3-6.3-60-230.5-60-230.5l1.6-17.4c-8.9.5-17.9.3-27-.1l.2,17.5,69.4,233.7-.1.1C210.46,597,216.76,597.5,221.26,594.2Z"/><path class="cls-6" d="M157.56,280.6l-4.5,4.2-36.3,34.1a7.76,7.76,0,0,1-11-.3l-17.9-18.9-5.2-5.5-28.6-30.4c-.9-15.7,23-30,35.7-39.2,3.7-2.6,4.7-7.7,8.4-10.4a.6.6,0,0,1,.4-.1l1.3-.3a.9.9,0,0,0,.5-.1c.3,0,.6-.1.9-.1h1.4a1.27,1.27,0,0,1,.6.1h.4l1.8.3,17.7,18.8-10,16.4s-18.9,18.9-9.5,28.4,18.9-22.1,18.9-22.1l9-13.8,20.5,21.8,5.6,5.9a9.23,9.23,0,0,1,1.8,3A7.59,7.59,0,0,1,157.56,280.6Z"/><path class="cls-5" d="M135.46,94.7s-18.9,12.6-22.1,25.3-3.1,44.2-3.1,44.2-2.3,22.7-6.1,48.3l1.6,1.7,17.7,18.8,24.7-40.4L139,115.9l-.3-2.2a9.47,9.47,0,0,1,17.2-5.5,90,90,0,0,0-4.3-14.9A18.89,18.89,0,0,0,135.46,94.7Z"/><path class="cls-6" d="M162.26,173.2c.6-8.2,1.1-18.2,1.2-28.4h0a29.56,29.56,0,0,1-1.4-9.3,35.89,35.89,0,0,1,1.2-7.3h0c.1-.6.3-1.1.4-1.7a43.45,43.45,0,0,0,1-5.2,29.18,29.18,0,0,0-6.8-22.6h0a27.3,27.3,0,0,0-3.4-3.4,5.5,5.5,0,0,0-.9-.7c-.5-.4-1.1-.8-1.6-1.2h0c-.2-.1-.3-.1-.5-.2a90,90,0,0,1,4.3,14.9,9.22,9.22,0,0,1,1.7,5.5Z"/><path class="cls-8" d="M105.66,214.1a5.66,5.66,0,0,0-1.8-.3h-.4a1.27,1.27,0,0,1-.6-.1h-1.4a2.77,2.77,0,0,0-.9.1.9.9,0,0,0-.5.1c-.5.1-.9.2-1.3.3-.1,0-.3.1-.4.1-3.7,2.7-4.7,7.7-8.4,10.4-12.7,9.2-36.6,23.5-35.7,39.2l-5.5-5.9a7.44,7.44,0,0,1-1.4-2.2,7.87,7.87,0,0,1,1.8-8.9l12.4-11.6h0L90,208.6a7.76,7.76,0,0,1,11,.3l3.3,3.5Z"/></svg>