<?xml version="1.0" encoding="UTF-8"?>
<svg width="65px" height="61px" viewBox="0 0 65 61" version="1.1" xmlns="http://www.w3.org/2000/svg" xmlns:xlink="http://www.w3.org/1999/xlink">
    <!-- Generator: Sketch 52 (66869) - http://www.bohemiancoding.com/sketch -->
    <title>Swiss army knife</title>
    <desc>Created with Sketch.</desc>
    <g id="Desktop" stroke="none" stroke-width="1" fill="none" fill-rule="evenodd">
        <g id="Home-Copy-2" transform="translate(-805.000000, -1245.000000)">
            <g id="Group-2" transform="translate(730.000000, 965.000000)">
                <g id="Design-graphique" transform="translate(0.000000, 213.000000)">
                    <g id="Swiss-army-knife" transform="translate(74.516129, 67.000000)">
                        <path d="M61.701303,57 L59.2664389,57 C58.8342302,57 58.483871,56.7760479 58.483871,56.5 C58.483871,56.2238523 58.8343864,56 59.2664389,56 L61.701303,56 C62.1335117,56 62.4838709,56.2239521 62.4838709,56.5 C62.4840271,56.7761477 62.1336679,57 61.701303,57 Z" id="Path" fill="#808080"></path>
                        <polygon id="Path" fill="#18CFDA" points="30.483871 20 30.483871 25 16.5273267 24.5752937 14.5451162 24.5157492 10.483871 22.7219204 14.9844121 20.4692643 16.9666225 20.4097198"></polygon>
                        <polygon id="Path" fill="#3749BC" points="15.4354287 23.2202949 17.0772882 25 15.2426872 24.9428223 11.483871 23.2202949 15.6492699 21.0571777 17.483871 21"></polygon>
                        <path d="M28.483871,7.66346885 L28.483871,7.66489999 L15.6680131,20.8096989 L13.5322693,23 L13.4362338,22.9015113 C12.4474612,21.8874806 9.74248181,22.7551442 8.48387097,22.3973582 L26.4229766,4 C27.38219,4.98358635 27.1970965,7.14058081 28.483871,7.66346885 Z" id="Path" fill="#F2C5F3"></path>
                        <path d="M26.483871,4.11329912 L8.59450532,22.4962454 C5.96888462,21.7463987 4.54891899,20.8779908 2.48387097,23 L22.9201671,2 C23.428617,3.32003194 25.526052,3.13049023 26.483871,4.11329912 Z" id="Path" fill="#F2C5F3"></path>
                        <polygon id="Path" fill="#D3D9FF" points="34.9635778 20 38.483871 22.3622461 34.9649026 25 34.9635778 25 31.483871 24.8930502 31.483871 24.875887 31.483871 20.1069498"></polygon>
                        <path d="M51.1865654,21.9576258 L52.483871,21.3614118 C52.483871,21.3614118 46.1547826,31.5867065 34.4853094,24.497637 L34.483871,19.6366497 L35.747701,18.8810468 C38.3931792,17.2991122 41.8686138,17.8994355 43.7612859,20.2647416 C44.9347583,21.7302476 46.7285732,22.5288108 48.5659324,22.5288108 C49.4510711,22.5288108 50.3464094,22.3430231 51.1865654,21.9576258 Z" id="Path" fill="#FFE340"></path>
                        <rect id="Rectangle" fill="#7F39FA" x="45.483871" y="53" width="4" height="7"></rect>
                        <path d="M47.1646054,34.327624 L49.9920067,31.4353365 L52.8208166,28.541608 L55.6496266,25.6493205 L59.2170773,22 L65.483871,28.4102178 L41.1362565,53.3165875 L36.5579127,58 C38.1020409,56.4204356 34.3596623,55.4477812 34.3596623,53.3765842 C34.3596623,51.3053873 35.0281271,51.2832487 33.483871,49.7036843 L35.8834292,45.8678238 L38.6794562,43.0076306 L41.5082661,40.115343 L44.3356674,37.2216145 L47.1646054,34.327624 Z" id="Path" fill="#FFE340"></path>
                        <path d="M56.2611986,53 C58.0411407,53 59.483871,54.5664345 59.483871,56.5007151 C59.483871,57.4664252 59.1239069,58.3422866 58.5398933,58.9749977 C57.957197,59.609139 57.1505709,60 56.2611986,60 L53.483871,60 L53.483871,53.00013 L56.2611986,53 Z" id="Path" fill="#C277FF"></path>
                        <polygon id="Rectangle" fill="#FC6DE6" transform="translate(16.483871, 14.000000) rotate(-134.995949) translate(-16.483871, -14.000000) " points="15.483871 -0.98660859 16.4323265 -1 17.483871 28.9866086 16.5354154 29"></polygon>
                        <rect id="Rectangle" fill="#7F39FA" x="49.483871" y="53" width="4" height="7"></rect>
                        <path d="M46.483871,53.0191916 L46.483871,60 L32.483871,60 L32.483871,59.9927383 L32.483871,59.9913119 C34.3106605,59.9004112 32.6357231,54.466989 34.0312576,53 L41.919796,53.0190619 L46.483871,53.0190619 L46.483871,53.0191916 Z" id="Path" fill="#7F39FA"></path>
                        <path d="M31.483871,26 C30.931482,26 30.483871,25.5147307 30.483871,24.9161583 L30.483871,20.0838417 C30.483871,19.4852693 30.931482,19 31.483871,19 C32.0362599,19 32.483871,19.4852693 32.483871,20.0838417 L32.483871,24.9161583 C32.4837512,25.5147307 32.0362599,26 31.483871,26 Z" id="Path" fill="#3749BC"></path>
                        <path d="M37.1643395,46.1384535 C38.710181,47.7239139 39.483871,49.8013955 39.483871,51.8803236 C39.483871,53.9592516 38.710181,56.0366017 37.1643395,57.6221936 C35.7141355,59.1095653 33.8398443,59.8987453 31.9414514,59.9909172 C29.7917855,60.0949227 27.6091722,59.3057427 25.9676931,57.6221936 L2.80199227,33.8613258 C1.25615073,32.2757339 0.483870968,30.1983838 0.483870968,28.1194558 C0.483870968,26.0405277 1.25615073,23.9631776 2.80199227,22.3775857 C4.89460891,20.2313368 7.86501432,19.5389305 10.5258155,20.2972113 C11.7976926,20.6587983 12.9995722,21.3527824 13.9987669,22.3775857 L14.0958147,22.4771207 L15.8144705,24.2398245 L36.4892357,45.4444694 L37.1643395,46.1384535 Z" id="Path" fill="#C277FF"></path>
                        <g id="Group" transform="translate(2.483871, 23.000000)">
                            <path d="M28.4923972,34.7057654 C27.1160902,34.7057654 25.8222562,34.1597491 24.8495648,33.1681605 L7.01817471,14.9954166 C6.71041308,14.6817588 6.71041308,14.1733762 7.01817471,13.8598496 C7.32580768,13.5461918 7.8250197,13.546323 8.13226668,13.8598496 L25.9635281,32.0325935 C26.6388796,32.7207523 27.5368179,33.0997118 28.4921399,33.0997118 C29.4472045,33.0997118 30.3459148,32.7204901 31.0226816,32.0322001 C32.4168727,30.6112989 32.4168727,28.2984662 31.0222956,26.8770405 C30.714534,26.5633828 30.714534,26.0550002 31.0222956,25.7414735 C31.3299286,25.4278157 31.8291406,25.4279469 32.1363876,25.7414735 C34.1454586,27.7891657 34.1454586,31.1207305 32.1363876,33.1682916 C31.1620235,34.1598803 29.8680608,34.7057654 28.4923972,34.7057654 Z" id="Path" fill="#CFA6F7"></path>
                            <path d="M25.7818561,21.2035327 C25.5802413,21.2035327 25.3786266,21.1251182 25.2247458,20.9682893 L7.77175326,3.18237256 C7.09743105,2.49395144 6.19949274,2.11525427 5.24314147,2.11525427 C4.2867902,2.11525427 3.38885188,2.49408257 2.71504432,3.18197917 C1.31982393,4.60392937 1.31982393,6.91676206 2.71452967,8.33805662 C3.02229131,8.6517144 3.02229131,9.160097 2.71452967,9.47362364 C2.40715403,9.78728141 1.90781335,9.78728141 1.6004377,9.47362364 C-0.408633342,7.42606256 -0.408633342,4.09436662 1.6004377,2.04680554 C2.57132787,1.05547913 3.86529057,0.50920059 5.24327013,0.50920059 C6.62124969,0.50920059 7.91521239,1.05534801 8.88674588,2.04719892 L26.3390951,19.8327223 C26.6468567,20.1463801 26.6468567,20.6547627 26.3392237,20.9682893 C26.1853429,21.1251182 25.9834708,21.2035327 25.7818561,21.2035327 Z" id="Path" fill="#CFA6F7"></path>
                            <polygon id="Rectangle" fill="#B27214" transform="translate(53.537187, 3.307829) rotate(-135.024309) translate(-53.537187, -3.307829) " points="52.2345632 2.64725392 54.8201296 2.68696763 54.8398116 3.96840362 52.2542453 3.92868991"></polygon>
                            <polygon id="Rectangle" fill="#B27214" transform="translate(47.970770, 9.044884) rotate(-135.000000) translate(-47.970770, -9.044884) " points="46.667426 8.38430695 49.2544324 8.42404228 49.2741145 9.70546145 46.6871081 9.66572613"></polygon>
                            <polygon id="Rectangle" fill="#B27214" transform="translate(50.754681, 6.175188) rotate(-135.000000) translate(-50.754681, -6.175188) " points="49.4513378 5.51467439 52.0383443 5.55440971 52.0580244 6.83570101 49.4710179 6.79596569"></polygon>
                            <polygon id="Rectangle" fill="#B27214" transform="translate(45.192962, 11.911557) rotate(-135.000000) translate(-45.192962, -11.911557) " points="43.8896187 11.2510432 46.4766251 11.2907786 46.4963052 12.5720699 43.9092988 12.5323345"></polygon>
                            <polygon id="Rectangle" fill="#B27214" transform="translate(39.630435, 17.647841) rotate(-135.024309) translate(-39.630435, -17.647841) " points="38.3271073 16.9872552 40.9140803 17.0269905 40.9337623 18.3084265 38.3467894 18.2686912"></polygon>
                            <polygon id="Rectangle" fill="#B27214" transform="translate(42.409054, 14.779783) rotate(-135.000000) translate(-42.409054, -14.779783) " points="41.1057096 14.1192058 43.692716 14.1589411 43.7123981 15.4403603 41.1253917 15.400625"></polygon>
                            <polygon id="Rectangle" fill="#B27214" transform="translate(36.847274, 20.514774) rotate(-135.000000) translate(-36.847274, -20.514774) " points="35.5439294 19.8541964 38.1309358 19.8939317 38.1506179 21.1753509 35.5636114 21.1356156"></polygon>
                        </g>
                        <g id="Group" transform="translate(45.483871, 53.000000)" fill="#D3D9FF">
                            <rect id="Rectangle" x="7.3828209" y="0.0613671258" width="1.49561194" height="7.27673535"></rect>
                            <rect id="Rectangle" x="3.71243284" y="0.0613671258" width="1.49561194" height="7.27673535"></rect>
                            <rect id="Rectangle" x="0.0407014925" y="0.0613671258" width="1.49561194" height="7.27673535"></rect>
                        </g>
                        <path d="M29.483871,3.85564866 L28.8634737,7 C27.6349126,6.5130944 26.5330473,5.78328117 25.6173496,4.86738011 C24.7003196,3.95147905 23.9706684,2.84936901 23.483871,1.61920242 L26.6275241,1 L26.6288564,1 C26.7610028,1.68389702 27.0927615,2.33411408 27.6214679,2.86281676 C28.1500531,3.39164059 28.8014582,3.72214033 29.483871,3.85564866 Z" id="Path" fill="#F2F2F2"></path>
                        <path d="M30.483871,0 L29.6938669,4 C28.9266055,3.8499251 28.1942073,3.47841482 27.5998998,2.88397113 C27.0055923,2.28952744 26.6324478,1.55876345 26.483871,0.790004086 L30.483871,0 Z" id="Path" fill="#FC6DE6"></path>
                    </g>
                </g>
            </g>
        </g>
    </g>
</svg>