<svg id="Calque_1" data-name="Calque 1" xmlns="http://www.w3.org/2000/svg" xmlns:xlink="http://www.w3.org/1999/xlink" viewBox="0 0 204.15 19.8"><defs><style>.cls-1{fill:#1d1d1b;}.cls-1,.cls-2{fill-rule:evenodd;}.cls-2{fill:url(#Dégradé_sans_nom_7);}.cls-3{fill:#1d1e1c;}</style><linearGradient id="Dégradé_sans_nom_7" x1="10.04" y1="4.44" x2="24.14" y2="14.45" gradientUnits="userSpaceOnUse"><stop offset="0" stop-color="#e2c7ff"/><stop offset="0.29" stop-color="#dfccff"/><stop offset="0.62" stop-color="#d7d9ff"/><stop offset="0.96" stop-color="#c9efff"/><stop offset="1" stop-color="#c7f2ff"/></linearGradient></defs><title>header</title><path class="cls-1" d="M16,18.63A7.72,7.72,0,0,1,11,8.85c.8-2.67,4.51-5.14,7.08-5.41A6.81,6.81,0,0,1,25,6.67c1.37,2.05,2.11,6.85.93,9.05C24.34,18.68,18.89,19.63,16,18.63Z"/><path class="cls-2" d="M14.07,16.63A7.72,7.72,0,0,1,9.14,6.85c.81-2.67,4.51-5.14,7.08-5.41a6.81,6.81,0,0,1,6.9,3.23c1.38,2.05,2.11,6.85.93,9.05C22.46,16.68,17,17.63,14.07,16.63Z"/><path class="cls-3" d="M33.75,4.12h2V14H42v1.87H33.75Z"/><path class="cls-3" d="M55.19,15.87H53L51.82,13H46.27l-1.21,2.84H43L48.11,4H50ZM49,6.51,47,11.2h4Z"/><path class="cls-3" d="M66.88,10.78a6.69,6.69,0,0,1-.36,2.3,4.44,4.44,0,0,1-1,1.65,4.09,4.09,0,0,1-1.58,1,6.24,6.24,0,0,1-2.09.33,6.06,6.06,0,0,1-2.06-.33,4.14,4.14,0,0,1-1.58-1,4.42,4.42,0,0,1-1-1.62,6.63,6.63,0,0,1-.35-2.24V4.12h2.05V10.8a3.54,3.54,0,0,0,.79,2.5,2.84,2.84,0,0,0,2.19.85A2.87,2.87,0,0,0,64,13.33a3.39,3.39,0,0,0,.79-2.45V4.12h2Z"/><path class="cls-3" d="M77.06,15.87l-2.89-4.1H71.58v4.1h-2V4.12h5.23a6.06,6.06,0,0,1,1.82.26A4,4,0,0,1,78,5.12a3.19,3.19,0,0,1,.86,1.18,3.86,3.86,0,0,1,.3,1.55,3.79,3.79,0,0,1-.21,1.31,3.26,3.26,0,0,1-1.45,1.78,4.3,4.3,0,0,1-1.14.48l3.17,4.45Zm-.67-9.39A2.9,2.9,0,0,0,74.59,6h-3V9.94h3a2.77,2.77,0,0,0,1.77-.53A1.79,1.79,0,0,0,77,8,1.78,1.78,0,0,0,76.39,6.48Z"/><path class="cls-3" d="M92.71,15.87H90.53L89.34,13H83.79l-1.21,2.84H80.47L85.63,4h1.91ZM86.55,6.51l-2,4.69h4Z"/><path class="cls-3" d="M110.1,12.31a5.27,5.27,0,0,1-1.29,1.86,6,6,0,0,1-2,1.24,6.9,6.9,0,0,1-2.53.46H100.4V4.12h3.91a6.9,6.9,0,0,1,2.53.45,6.09,6.09,0,0,1,2,1.23,5.52,5.52,0,0,1,1.29,1.85,5.91,5.91,0,0,1,.45,2.31v0A6,6,0,0,1,110.1,12.31ZM109.64,10a5.14,5.14,0,0,0-.37-2,4.82,4.82,0,0,0-1.07-1.62,5.09,5.09,0,0,0-1.67-1.09,5.85,5.85,0,0,0-2.22-.41h-3V15.08h3a5.85,5.85,0,0,0,2.22-.4,4.91,4.91,0,0,0,1.67-1.08A4.69,4.69,0,0,0,109.27,12a5.2,5.2,0,0,0,.37-2Z"/><path class="cls-3" d="M113.52,15.87V4.12h8.35v.79h-7.48V9.56h6.73v.79h-6.73v4.73H122v.79Z"/><path class="cls-3" d="M135,15.87V5.67l-4.65,6.76h-.07L125.6,5.67v10.2h-.84V4.12h.82l4.71,7L135,4.12h.82V15.87Z"/><path class="cls-3" d="M139.32,15.87V4.12h8.35v.79h-7.48V9.56h6.72v.79h-6.72v4.73h7.56v.79Z"/><path class="cls-3" d="M157.94,14.13a2.92,2.92,0,0,1-.8,1,3.81,3.81,0,0,1-1.23.66,5.13,5.13,0,0,1-1.57.23,6.49,6.49,0,0,1-2.54-.47,7.82,7.82,0,0,1-2.19-1.41l.57-.65a9.21,9.21,0,0,0,1,.78,5.58,5.58,0,0,0,1,.54,6.19,6.19,0,0,0,1.06.32,6.47,6.47,0,0,0,1.2.1,3.89,3.89,0,0,0,1.21-.17,2.89,2.89,0,0,0,.94-.49,2.18,2.18,0,0,0,.61-.74,2.05,2.05,0,0,0,.21-.93v0a2.25,2.25,0,0,0-.14-.84,1.61,1.61,0,0,0-.52-.67,3.78,3.78,0,0,0-1-.54,9.51,9.51,0,0,0-1.65-.45,11.48,11.48,0,0,1-1.81-.51A4.73,4.73,0,0,1,151,9.18a2.43,2.43,0,0,1-.7-.91,3.19,3.19,0,0,1-.22-1.19V7a2.63,2.63,0,0,1,.29-1.21,3,3,0,0,1,.79-1,3.7,3.7,0,0,1,1.19-.66A4.56,4.56,0,0,1,153.86,4a6.08,6.08,0,0,1,2.2.35,6.47,6.47,0,0,1,1.82,1.07l-.55.69a5.34,5.34,0,0,0-1.69-1,5.39,5.39,0,0,0-1.82-.31,3.65,3.65,0,0,0-1.18.18,3,3,0,0,0-.9.48,2,2,0,0,0-.58.7A1.84,1.84,0,0,0,151,7V7a2.26,2.26,0,0,0,.14.85,1.66,1.66,0,0,0,.52.69,3.9,3.9,0,0,0,1,.56,11.78,11.78,0,0,0,1.71.47,6.74,6.74,0,0,1,3,1.18,2.58,2.58,0,0,1,.91,2.06v0A2.86,2.86,0,0,1,157.94,14.13Z"/><path class="cls-3" d="M168.68,14.13a3.07,3.07,0,0,1-.81,1,3.86,3.86,0,0,1-1.22.66,5.22,5.22,0,0,1-1.57.23,6.43,6.43,0,0,1-2.54-.47,7.55,7.55,0,0,1-2.19-1.41l.57-.65a9.14,9.14,0,0,0,1,.78,5.33,5.33,0,0,0,1,.54,5.83,5.83,0,0,0,1,.32,6.51,6.51,0,0,0,1.21.1,3.89,3.89,0,0,0,1.21-.17,2.89,2.89,0,0,0,.94-.49,2.28,2.28,0,0,0,.6-.74,1.93,1.93,0,0,0,.22-.93v0A2.47,2.47,0,0,0,168,12a1.7,1.7,0,0,0-.52-.67,3.86,3.86,0,0,0-1-.54,9.13,9.13,0,0,0-1.64-.45A11.17,11.17,0,0,1,163,9.87a4.64,4.64,0,0,1-1.24-.69,2.3,2.3,0,0,1-.69-.91,3,3,0,0,1-.22-1.19V7a2.63,2.63,0,0,1,.28-1.21,3.11,3.11,0,0,1,.79-1,3.81,3.81,0,0,1,1.19-.66A4.6,4.6,0,0,1,164.59,4a6.14,6.14,0,0,1,2.21.35,6.47,6.47,0,0,1,1.82,1.07l-.56.69a5.3,5.3,0,0,0-1.68-1,5.43,5.43,0,0,0-1.82-.31,3.61,3.61,0,0,0-1.18.18,2.91,2.91,0,0,0-.91.48,2.26,2.26,0,0,0-.58.7,2,2,0,0,0-.2.86V7a2.48,2.48,0,0,0,.14.85,1.75,1.75,0,0,0,.52.69,3.9,3.9,0,0,0,1.05.56,12.55,12.55,0,0,0,1.71.47,6.69,6.69,0,0,1,2.95,1.18A2.55,2.55,0,0,1,169,12.8v0A3,3,0,0,1,168.68,14.13Z"/><path class="cls-3" d="M172,15.87V4.12h.87V15.87Z"/><path class="cls-3" d="M185.54,15.87,177.27,5.43V15.87h-.84V4.12h.83l8.1,10.22V4.12h.84V15.87Z"/><path class="cls-3" d="M189.68,15.87V4.12H198v.79h-7.48V9.56h6.72v.79h-6.72v4.73h7.56v.79Z"/><path class="cls-3" d="M19.77,9.05A2.66,2.66,0,0,0,17.9,6.38a2.15,2.15,0,0,0-.68-.11v.67a1.88,1.88,0,0,1,.68.15,2,2,0,0,1,1.2,2,2,2,0,0,1-1,1.83v.75A2.63,2.63,0,0,0,19.77,9.05Z"/><path class="cls-3" d="M17.11,4.76h-1.9v7.06h1.35v.82H14.1V4.76h-.67v8.55h3.79V11.15H15.88V5.43h1.23A3.51,3.51,0,0,1,20.92,9a3.46,3.46,0,0,1-2.8,3.47v.68A4.09,4.09,0,0,0,21.59,9,4.19,4.19,0,0,0,17.11,4.76Z"/></svg>