<svg id="Calque_1" data-name="Calque 1" xmlns="http://www.w3.org/2000/svg" viewBox="0 0 198.33 327.21"><defs><style>.cls-1{fill:#e5e8f2;}.cls-2{fill:#d5ccfc;}.cls-3{fill:#d3d9ff;}.cls-4{fill:#f3f4f8;}.cls-5{fill:#fc6de6;}.cls-6{fill:#f2c5f3;}.cls-7{fill:#fff;}</style></defs><title>home-plant</title><path class="cls-1" d="M81.61,314.92c-1.8-4.8,78.2-11.8,78.2.3C159.91,321.32,90.91,339,81.61,314.92Z"/><path class="cls-2" d="M84.51,246.42l.2.7.1.2c2.1,4.2,19.2,7.4,40,7.4,21.4,0,38.9-3.4,40.2-7.8l.1-.5c0-4.6-18-8.3-40.2-8.3S84.51,241.82,84.51,246.42Z"/><path class="cls-3" d="M126.81,190.32s.5-22.9,17.6-32.6,19.6-20.3,16.1-25-14.4-.3-15.8-2.8,33.9-27.5,29.1-37.4-17,5.4-19.5,1,28.3-41.9,20-56.5-11.5,12.3-16.1,4.1,3.1-42-7.3-41.1-23.6,36.8-28.7,39.7-.3-12.4-9.7-3.8.3,39.2-7.2,45.1-4.2-11.9-12.4-7.2,8.9,54.4,3.9,57.3-5.7-8.5-12-4.9,19.7,73.5,19.7,73.5S116.91,208.52,126.81,190.32Z"/><path class="cls-4" d="M134.81,62.52a45,45,0,0,0-3.5,8.1c-.4,1.4-.9,2.8-1.3,4.3l-1.1,4.3c-1.4,5.8-2.4,11.6-3.4,17.5-2,11.7-3.5,23.5-4.7,35.4-.6,5.9-1.2,11.8-1.7,17.8s-1.1,11.8-1.9,17.7l-1.2,8.9c-.4,2.9-.8,5.9-1.3,8.9-.9,5.9-1.8,11.8-3,17.7h-.5c-.3-6-.2-12,0-18,.1-3,.2-6,.4-9s.4-6,.6-8.9c.8-11.9,2.8-23.7,4.6-35.5s3.8-23.6,6.3-35.3c1.3-5.8,2.7-11.7,4.4-17.4s3.6-11.5,6.9-16.6Z"/><path class="cls-5" d="M98.91,244s-8.6-21.2-28.1-24.2-25.5-12-23.9-17.6,13.4-5.3,13.8-8.2-41.4-13.7-40.4-24.6,17.9-1,18.6-6-41.3-29.2-38.8-45.7,15.1,7.5,16.5-1.9-17.8-38.1-7.8-41,35.2,26,40.9,26.9-4.1-11.7,7.7-6.9,13.6,36.7,22.8,39.6-.3-12.6,9.1-11.2,11,54.1,16.7,54.9,2.3-10,9.5-8.9,7.7,75.7,7.7,75.7S114.61,257.52,98.91,244Z"/><path class="cls-4" d="M46.41,126.92c4.9,3.6,8.7,8.3,12.4,13s7,9.7,10.3,14.7c6.5,10.1,12.5,20.4,18.4,30.8s11.9,20.8,16.9,31.6c1.2,2.7,2.5,5.4,3.7,8.2s2.4,5.5,3.5,8.2c2.3,5.5,4.5,11.1,6.3,16.8l-.5.2c-3.2-5.1-6.1-10.3-9.1-15.5-1.5-2.6-2.9-5.2-4.3-7.8l-4.2-7.9q-4.2-8-8.1-15.9c-2.6-5.4-5.2-10.7-7.9-16-5.4-10.6-11-21.1-17-31.4-3-5.1-6-10.2-9.4-15.1l-2.6-3.6c-.9-1.2-1.8-2.4-2.7-3.5a46.18,46.18,0,0,0-6.1-6.4Z"/><path class="cls-6" d="M149.41,238.62s.5-22.9,17.6-32.6,19.6-20.3,16.1-25-14.4-.3-15.8-2.8,33.9-27.5,29.1-37.4-17,5.4-19.5,1,28.3-41.9,20-56.5-11.5,12.3-16.1,4.1,3.1-42-7.3-41.1-23.6,36.8-28.7,39.7-.3-12.4-9.7-3.8.3,39.2-7.2,45.1-4.2-11.9-12.4-7.2,8.9,54.4,3.9,57.3-5.7-8.5-12-4.9,19.7,73.5,19.7,73.5S139.51,256.72,149.41,238.62Z"/><path class="cls-4" d="M157.31,110.72a45,45,0,0,0-3.5,8.1c-.4,1.4-.9,2.8-1.3,4.3l-1.1,4.3c-1.4,5.8-2.4,11.6-3.4,17.5-2,11.7-3.5,23.5-4.7,35.4-.6,5.9-1.2,11.8-1.7,17.8s-1.1,11.8-1.9,17.7l-1.2,8.9c-.4,2.9-.8,5.9-1.3,8.9-.9,5.9-1.8,11.8-3,17.7h-.5c-.3-6-.2-12,0-18,.1-3,.2-6,.4-9s.4-6,.6-8.9c.8-11.9,2.8-23.7,4.6-35.5s3.8-23.6,6.3-35.3c1.3-5.8,2.7-11.7,4.4-17.4s3.6-11.5,6.9-16.6Z"/><path class="cls-7" d="M84.71,247.22l14.1,61.9c0,3.1,12.2,5.6,27.3,5.6s27.3-2.5,27.3-5.6l11.5-62.2c-1.3,4.4-18.8,7.8-40.2,7.8C103.91,254.72,86.81,251.42,84.71,247.22Z"/></svg>