<?xml version="1.0" encoding="utf-8"?>
<!-- Generator: Adobe Illustrator 22.0.1, SVG Export Plug-In . SVG Version: 6.00 Build 0)  -->
<svg version="1.1" id="Calque_1" xmlns="http://www.w3.org/2000/svg" xmlns:xlink="http://www.w3.org/1999/xlink" x="0px" y="0px"
	 viewBox="0 0 503.4 1080" style="enable-background:new 0 0 503.4 1080;" xml:space="preserve">
<style type="text/css">
	.st0{fill:#E5E8F2;}
	.st1{fill:#B5BAE0;}
	.st2{fill:#3749BC;}
	.st3{fill:#7F39FA;}
	.st4{fill:#CFA6F7;}
	.st5{fill:#C277FF;}
	.st6{fill:#D3D9FF;}
	.st7{fill:#FF841F;}
	.st8{fill:#FFFFFF;}
	.st9{fill:#F3F4F8;}
	.st10{fill:#F4986C;}
	.st11{fill:#F9A77B;}
	.st12{fill:#788EF7;}
</style>
<g>
	<path class="st0" d="M48.9,790c-3.7-6.2,64-19.5,60.9-2.7C106.8,803,48.9,790,48.9,790z"/>
	<path class="st0" d="M164.5,1055.3c-5.6-0.9-5.9-8.8-0.4-10.1c18.7-4.5,47.9-6.6,45.8,4.5C208,1060.2,181.9,1058,164.5,1055.3z"/>
	<path class="st0" d="M95.9,743.5c-3.7-6.2,64-19.5,60.9-2.7C153.8,756.4,95.9,743.5,95.9,743.5z"/>
	<path class="st0" d="M251.9,789c-3.7-6.2,64-19.5,60.9-2.7C309.9,802,251.9,789,251.9,789z"/>
	<path class="st0" d="M300.3,742.5c-3.7-6.2,64-19.5,60.9-2.7C358.3,755.5,300.3,742.5,300.3,742.5z"/>
	<g>
		<path class="st1" d="M94.3,790.2c-0.4,0-0.7,0-1.1-0.1c-4.1-0.6-7-4.4-6.4-8.5l39.8-278.5c0.6-4.1,4.4-7,8.5-6.4s7,4.4,6.4,8.5
			l-39.8,278.5C101.2,787.5,98,790.2,94.3,790.2z"/>
		<path class="st1" d="M296.2,790.2c-3.7,0-6.9-2.7-7.4-6.5L249,505.3c-0.6-4.1,2.3-7.9,6.4-8.5c4.1-0.6,7.9,2.3,8.5,6.4l39.8,278.5
			c0.6,4.1-2.3,7.9-6.4,8.5C296.9,790.2,296.6,790.2,296.2,790.2z"/>
		<path class="st1" d="M141.3,743.3c-0.4,0-0.7,0-1.1-0.1c-4.1-0.6-7-4.4-6.4-8.5l39.8-278.5c0.6-4.1,4.4-7,8.5-6.4s7,4.4,6.4,8.5
			l-39.8,278.5C148.2,740.6,145,743.3,141.3,743.3z"/>
		<path class="st1" d="M343.2,743.3c-3.5,0-6.6-2.4-7.3-5.9L273,448.2c-0.9-4.1,1.7-8.1,5.8-8.9c4.1-0.9,8.1,1.7,8.9,5.8l62.9,289.1
			c0.9,4.1-1.7,8.1-5.8,8.9C344.2,743.2,343.7,743.3,343.2,743.3z"/>
		<path class="st2" d="M99.4,432.7c0,0,7.6-149,48.4-154.1s107-2.5,112.1-2.5c5.1,0,43.3,132.5,39.5,165.6s-28,118.5-95.5,114.6
			S99.4,535.9,99.4,432.7z"/>
		<g>
			<g>
				<path class="st3" d="M197.6,141.9c0.2,0.2,0.4,0.4,0.5,0.5c-1.2,5.5-4.3,11.7-8.2,14.7c-0.1,0.1-0.3,0.1-0.5,0.1
					c-2.6-0.1-13-5.1-15.3-8.2c-10-13.3-18.9-28.4-20.5-44.9c-0.8-7.9,0.2-15.9,1.3-23.8c1.7-11.4,3.9-22.9,8.9-33.3
					s13.2-19.6,23.9-23.8c3.3-1.3,6.7-2.1,10.1-2.5c0.4,1,0.7,2,0.9,3.1c3.4,13.4,1.1,26.9-1.6,40.4c-1.2-1.1-1.9-1.7-1.9-1.7
					s-0.9,9.9-8.5,16.8c-3,2.8-7.1,5-12.6,6C174.1,85.1,183.6,127.6,197.6,141.9z"/>
			</g>
			<g>
				<path class="st4" d="M321,193.3c-11-3.7-19.8-9.1-22.2-20.4c-1.6-8.3-2.3-16.7-2.6-25.1c-1.3-28.9,1-57.9-16.7-83.7
					c-17.6-25.6-48.4-27.9-72.3-44.1c2.8,0,5.6,0,8.4,0.1c1.1,0,2.2,0,3.2,0.1c44.5,4.3,79.8,39.9,83.8,84.5
					c0.4,6.8,0.1,13.7-0.4,20.6c-1.1,14.5-3.2,29.1-1.1,43.5c0.5,3.8,1.4,7.6,3.4,10.8C308,185.7,315.1,189.1,321,193.3z"/>
			</g>
			<g>
				<path class="st5" d="M343.7,280.3c-0.2,2-1.4,3.5-3.1,4.6c-20.9,4.1-44.5-8.5-48.8-25.9c-7-24.6,8.8-56.2-7-70.2
					c-20.1-20.1-46.5-32.1-55-65.1c9.6-17.5,16.4-38.5,16.4-38.5s-3.5-7-12.3-7s-10.5-1.8-21.1-5.3c-7.3-2.4-12.9-6.5-15.6-8.8
					c2.6-13.4,5-26.9,1.6-40.4c-0.2-1.1-0.5-2.1-0.9-3.1c3.1-0.4,6.3-0.6,9.4-0.6c23.9,16.2,54.7,18.5,72.3,44.1
					c22.8,33.4,12.3,72,19.3,108.9c2.4,11.3,11.2,16.7,22.2,20.4c3.3,2.4,6.3,5.1,8.1,8.7c4.5,9.2-0.4,20-1,30.2
					c-0.9,15.3,7.9,29.1,14.3,43C343.1,276.8,343.8,278.5,343.7,280.3z"/>
			</g>
			<g>
				<path class="st3" d="M340.6,284.9c-1.6,1.1-3.5,1.8-5.3,2.4c-11.6,3.2-23.9,3.5-35.7,1c-4-0.9-8-2.1-11.3-4.4
					c-3-2.1-5.2-4.7-7-7.8c0.1-1,0.1-2,0.1-3.1c0,0,1.1-8.4,2.1-16.9c0.5-4.2,1-8.5,1.4-11.8c1.1-9.6,3.8-19,4.1-28.7
					c0.3-9.7-2.2-20.1-9.6-26.3c-10.1-8.5-25.7-6.6-37.1-13c-0.1,2-0.2,4-0.3,6c-2-1.1-3.9-2.4-5.5-4c-8.7-8.1-9.6-20.7-12.7-32.4
					c0.1,0,0.1-0.1,0.1-0.1c-1-3.1-1.7-6.3-1.9-9.5l-0.3,0.1c2.8-3.7,5.5-8,8.1-12.6c8.6,32.9,35,45,55,65.1c15.8,14,0,45.7,7,70.2
					C296.1,276.4,319.7,289,340.6,284.9z"/>
			</g>
			<g>
				<path class="st5" d="M308.9,160.5c-1.6,2.3-1.6,5.5-0.6,8.1s2.8,4.9,4.6,7.1c1.9,2.3,17.9,13,20.3,15.2s2.6,3.3,1.9,8.8
					c0.7-3.7,1.2-7.6,0.3-11.2c-1.2-5-4.6-9-8.1-12.8c-1.5-1.6-10.2-7.5-12.7-9.2s-4.9-4.3-5.2-7.3L308.9,160.5z"/>
			</g>
			<g>
				<path class="st6" d="M288.9,215.6c-0.3,9.7-3,19.1-4.1,28.7c-0.4,3.3-0.9,7.6-1.4,11.8c-0.6,0.4-1.2,0.9-1.8,1.3
					c-0.5,0.3-0.9,0.6-1.4,0.9c0,0-0.1,0-0.1,0.1c-0.6,0.4-1.2,0.7-1.7,1c-0.4,0.2-0.9,0.5-1.3,0.7c-0.2,0.1-0.5,0.3-0.7,0.4
					s-0.4,0.2-0.5,0.3c-0.5,0.2-1,0.5-1.5,0.7s-0.9,0.4-1.4,0.6c-0.8,0.4-1.7,0.7-2.5,1c-0.5,0.2-0.9,0.4-1.4,0.5
					c-0.5,0.2-0.9,0.3-1.4,0.5c-1.9,0.6-3.8,1.1-5.7,1.6c-1.9,0.5-3.8,0.9-5.7,1.2c-1.1,0.2-2.1,0.4-3.2,0.5c-1,0.2-2.1,0.3-3.1,0.4
					c-2.2-5.5-3.9-11.2-5.1-17c-0.5-2.3-0.9-4.7-1.3-7c-1.8-10.7-2.3-21.7-2.3-32.7c0-1.5,0-2.9,0-4.4c0-1.4,0-2.8,0.1-4.2V202
					c0.1-2.8,0.2-5.7,0.3-8.5c0.1-1.5,0.1-2.9,0.2-4.3c0.1-1.5,0.1-2.9,0.2-4.3c0-0.9,0.1-1.7,0.1-2.5c0.1-2,0.2-4,0.3-6
					c11.3,6.3,27,4.5,37.1,13C286.8,195.5,289.3,205.9,288.9,215.6z"/>
			</g>
			<g>
				<path class="st6" d="M267.6,263.9c-1.9,0.6-3.8,1.2-5.7,1.6c-1.9,0.5-3.8,0.9-5.7,1.2c1.9-0.4,3.9-0.8,5.7-1.2
					C263.9,265.1,265.8,264.5,267.6,263.9z"/>
			</g>
			<g>
				<path class="st6" d="M276.4,260.3L276.4,260.3c-0.2,0.1-0.4,0.2-0.5,0.3C276,260.5,276.2,260.4,276.4,260.3z"/>
			</g>
			<g>
				<path class="st6" d="M223.9,145.8c-0.1,0-0.1,0.1-0.1,0.1c-0.7,0.5-1.5,1.1-2.2,1.7c-0.4,0.3-0.8,0.6-1.1,0.9
					c-2.5,2-5,4.1-7.6,5.7c-0.3,0.2-0.5,0.3-0.8,0.5s-0.6,0.3-0.8,0.4c-0.3,0.1-0.5,0.3-0.8,0.4c-0.3,0.1-0.5,0.2-0.8,0.3
					c-0.4,0.2-0.8,0.3-1.2,0.4c-0.4,0.1-0.8,0.2-1.1,0.3h-0.1c-0.4,0.1-0.7,0.1-1.1,0.1c-0.3,0-0.5,0-0.8,0c-0.4,0-0.8,0-1.2-0.1
					c-0.2,0-0.4-0.1-0.6-0.1c-0.4-0.1-0.8-0.2-1.2-0.3c-0.3-0.1-0.6-0.2-0.9-0.3c-0.3-0.1-0.6-0.2-0.9-0.4
					c0,24.6-29.8,29.8-49.2,29.8c-24.9,6.6-27.8,35.2-26.6,57.6c-3.8-4-6.8-8.8-9.2-13.8c0.7-11.4,2.1-22.7,5.6-33.7
					c1.9-6.2,4.7-12.4,9.9-16.3c8.3-6.2,19.8-4.2,30.1-5.7c11.1-1.5,21.3-7.6,28.4-16.2c3.7-4.5,6.5-9.7,8.2-15.3
					c0.2,0.2,0.4,0.4,0.5,0.5c2.8,2.7,5.7,4.2,8.8,4.1c0.2,0,0.3,0,0.5,0c4.5-0.4,9.1-4,13.3-9.3c0.3-0.3,0.5-0.6,0.8-1l0.3-0.1
					C222.2,139.5,222.9,142.7,223.9,145.8z"/>
			</g>
			<g>
				<path class="st6" d="M146,513.6c-10.5,14-15.8,28.1-29.8,36.9c-12.3,7-26.3,5.3-29.8-5.3c-10.5-29.8-5.3-61.5,12.3-87.8
					c0,1.8,0,1.8,0,3.5c21.1-31.6,43.9-64.9,50.9-101.8c-6.6-2.5-13.1-5.2-19.4-8.2c1.6,2.1,2.3,4.9,0.8,7c0,0-11.4,39.7-20.9,57.5
					c0,0-25.6,27.7-36.4,42.8c-9.2,12.7-17.2,26.8-20,42.3c-1.2,6.6-1.4,13.3-1.6,20c-0.3,9.3-0.6,18.7,0.5,28
					c0.7,5.8,1.9,11.6,2.1,17.5c0.5,13.7-4.4,27.5-13.6,37.7l-0.2,2.4c8.8,2.4,18.1,1.8,27.1,0.8c19.5-2.2,39.9-7.5,54.1-20.8
					c10.5-24.1,25.9-46.6,31-74.2c0.6-4.2,1.8-8.4,3.3-12.3C150.9,502.8,148.5,509.9,146,513.6z"/>
			</g>
			<g>
				<path class="st7" d="M277.7,716c-15.1-7.1-28.7-16-36.9-30.4c-15.6-29.4-36.3-57.2-45.2-89.9c-2.4,20.9-3.2,41.9-2.6,62.8
					l0.7-4.6c6.9,7.1,13.1,14.7,19.4,22.4c5.9,7.2,11.8,14.4,17.7,21.6c3.5,4.3,7,8.5,10.1,13.1c2.7,3.9,5,8.1,7.4,12.2
					c6.9,12.1,13.9,24.3,20.8,36.4c2.7,4.8,5.5,9.6,9.3,13.5c1.8,1.9,4.4,3.7,6.9,3c3.3-0.9,4.2-5.1,4.1-8.5
					C288.8,749.9,276.6,733.3,277.7,716z"/>
			</g>
			<g>
				<path class="st6" d="M207.4,490.2c11.8,19.7,3,51.6-6.9,74.3c-2.1,10.4-3.7,20.8-4.9,31.3c9,32.7,29.7,60.5,45.2,89.9
					c8.2,14.3,21.8,23.3,36.9,30.4c0.1-1.3,0.2-2.6,0.5-3.9c0,0,55.6,19.3,84.6,20.9c12.6,0.7,25.2,1,37.9,1.3
					c5.8,0.2,11.7,0.3,17.5-0.2c12.6-1.1,24.7-5.3,36.3-10.4c-27.3,4.8-55.2,5.9-83.8,0.6c-5.3-1.8-8.8-7-14-5.3
					c-56.2,0-103.6-36.9-114.1-91.3c-10.5-49.2,0-98.3-24.6-142.2c-3.5-7-14-14-21.1-17.6c-16.3-7.3-33.4,5.3-36.9,21.1
					c0,0.9,0,1.7,0,2.6c7.7-13.4,20.6-21.6,35.1-13.2C200.6,481.5,204.5,485.5,207.4,490.2L207.4,490.2z"/>
			</g>
			<g>
				<path class="st8" d="M249.9,267.7c-0.1,0-0.2,0-0.3,0c-0.1,2.3-0.4,4.6-0.7,6.8c-0.3,2.3-0.7,4.5-1.2,6.7
					c-0.2,1.1-0.5,2.2-0.7,3.2c-0.1,0.4-0.2,0.8-0.3,1.2c-0.2,0.7-0.4,1.5-0.5,2.2c-0.2,0.7-0.4,1.5-0.6,2.2
					c-0.4,1.4-0.8,2.8-1.1,4.1c-0.8,2.8-1.6,5.5-2.4,8.3c-0.4,1.4-0.8,2.7-1.2,4.1c-0.2,0.6-0.4,1.3-0.6,1.9c-0.5,1.8-1,3.7-1.5,5.5
					c-0.2,0.7-0.4,1.5-0.6,2.2c-0.5,2.2-1,4.3-1.4,6.5c-0.1,0.6-0.2,1.3-0.4,1.9c-0.2,1.3-0.4,2.5-0.6,3.8c0,0,0,0,0,0.1
					c-0.2,1.9-0.4,3.8-0.6,5.7v0.1c0,0.6-0.1,1.2-0.1,1.9c0,1.1,0,2.1,0,3.1c0,0.4,0,0.8,0,1.1l-31.9,27.9c-1.4-0.9-2.8-1.8-4.1-2.7
					c-1.2-0.8-2.5-1.6-3.7-2.5c-8.3-5.6-16.5-11.5-24.6-17.5c-2.4-1.8-4.8-3.6-7.2-5.3c-8.2-6.1-16.4-12.2-24.7-18.2
					c7-22.8,8.8-45.7,8.8-68.5c-0.6,0-1.2,0-1.7-0.1c-0.5,0-0.9-0.1-1.3-0.1c-0.4-0.1-0.9-0.1-1.3-0.2c-0.1,0-0.1,0-0.1,0
					c-0.4-0.1-0.7-0.1-1.1-0.2c-0.3-0.1-0.6-0.1-0.9-0.2c-0.1,0-0.2,0-0.3-0.1c-0.3-0.1-0.7-0.2-1-0.3s-0.6-0.2-0.9-0.3
					c-0.9-0.3-1.8-0.6-2.7-1s-1.7-0.8-2.5-1.2c-1.1-0.6-2.1-1.2-3.1-1.9c-0.4-0.2-0.7-0.5-1-0.7c-1-0.7-1.9-1.5-2.9-2.4
					c-0.8-0.7-1.5-1.4-2.2-2.2c-1.2-22.4,1.7-51,26.6-57.6c19.3,0,49.2-5.3,49.2-29.8c0.3,0.2,0.6,0.3,0.9,0.4
					c0.3,0.1,0.6,0.2,0.9,0.3c0.4,0.1,0.8,0.2,1.2,0.3c0.2,0,0.4,0.1,0.6,0.1c0.4,0.1,0.8,0.1,1.2,0.1c0.3,0,0.5,0,0.8,0
					c0.4,0,0.7-0.1,1.1-0.1c0,0,0,0,0.1,0c0.4-0.1,0.8-0.2,1.1-0.3c0.4-0.1,0.8-0.2,1.2-0.4c0.3-0.1,0.5-0.2,0.8-0.3
					s0.5-0.2,0.8-0.4c0.3-0.1,0.5-0.3,0.8-0.4c0.3-0.1,0.5-0.3,0.8-0.5c2.6-1.6,5.1-3.7,7.6-5.7c0.4-0.3,0.8-0.6,1.1-0.9
					c0.7-0.6,1.5-1.1,2.2-1.7c0.1,0,0.1-0.1,0.1-0.1c0.9,2.8,1.9,5.5,2.9,8.2c2.8,7.4,5.9,15.1,12.1,20.1c1.1,0.8,2.2,1.6,3.4,2.2
					c-0.1,2-0.2,4-0.3,6c-0.1,0.8-0.1,1.7-0.1,2.5c-0.1,1.4-0.2,2.9-0.2,4.3c-0.1,1.4-0.1,2.9-0.2,4.3c-0.1,2.8-0.2,5.7-0.3,8.5v0.5
					c0,1.4-0.1,2.8-0.1,4.2c0,1.5,0,2.9,0,4.4c0,11,0.6,22,2.3,32.7c0.4,2.4,0.8,4.7,1.3,7C246,256.5,247.7,262.2,249.9,267.7z"/>
			</g>
			<g>
				<path class="st8" d="M155.1,425.1l35.9,41.1c-0.1,0-1.3-0.2-1.7-0.2c-0.1,0-1.4-0.1-1.9-0.1c-2.1,0-4.1,0.3-6.1,0.8
					c-0.6,0.1-1.2,0.3-1.8,0.5c-3.8,1.3-7.4,3.5-10.4,6.3c-0.3,0.3-0.6,0.5-0.9,0.8c-4,4-7,9.1-8.2,14.6v2.6
					c-1.4,2.5-2.7,5.1-3.7,7.9c-5.4,3.4-7.9,10.4-10.3,14.1c-10.5,14-15.8,28.1-29.8,36.9c-12.3,7-26.3,5.3-29.8-5.3
					c-10.5-29.8-5.3-61.5,12.3-87.8c0,1.8,0,1.8,0,3.5c21.1-31.6,43.9-64.9,50.9-101.8l0,0c4.2,1.6,8.4,3.2,12.6,4.8
					c2.7,1,5.3,2.1,8,3.2c0.9,0.4,1.8,0.7,2.6,1.1c0.9,0.4,1.7,0.7,2.6,1.1c0.9,0.4,1.7,0.8,2.6,1.2c0.9,0.4,1.7,0.8,2.5,1.2
					c0.8,0.4,1.7,0.8,2.5,1.2c0.7,0.3,1.4,0.7,2,1c0.7,0.4,1.3,0.7,2,1.1c1,0.5,2,1.1,2.9,1.7c0.8,0.5,1.6,1,2.4,1.5L163.8,403
					l-7.6,6.6C151.7,413.7,151.2,420.6,155.1,425.1z"/>
			</g>
			<g>
				<path class="st8" d="M462.6,720.1c-2.7,1.2-5.4,2.4-8.1,3.6c-27.3,4.8-55.2,5.8-83.8,0.6c-5.3-1.8-8.8-7-14-5.3
					c-56.2,0-103.6-36.9-114.1-91.3c-0.6-3.1-1.2-6.1-1.7-9.2c-0.5-3-0.9-6-1.3-9c-0.2-1.5-0.4-3-0.5-4.5c-1-9.3-1.6-18.5-2.1-27.7
					c-0.2-3.9-0.4-7.8-0.6-11.6c0-0.4,0-0.8-0.1-1.2c-0.1-1.2-0.1-2.4-0.2-3.5c0-0.6-0.1-1.2-0.1-1.9c-0.2-3.4-0.5-6.8-0.8-10.1
					c0-0.3-0.1-0.6-0.1-0.9c-0.1-0.7-0.1-1.5-0.2-2.2c-0.3-3-0.6-5.9-1-8.9c-0.1-0.7-0.2-1.5-0.3-2.2c-0.1-0.8-0.2-1.6-0.4-2.4
					c-0.2-1.4-0.4-2.8-0.7-4.2c-0.4-2.2-0.8-4.4-1.3-6.5c-0.1-0.7-0.3-1.4-0.5-2c-0.3-1.5-0.7-3-1.1-4.4c-0.4-1.4-0.8-2.9-1.2-4.3
					c-1.9-6.4-4.2-12.8-7.3-19c-0.3-0.7-0.7-1.4-1-2.1c-0.4-0.9-0.9-1.7-1.3-2.6c1.1-0.4,2.2-1.1,3.1-1.9l8.5-7.4l51.8-45.4
					c10,20.8,14.2,56.5,14.2,56.5c3.4,10.4,6.9,20.9,10.3,31.3c1.8,5.4,3.6,10.8,6.3,15.9c11.3,21.2,36.3,32,48.8,52.5
					c2.5,4.1,4.4,8.6,6.8,12.7c4.5,7.9,10.8,14.8,18.1,20.1c0,0,14.4,10.4,19.1,18.5c2.2,3.8,2.9,8.1,4,12.4
					c4.2,17.4,14,33.5,27.6,45.2C446,704.9,456.1,710.8,462.6,720.1z"/>
			</g>
			<g>
				<path class="st7" d="M149.5,585.5c0-0.6,0-1.2,0-1.8C149.5,584.4,149.5,585,149.5,585.5c0-24.6,3.5-49.2,3.5-73.7
					c-5.2,27.6-20.5,50.1-31,74.2c1-1,2.1-2,3-3.1c0,0,5.7,10.7,9,14c2.3,2.3,4.8,4.4,7.3,6.6c1.9,1.6,6.4,5.7,7.4,6.7
					c0.2,0,0.4,0,0.7,0C149.5,601.9,149.5,593.7,149.5,585.5z"/>
			</g>
			<g>
				<path class="st9" d="M160.1,491.6c-1.4,2.5-2.7,5.1-3.7,7.9L160.1,491.6z"/>
			</g>
			<path class="st10" d="M176,830c1-9-6-17-7-26c-7-42,4-82,1-123c-4-45-4-91-1-136c1-23,20-37,34-55c0.7-1,1.4-2,2.1-3.1
				c-2.6-3.3-5.9-6.3-10-8.6c-14.5-8.5-27.4-0.3-35.1,13.2l-3.7,8c-1.5,4-2.6,8.2-3.3,12.3c0,24.6-3.5,49.2-3.5,73.7v24.6h-0.7
				c0.1,0.1,0.2,0.2,0.2,0.2c1.4,40,6.5,111.9,9.6,151.8c3.4,42.9,11,170.4,10.9,180.1c-0.1,9.3-1.5,25.4-1.5,25.4
				c-0.2,23.8-0.3,48.4,8.3,70.6c1.6,4.2,3.7,8.5,7.5,11.1c0.7,0.5,1.5,0.8,2.3,1.1c-3.4-7.4-5.4-15.2-6.4-22c0-0.5,0-0.9,0-1.4
				c0,0.5,0.1,1,0.1,1.5c1,6.7,3,14.6,6.4,22c1.3,0.5,2.6,0.7,3.9,0.7c-3.5-7.1-5.9-14.9-7.2-22.3C168,961,171,897,176,830z"/>
			<path class="st11" d="M196.3,1048.5c1.5-2,1.8-4.7,2-7.2c1.6-19.3,1.1-38.8-1.5-58c-1.1-8.5-2.7-17-2.4-25.6
				c0.2-4.8-10.1-237.5-8.7-250.2l7.5-49c-0.6-20.9,0.2-41.9,2.6-62.8c1.2-10.4,2.8-20.8,4.9-31.3c9.7-22.6,18.4-54.5,6.7-74.2
				l-0.1-0.1c-0.7-1.1-1.4-2.1-2.2-3.2c-0.7,1.1-1.4,2.1-2.1,3.1c-14,18-33,32-34,55c-3,45-3,91,1,136c3,41-8,81-1,123
				c1,9,8,17,7,26c-5,67-8,131,7,199c1.3,7.4,3.7,15.1,7.2,22.3C192.6,1051.2,194.8,1050.4,196.3,1048.5z"/>
			<g>
				<path class="st11" d="M283.4,256c-1,8.5-2.1,16.9-2.1,16.9c0,1,0,2.1-0.1,3.1c-0.7,10.5-6,20.3-9.7,30.3
					c-4,11-5.8,22.6-6.7,34.3l-5.7-6.5c-2.8-3.3-7.2-4.4-11.1-3.4c3.1-21.8,10.3-42.9,13.7-64.7v-0.4c2-0.5,3.9-1,5.7-1.6
					c0.5-0.1,0.9-0.3,1.4-0.5s0.9-0.3,1.4-0.5c0.8-0.3,1.7-0.6,2.5-1c0.5-0.2,1-0.4,1.4-0.6c0.5-0.2,1-0.5,1.5-0.7
					c0.2-0.1,0.4-0.2,0.5-0.3l0,0c0.2-0.1,0.5-0.2,0.7-0.4c0.4-0.2,0.9-0.5,1.3-0.7c0.6-0.3,1.2-0.7,1.7-1c0,0,0.1,0,0.1-0.1
					c0.5-0.3,0.9-0.6,1.4-0.9C282.2,256.9,282.8,256.5,283.4,256z"/>
			</g>
			<g>
				<path class="st10" d="M261.9,265.5c1.9-0.5,3.9-1,5.7-1.6C265.8,264.6,263.9,265.1,261.9,265.5L261.9,265.5z"/>
			</g>
			<g>
				<path class="st10" d="M276.4,260.3L276.4,260.3c-0.2,0.1-0.4,0.2-0.5,0.3C276,260.5,276.2,260.4,276.4,260.3z"/>
			</g>
			<g>
				<path class="st7" d="M261.9,265.5v0.5c-3.4,21.8-10.6,42.9-13.7,64.7c-1.5,0.4-3,1.2-4.3,2.3l-8.6,7.5c0-0.4,0-0.8,0-1.1
					c0-1.1,0-2.1,0-3.1c0-0.6,0.1-1.2,0.1-1.9v-0.1c0.1-1.9,0.3-3.8,0.6-5.7c0,0,0,0,0-0.1c0.2-1.3,0.4-2.5,0.6-3.8
					c0.1-0.6,0.2-1.3,0.4-1.9c0.4-2.2,0.9-4.3,1.4-6.5c0.2-0.7,0.4-1.5,0.6-2.2c0.5-1.8,1-3.7,1.5-5.5c0.2-0.6,0.4-1.3,0.6-1.9
					c0.4-1.4,0.8-2.7,1.2-4.1c0.8-2.8,1.6-5.5,2.4-8.3c0.4-1.4,0.8-2.8,1.1-4.1c0.2-0.7,0.4-1.5,0.6-2.2c0.2-0.7,0.4-1.5,0.5-2.2
					c0.1-0.4,0.2-0.8,0.3-1.2c0.2-1.1,0.5-2.1,0.7-3.2c0.5-2.2,0.8-4.5,1.2-6.7c0.3-2.3,0.5-4.5,0.7-6.8c0.1,0,0.2,0,0.3,0
					c1-0.1,2.1-0.3,3.1-0.4c1.1-0.2,2.1-0.3,3.2-0.5C258.1,266.4,260,266,261.9,265.5z"/>
			</g>
			<path class="st1" d="M309.7,408.5l-27.3,23.9l-51.8,45.4c-21.9,0.4-40.7-33.7-52.9-51.9c-3.5-5.3-10.5-7-14-12.3
				c-1-3.1-0.8-6.8,0.2-10.4l28.5-24.9c0.1,0.1,0.2,0.1,0.3,0.2c1.5,0.9,2.9,1.9,4.3,2.9c0.6,0.5,1.3,1,1.9,1.5
				c0.8,0.6,1.6,1.3,2.4,1.9c0.7,0.6,1.4,1.2,2.1,1.8c0.7,0.6,1.4,1.2,2,1.9c0.7,0.6,1.3,1.3,2,2c0.6,0.7,1.3,1.4,1.9,2.1
				c0.3,0.4,0.6,0.8,1,1.1c2.5,2.7,5.6,5.4,9.1,7.7c0.5,0.3,1,0.7,1.5,1c0.1,0.1,0.2,0.2,0.4,0.2c0.5,0.3,1,0.6,1.6,0.9
				c1.8,1,3.6,1.9,5.5,2.7c0.6,0.2,1.2,0.5,1.8,0.7c0.1,0,0.1,0,0.2,0c0.6,0.2,1.2,0.4,1.8,0.6s1.2,0.4,1.9,0.5l0,0
				c0.6,0.1,1.3,0.3,1.9,0.4c0.4,0.1,0.8,0.1,1.2,0.2c0.7,0.1,1.4,0.2,2.1,0.2c0.4,0,0.9,0,1.3,0c0.8,0,1.6,0,2.4-0.1
				c0.4-0.1,0.8-0.1,1.2-0.2c1.2-0.2,2.3-0.5,3.4-0.9c0.7-0.3,1.4-0.6,2.1-1c3.5-10.5-5.3-15.8-14-19.3c-1.8-0.9-3.5-1.8-5.3-2.7
				c-1-0.5-2-1.1-3-1.6c-1.3-0.7-2.6-1.4-3.9-2.2c-1.4-0.8-2.8-1.6-4.2-2.4c-1.3-0.8-2.7-1.6-4-2.4c-1.2-0.7-2.5-1.5-3.7-2.2
				c-2.7-1.7-5.4-3.4-8.1-5.2l31.9-27.9l8.6-7.5c1.3-1.1,2.8-1.9,4.3-2.3c3.9-1.1,8.3,0.1,11.1,3.4l5.7,6.5l45.8,52.5
				C314.7,397.6,314.2,404.5,309.7,408.5z"/>
			<path class="st6" d="M249.6,406.5c-0.7,0.4-1.4,0.7-2.1,1c-1.5,0.6-3,0.9-4.6,1.1c-0.9,0.1-1.9,0.1-2.9,0.1s-2-0.1-3-0.2
				c-0.4-0.1-0.8-0.1-1.2-0.2c-0.6-0.1-1.3-0.2-1.9-0.4l0,0c-0.6-0.2-1.3-0.3-1.9-0.5s-1.2-0.4-1.8-0.6c-0.1,0-0.1,0-0.2,0
				c-0.6-0.2-1.2-0.5-1.8-0.7c-1.9-0.8-3.7-1.7-5.5-2.7c-0.5-0.3-1.1-0.6-1.6-0.9c-0.1-0.1-0.3-0.2-0.4-0.2c-0.5-0.3-1-0.6-1.5-1
				c-3.5-2.3-6.6-5-9.1-7.7c-0.3-0.4-0.6-0.8-1-1.1c-0.6-0.7-1.2-1.4-1.9-2.1c-0.6-0.7-1.3-1.4-2-2c-0.6-0.6-1.3-1.3-2-1.9
				s-1.4-1.2-2.1-1.8c-0.8-0.7-1.6-1.3-2.4-1.9c-0.6-0.5-1.3-1-1.9-1.5c-1.4-1-2.9-2-4.3-2.9c-0.1-0.1-0.2-0.1-0.3-0.2l1.2-1.1
				l9.9-8.6c2.7,1.8,5.4,3.5,8.1,5.2c1.2,0.8,2.4,1.5,3.7,2.2c1.3,0.8,2.7,1.6,4,2.4c1.4,0.8,2.8,1.6,4.2,2.4
				c1.3,0.7,2.6,1.5,3.9,2.2c1,0.5,2,1.1,3,1.6c1.8,0.9,3.5,1.8,5.3,2.7C244.3,390.7,253.1,395.9,249.6,406.5z"/>
			<path class="st12" d="M230.5,477.7l-8.5,7.4c-0.9,0.8-2,1.5-3.1,1.9c-4.2,1.7-9.1,0.6-12.3-2.9L191,466.2l0,0l-35.8-41
				c-4-4.5-3.5-11.4,1.1-15.4l7.6-6.6c-1,3.6-1.2,7.3-0.2,10.4c3.5,5.3,10.5,7,14,12.3C189.8,444,208.6,478.1,230.5,477.7z"/>
			<g>
				<path class="st10" d="M235.9,408.3c-0.6-0.1-1.3-0.2-1.9-0.4l0,0c-0.6-0.2-1.3-0.3-1.9-0.5s-1.2-0.4-1.8-0.6c-0.1,0-0.1,0-0.2,0
					c-0.6-0.2-1.2-0.5-1.8-0.7c-1.9-0.8-3.7-1.7-5.5-2.7c-0.5-0.3-1.1-0.6-1.6-0.9c-0.1-0.1-0.3-0.2-0.4-0.2c-0.5-0.3-1-0.6-1.5-1
					c-3.5-2.3-6.6-5-9.1-7.7c-0.3-0.4-0.6-0.8-1-1.1c-0.6-0.7-1.2-1.4-1.9-2.1c-0.6-0.7-1.3-1.3-2-2c-0.6-0.6-1.3-1.3-2-1.9
					s-1.4-1.2-2.1-1.8c-0.8-0.7-1.6-1.3-2.4-1.9c-0.6-0.5-1.3-1-1.9-1.5c-1.4-1-2.9-2-4.3-2.9c-0.1-0.1-0.2-0.1-0.3-0.2
					c-0.8-0.5-1.6-1-2.4-1.5c-1-0.6-1.9-1.1-2.9-1.7c-0.6-0.4-1.3-0.7-2-1.1s-1.3-0.7-2-1c-0.8-0.4-1.7-0.8-2.5-1.2
					c-0.8-0.4-1.7-0.8-2.5-1.2c-0.8-0.4-1.7-0.8-2.6-1.2c-0.9-0.4-1.7-0.8-2.6-1.1c-0.9-0.4-1.7-0.7-2.6-1.1c-2.6-1.1-5.3-2.1-8-3.2
					c-4.2-1.6-8.4-3.2-12.6-4.8c-0.8-0.3-1.7-0.6-2.5-1c-2.5-0.9-4.9-1.9-7.3-2.9c-0.7-0.3-1.5-0.6-2.2-0.9c-1.2-0.5-2.4-1-3.6-1.6
					c-1.3-0.6-2.5-1.1-3.8-1.7c-0.5-0.6-1.1-1.2-1.7-1.7c-2.7-2-6.1-2.8-8.9-4.7c-5.5-3.8-6.8-10.4-6.8-17.1c0-21.1-0.3-38,1.1-56.7
					c1-13.8,0.9-27.8,1.7-41.7c2.4,5,5.5,9.8,9.2,13.8c0.7,0.8,1.5,1.5,2.2,2.2c0.1,30.1-6.8,59-2,89.4c1.8,7,8.8,8.8,14,10.5
					c19.9,8,36.8,20.9,54.5,32.1c5.7,3.6,11.5,7,17.5,10C218.8,392.7,226.7,404,235.9,408.3z"/>
			</g>
			<g>
				<path class="st11" d="M249.6,406.5c-0.7,0.4-1.4,0.7-2.1,1c-1.5,0.6-3,0.9-4.6,1.1c-1.9,0.2-3.8,0.2-5.8-0.1
					c-0.4-0.1-0.8-0.1-1.2-0.2c-9.2-4.3-17-15.6-24.9-21.2c-6-3-11.8-6.4-17.5-10C175.8,365.9,158.9,353,139,345
					c-5.3-1.8-12.3-3.5-14-10.5c-4.8-30.4,2-59.3,2-89.4c0.9,0.8,1.9,1.7,2.9,2.4c0.3,0.2,0.7,0.5,1,0.7c1,0.7,2,1.4,3.1,1.9
					c0.8,0.5,1.7,0.9,2.5,1.2c0.9,0.4,1.8,0.7,2.7,1c0.3,0.1,0.6,0.2,0.9,0.3c0.3,0.1,0.6,0.2,1,0.3c0.1,0,0.2,0.1,0.3,0.1
					c0.3,0.1,0.6,0.1,0.9,0.2c0.4,0.1,0.7,0.1,1.1,0.2c0.1,0,0.1,0,0.1,0c0.4,0.1,0.9,0.1,1.3,0.2c0.4,0,0.9,0.1,1.3,0.1
					c0.6,0,1.1,0.1,1.7,0.1c0,22.8-1.8,45.7-8.8,68.5c8.3,6,16.5,12.2,24.7,18.2c2.4,1.8,4.8,3.6,7.2,5.3c8.1,6,16.3,11.9,24.6,17.5
					c1.2,0.8,2.5,1.7,3.7,2.5c1.4,0.9,2.7,1.8,4.1,2.7c2.7,1.8,5.4,3.5,8.1,5.2c1.2,0.8,2.4,1.5,3.7,2.2c1.3,0.8,2.7,1.6,4,2.4
					c1.4,0.8,2.8,1.6,4.2,2.4c1.3,0.7,2.6,1.5,3.9,2.2c1,0.5,2,1.1,3,1.6c1.8,0.9,3.5,1.8,5.3,2.7
					C244.3,390.7,253.1,395.9,249.6,406.5z"/>
			</g>
			<path class="st10" d="M207,146.6c-2.7,0.1-5.3-1.1-7.8-3.2l0,0c-2.2-1.5-5.8-4-11.5-8.3c-12.6-9.4-13.5-50-13.5-50
				c5.5-1,9.5-3.3,12.6-6c1.1,18.7,2.9,42,12.4,57.9c0.5,0.9,1.1,1.7,1.7,2.6C202.6,142.2,204.7,144.5,207,146.6z"/>
			<path class="st11" d="M246.1,85.1C246.1,85.1,246.1,85.2,246.1,85.1L246.1,85.1c-0.5,2.5-8.3,40.4-12.6,47.3
				c-3.5,5.7-16,11.1-22.5,13.3c-1.6,0.5-2.9,0.9-3.5,0.9l0,0c-0.1,0-0.3,0-0.4,0c-2.3-2.1-4.4-4.4-6.2-7c-0.6-0.8-1.1-1.7-1.7-2.6
				c-9.5-15.9-11.3-39.2-12.4-57.9c7.6-6.9,8.5-16.8,8.5-16.8s0.7,0.7,1.9,1.7c2.8,2.3,8.3,6.4,15.6,8.8c10.5,3.5,12.3,5.3,21.1,5.3
				C242.6,78.1,246.1,85.1,246.1,85.1z"/>
			<path class="st11" d="M211,145.7c-1.2,0.5-2.3,0.8-3.5,0.9C208.1,146.5,209.3,146.2,211,145.7z"/>
		</g>
	</g>
</g>
<path class="st4" d="M302.1,125.2c0.6-6.9,0.9-13.7,0.4-20.6c0.2,2.7,0.4,5.5,0.4,8.3C302.9,117.1,302.6,121.2,302.1,125.2z"/>
</svg>
