<?xml version="1.0" encoding="utf-8"?>
<!-- Generator: Adobe Illustrator 22.0.1, SVG Export Plug-In . SVG Version: 6.00 Build 0)  -->
<svg version="1.1" id="Calque_1" xmlns="http://www.w3.org/2000/svg" xmlns:xlink="http://www.w3.org/1999/xlink" x="0px" y="0px"
	 viewBox="0 0 308.2 302.9" style="enable-background:new 0 0 308.2 302.9;" xml:space="preserve">
<style type="text/css">
	.st0{fill:#E3E9FF;}
	.st1{fill:#7689F5;}
</style>
<g>
	<path class="st0" d="M-0.3,147.6c0,0,44.4,17.1,95.1,56.9c72.5,56.9,164.3,133.2,187.2,76.9c1.2-2.8,2.1-6,2.9-9.5
		c1.7-7.6,2.9-14.7,3.7-21.5C308.8,68.1-0.3,147.6-0.3,147.6z"/>
	<path class="st1" d="M82.5,154.7c21.8,2.7,43.4,6.9,64.3,13.3c5.2,1.7,10.4,3.2,15.5,5.2c2.6,1,5.1,1.8,7.6,2.9l7.5,3.1
		c1.2,0.5,2.5,1,3.7,1.6l3.7,1.7c2.4,1.2,4.9,2.3,7.3,3.5c4.7,2.5,9.5,5,14.1,7.9c18.5,11,35.1,24.7,48.6,40.8
		c6.8,8,12.8,16.6,17.8,25.7c2.5,4.5,4.8,9.1,6.7,13.9c1,2.3,1.9,4.7,2.7,7.1c0,0,0,0.1,0.1,0.2c1.2-2.8,2.1-6,2.9-9.5
		c1.7-7.6,2.9-14.7,3.7-21.5c-6.4-9.7-13.8-18.6-21.9-26.7c-16.3-16.3-35.2-29.4-55.4-39.3c-5-2.6-10.2-4.7-15.3-7
		c-2.6-1.1-5.2-2-7.8-3l-3.9-1.5c-1.3-0.5-2.7-0.9-4-1.3l-8-2.6c-2.7-0.8-5.4-1.5-8-2.3c-5.3-1.6-10.8-2.7-16.2-4
		C126.5,158,104.4,155.6,82.5,154.7z"/>
</g>
<path class="st1" d="M295.2,183.9c0,0-96.2-48.2-89.3-109.2s33.2-70.8,33.2-70.8l10.2,15.2c0,0-17.1,18.4-9,30.3
	c8.1,11.9,32.2-2.3,32.2-2.3l10.2,14.7c0,0-23.9,8.4-13.5,21.5c10.4,13.1,30.8,2.1,30.8,2.1s14,12.5,0.8,32.5
	c-13.2,19.9-15.3,47-1.5,54.9L295.2,183.9z"/>
</svg>
