<?xml version="1.0" encoding="utf-8"?>
<!-- Generator: Adobe Illustrator 22.0.1, SVG Export Plug-In . SVG Version: 6.00 Build 0)  -->
<svg version="1.1" id="Calque_1" xmlns="http://www.w3.org/2000/svg" xmlns:xlink="http://www.w3.org/1999/xlink" x="0px" y="0px"
	 viewBox="0 0 200.1 328.9" style="enable-background:new 0 0 200.1 328.9;" xml:space="preserve">
<style type="text/css">
	.st0{fill:#E5E8F2;}
	.st1{fill:#D5CCFC;}
	.st2{fill:#D3D9FF;}
	.st3{fill:#F3F4F8;}
	.st4{fill:#FC6DE6;}
	.st5{fill:#F2C5F3;}
	.st6{fill:#FFFFFF;}
</style>
<g>
	<path class="st0" d="M82.6,315.5c-1.8-4.8,78.2-11.8,78.2,0.3C160.9,321.9,91.9,339.6,82.6,315.5z"/>
	<path class="st1" d="M85.5,247l0.2,0.7l0.1,0.2c2.1,4.2,19.2,7.4,40,7.4c21.4,0,38.9-3.4,40.2-7.8l0.1-0.5c0-4.6-18-8.3-40.2-8.3
		S85.5,242.4,85.5,247z"/>
	<g>
		<path class="st2" d="M127.8,190.9c0,0,0.5-22.9,17.6-32.6c17.2-9.7,19.6-20.3,16.1-25s-14.4-0.3-15.8-2.8
			c-1.4-2.5,33.9-27.5,29.1-37.4c-4.7-9.9-17,5.4-19.5,1c-2.5-4.4,28.3-41.9,20-56.5s-11.5,12.3-16.1,4.1s3.1-42-7.3-41.1
			c-10.4,0.9-23.6,36.8-28.7,39.7c-5.1,2.9-0.3-12.4-9.7-3.8s0.3,39.2-7.2,45.1s-4.2-11.9-12.4-7.2s8.9,54.4,3.9,57.3
			c-5.1,2.9-5.7-8.5-12-4.9c-6.4,3.6,19.7,73.5,19.7,73.5S117.9,209.1,127.8,190.9z"/>
		<g>
			<path class="st3" d="M135.8,63.1c-1.5,2.5-2.5,5.3-3.5,8.1c-0.4,1.4-0.9,2.8-1.3,4.3l-1.1,4.3c-1.4,5.8-2.4,11.6-3.4,17.5
				c-2,11.7-3.5,23.5-4.7,35.4c-0.6,5.9-1.2,11.8-1.7,17.8c-0.5,5.9-1.1,11.8-1.9,17.7l-1.2,8.9c-0.4,2.9-0.8,5.9-1.3,8.9
				c-0.9,5.9-1.8,11.8-3,17.7l-0.5,0c-0.3-6-0.2-12,0-18c0.1-3,0.2-6,0.4-9c0.2-3,0.4-6,0.6-8.9c0.8-11.9,2.8-23.7,4.6-35.5
				c1.8-11.8,3.8-23.6,6.3-35.3c1.3-5.8,2.7-11.7,4.4-17.4c1.7-5.7,3.6-11.5,6.9-16.6L135.8,63.1z"/>
		</g>
	</g>
	<g>
		<path class="st4" d="M99.9,244.6c0,0-8.6-21.2-28.1-24.2c-19.5-3-25.5-12-23.9-17.6c1.6-5.7,13.4-5.3,13.8-8.2
			S20.3,180.9,21.3,170c0.9-10.9,17.9-1,18.6-6s-41.3-29.2-38.8-45.7s15.1,7.5,16.5-1.9c1.4-9.4-17.8-38.1-7.8-41
			c10-2.9,35.2,26,40.9,26.9c5.8,0.9-4.1-11.7,7.7-6.9c11.8,4.7,13.6,36.7,22.8,39.6s-0.3-12.6,9.1-11.2c9.4,1.4,11,54.1,16.7,54.9
			s2.3-10,9.5-8.9c7.2,1.1,7.7,75.7,7.7,75.7S115.6,258.1,99.9,244.6z"/>
		<g>
			<path class="st3" d="M47.4,127.5c4.9,3.6,8.7,8.3,12.4,13c3.6,4.8,7,9.7,10.3,14.7c6.5,10.1,12.5,20.4,18.4,30.8
				c5.8,10.4,11.9,20.8,16.9,31.6c1.2,2.7,2.5,5.4,3.7,8.2c1.2,2.7,2.4,5.5,3.5,8.2c2.3,5.5,4.5,11.1,6.3,16.8l-0.5,0.2
				c-3.2-5.1-6.1-10.3-9.1-15.5c-1.5-2.6-2.9-5.2-4.3-7.8l-4.2-7.9c-2.8-5.3-5.5-10.6-8.1-15.9c-2.6-5.4-5.2-10.7-7.9-16
				c-5.4-10.6-11-21.1-17-31.4c-3-5.1-6-10.2-9.4-15.1l-2.6-3.6c-0.9-1.2-1.8-2.4-2.7-3.5c-1.9-2.3-3.8-4.5-6.1-6.4L47.4,127.5z"/>
		</g>
	</g>
	<g>
		<path class="st5" d="M150.4,239.2c0,0,0.5-22.9,17.6-32.6s19.6-20.3,16.1-25c-3.5-4.7-14.4-0.3-15.8-2.8s33.9-27.5,29.1-37.4
			c-4.7-9.9-17,5.4-19.5,1c-2.5-4.4,28.3-41.9,20-56.5c-8.2-14.6-11.5,12.3-16.1,4.1s3.1-42-7.3-41.1s-23.6,36.8-28.7,39.7
			s-0.3-12.4-9.7-3.8c-9.4,8.6,0.3,39.2-7.2,45.1c-7.5,5.9-4.2-11.9-12.4-7.2s8.9,54.4,3.9,57.3c-5.1,2.9-5.7-8.5-12-4.9
			c-6.4,3.6,19.7,73.5,19.7,73.5S140.5,257.3,150.4,239.2z"/>
		<g>
			<path class="st3" d="M158.3,111.3c-1.5,2.5-2.5,5.3-3.5,8.1c-0.4,1.4-0.9,2.8-1.3,4.3l-1.1,4.3c-1.4,5.8-2.4,11.6-3.4,17.5
				c-2,11.7-3.5,23.5-4.7,35.4c-0.6,5.9-1.2,11.8-1.7,17.8c-0.5,5.9-1.1,11.8-1.9,17.7l-1.2,8.9c-0.4,2.9-0.8,5.9-1.3,8.9
				c-0.9,5.9-1.8,11.8-3,17.7l-0.5,0c-0.3-6-0.2-12,0-18c0.1-3,0.2-6,0.4-9c0.2-3,0.4-6,0.6-8.9c0.8-11.9,2.8-23.7,4.6-35.5
				c1.8-11.8,3.8-23.6,6.3-35.3c1.3-5.8,2.7-11.7,4.4-17.4c1.7-5.7,3.6-11.5,6.9-16.6L158.3,111.3z"/>
		</g>
	</g>
	<path class="st6" d="M85.7,247.8l14.1,61.9c0,3.1,12.2,5.6,27.3,5.6c15.1,0,27.3-2.5,27.3-5.6l11.5-62.2
		c-1.3,4.4-18.8,7.8-40.2,7.8C104.9,255.3,87.8,252,85.7,247.8z"/>
</g>
</svg>
