<svg id="Calque_1" data-name="Calque 1" xmlns="http://www.w3.org/2000/svg" viewBox="0 0 421.7 1037.54"><defs><style>.cls-1{fill:#e5e8f2;}.cls-2{fill:#b5bae0;}.cls-3{fill:#ff841f;}.cls-4{fill:#7f39fa;}.cls-5{fill:#cfa6f7;}.cls-6{fill:#c277ff;}.cls-7{fill:#d3d9ff;}.cls-8{fill:#fff;}.cls-9{fill:#f3f4f8;}.cls-10{fill:#f4986c;}.cls-11{fill:#f9a77b;}.cls-12{fill:#2e3f70;}.cls-13{fill:#485582;}.cls-14{fill:#788ef7;}</style></defs><title>home</title><path class="cls-1" d="M8,770c-3.7-6.2,64-19.5,60.9-2.7C65.9,783,8,770,8,770Z"/><path class="cls-1" d="M123.6,1035.3a5.15,5.15,0,0,1-.4-10.1c18.7-4.5,47.9-6.6,45.8,4.5C167.1,1040.2,141,1038,123.6,1035.3Z"/><path class="cls-1" d="M55,723.5c-3.7-6.2,64-19.5,60.9-2.7C112.9,736.4,55,723.5,55,723.5Z"/><path class="cls-1" d="M211,769c-3.7-6.2,64-19.5,60.9-2.7C269,782,211,769,211,769Z"/><path class="cls-1" d="M259.4,722.5c-3.7-6.2,64-19.5,60.9-2.7C317.4,735.5,259.4,722.5,259.4,722.5Z"/><path class="cls-2" d="M53.4,770.2a4.1,4.1,0,0,1-1.1-.1,7.54,7.54,0,0,1-6.4-8.5L85.7,483.1a7.52,7.52,0,0,1,14.9,2.1L60.8,763.7A7.44,7.44,0,0,1,53.4,770.2Z"/><path class="cls-2" d="M255.3,770.2a7.44,7.44,0,0,1-7.4-6.5L208.1,485.3a7.52,7.52,0,0,1,14.9-2.1l39.8,278.5a7.54,7.54,0,0,1-6.4,8.5Z"/><path class="cls-2" d="M100.4,723.3a4.1,4.1,0,0,1-1.1-.1,7.54,7.54,0,0,1-6.4-8.5l39.8-278.5a7.52,7.52,0,1,1,14.9,2.1L107.8,716.8A7.44,7.44,0,0,1,100.4,723.3Z"/><path class="cls-2" d="M302.3,723.3a7.39,7.39,0,0,1-7.3-5.9L232.1,428.2a7.51,7.51,0,0,1,14.7-3.1l62.9,289.1a7.4,7.4,0,0,1-5.8,8.9A10,10,0,0,1,302.3,723.3Z"/><path class="cls-3" d="M58.5,412.7s7.6-149,48.4-154.1,107-2.5,112.1-2.5,43.3,132.5,39.5,165.6-28,118.5-95.5,114.6S58.5,515.9,58.5,412.7Z"/><path class="cls-4" d="M156.7,121.9l.5.5c-1.2,5.5-4.3,11.7-8.2,14.7a.75.75,0,0,1-.5.1c-2.6-.1-13-5.1-15.3-8.2-10-13.3-18.9-28.4-20.5-44.9-.8-7.9.2-15.9,1.3-23.8,1.7-11.4,3.9-22.9,8.9-33.3S136.1,7.4,146.8,3.2A40.37,40.37,0,0,1,156.9.7a15.83,15.83,0,0,1,.9,3.1c3.4,13.4,1.1,26.9-1.6,40.4-1.2-1.1-1.9-1.7-1.9-1.7s-.9,9.9-8.5,16.8a24.4,24.4,0,0,1-12.6,6C133.2,65.1,142.7,107.6,156.7,121.9Z"/><path class="cls-5" d="M280.1,173.3c-11-3.7-19.8-9.1-22.2-20.4a163.09,163.09,0,0,1-2.6-25.1c-1.3-28.9,1-57.9-16.7-83.7C221,18.5,190.2,16.2,166.3,0c2.8,0,5.6,0,8.4.1,1.1,0,2.2,0,3.2.1a93.34,93.34,0,0,1,83.8,84.5,157.76,157.76,0,0,1-.4,20.6c-1.1,14.5-3.2,29.1-1.1,43.5a26.83,26.83,0,0,0,3.4,10.8C267.1,165.7,274.2,169.1,280.1,173.3Z"/><path class="cls-6" d="M302.8,260.3a6.2,6.2,0,0,1-3.1,4.6c-20.9,4.1-44.5-8.5-48.8-25.9-7-24.6,8.8-56.2-7-70.2-20.1-20.1-46.5-32.1-55-65.1,9.6-17.5,16.4-38.5,16.4-38.5a13.93,13.93,0,0,0-12.3-7c-8.8,0-10.5-1.8-21.1-5.3a48.22,48.22,0,0,1-15.6-8.8c2.6-13.4,5-26.9,1.6-40.4A15.83,15.83,0,0,0,157,.6a74.16,74.16,0,0,1,9.4-.6c23.9,16.2,54.7,18.5,72.3,44.1C261.5,77.5,251,116.1,258,153c2.4,11.3,11.2,16.7,22.2,20.4,3.3,2.4,6.3,5.1,8.1,8.7,4.5,9.2-.4,20-1,30.2-.9,15.3,7.9,29.1,14.3,43A11.88,11.88,0,0,1,302.8,260.3Z"/><path class="cls-4" d="M299.7,264.9a21.07,21.07,0,0,1-5.3,2.4,75.62,75.62,0,0,1-35.7,1c-4-.9-8-2.1-11.3-4.4a23.75,23.75,0,0,1-7-7.8c.1-1,.1-2,.1-3.1,0,0,1.1-8.4,2.1-16.9.5-4.2,1-8.5,1.4-11.8,1.1-9.6,3.8-19,4.1-28.7s-2.2-20.1-9.6-26.3c-10.1-8.5-25.7-6.6-37.1-13l-.3,6a24.22,24.22,0,0,1-5.5-4c-8.7-8.1-9.6-20.7-12.7-32.4a.1.1,0,0,0,.1-.1,39.06,39.06,0,0,1-1.9-9.5l-.3.1a114.2,114.2,0,0,0,8.1-12.6c8.6,32.9,35,45,55,65.1,15.8,14,0,45.7,7,70.2C255.2,256.4,278.8,269,299.7,264.9Z"/><path class="cls-6" d="M268,140.5a8.9,8.9,0,0,0-.6,8.1,27,27,0,0,0,4.6,7.1c1.9,2.3,17.9,13,20.3,15.2s2.6,3.3,1.9,8.8c.7-3.7,1.2-7.6.3-11.2-1.2-5-4.6-9-8.1-12.8-1.5-1.6-10.2-7.5-12.7-9.2s-4.9-4.3-5.2-7.3Z"/><path class="cls-7" d="M248.8,193.64c-.3,9.7-3,19.1-4.1,28.7-.4,3.3-.9,7.6-1.4,11.8-.6.4-1.2.9-1.8,1.3s-.9.6-1.4.9a.1.1,0,0,0-.1.1c-.6.4-1.2.7-1.7,1s-.9.5-1.3.7c-.2.1-.5.3-.7.4a2.19,2.19,0,0,0-.5.3c-.5.2-1,.5-1.5.7s-.9.4-1.4.6a26,26,0,0,1-2.5,1,7.84,7.84,0,0,1-1.4.5c-.5.2-.9.3-1.4.5-1.9.6-3.8,1.1-5.7,1.6a57.82,57.82,0,0,1-5.7,1.2c-1.1.2-2.1.4-3.2.5s-2.1.3-3.1.4a100.77,100.77,0,0,1-5.1-17c-.5-2.3-.9-4.7-1.3-7a197.51,197.51,0,0,1-2.3-32.7v-4.4c0-1.4,0-2.8.1-4.2V180c.1-2.8.2-5.7.3-8.5.1-1.5.1-2.9.2-4.3s.1-2.9.2-4.3c0-.9.1-1.7.1-2.5l.3-6c11.3,6.3,27,4.5,37.1,13C246.7,173.54,249.2,183.94,248.8,193.64Z"/><path class="cls-7" d="M226.7,243.9c-1.9.6-3.8,1.2-5.7,1.6a57.82,57.82,0,0,1-5.7,1.2c1.9-.4,3.9-.8,5.7-1.2A47.41,47.41,0,0,0,226.7,243.9Z"/><path class="cls-7" d="M235.5,240.3h0a2.19,2.19,0,0,0-.5.3A2.19,2.19,0,0,1,235.5,240.3Z"/><path class="cls-7" d="M183,125.8a.1.1,0,0,0-.1.1c-.7.5-1.5,1.1-2.2,1.7a10.63,10.63,0,0,0-1.1.9,79.23,79.23,0,0,1-7.6,5.7c-.3.2-.5.3-.8.5a5.9,5.9,0,0,1-.8.4c-.3.1-.5.3-.8.4s-.5.2-.8.3a5.64,5.64,0,0,1-1.2.4c-.4.1-.8.2-1.1.3h-.1a4.1,4.1,0,0,1-1.1.1h-.8a4.87,4.87,0,0,1-1.2-.1c-.2,0-.4-.1-.6-.1l-1.2-.3-.9-.3a3.55,3.55,0,0,1-.9-.4c0,24.6-29.8,29.8-49.2,29.8-24.9,6.6-27.8,35.2-26.6,57.6A53.65,53.65,0,0,1,74.7,209c.7-11.4,2.1-22.7,5.6-33.7,1.9-6.2,4.7-12.4,9.9-16.3,8.3-6.2,19.8-4.2,30.1-5.7a45.25,45.25,0,0,0,28.4-16.2,44.44,44.44,0,0,0,8.2-15.3l.5.5c2.8,2.7,5.7,4.2,8.8,4.1h.5c4.5-.4,9.1-4,13.3-9.3a8.74,8.74,0,0,0,.8-1l.3-.1A38.71,38.71,0,0,0,183,125.8Z"/><path class="cls-3" d="M236.8,696c-15.1-7.1-28.7-16-36.9-30.4-15.6-29.4-36.3-57.2-45.2-89.9a439.89,439.89,0,0,0-2.6,62.8l.7-4.6c6.9,7.1,13.1,14.7,19.4,22.4l17.7,21.6c3.5,4.3,7,8.5,10.1,13.1,2.7,3.9,5,8.1,7.4,12.2,6.9,12.1,13.9,24.3,20.8,36.4,2.7,4.8,5.5,9.6,9.3,13.5,1.8,1.9,4.4,3.7,6.9,3,3.3-.9,4.2-5.1,4.1-8.5C247.9,729.9,235.7,713.3,236.8,696Z"/><path class="cls-8" d="M210.26,247.92H210c-.1,2.34-.41,4.69-.71,6.93s-.72,4.59-1.23,6.84c-.2,1.12-.51,2.24-.71,3.26l-.31,1.22a18.21,18.21,0,0,0-.51,2.25c-.2.71-.41,1.53-.61,2.24-.41,1.43-.82,2.86-1.12,4.19-.82,2.85-1.63,5.61-2.45,8.46-.41,1.43-.82,2.76-1.22,4.18-.21.62-.41,1.33-.62,1.94-.51,1.84-1,3.78-1.53,5.61-.2.72-.4,1.53-.61,2.25-.51,2.24-1,4.38-1.43,6.63a13.24,13.24,0,0,1-.4,1.93c-.21,1.33-.41,2.55-.62,3.88v.1q-.3,2.91-.61,5.82v.1c0,.61-.1,1.22-.1,1.94V322l-32.54,28.46c-1.43-.92-2.86-1.84-4.18-2.75s-2.55-1.64-3.78-2.55c-8.46-5.72-16.83-11.74-25.09-17.86-2.45-1.83-4.89-3.67-7.34-5.4-8.37-6.22-16.73-12.45-25.2-18.57,7.14-23.25,9-46.61,9-69.87a9.48,9.48,0,0,1-1.73-.1c-.51,0-.92-.1-1.33-.1s-.92-.1-1.33-.21h-.1c-.41-.1-.71-.1-1.12-.2s-.61-.1-.92-.2a.37.37,0,0,1-.31-.11c-.3-.1-.71-.2-1-.3l-.91-.31a28,28,0,0,1-2.76-1c-.92-.41-1.73-.81-2.55-1.22a33.35,33.35,0,0,1-3.16-1.94,9,9,0,0,1-1-.71,32,32,0,0,1-3-2.45,23.79,23.79,0,0,1-2.24-2.25c-1.23-22.84,1.73-52,27.13-58.75,19.69,0,50.19-5.41,50.19-30.4a3.33,3.33,0,0,0,.91.41l.92.31,1.23.3c.2,0,.4.11.61.11a5,5,0,0,0,1.22.1h.82c.41,0,.71-.1,1.12-.1h.1c.41-.11.82-.21,1.12-.31a5.39,5.39,0,0,0,1.23-.41c.3-.1.51-.2.81-.3a3.49,3.49,0,0,0,.82-.41c.31-.1.51-.31.82-.41a3.62,3.62,0,0,0,.81-.51,79.54,79.54,0,0,0,7.76-5.81,14.16,14.16,0,0,0,1.12-.92c.71-.62,1.53-1.13,2.24-1.74a.1.1,0,0,0,.1-.1c.92,2.86,1.94,5.61,3,8.37,2.86,7.54,6,15.4,12.34,20.5a26.26,26.26,0,0,0,3.47,2.24l-.3,6.12a19.86,19.86,0,0,0-.11,2.55c-.1,1.43-.2,3-.2,4.39s-.1,3-.2,4.38c-.11,2.86-.21,5.82-.31,8.67v.51c0,1.43-.1,2.86-.1,4.29v4.49a213.53,213.53,0,0,0,2.34,33.35c.41,2.45.82,4.8,1.33,7.14A120.55,120.55,0,0,0,210.26,247.92Z"/><path class="cls-3" d="M108.6,565.5v0c0-24.6,3.5-49.2,3.5-73.7-5.2,27.6-20.5,50.1-31,74.2,1-1,2.1-2,3-3.1,0,0,5.7,10.7,9,14,2.3,2.3,4.8,4.4,7.3,6.6,1.9,1.6,6.4,5.7,7.4,6.7h.7C108.6,581.9,108.6,573.7,108.6,565.5Z"/><path class="cls-9" d="M119.2,471.6a51.91,51.91,0,0,0-3.7,7.9Z"/><path class="cls-10" d="M135.1,810c1-9-6-17-7-26-7-42,4-82,1-123-4-45-4-91-1-136,1-23,20-37,34-55,.7-1,1.4-2,2.1-3.1a33.7,33.7,0,0,0-10-8.6c-14.5-8.5-27.4-.3-35.1,13.2l-3.7,8a67.84,67.84,0,0,0-3.3,12.3c0,24.6-3.5,49.2-3.5,73.7v24.6h-.7l.2.2c1.4,40,6.5,111.9,9.6,151.8,3.4,42.9,11,170.4,10.9,180.1-.1,9.3-1.5,25.4-1.5,25.4-.2,23.8-.3,48.4,8.3,70.6,1.6,4.2,3.7,8.5,7.5,11.1a9.73,9.73,0,0,0,2.3,1.1,82.15,82.15,0,0,1-6.4-22V1007c0,.5.1,1,.1,1.5a83.21,83.21,0,0,0,6.4,22,10.72,10.72,0,0,0,3.9.7,84.14,84.14,0,0,1-7.2-22.3C127.1,941,130.1,877,135.1,810Z"/><path class="cls-11" d="M155.4,1028.5c1.5-2,1.8-4.7,2-7.2a267.88,267.88,0,0,0-1.5-58c-1.1-8.5-2.7-17-2.4-25.6.2-4.8-10.1-237.5-8.7-250.2l7.5-49a439.89,439.89,0,0,1,2.6-62.8c1.2-10.4,2.8-20.8,4.9-31.3,9.7-22.6,18.4-54.5,6.7-74.2l-.1-.1c-.7-1.1-1.4-2.1-2.2-3.2-.7,1.1-1.4,2.1-2.1,3.1-14,18-33,32-34,55-3,45-3,91,1,136,3,41-8,81-1,123,1,9,8,17,7,26-5,67-8,131,7,199a85.32,85.32,0,0,0,7.2,22.3A7.84,7.84,0,0,0,155.4,1028.5Z"/><path class="cls-10" d="M242.5,236c-1,8.5-2.1,16.9-2.1,16.9,0,1,0,2.1-.1,3.1-.7,10.5-6,20.3-9.7,30.3-4,11-5.8,22.6-6.7,34.3l-5.7-6.5a11,11,0,0,0-11.1-3.4c3.1-21.8,10.3-42.9,13.7-64.7v-.4c2-.5,3.9-1,5.7-1.6a7.84,7.84,0,0,0,1.4-.5c.5-.2.9-.3,1.4-.5a26,26,0,0,0,2.5-1c.5-.2,1-.4,1.4-.6s1-.5,1.5-.7a2.19,2.19,0,0,0,.5-.3h0a2.51,2.51,0,0,0,.7-.4c.4-.2.9-.5,1.3-.7.6-.3,1.2-.7,1.7-1a.1.1,0,0,0,.1-.1c.5-.3.9-.6,1.4-.9A8.38,8.38,0,0,0,242.5,236Z"/><path class="cls-10" d="M221,245.5c1.9-.5,3.9-1,5.7-1.6a34.13,34.13,0,0,1-5.7,1.6Z"/><path class="cls-10" d="M235.5,240.3h0a2.19,2.19,0,0,0-.5.3A2.19,2.19,0,0,1,235.5,240.3Z"/><path class="cls-3" d="M221,245.5v.5c-3.4,21.8-10.6,42.9-13.7,64.7A11.27,11.27,0,0,0,203,313l-8.6,7.5v-4.2c0-.6.1-1.2.1-1.9v-.1a55.09,55.09,0,0,1,.6-5.7v-.1c.2-1.3.4-2.5.6-3.8a12.86,12.86,0,0,1,.4-1.9c.4-2.2.9-4.3,1.4-6.5.2-.7.4-1.5.6-2.2.5-1.8,1-3.7,1.5-5.5.2-.6.4-1.3.6-1.9.4-1.4.8-2.7,1.2-4.1.8-2.8,1.6-5.5,2.4-8.3.4-1.4.8-2.8,1.1-4.1.2-.7.4-1.5.6-2.2a17.42,17.42,0,0,0,.5-2.2l.3-1.2c.2-1.1.5-2.1.7-3.2.5-2.2.8-4.5,1.2-6.7s.5-4.5.7-6.8h.3c1-.1,2.1-.3,3.1-.4s2.1-.3,3.2-.5C217.2,246.4,219.1,246,221,245.5Z"/><path class="cls-7" d="M208.7,386.5a20,20,0,0,1-2.1,1,18.16,18.16,0,0,1-4.6,1.1,27.15,27.15,0,0,1-2.9.1c-1,0-2-.1-3-.2-.4-.1-.8-.1-1.2-.2a12.86,12.86,0,0,1-1.9-.4h0c-.6-.2-1.3-.3-1.9-.5l-1.8-.6h-.2c-.6-.2-1.2-.5-1.8-.7a56,56,0,0,1-5.5-2.7c-.5-.3-1.1-.6-1.6-.9a.76.76,0,0,0-.4-.2,13,13,0,0,1-1.5-1,49.92,49.92,0,0,1-9.1-7.7,5.24,5.24,0,0,0-1-1.1c-.6-.7-1.2-1.4-1.9-2.1a18.88,18.88,0,0,0-2-2c-.6-.6-1.3-1.3-2-1.9l-2.1-1.8c-.8-.7-1.6-1.3-2.4-1.9-.6-.5-1.3-1-1.9-1.5-1.4-1-2.9-2-4.3-2.9-.1-.1-.2-.1-.3-.2l1.2-1.1,9.9-8.6c2.7,1.8,5.4,3.5,8.1,5.2,1.2.8,2.4,1.5,3.7,2.2s2.7,1.6,4,2.4l4.2,2.4c1.3.7,2.6,1.5,3.9,2.2,1,.5,2,1.1,3,1.6,1.8.9,3.5,1.8,5.3,2.7C203.4,370.7,212.2,375.9,208.7,386.5Z"/><path class="cls-10" d="M166.1,126.6c-2.7.1-5.3-1.1-7.8-3.2h0c-2.2-1.5-5.8-4-11.5-8.3-12.6-9.4-13.5-50-13.5-50a25.63,25.63,0,0,0,12.6-6c1.1,18.7,2.9,42,12.4,57.9.5.9,1.1,1.7,1.7,2.6A37,37,0,0,0,166.1,126.6Z"/><path class="cls-11" d="M205.2,65.1h0c-.5,2.5-8.3,40.4-12.6,47.3-3.5,5.7-16,11.1-22.5,13.3a17.61,17.61,0,0,1-3.5.9h-.4a41.43,41.43,0,0,1-6.2-7c-.6-.8-1.1-1.7-1.7-2.6-9.5-15.9-11.3-39.2-12.4-57.9,7.6-6.9,8.5-16.8,8.5-16.8s.7.7,1.9,1.7a49.38,49.38,0,0,0,15.6,8.8c10.5,3.5,12.3,5.3,21.1,5.3A13.87,13.87,0,0,1,205.2,65.1Z"/><path class="cls-11" d="M170.1,125.7a11.31,11.31,0,0,1-3.5.9C167.2,126.5,168.4,126.2,170.1,125.7Z"/><path class="cls-12" d="M214.31,675.57l-14.1,20.22S71.29,556.41,38.43,518.77C7.08,482.86,11.8,486.4,36.58,438.42c8.64-16.74,12.1-24,23.85-50.12,7.5-16.71,19.68-42.92,24.79-53.9l4.1,1.08s7,.67,17.45,1.29c23.1,1.38,62.84,2.51,79.17-4.54,13.64-5.88-11.06,10.86-34.47,26.13L89.07,474.44A27,27,0,0,0,90.89,503l66.17,81.39Z"/><path class="cls-12" d="M106.77,336.77c-10.41-.62-17.45-1.29-17.45-1.29l-4.1-1.08,2.38-5.1S96.46,332.7,106.77,336.77Z"/><path class="cls-13" d="M128.6,922.2H153s-3.69-197.41-1.68-223.33,8.31-126.86,12.9-154c4.44-26.15,36-102.5,36-102.5L126.9,419.63s-21.63,50.3-23,82.31C100.4,583.5,128.6,922.2,128.6,922.2Z"/><path class="cls-2" d="M268.8,388.5l-27.3,23.9-51.8,45.4c-21.9.4-40.7-33.7-52.9-51.9-3.5-5.3-10.5-7-14-12.3a18.47,18.47,0,0,1,.2-10.4l28.5-24.9c.1.1.2.1.3.2,1.5.9,2.9,1.9,4.3,2.9.6.5,1.3,1,1.9,1.5.8.6,1.6,1.3,2.4,1.9l2.1,1.8a18,18,0,0,1,2,1.9c.7.6,1.3,1.3,2,2s1.3,1.4,1.9,2.1a5.24,5.24,0,0,0,1,1.1,49.92,49.92,0,0,0,9.1,7.7c.5.3,1,.7,1.5,1a.52.52,0,0,0,.4.2c.5.3,1,.6,1.6.9a56,56,0,0,0,5.5,2.7c.6.2,1.2.5,1.8.7h.2l1.8.6a10.55,10.55,0,0,0,1.9.5h0c.6.1,1.3.3,1.9.4.4.1.8.1,1.2.2a14.92,14.92,0,0,0,2.1.2h1.3a19.27,19.27,0,0,0,2.4-.1c.4-.1.8-.1,1.2-.2a18.87,18.87,0,0,0,3.4-.9,20,20,0,0,0,2.1-1c3.5-10.5-5.3-15.8-14-19.3-1.8-.9-3.5-1.8-5.3-2.7-1-.5-2-1.1-3-1.6-1.3-.7-2.6-1.4-3.9-2.2l-4.2-2.4c-1.3-.8-2.7-1.6-4-2.4s-2.5-1.5-3.7-2.2c-2.7-1.7-5.4-3.4-8.1-5.2l31.9-27.9,8.6-7.5a11.27,11.27,0,0,1,4.3-2.3,10.77,10.77,0,0,1,11.1,3.4l5.7,6.5L270,373.3A10.89,10.89,0,0,1,268.8,388.5Z"/><path class="cls-14" d="M189.6,457.7l-8.5,7.4A10,10,0,0,1,178,467a11.05,11.05,0,0,1-12.3-2.9l-15.6-17.9h0l-35.8-41a10.84,10.84,0,0,1,1.1-15.4l7.6-6.6a18.47,18.47,0,0,0-.2,10.4c3.5,5.3,10.5,7,14,12.3C148.9,424,167.7,458.1,189.6,457.7Z"/><path class="cls-10" d="M195,388.3a12.86,12.86,0,0,1-1.9-.4h0c-.6-.2-1.3-.3-1.9-.5l-1.8-.6h-.2c-.6-.2-1.2-.5-1.8-.7a56,56,0,0,1-5.5-2.7c-.5-.3-1.1-.6-1.6-.9a.76.76,0,0,0-.4-.2,13,13,0,0,1-1.5-1,49.92,49.92,0,0,1-9.1-7.7,5.24,5.24,0,0,0-1-1.1c-.6-.7-1.2-1.4-1.9-2.1s-1.3-1.3-2-2-1.3-1.3-2-1.9l-2.1-1.8c-.8-.7-1.6-1.3-2.4-1.9-.6-.5-1.3-1-1.9-1.5-1.4-1-2.9-2-4.3-2.9-.1-.1-.2-.1-.3-.2l-2.4-1.5c-1-.6-1.9-1.1-2.9-1.7-.6-.4-1.3-.7-2-1.1a18.65,18.65,0,0,0-2-1c-.8-.4-1.7-.8-2.5-1.2s-1.7-.8-2.5-1.2-1.7-.8-2.6-1.2-1.7-.8-2.6-1.1-1.7-.7-2.6-1.1c-2.6-1.1-5.3-2.1-8-3.2l-12.6-4.8a26,26,0,0,1-2.5-1c-2.5-.9-4.9-1.9-7.3-2.9-.7-.3-1.5-.6-2.2-.9-1.2-.5-2.4-1-3.6-1.6s-2.5-1.1-3.8-1.7a13.65,13.65,0,0,0-1.7-1.7c-2.7-2-6.1-2.8-8.9-4.7-5.5-3.8-6.8-10.4-6.8-17.1,0-21.1-.3-38,1.1-56.7,1-13.8.9-27.8,1.7-41.7a56.34,56.34,0,0,0,9.2,13.8c.7.8,1.5,1.5,2.2,2.2.1,30.1-6.8,59-2,89.4,1.8,7,8.8,8.8,14,10.5,19.9,8,36.8,20.9,54.5,32.1,5.7,3.6,11.5,7,17.5,10C177.9,372.7,185.8,384,195,388.3Z"/><path class="cls-11" d="M208.7,386.5a20,20,0,0,1-2.1,1,18.16,18.16,0,0,1-4.6,1.1,22.6,22.6,0,0,1-5.8-.1c-.4-.1-.8-.1-1.2-.2-9.2-4.3-17-15.6-24.9-21.2-6-3-11.8-6.4-17.5-10C134.9,345.9,118,333,98.1,325c-5.3-1.8-12.3-3.5-14-10.5-4.8-30.4,2-59.3,2-89.4a33.57,33.57,0,0,0,2.9,2.4c.3.2.7.5,1,.7a19.82,19.82,0,0,0,3.1,1.9,14.24,14.24,0,0,0,2.5,1.2c.9.4,1.8.7,2.7,1l.9.3c.3.1.6.2,1,.3.1,0,.2.1.3.1.3.1.6.1.9.2s.7.1,1.1.2h.1c.4.1.9.1,1.3.2s.9.1,1.3.1c.6,0,1.1.1,1.7.1,0,22.8-1.8,45.7-8.8,68.5,8.3,6,16.5,12.2,24.7,18.2,2.4,1.8,4.8,3.6,7.2,5.3,8.1,6,16.3,11.9,24.6,17.5,1.2.8,2.5,1.7,3.7,2.5,1.4.9,2.7,1.8,4.1,2.7,2.7,1.8,5.4,3.5,8.1,5.2,1.2.8,2.4,1.5,3.7,2.2s2.7,1.6,4,2.4l4.2,2.4c1.3.7,2.6,1.5,3.9,2.2,1,.5,2,1.1,3,1.6,1.8.9,3.5,1.8,5.3,2.7C203.4,370.7,212.2,375.9,208.7,386.5Z"/></svg>