<?xml version="1.0" encoding="UTF-8"?>
<svg width="80px" height="54px" viewBox="0 0 80 54" version="1.1" xmlns="http://www.w3.org/2000/svg" xmlns:xlink="http://www.w3.org/1999/xlink">
    <!-- Generator: Sketch 52 (66869) - http://www.bohemiancoding.com/sketch -->
    <title>chat copy</title>
    <desc>Created with Sketch.</desc>
    <g id="Desktop" stroke="none" stroke-width="1" fill="none" fill-rule="evenodd">
        <g id="Home-Copy-2" transform="translate(-1026.000000, -1241.000000)">
            <g id="Group-2" transform="translate(730.000000, 965.000000)">
                <g id="Languages" transform="translate(231.000000, 213.000000)">
                    <g id="chat-copy" transform="translate(65.000000, 63.000000)">
                        <g id="Group" transform="translate(0.000000, 16.666667)">
                            <path d="M19.1086992,0.0192816092 C29.6623645,0.0192816092 38.2173984,7.18951149 38.2173984,16.0345546 C38.2173984,22.4017529 33.783977,27.9009626 27.3629878,30.4821695 C27.5560569,31.4585776 28.7987737,34.5349425 30.7129472,36.6431178 C30.7129472,36.6431178 24.0360908,34.4592385 20.946206,31.6513937 C19.9649661,31.7816236 19.2333604,31.8434195 18.2088008,31.8434195 C7.65529133,31.8434195 0,24.8792816 0,16.0345546 C0,7.18951149 8.55534553,0.0192816092 19.1086992,0.0192816092 Z" id="Path" fill="#18CFDA"></path>
                            <path d="M30.7129472,36.6431178 C28.7987737,34.5347845 27.5560569,31.4584195 27.3629878,30.4821695 C33.783977,27.9009626 38.2173984,22.4017529 38.2173984,16.0345546 C38.2173984,7.18966954 29.6623645,0.0192816092 19.1086992,0.0192816092 C19.1086992,0.0192816092 27.3963347,0.353232759 32.3773306,5.81261494 C37.3583266,11.2719971 37.8641396,16.9564368 34.7538415,22.5392529 C31.6432317,28.1217529 25.4813821,29.669181 25.4813821,29.669181 C25.4813821,29.669181 26.2715786,34.2721121 30.7129472,36.6431178 Z" id="Path" fill="#7F39FA"></path>
                            <g transform="translate(8.414634, 12.959770)" id="Oval">
                                <g transform="translate(7.635501, 0.000000)">
                                    <ellipse fill="#253744" cx="2.81422764" cy="2.88607759" rx="2.72696477" ry="2.7658046"></ellipse>
                                    <ellipse fill="#E2E5E7" cx="2.62863821" cy="2.88607759" rx="2.54137534" ry="2.57757184"></ellipse>
                                </g>
                                <g>
                                    <ellipse fill="#253744" cx="2.73569106" cy="2.88607759" rx="2.72696477" ry="2.7658046"></ellipse>
                                    <ellipse fill="#E2E5E7" cx="2.55010163" cy="2.88607759" rx="2.54137534" ry="2.57757184"></ellipse>
                                </g>
                            </g>
                            <path d="M38.2173984,16.0343966 C38.2173984,9.88435345 34.0814499,4.54413793 28.0134079,1.86067529 L9.97991192,30.2548994 C12.561023,31.2215086 13.8624864,31.6485489 17.8182995,31.8285632 C18.8417683,31.8751868 19.9649661,31.7816236 20.946206,31.6513937 C24.0360908,34.4592385 30.7129472,36.6431178 30.7129472,36.6431178 C28.7987737,34.5347845 27.5560569,31.4584195 27.3629878,30.4821695 C33.783977,27.9008046 38.2173984,22.4015948 38.2173984,16.0343966 Z" id="Path" fill="#3749BC" opacity="0.52"></path>
                        </g>
                        <path d="M28.3688139,18.3333333 C28.3688139,18.3333333 26.4664574,23.9573425 28.2916935,29.2572964 C30.1169295,34.5572503 35.6631881,39.7637698 36.5734596,40 L37.5,38.169136 L28.7561369,18.5120285 L28.3688139,18.3333333 Z" id="Path" fill="#3749BC"></path>
                        <g id="Group" transform="translate(28.333333, 0.000000)">
                            <path d="M25.8552102,0.0236120219 C11.5995546,0.0236120219 0.0434434434,9.77696175 0.0434434434,21.8084754 C0.0434434434,30.4694918 6.03227728,37.9497486 14.7052953,41.4608087 C14.4444795,42.7892623 13.6227778,45.4426831 11.0371171,48.3100383 C11.0371171,48.3100383 17.6136787,47.1419563 21.7873524,43.3231475 C23.1126877,43.5001585 24.4709159,43.5933388 25.8552102,43.5933388 C40.1104004,43.5933388 51.6666667,33.8396721 51.6666667,21.8084754 C51.6666667,9.77696175 40.1104004,0.0236120219 25.8552102,0.0236120219 Z" id="Path" fill="#C277FF"></path>
                            <path d="M11.0371171,48.3100383 C13.6227778,45.4426831 14.4444795,42.7892623 14.7052953,41.4608087 C6.03227728,37.9497486 0.0434434434,30.4694918 0.0434434434,21.8084754 C0.0434434434,9.77696175 11.5995546,0.0236120219 25.8552102,0.0236120219 C25.8552102,0.0236120219 14.6604555,0.478103825 7.931997,7.90416393 C1.20384885,15.330224 0.520235235,23.0626066 4.72199199,30.6564863 C8.92359359,38.2506831 17.2468919,40.3553224 17.2468919,40.3553224 C17.2468919,40.3553224 17.0363463,45.0851749 11.0371171,48.3100383 Z" id="Path" fill="#7F39FA"></path>
                            <g transform="translate(11.946947, 17.748634)" id="Oval">
                                <g>
                                    <ellipse fill="#7F39FA" cx="3.81836837" cy="3.80312022" rx="3.68353854" ry="3.76223497"></ellipse>
                                    <ellipse fill="#F3F4F8" cx="4.06894394" cy="3.80312022" rx="3.43296296" ry="3.50630601"></ellipse>
                                </g>
                                <g transform="translate(10.550551, 0.000000)">
                                    <ellipse fill="#7F39FA" cx="3.68772773" cy="3.80312022" rx="3.68353854" ry="3.76223497"></ellipse>
                                    <ellipse fill="#F3F4F8" cx="3.9383033" cy="3.80312022" rx="3.43296296" ry="3.50630601"></ellipse>
                                </g>
                                <g transform="translate(20.945946, 0.000000)">
                                    <ellipse fill="#7F39FA" cx="3.71224224" cy="3.80312022" rx="3.68353854" ry="3.76223497"></ellipse>
                                    <ellipse fill="#F3F4F8" cx="3.96281782" cy="3.80312022" rx="3.43280781" ry="3.50614754"></ellipse>
                                </g>
                            </g>
                        </g>
                    </g>
                </g>
            </g>
        </g>
    </g>
</svg>