<?xml version="1.0" encoding="utf-8"?>
<!-- Generator: Adobe Illustrator 22.0.1, SVG Export Plug-In . SVG Version: 6.00 Build 0)  -->
<svg version="1.1" id="Calque_1" xmlns="http://www.w3.org/2000/svg" xmlns:xlink="http://www.w3.org/1999/xlink" x="0px" y="0px"
	 viewBox="0 0 502.7 493" style="enable-background:new 0 0 502.7 493;" xml:space="preserve">
<style type="text/css">
	.st0{fill:#E5E8F2;}
	.st1{fill:#788EF7;}
	.st2{fill:#3749BC;}
	.st3{fill:#3248E7;}
</style>
<g>
	<path class="st0" d="M267.9,445.2c0,0-207.3,2.1-205.2,12.6c2.1,10.5,88,10.5,104.7,12.6c16.8,2.1,37.7,10.5,64.9,10.5
		s113.1-12.6,161.3-10.5C441.8,472.5,628.2,441.1,267.9,445.2z"/>
	<path class="st1" d="M75.2,462c0,0,152.9-29.3,249.2-27.2c96.3,2.1,92.2,27.2,92.2,27.2H75.2z"/>
	<g>
		<path class="st1" d="M362.2,380.3c0,0,10.5-274.4,79.6-251.3S362.2,380.3,362.2,380.3z"/>
		<path class="st1" d="M353.8,434.8c0,0,29-134.8,71.2-104.7C469,361.5,353.8,434.8,353.8,434.8z"/>
		<path class="st2" d="M347.5,428.5c0,0,27.2-230.4,94.2-203.2S347.5,428.5,347.5,428.5z"/>
		<path class="st3" d="M341.2,436.9c0,0-73.3-44-44-64.9C326.6,351,341.2,436.9,341.2,436.9z"/>
		<path class="st1" d="M343.3,428.5c0,0-12.6-56.5-33.5-88c-20.9-31.4-64.9-98.4-37.7-117.3C286.9,213,316.1,189.7,343.3,428.5z"/>
		<path class="st2" d="M347.5,409.6c0,0-8.4-54.7-18.8-121.5c-16.5-105.1-34.1-240-2.1-238.8c27.7,1.1,41.9,100.1,39.8,194.8
			C364.5,328.4,347.5,409.6,347.5,409.6z"/>
		<g>
			<path class="st0" d="M323.4,48.4c5.9,29.8,10.4,59.8,14.2,89.9c3.8,30.1,6.6,60.3,8.8,90.6c2.1,30.3,3.2,60.6,3.4,91l-0.1,22.8
				c-0.2,7.6-0.4,15.2-0.7,22.7l-0.4,11.4c-0.2,3.8-0.5,7.6-0.7,11.4l-1.5,22.7l1-22.7c0.2-3.8,0.4-7.6,0.5-11.4l0.2-11.4
				c0.1-7.6,0.3-15.2,0.4-22.7l-0.2-22.7c0-7.6-0.3-15.1-0.5-22.7l-0.3-11.4c-0.1-3.8-0.2-7.6-0.4-11.4l-1.1-22.7
				c-0.2-3.8-0.5-7.6-0.7-11.3l-0.8-11.3c-2-30.2-4.9-60.4-8.3-90.5l-2.7-22.6c-1-7.5-2-15-3-22.5C328.3,78.3,326,63.3,323.4,48.4z"
				/>
		</g>
		<g>
			<path class="st0" d="M440.7,130c-3.3,8.9-6.5,17.8-9.7,26.6c-3.2,8.9-6.3,17.8-9.4,26.7c-3.1,8.9-6,17.9-8.8,26.9
				c-2.8,9-5.4,18.1-7.9,27.2c1.7-9.3,3.8-18.5,6.3-27.7c2.5-9.1,5.4-18.2,8.4-27.1c3.1-8.9,6.3-17.8,9.9-26.6
				C433,147.3,436.7,138.6,440.7,130z"/>
		</g>
		<g>
			<path class="st0" d="M440.7,224.3c0.1-0.1,0.3,0,0.4,0.2c0.1,0.1,0.1,0.3,0.1,0.4c0,0.3,0,0.6,0,0.9c-0.1,0.6-0.2,1.2-0.3,1.7
				c-0.2,1.2-0.5,2.3-0.9,3.4c-0.7,2.2-1.4,4.5-2.2,6.7c-1.6,4.4-3.3,8.8-5,13.1c-3.6,8.7-7.3,17.3-11.1,25.8
				c-3.8,8.6-7.8,17-11.8,25.5c-4,8.5-8.1,16.9-12.1,25.4c-8.3,16.8-16.6,33.6-25.2,50.3l-12.9,25c-4.4,8.3-8.7,16.6-13.2,24.8
				c4-8.5,8.2-16.8,12.3-25.3l12.4-25.2c8.2-16.8,16.6-33.6,24.7-50.5c8.3-16.8,16.4-33.7,24.3-50.6c4-8.5,7.9-17,11.7-25.5
				c1.9-4.3,3.7-8.6,5.5-12.9c0.9-2.2,1.7-4.4,2.4-6.6c0.4-1.1,0.7-2.2,1-3.4c0.1-0.6,0.3-1.1,0.4-1.7c0-0.3,0.1-0.6,0-0.9
				c0-0.1,0-0.3-0.1-0.4C441,224.3,440.9,224.2,440.7,224.3z"/>
		</g>
		<g>
			<path class="st0" d="M273.2,222.2c10,14.7,18.1,30.6,25.5,46.7c7.4,16.2,13.7,32.8,19.5,49.6l4.1,12.7l1,3.2l0.9,3.2l1.8,6.4
				l1.8,6.4l0.9,3.2l0.8,3.2c1.1,4.3,2.2,8.6,3.3,12.9c0.5,2.2,1.1,4.3,1.6,6.5l1.4,6.5l2.8,13c0.9,4.3,1.6,8.7,2.4,13.1
				c0.8,4.4,1.6,8.7,2.3,13.1c-2-8.7-3.7-17.4-5.7-26l-3.1-12.9l-1.6-6.5c-0.5-2.2-1.1-4.3-1.7-6.4c-1.2-4.3-2.3-8.6-3.4-12.8
				l-0.9-3.2l-0.9-3.2l-1.9-6.4l-1.9-6.4l-0.9-3.2l-1-3.2l-4.1-12.6c-5.6-16.8-11.9-33.4-18.9-49.6l-2.7-6.1l-1.3-3l-1.4-3l-2.8-6
				c-0.9-2-2-4-3-6C282,237.6,277.8,229.7,273.2,222.2z"/>
		</g>
		<g>
			<path class="st0" d="M341,435.4c-1.5-2.9-2.9-5.8-4.5-8.7c-1.5-2.9-3.1-5.7-4.7-8.5c-3.2-5.6-6.6-11.2-10.2-16.5
				c-1.8-2.7-3.7-5.3-5.7-7.9c-1.9-2.6-4-5-6.2-7.5c-2.2-2.4-4.4-4.7-6.9-6.8c-2.4-2.2-5-4.1-7.8-5.8c6,2.7,11.3,6.8,15.8,11.5
				c4.6,4.7,8.7,9.9,12.4,15.3c1.8,2.7,3.6,5.5,5.2,8.3c1.6,2.8,3.2,5.7,4.7,8.6C336.1,423.3,338.8,429.3,341,435.4z"/>
		</g>
		<g>
			<path class="st0" d="M352.8,433.7c6.3-8.5,12.7-16.9,19.1-25.3c6.4-8.4,12.8-16.9,19.1-25.3c6.3-8.5,12.6-17,18.7-25.6
				c3-4.3,6-8.7,8.8-13.2c1.4-2.2,2.8-4.5,4-6.8c0.6-1.2,1.2-2.3,1.7-3.6c0.5-1.2,0.9-2.5,1-3.8c0.1,1.3-0.3,2.6-0.7,3.9
				c-0.4,1.3-0.9,2.5-1.5,3.7c-1.1,2.4-2.3,4.8-3.6,7.1c-2.6,4.6-5.4,9.1-8.3,13.6c-5.8,8.9-12,17.5-18.3,26
				c-6.3,8.5-12.8,16.8-19.5,25.1C366.5,417.6,359.7,425.8,352.8,433.7z"/>
		</g>
	</g>
	<g>
		<g>
			<path class="st1" d="M239.6,431.1c1.7-4.6,3.1-9.2,4.4-13.9c1.3-4.7,2.5-9.4,3.5-14.2c2-9.5,3.6-19.1,4.6-28.8
				c2.1-19.3,2.2-38.8-0.2-58.1c-1.2-9.6-3.1-19.1-5.4-28.5c-2.5-9.4-5.6-18.5-9.3-27.5c-7.7-17.8-17.8-34.5-30.3-49.3l-4.7-5.6
				l-4.8-5.4L195,197l-2.5-2.6c-1.7-1.7-3.3-3.5-5-5.2c-6.9-6.8-14.1-13.4-21.5-19.5c-7.5-6.1-15.4-11.9-23.4-17.3
				c-8.1-5.4-16.4-10.4-24.8-15.3c-8.4-4.8-17-9.5-25.5-14.2c-8.5-4.8-17-9.6-24.9-15.3c-7.9-5.7-15.3-12.2-21.2-20
				c-5.8-7.8-10.1-16.8-12.7-26.2c2.7,9.3,7.1,18.2,13.1,25.9c6,7.6,13.5,14,21.4,19.5c8,5.5,16.5,10.3,25,15
				c8.5,4.7,17.2,9.2,25.6,14c17,9.5,33.4,20.2,48.6,32.5c7.6,6.2,14.8,12.7,21.8,19.6c1.7,1.7,3.4,3.5,5.1,5.3l2.5,2.6l2.4,2.7
				l4.9,5.4l4.7,5.6c12.6,15,22.8,31.9,30.5,49.9c3.7,9.1,6.9,18.3,9.3,27.8c2.4,9.5,4.1,19.1,5.3,28.8
				C257.8,354.7,252.9,394.5,239.6,431.1z"/>
		</g>
		<g>
			<path class="st1" d="M29.1,84.4c2.4,0.7,4.7,1.6,7,2.6c2.3,1,4.5,2.1,6.7,3.2c2.2,1.2,4.3,2.4,6.4,3.7c2.1,1.3,4.1,2.8,6,4.5
				c-2.3-1-4.5-2-6.8-3c-2.2-1-4.4-2.2-6.6-3.3c-2.2-1.2-4.3-2.3-6.4-3.6C33.2,87.2,31.2,85.9,29.1,84.4z"/>
		</g>
		<g>
			<path class="st1" d="M12.4,76.1c0.7-1.7,1.7-3.4,3.4-4.3c1.7-0.9,3.7-0.8,5.5-0.3c3.7,1,6.9,3.2,9.9,5.4c3,2.3,5.8,4.8,8.5,7.4
				c2.7,2.7,5.2,5.5,7.6,8.4l1.4,1.8l-2.3-0.1c-3.7-0.1-7.3-0.4-11-1c-3.6-0.6-7.2-1.4-10.7-2.5c-3.5-1.1-6.9-2.6-9.8-5
				c-1.4-1.2-2.5-2.7-3-4.5C11.5,79.6,11.7,77.8,12.4,76.1z M12.4,76.1c-0.6,1.7-0.9,3.6-0.3,5.3c0.5,1.8,1.7,3.2,3.1,4.3
				c1.4,1.1,3.1,1.9,4.7,2.6c1.7,0.7,3.4,1.2,5.1,1.6c3.5,0.9,7.1,1.4,10.7,1.7c1.8,0.2,3.6,0.3,5.4,0.4c1.8,0.1,3.6,0.2,5.4,0.2
				L45.6,94c-2.3-2.9-4.7-5.7-7.2-8.4c-2.5-2.7-5.1-5.4-7.9-7.9c-2.8-2.4-5.8-4.7-9.3-6c-1.7-0.6-3.7-0.8-5.4,0.1
				C14.1,72.6,13.1,74.3,12.4,76.1z"/>
		</g>
		<g>
			<path class="st1" d="M31.2,46.7c0.4-0.1,0.8-0.2,1.2-0.2l0.6,0c0.2,0,0.4,0,0.6,0.1l0.6,0.1c0.2,0.1,0.4,0.2,0.6,0.3
				c0.4,0.2,0.7,0.4,1,0.7c1.3,1.1,2.1,2.5,2.7,4c1.3,3,2,6.2,2.5,9.5c0.5,3.2,0.8,6.5,1,9.8c0.2,3.3,0.2,6.5,0,9.8l-0.1,2l-1.6-1.3
				c-1.5-1.2-2.8-2.5-4.2-3.8c-1.3-1.3-2.6-2.7-3.9-4.1c-2.5-2.8-4.7-5.9-6.6-9.2c-0.9-1.6-1.7-3.4-2.3-5.2
				c-0.5-1.8-0.8-3.8-0.4-5.6c0.4-1.9,1.6-3.5,3.1-4.6C27.7,47.9,29.4,47.3,31.2,46.7z M31.2,46.7c-1.8,0.6-3.5,1.2-5,2.3
				c-1.5,1.1-2.6,2.7-2.9,4.5c-0.3,1.8,0.1,3.6,0.8,5.3c0.6,1.7,1.6,3.3,2.6,4.8c2,3.1,4.5,5.8,7,8.5c2.5,2.7,5.2,5.2,7.9,7.6
				l-1.7,0.7c0.2-3.2,0.3-6.4,0.4-9.7c0.1-3.2,0-6.5-0.2-9.7c-0.3-3.2-0.7-6.4-1.8-9.5c-0.6-1.5-1.3-3-2.5-4.1
				c-0.3-0.2-0.6-0.5-1-0.7c-0.2-0.1-0.4-0.2-0.5-0.3l-0.6-0.2c-0.2-0.1-0.4-0.1-0.6-0.1l-0.6,0C32,46.6,31.6,46.7,31.2,46.7z"/>
		</g>
		<g>
			<path class="st1" d="M58.5,65.6l-1,8.8c-0.3,2.9-0.6,5.8-0.7,8.7c-0.2,2.9-0.2,5.8,0,8.6c0.2,2.9,0.6,5.7,1.6,8.5
				c-1.8-2.4-2.7-5.4-3.3-8.3c-0.3-1.5-0.4-3-0.5-4.5c0-1.5-0.1-3,0-4.5c0.1-1.5,0.2-3,0.4-4.5c0.2-1.5,0.4-2.9,0.8-4.4
				C56.5,71.2,57.3,68.3,58.5,65.6z"/>
		</g>
		<g>
			<path class="st1" d="M66.8,55.1c0.8,0.1,1.5,0.4,2,1c0.5,0.6,0.7,1.4,0.8,2.2c0.1,1.6-0.2,3.1-0.6,4.6c-0.8,3-2,5.9-3.3,8.8
				c-1.3,2.8-2.8,5.6-4.3,8.4c-1.5,2.8-3.2,5.4-4.9,8l-1,1.5l-0.8-1.6c-1.7-3.5-3.1-7.1-4-10.9c-1-3.7-1.6-7.7-1.2-11.6
				c0.2-1.9,0.7-3.9,1.7-5.6c1-1.7,2.5-3.1,4.3-3.9c1.8-0.8,3.7-1.2,5.6-1.2c1-0.1,1.9,0,2.9,0C64.9,54.9,65.9,55,66.8,55.1z
				 M66.8,55.1c-0.9-0.1-1.9-0.2-2.8-0.3c-1,0-1.9-0.1-2.9,0c-1.9,0.1-3.8,0.6-5.4,1.5c-1.6,0.9-3,2.3-3.8,4
				c-0.8,1.7-1.1,3.5-1.2,5.3c-0.1,3.7,0.8,7.4,1.8,11c1.1,3.6,2.4,7.1,4,10.5L54.9,87c1.8-2.5,3.5-5.1,5.2-7.7
				c1.7-2.6,3.3-5.2,4.9-8c1.5-2.7,2.9-5.5,3.9-8.5c0.5-1.5,0.9-3,0.8-4.6c0-0.8-0.3-1.6-0.7-2.2C68.4,55.5,67.6,55.2,66.8,55.1z"/>
		</g>
		<g>
			<path class="st1" d="M93.1,122.7c-2.2-1.1-4.2-2.7-5.8-4.6c-1.6-1.9-2.8-4.2-3.8-6.5c-0.9-2.3-1.6-4.7-1.9-7.2
				c-0.3-2.4-0.5-4.9-0.1-7.4c0.5,2.4,1.1,4.7,1.7,7.1c0.7,2.3,1.4,4.6,2.2,6.7c0.9,2.2,2,4.3,3.2,6.3
				C89.9,119.1,91.4,120.9,93.1,122.7z"/>
		</g>
		<g>
			<path class="st1" d="M79.4,84.4c0.7-0.1,1.5-0.2,2.1,0.1c0.7,0.2,1.3,0.7,1.8,1.2c1,1.1,1.6,2.4,2.1,3.8c0.9,2.8,1.5,5.6,1.8,8.5
				c0.3,2.9,0.5,5.8,0.6,8.7c0.1,2.9,0,5.8-0.2,8.8l-0.2,2.1l-1.6-1.5c-1.2-1.2-2.4-2.4-3.5-3.7c-1.1-1.3-2.2-2.6-3.3-3.9
				c-2.1-2.7-3.9-5.6-5.5-8.6c-0.8-1.5-1.4-3.1-1.8-4.8c-0.4-1.7-0.6-3.4-0.1-5.1c0.1-0.4,0.3-0.8,0.4-1.2c0.2-0.4,0.4-0.7,0.7-1.1
				l0.9-0.9l1-0.8C76.1,85.3,77.8,84.8,79.4,84.4z M79.4,84.4c-1.6,0.4-3.3,0.9-4.7,1.8c-1.4,0.9-2.4,2.4-2.7,4
				c-0.3,1.6,0,3.3,0.5,4.8c0.5,1.6,1.3,3,2.1,4.5c1.7,2.8,3.8,5.4,5.9,8c2.2,2.5,4.4,5,6.7,7.3l-1.7,0.6c0.3-2.8,0.5-5.7,0.6-8.6
				c0.2-2.9,0.2-5.8,0.1-8.6c-0.1-2.9-0.3-5.8-1.1-8.5c-0.4-1.4-1-2.7-1.9-3.8c-0.5-0.5-1-1-1.7-1.2C80.9,84.3,80.1,84.3,79.4,84.4z
				"/>
		</g>
		<g>
			<path class="st1" d="M43.8,109.6c1.7-1.6,3.8-2.7,5.9-3.5c0.5-0.2,1.1-0.4,1.7-0.5l1.7-0.4c1.2-0.2,2.3-0.4,3.5-0.4l0.9,0l0.9,0
				c0.6,0,1.2,0,1.8,0.1c1.2,0.2,2.3,0.3,3.4,0.7c2.2,0.6,4.3,1.8,6.2,3.1c-2.2-0.6-4.3-1.2-6.5-1.5c-2.2-0.4-4.3-0.5-6.5-0.4
				c-2.2,0.1-4.3,0.4-6.5,0.8C48,108.1,45.9,108.7,43.8,109.6z"/>
		</g>
		<g>
			<path class="st1" d="M31.2,113.8c0.1,0.7,0.3,1.4,0.8,2c0.2,0.3,0.6,0.5,0.8,0.7c0.3,0.1,0.7,0.3,1,0.3c1.4,0.3,2.9,0.1,4.3-0.2
				c2.8-0.7,5.5-1.9,8.1-3.1c2.6-1.3,5.1-2.7,7.6-4.1c2.5-1.4,5-2.9,7.4-4.4l0.2,1.9c-2.9-0.9-6-1.7-9-2.3c-3.1-0.6-6.1-1.1-9.3-1.2
				c-1.6,0-3.1,0.1-4.6,0.4c-1.5,0.3-3,0.8-4.3,1.7c-1.3,0.9-2.2,2.2-2.7,3.8C31.1,110.6,31.1,112.2,31.2,113.8z M31.2,113.8
				c-0.1-1.6-0.1-3.2,0.3-4.7c0.4-1.5,1.3-3,2.6-4c1.2-1,2.7-1.7,4.3-2.2c1.6-0.4,3.2-0.7,4.8-0.8c1.6-0.1,3.2-0.1,4.8,0
				c1.6,0.1,3.2,0.2,4.8,0.5c1.6,0.2,3.2,0.5,4.7,0.9c1.6,0.4,3.1,0.8,4.7,1.3l2.1,0.7l-1.9,1.1c-2.5,1.5-5.1,2.9-7.7,4.2
				c-2.6,1.3-5.3,2.5-8,3.5c-2.7,1-5.5,2-8.4,2.5c-1.4,0.2-2.9,0.4-4.3,0c-0.4,0-0.7-0.2-1-0.4c-0.3-0.2-0.6-0.4-0.8-0.7
				C31.5,115.2,31.4,114.5,31.2,113.8z"/>
		</g>
		<g>
			<path class="st1" d="M62.6,124.2c2.7-1.7,5.7-2.9,8.8-3.7c3.1-0.8,6.3-1.2,9.5-1.2c3.2,0,6.4,0.6,9.5,1.6
				c0.8,0.3,1.5,0.6,2.3,0.9l2.1,1.1c0.3,0.2,0.7,0.4,1,0.6l1,0.7c0.6,0.5,1.3,1,1.9,1.5c-0.7-0.3-1.5-0.6-2.2-1l-1.1-0.5
				c-0.4-0.1-0.7-0.3-1.1-0.4l-2.2-0.8l-2.2-0.6c-3-0.7-6-1.1-9-1.1c-3,0-6.1,0.2-9.1,0.7C68.7,122.6,65.7,123.3,62.6,124.2z"/>
		</g>
		<g>
			<path class="st1" d="M50.1,134.7l0.6,1.2c0.3,0.4,0.5,0.8,0.8,1.1c0.6,0.7,1.3,1.2,2.2,1.4c0.9,0.2,1.8,0,2.6-0.2
				c0.8-0.3,1.6-0.7,2.3-1.2c2.9-2,5.4-4.6,7.8-7.1c2.5-2.5,4.9-5.1,7.7-7.4c1.4-1.1,2.9-2.2,4.9-2.8c0.5-0.2,1-0.2,1.5-0.3
				c0.2,0,0.4,0,0.6,0c0.1,0,0.2,0,0.2,0c0,0,0,0-0.1,0c-0.1,0.1-0.1,0.1-0.3,0.3c0,0.1-0.1,0.2-0.1,0.4c0,0.2,0,0.3,0,0.4
				c0.1,0.4,0.2,0.4,0.2,0.4c0,0,0,0,0,0c0,0-0.1-0.1-0.2-0.1c-0.2-0.1-0.4-0.1-0.5-0.2c-0.4-0.1-0.8-0.2-1.2-0.3
				c-1.7-0.4-3.4-0.7-5.1-0.9c-1.7-0.2-3.5-0.4-5.2-0.5c-3.5-0.2-7-0.1-10.4,0.5c-1.7,0.3-3.4,0.8-4.9,1.7c-1.5,0.8-2.9,1.9-3.8,3.5
				c-0.8,1.5-1.1,3.3-1,5.1C48.9,131.3,49.4,133.1,50.1,134.7z M50.1,134.7c-0.7-1.6-1.2-3.3-1.4-5.1c-0.2-1.8,0-3.6,0.8-5.2
				c0.8-1.6,2.1-3,3.7-3.9c1.5-1,3.3-1.6,5-2.1c3.5-0.9,7.1-1.3,10.7-1.3c3.6,0,7.2,0.3,10.7,1.1c0.4,0.1,0.9,0.2,1.4,0.4
				c0.2,0.1,0.5,0.1,0.7,0.3c0.1,0.1,0.3,0.1,0.4,0.2c0.1,0,0.2,0.1,0.3,0.2c0.1,0.1,0.3,0.2,0.5,0.6c0,0.1,0.1,0.3,0,0.5
				c0,0.2-0.1,0.3-0.2,0.4c-0.2,0.3-0.3,0.3-0.4,0.4c-0.2,0.1-0.3,0.1-0.4,0.2c-0.2,0.1-0.3,0.1-0.5,0.1c-0.3,0-0.5,0-0.7,0.1
				c-0.4,0-0.7,0.1-1.1,0.2c-1.5,0.4-3,1.3-4.4,2.3c-2.8,2-5.4,4.4-8.1,6.7c-2.7,2.3-5.3,4.7-8.4,6.6c-0.8,0.4-1.6,0.9-2.4,1.1
				c-0.9,0.2-1.8,0.4-2.6,0.2c-0.9-0.2-1.7-0.7-2.2-1.4c-0.3-0.3-0.5-0.7-0.8-1.1L50.1,134.7z"/>
		</g>
		<g>
			<path class="st1" d="M108.3,131c1.7-3.9,3.2-7.9,4.5-11.9c1.3-4,2.5-8.1,3.5-12.2c2-8.2,3.3-16.6,3.6-25c0.3-8.4-0.4-16.8-2.6-25
				c-2.1-8.1-5.8-15.8-10.7-22.8c1.3,1.7,2.8,3.2,3.9,5.1c0.6,0.9,1.2,1.8,1.8,2.7l1.6,2.8c2,3.8,3.8,7.7,5,11.9
				c0.4,1,0.6,2.1,0.9,3.1c0.3,1,0.6,2.1,0.7,3.1l0.6,3.2l0.4,3.2c0.5,4.3,0.6,8.6,0.5,12.9c-0.4,8.6-1.8,17.1-4.1,25.3
				C115.6,115.5,112.5,123.5,108.3,131z"/>
		</g>
		<g>
			<path class="st1" d="M102.4,23.7c1.4-1.1,2.9-2.2,4.4-3.1c1.6-0.9,3.3-1.7,5.2-1.7c0.9,0,1.9,0.3,2.7,0.8
				c0.8,0.6,1.4,1.4,1.8,2.2c0.9,1.7,1.3,3.5,1.5,5.4c0.5,3.7,0.4,7.4,0,11c-0.2,1.8-0.4,3.6-0.7,5.4c-0.3,1.8-0.7,3.6-1.1,5.4
				l-0.4,1.5l-1.2-0.9c-2.2-1.7-4.2-3.4-6.1-5.4c-1.9-1.9-3.7-3.9-5.3-6.1c-1.6-2.2-2.9-4.6-3.5-7.3c-0.3-1.3-0.2-2.7,0.2-4
				C100.5,25.6,101.4,24.5,102.4,23.7z M102.4,23.7c-1,0.9-1.9,1.9-2.3,3.2c-0.4,1.3-0.4,2.6-0.1,3.9c0.3,1.3,0.9,2.5,1.6,3.6
				c0.7,1.1,1.5,2.2,2.3,3.2c1.7,2,3.6,3.8,5.6,5.6c2,1.7,4.1,3.4,6.2,4.8l-1.6,0.6c0.4-1.7,0.7-3.5,1-5.3c0.3-1.8,0.6-3.5,0.8-5.3
				c0.3-1.8,0.4-3.5,0.6-5.3c0.1-1.8,0.2-3.6,0.1-5.3c-0.1-1.8-0.3-3.5-1-5.1c-0.3-0.8-0.8-1.5-1.5-2.1c-0.6-0.5-1.5-0.9-2.3-0.9
				c-1.8-0.1-3.5,0.6-5.1,1.4C105.3,21.5,103.9,22.6,102.4,23.7z"/>
		</g>
		<g>
			<path class="st1" d="M129.7,40.5c-1,2.3-2,4.6-2.9,6.9c-0.9,2.3-1.7,4.6-2.4,7c-0.8,2.3-1.4,4.7-1.9,7.1
				c-0.6,2.4-0.9,4.9-1.4,7.4c-0.4-2.5-0.5-5.1-0.2-7.6l0.1-1l0.2-0.9c0.1-0.6,0.2-1.3,0.3-1.9c0.3-1.2,0.6-2.5,1-3.7
				c0.8-2.4,1.7-4.8,3-7C126.5,44.5,127.9,42.3,129.7,40.5z"/>
		</g>
		<g>
			<path class="st1" d="M133.9,27.9c1.4,0.4,2.9,1,3.8,2.2c0.9,1.2,1,2.9,0.7,4.3c-0.5,3-2,5.7-3.5,8.2c-1.6,2.5-3.3,5-5.2,7.3
				c-1.9,2.3-3.9,4.5-6.1,6.6l-1.4,1.4l-0.3-2c-0.5-3-0.7-6-0.8-9c0-3,0.2-6,0.8-9c0.6-2.9,1.6-6,3.7-8.2c1-1.1,2.4-1.8,3.9-2.1
				C130.9,27.4,132.4,27.5,133.9,27.9z M133.9,27.9c-1.5-0.3-3-0.5-4.4-0.2c-1.5,0.3-2.8,1.1-3.7,2.2c-1.9,2.3-2.5,5.3-2.9,8.1
				c-0.3,2.9-0.2,5.9,0,8.8c0.2,2.9,0.5,5.9,1,8.7l-1.7-0.6c1.1-1,2.1-2,3.1-3.1c1-1,2.1-2.1,3-3.2c2-2.1,4-4.3,5.7-6.7
				c1.7-2.4,3.4-4.9,4.1-7.7c0.3-1.4,0.3-3-0.5-4.2C136.7,28.9,135.3,28.3,133.9,27.9z"/>
		</g>
		<g>
			<path class="st1" d="M140.1,69.8c-2.2,0.8-4.4,1.7-6.4,2.7c-2,1.1-3.9,2.3-5.6,3.7c-1.7,1.4-3.1,3.1-4.3,5
				c-1.3,1.9-2,4.1-2.8,6.3c0-2.4,0.2-4.8,1.3-7.1l0.4-0.9l0.5-0.8c0.3-0.5,0.6-1.1,1-1.5c0.4-0.5,0.8-0.9,1.2-1.4
				c0.4-0.4,0.9-0.8,1.3-1.3c1.9-1.6,4-2.8,6.3-3.6C135.4,70.2,137.7,69.7,140.1,69.8z"/>
		</g>
		<g>
			<path class="st1" d="M148.5,65.6c0.7,1.2,1.4,2.6,1.5,4.1c0.1,1.5-0.4,3-1.3,4.1c-1,1.1-2.2,2-3.5,2.7c-1.3,0.7-2.7,1.3-4.1,1.7
				c-2.8,0.9-5.7,1.6-8.6,2c-2.9,0.4-5.8,0.7-8.8,0.7l-1.7,0l0.7-1.5c1.3-2.8,2.9-5.4,4.6-8c1.7-2.5,3.7-4.9,6-7
				c1.1-1,2.4-2,3.7-2.8c1.3-0.8,2.9-1.3,4.4-1.2c1.6,0,3,0.7,4.2,1.6C146.8,63.1,147.7,64.3,148.5,65.6z M148.5,65.6
				c-0.9-1.2-1.8-2.5-3-3.4c-1.2-0.9-2.7-1.5-4.1-1.4c-1.5,0.1-2.9,0.7-4.1,1.5c-1.2,0.8-2.3,1.9-3.3,2.9c-2,2.2-3.6,4.7-5.2,7.2
				c-1.5,2.6-3,5.2-4.3,7.8l-0.9-1.5c1.4,0,2.9-0.1,4.3-0.1c1.4-0.1,2.9-0.1,4.3-0.3c2.9-0.2,5.7-0.6,8.5-1.2
				c1.4-0.3,2.8-0.8,4.1-1.3c1.3-0.6,2.6-1.3,3.6-2.3c1-1,1.6-2.5,1.5-3.9C149.9,68.2,149.2,66.8,148.5,65.6z"/>
		</g>
		<g>
			<path class="st1" d="M94.1,53c3,0.7,5.9,1.7,8.8,3c2.8,1.3,5.6,2.8,8.2,4.5c2.6,1.8,5,3.8,7,6.3c1,1.3,1.8,2.6,2.4,4.1
				c0.6,1.5,0.9,3.1,0.7,4.6c-0.5-3.1-2.3-5.6-4.3-7.7c-1-1.1-2.1-2.1-3.3-3c-1.2-0.9-2.4-1.8-3.6-2.7c-2.5-1.7-5.1-3.3-7.7-4.8
				C99.5,56,96.8,54.5,94.1,53z"/>
		</g>
		<g>
			<path class="st1" d="M87.8,48.8c2.3-2.1,5.2-3.8,8.5-4c1.6,0,3.2,0.3,4.7,0.9c1.5,0.6,2.9,1.6,4.1,2.6c2.5,2.1,4.5,4.7,6.2,7.4
				c1.7,2.7,3.2,5.6,4.4,8.6l0.5,1.3l-1.5,0c-1.8,0-3.6,0-5.5-0.1c-1.8-0.1-3.6-0.2-5.4-0.4c-3.6-0.3-7.2-1-10.8-1.9
				c-1.8-0.5-3.5-1-5.2-1.8c-1.6-0.8-3.3-1.8-4.2-3.5c-0.5-0.8-0.6-1.8-0.5-2.7c0.1-0.9,0.5-1.7,1-2.5C85.1,51.3,86.4,50,87.8,48.8z
				 M87.8,48.8c-1.3,1.2-2.6,2.5-3.5,4.1c-0.5,0.8-0.8,1.6-0.9,2.5c-0.1,0.9,0.1,1.8,0.6,2.5c1,1.5,2.6,2.3,4.2,3
				c1.7,0.6,3.4,1.1,5.1,1.4c3.5,0.7,7.1,0.9,10.6,1.1c1.8,0.1,3.6,0.2,5.4,0.2c1.8,0,3.6,0.1,5.4,0.1l-0.9,1.4
				c-1.1-2.9-2.4-5.7-3.9-8.5c-1.5-2.7-3.2-5.4-5.4-7.5c-2.2-2.1-5-3.9-8.2-3.9c-1.6,0-3.1,0.4-4.5,1.1C90.3,46.8,89,47.8,87.8,48.8
				z"/>
		</g>
		<g>
			<path class="st1" d="M102.4,84.4c2,1.4,3.8,3.2,5.5,5c1.7,1.9,3.1,3.9,4.5,6c1.3,2.2,2.4,4.4,3.1,6.8c0.7,2.4,1.1,5,0.9,7.4
				c-0.6-2.4-1.4-4.7-2.4-6.9c-0.3-0.5-0.5-1.1-0.8-1.6c-0.2-0.5-0.6-1.1-0.8-1.6c-0.5-1.1-1.2-2.1-1.8-3.1
				c-1.2-2.1-2.6-4.1-3.9-6.1L102.4,84.4z"/>
		</g>
		<g>
			<path class="st1" d="M98.2,78.1c1.2-0.9,2.6-1.5,4.2-1.4c1.5,0.1,2.9,0.9,4,2c2.2,2.1,3.6,4.8,4.8,7.6c1.2,2.8,2.2,5.6,3,8.5
				c0.8,2.9,1.5,5.8,1.9,8.8l0.3,2l-1.8-0.9c-2.8-1.4-5.5-3-8.1-4.7c-2.6-1.8-5-3.7-7.2-6c-1.1-1.1-2.1-2.3-3-3.6
				c-0.9-1.3-1.6-2.7-1.9-4.3c-0.3-1.5-0.1-3.2,0.7-4.5C95.8,80.1,97,79.1,98.2,78.1z M98.2,78.1c-1.2,0.9-2.4,2-3.1,3.4
				c-0.7,1.4-0.8,3-0.4,4.4c0.4,1.5,1.2,2.8,2.2,4c0.9,1.2,2,2.2,3.2,3.2c2.3,2,4.9,3.6,7.5,5.2c2.6,1.6,5.3,3.1,8,4.4l-1.5,1.1
				c-0.2-1.4-0.5-2.9-0.7-4.3c-0.3-1.4-0.5-2.9-0.9-4.3c-0.6-2.9-1.3-5.7-2.3-8.5c-1-2.7-2.1-5.5-4.1-7.7c-1-1.1-2.3-2-3.8-2.1
				C100.9,76.7,99.5,77.3,98.2,78.1z"/>
		</g>
		<g>
			<path class="st1" d="M138,92.8c-2.4,1.1-4.7,2.4-6.9,3.8c-2.2,1.4-4.3,3-6.2,4.7c-1.9,1.7-3.7,3.6-5.3,5.7c-1.6,2-3,4.3-4.4,6.6
				c0.6-2.6,1.6-5.2,3.1-7.5c0.6-1.2,1.5-2.3,2.4-3.4c0.4-0.5,0.9-1,1.4-1.5l0.7-0.7l0.8-0.7c1-0.9,2.1-1.7,3.2-2.5l1.7-1.1
				c0.6-0.3,1.2-0.6,1.8-1C132.7,94,135.4,93.1,138,92.8z"/>
		</g>
		<g>
			<path class="st1" d="M148.5,88.6l0.5,0.9c0.1,0.3,0.3,0.7,0.4,1c0.1,0.4,0.1,0.7,0.1,1.1c0,0.4,0,0.7-0.1,1.1
				c-0.4,1.4-1.4,2.5-2.6,3.4c-2.3,1.7-5,2.9-7.8,3.8c-2.7,0.9-5.5,1.7-8.4,2.3c-2.8,0.6-5.7,1.1-8.6,1.4l-1.7,0.2l0.7-1.6
				c0.6-1.5,1.4-3,2.1-4.4c0.8-1.4,1.6-2.8,2.5-4.2c0.9-1.4,1.9-2.7,2.9-3.9c1.1-1.3,2.2-2.5,3.4-3.5c1.2-1.1,2.6-2,4.1-2.7
				c1.5-0.7,3.2-1,4.9-0.7c1.6,0.3,3.1,1.2,4.3,2.2C146.6,86,147.6,87.3,148.5,88.6z M148.5,88.6c-1-1.3-1.9-2.6-3.2-3.6
				c-1.2-1-2.7-1.8-4.3-2c-1.6-0.2-3.1,0.3-4.5,1c-1.4,0.7-2.6,1.8-3.7,2.9c-2.2,2.3-3.9,4.9-5.5,7.7c-0.8,1.4-1.6,2.8-2.3,4.2
				c-0.7,1.4-1.4,2.9-2.1,4.3l-1-1.4c2.8-0.3,5.6-0.6,8.5-1c2.8-0.4,5.6-0.9,8.4-1.6c2.7-0.7,5.5-1.6,7.9-3.1
				c1.2-0.8,2.3-1.8,2.7-3.2c0.1-0.3,0.1-0.7,0.2-1c0-0.4-0.1-0.7-0.1-1.1c-0.1-0.3-0.2-0.7-0.4-1L148.5,88.6z"/>
		</g>
		<g>
			<path class="st1" d="M281.5,75c-2.5,3.4-4.6,7.2-6.3,11c-0.5,1-0.8,1.9-1.2,2.9l-0.6,1.5l-0.5,1.5c-0.3,1-0.7,2-1,3l-0.8,3
				c-0.3,1-0.4,2.1-0.7,3.1c-0.2,1-0.5,2-0.6,3.1l-0.4,3.1c-0.1,0.5-0.2,1-0.2,1.6l-0.1,1.6l-0.2,3.1c-0.1,1-0.1,2.1-0.1,3.2l0,3.2
				c0,1.1,0.1,2.1,0.2,3.2l0.2,3.2c0.1,1.1,0.2,2.1,0.4,3.1c0.3,2.1,0.5,4.2,0.9,6.3c0.7,4.2,1.4,8.4,2.2,12.5
				c0.8,4.2,1.7,8.3,2.8,12.4c0.3,1,0.5,2,0.9,3.1c0.3,1,0.7,2,1,3c0.4,1,0.8,2,1.3,2.9c0.2,0.5,0.5,0.9,0.8,1.4
				c0.3,0.4,0.6,0.9,1.1,1.1c-0.5-0.2-0.9-0.6-1.3-1c-0.4-0.4-0.7-0.9-1-1.3c-0.6-0.9-1.1-1.9-1.5-2.8c-0.4-1-0.9-2-1.2-3
				c-0.4-1-0.8-2-1.1-3c-1.3-4.1-2.5-8.2-3.4-12.4c-1-4.2-1.8-8.4-2.6-12.5c-0.4-2.1-0.7-4.2-1-6.4c-0.1-1.1-0.3-2.1-0.4-3.2
				l-0.2-3.2c-0.4-8.6,0.4-17.3,2.8-25.6C272,89.4,275.8,81.4,281.5,75z"/>
		</g>
		<g>
			<path class="st1" d="M286.7,63.5c0.6,0.3,1.3,0.7,1.7,1.3c0.2,0.3,0.3,0.6,0.5,1c0.1,0.4,0.1,0.7,0.2,1.1c0,1.5-0.4,2.9-0.9,4.2
				c-1.1,2.7-2.6,5.2-4.1,7.7c-1.6,2.4-3.3,4.8-5.1,7.1c-1.8,2.3-3.7,4.4-5.8,6.5l-1.8,1.8l0-2.5c0-3.1,0.2-6.2,0.7-9.3
				c0.4-3.1,1.1-6.1,2-9.1c0.5-1.5,1-2.9,1.7-4.3c0.7-1.4,1.5-2.7,2.6-3.9c1.1-1.1,2.4-2,4-2.2C283.8,62.5,285.3,62.9,286.7,63.5z
				 M286.7,63.5c-1.4-0.6-3-0.9-4.5-0.6c-1.5,0.3-2.8,1.2-3.8,2.4c-1,1.2-1.6,2.5-2.2,3.9c-0.5,1.4-1,2.9-1.3,4.3c-0.7,3-1,6-1.2,9
				c-0.2,3-0.4,6.1-0.4,9.1l-1.8-0.7c2-2,4-4.1,5.9-6.2c2-2.1,3.9-4.2,5.7-6.5c0.9-1.1,1.7-2.3,2.5-3.5c0.8-1.2,1.6-2.4,2.1-3.7
				c0.6-1.3,1.1-2.7,1.1-4.1C289,65.4,288.1,64,286.7,63.5z"/>
		</g>
		<g>
			<path class="st1" d="M259.5,82.3c1.8,1.7,3.2,3.6,4.4,5.7c1.2,2.1,2.2,4.3,3,6.6c0.4,1.1,0.7,2.3,1,3.5c0.2,1.2,0.5,2.4,0.5,3.6
				c0.3,2.4,0.1,4.9-0.3,7.2c-0.5-2.4-0.8-4.7-1.3-7c-0.5-2.3-1.1-4.5-1.9-6.7c-0.7-2.2-1.6-4.4-2.5-6.5
				C261.6,86.6,260.6,84.5,259.5,82.3z"/>
		</g>
		<g>
			<path class="st1" d="M255.3,71.9l0.9-0.7c0.3-0.2,0.7-0.4,1-0.5c0.7-0.2,1.5-0.4,2.2-0.1c0.2,0,0.4,0.1,0.5,0.2
				c0.2,0.1,0.3,0.2,0.5,0.3c0.3,0.3,0.6,0.5,0.9,0.7c0.5,0.5,1,1.2,1.3,1.8c1.5,2.6,2.4,5.6,3.2,8.5c0.8,2.9,1.4,5.9,1.9,8.9
				c0.5,3,0.8,6,1,9l0.1,1.8l-1.6-0.8c-2.9-1.4-5.7-3.1-8.2-5.1c-1.3-1-2.5-2.1-3.6-3.2c-1.1-1.2-2.2-2.4-3.1-3.8
				c-0.9-1.4-1.6-2.8-2-4.4c-0.4-1.6-0.5-3.2-0.1-4.8c0.3-1.6,1.1-3,2-4.3C253,74,254.2,72.9,255.3,71.9z M255.3,71.9
				c-2.3,2.1-4.4,4.7-4.9,7.9c-0.2,1.5,0,3.1,0.5,4.6c0.5,1.4,1.3,2.8,2.3,4c1.9,2.4,4.4,4.4,6.9,6.1c2.5,1.7,5.3,3.3,8,4.7l-1.5,1
				c-0.2-3-0.4-5.9-0.6-8.9c-0.2-3-0.6-5.9-1.1-8.9c-0.5-2.9-1.2-5.9-2.5-8.5c-0.3-0.7-0.7-1.3-1.2-1.9c-0.2-0.3-0.5-0.5-0.8-0.8
				c-0.2-0.1-0.3-0.2-0.5-0.3c-0.2-0.1-0.3-0.2-0.5-0.2c-0.7-0.3-1.5-0.1-2.2,0.1c-0.3,0.2-0.7,0.3-1,0.5L255.3,71.9z"/>
		</g>
		<g>
			<path class="st1" d="M290.9,94.9c-2.1,1.9-4.4,3.5-6.6,5.1c-2.2,1.6-4.5,3.2-6.6,5c-2.1,1.7-4.1,3.5-5.9,5.6
				c-1.8,2-3.2,4.3-4.2,7c0-2.8,1.2-5.6,2.9-8c1.6-2.4,3.7-4.4,5.9-6.2c2.2-1.8,4.6-3.3,7-4.7C285.9,97.3,288.4,96.1,290.9,94.9z"/>
		</g>
		<g>
			<path class="st1" d="M299.3,88.6c1,1.2,1.9,2.7,2,4.4c0.1,1.7-0.7,3.3-1.7,4.5c-2.1,2.6-5.1,4.2-8,5.7c-3,1.4-6,2.6-9.2,3.7
				c-3.1,1-6.3,1.8-9.6,2.4l-2.1,0.4l1-1.9c1.5-2.9,3.2-5.6,5-8.3c1.9-2.6,3.9-5.2,6.1-7.5c2.3-2.3,4.8-4.5,7.8-5.7
				c1.5-0.6,3.2-0.8,4.8-0.4C297,86.3,298.3,87.4,299.3,88.6z M299.3,88.6c-1-1.2-2.4-2.2-3.9-2.6c-1.5-0.4-3.2-0.1-4.6,0.5
				c-1.4,0.7-2.7,1.6-3.9,2.7c-1.2,1.1-2.2,2.2-3.2,3.5c-2,2.4-3.8,5.1-5.4,7.8c-0.8,1.3-1.6,2.7-2.4,4.1c-0.8,1.4-1.6,2.8-2.3,4.2
				l-1.1-1.5c3.1-0.6,6.3-1.3,9.4-2.1c3.1-0.8,6.2-1.7,9.2-2.9c3-1.2,6-2.6,8.2-4.9c1.1-1.2,1.9-2.7,1.9-4.3
				C301.1,91.4,300.3,89.9,299.3,88.6z"/>
		</g>
		<g>
			<path class="st1" d="M286.7,128.4c-1.9,1.6-3.3,3.7-4.7,5.7c-1.3,2.1-2.6,4.2-3.7,6.4c-1.1,2.2-2.1,4.4-3,6.7
				c-0.9,2.3-1.6,4.6-2.3,7.1c-0.2-2.5,0.1-5.1,0.7-7.6c0.3-1.3,0.7-2.5,1.1-3.7c0.5-1.2,1-2.4,1.6-3.5c1.2-2.3,2.6-4.4,4.2-6.4
				c0.8-1,1.7-1.9,2.7-2.7C284.5,129.6,285.5,128.8,286.7,128.4z"/>
		</g>
		<g>
			<path class="st1" d="M295.1,120c1.7,0.7,3.3,1.5,4.6,2.8c0.6,0.7,1.1,1.5,1.3,2.4c0.2,0.9,0,1.8-0.3,2.7c-0.6,1.7-1.8,3.2-3,4.5
				c-1.2,1.3-2.6,2.5-4,3.7c-2.8,2.2-5.9,4.3-9,6.1c-3.1,1.8-6.3,3.5-9.7,4.9l-1.5,0.7l0-1.6c0-3.5,0.4-6.9,1.1-10.2
				c0.7-3.3,1.7-6.7,3.3-9.7c0.8-1.5,1.8-3,3-4.2c1.2-1.2,2.7-2.2,4.3-2.8C288.5,118.1,292,118.8,295.1,120z M295.1,120
				c-1.6-0.5-3.2-1.1-4.9-1.2c-1.7-0.1-3.4,0.1-4.9,0.7c-1.5,0.6-2.9,1.7-3.9,3c-1.1,1.3-1.9,2.7-2.5,4.2c-1.3,3-2,6.3-2.5,9.6
				c-0.2,1.6-0.4,3.3-0.5,4.9c-0.1,1.6-0.2,3.3-0.2,4.9l-1.5-0.9c3.2-1.4,6.4-3,9.6-4.6c3.2-1.6,6.3-3.3,9.2-5.4
				c1.5-1,2.9-2.1,4.2-3.3c1.3-1.2,2.5-2.5,3.2-4.2c0.3-0.8,0.5-1.7,0.4-2.6c-0.1-0.9-0.6-1.7-1.1-2.3
				C298.4,121.6,296.8,120.7,295.1,120z"/>
		</g>
		<g>
			<path class="st1" d="M251.1,111.7c2.1,0,4.1,0.4,6.1,1.1c2,0.7,3.8,1.7,5.5,3c1.7,1.3,3.1,3,4.1,4.8c1,1.9,1.4,4,1.4,6.1
				c-0.8-1.9-1.6-3.7-2.8-5.2c-1.2-1.5-2.5-2.9-4-4C258.4,115,254.9,113.3,251.1,111.7z"/>
		</g>
		<g>
			<path class="st1" d="M240.7,105.4c0.6-1.3,1.4-2.6,2.5-3.4c1.2-0.9,2.7-1.2,4.2-0.9c1.4,0.3,2.8,0.9,4,1.7
				c1.2,0.8,2.4,1.7,3.5,2.6c2.2,1.9,4.2,4,6.1,6.2c1.9,2.2,3.6,4.5,5.2,7l0.9,1.4l-1.6,0.2c-3.1,0.4-6.1,0.6-9.2,0.5
				c-3.1-0.1-6.1-0.5-9.1-1.3c-1.5-0.4-2.9-1-4.2-1.8c-1.3-0.8-2.5-2-3.1-3.4c-0.7-1.4-0.8-3-0.6-4.5
				C239.5,108.2,240.1,106.8,240.7,105.4z M240.7,105.4c-0.5,1.4-1.1,2.8-1.2,4.3c-0.2,1.5,0.1,3,0.8,4.3c0.7,1.3,1.9,2.2,3.2,2.9
				c1.3,0.7,2.7,1.1,4.2,1.4c2.9,0.6,5.9,0.6,8.8,0.5c3-0.1,6-0.3,8.9-0.7l-0.7,1.6c-0.7-1.2-1.6-2.4-2.4-3.5
				c-0.8-1.2-1.6-2.3-2.5-3.5c-1.7-2.3-3.5-4.5-5.4-6.6c-1-1-2.1-2-3.2-2.8c-1.1-0.8-2.4-1.6-3.7-1.9c-1.4-0.4-2.9-0.2-4.1,0.6
				C242.1,102.8,241.3,104.1,240.7,105.4z"/>
		</g>
		<g>
			<path class="st1" d="M253.2,134.7c2.2-0.1,4.5,0.4,6.6,1.3c2.1,0.9,4.1,2.1,5.8,3.6c1.7,1.6,3.2,3.3,4.3,5.3c0.6,0.9,1,2,1.5,3
				c0.4,1,0.7,2.1,0.9,3.2c-0.7-0.9-1.2-1.9-1.8-2.7l-0.9-1.3c-0.3-0.4-0.6-0.9-1-1.3c-0.3-0.4-0.7-0.8-1-1.2l-1.1-1.2
				c-0.3-0.4-0.7-0.8-1.1-1.1c-0.4-0.4-0.7-0.8-1.2-1.1l-1.2-1c-0.4-0.3-0.9-0.6-1.3-0.9c-0.8-0.6-1.7-1.2-2.7-1.7
				C257.3,136.4,255.3,135.5,253.2,134.7z"/>
		</g>
		<g>
			<path class="st1" d="M240.7,132.6c0.6-1.2,1.3-2.4,2.4-3.3c1.1-0.9,2.4-1.3,3.8-1.3c2.8,0,5.5,1.1,7.9,2.4
				c2.4,1.3,4.7,2.9,6.9,4.6c2.1,1.7,4.2,3.6,6.1,5.6l1.1,1.2l-1.6,0.5c-1.5,0.4-3,0.8-4.5,1.1c-1.5,0.3-3,0.6-4.5,0.8
				c-3,0.4-6.1,0.6-9.2,0.4c-1.5-0.1-3.1-0.3-4.6-0.8c-1.5-0.5-2.9-1.2-3.9-2.5c-1-1.2-1.2-2.9-1-4.4
				C239.5,135.4,240.1,134,240.7,132.6z M240.7,132.6c-0.5,1.4-1.1,2.8-1.2,4.4c-0.1,1.5,0.2,3.1,1.2,4.2c1,1.1,2.4,1.6,3.9,2
				c1.4,0.3,2.9,0.4,4.4,0.4c3,0,5.9-0.6,8.9-1.1c1.5-0.3,2.9-0.6,4.4-0.9c1.5-0.3,2.9-0.7,4.3-1.1l-0.5,1.7c-1.8-2-3.7-3.9-5.6-5.7
				c-2-1.8-4-3.6-6.2-5.1c-1.1-0.7-2.3-1.4-3.5-2c-1.2-0.5-2.5-0.9-3.9-1c-1.3,0-2.7,0.3-3.8,1.1C242,130.2,241.3,131.4,240.7,132.6
				z"/>
		</g>
		<g>
			<path class="st1" d="M351.7,101.2c0,1-0.3,2-0.5,3.1c-0.2,1-0.5,2-0.8,3c-0.6,2-1.2,3.9-1.9,5.9c-1.3,3.9-2.8,7.8-4.3,11.6
				c-1.5,3.8-3.2,7.6-5.1,11.3c-0.9,1.9-1.9,3.7-3,5.5c-1.1,1.8-2.2,3.6-3.7,5.2l-0.1,0.1l-0.1,0.1c-11.9,6.4-24,12.5-36.1,18.5
				c-12.1,6-24.2,12-36.8,17.1c-3.1,1.2-6.1,2.7-9,4.4c-2.9,1.7-5.7,3.6-8.4,5.5c-2.8,1.9-5.6,3.8-8.6,5.5c-3,1.6-6.3,2.9-9.8,3.4
				c-3.4,0.5-6.9,0.2-10.3-0.6c-3.4-0.8-6.5-2.1-9.6-3.4c-3.1-1.3-6.2-2.6-9.3-4.2c-1.5-0.8-3-1.6-4.4-2.5c-0.7-0.5-1.4-1-2-1.5
				c-0.3-0.3-0.6-0.6-0.9-0.9c-0.2-0.3-0.5-0.7-0.5-1.1c-0.1,0.4,0.2,0.8,0.5,1.1c0.3,0.3,0.6,0.6,0.9,0.9c0.7,0.5,1.4,1,2.1,1.4
				c1.4,0.9,3,1.6,4.5,2.3c3.1,1.4,6.2,2.7,9.3,3.8c3.2,1.1,6.3,2.3,9.6,3c3.2,0.7,6.6,0.9,9.8,0.4c3.3-0.5,6.3-1.8,9.2-3.4
				c2.9-1.6,5.6-3.6,8.4-5.6c2.8-1.9,5.6-3.9,8.5-5.6c2.9-1.7,6-3.3,9.2-4.6c6.2-2.6,12.3-5.4,18.4-8.3c6.1-2.9,12.2-5.8,18.2-8.8
				c12.1-5.9,24.1-12.1,36.2-18.1l-0.2,0.1c1.4-1.4,2.5-3.1,3.6-4.8c1.1-1.7,2.1-3.5,3-5.3c1.9-3.6,3.6-7.4,5.3-11.1
				c1.7-3.8,3.3-7.6,4.7-11.4c0.7-1.9,1.4-3.9,2.1-5.8C350.7,105.2,351.4,103.2,351.7,101.2z"/>
		</g>
		<g>
			<path class="st1" d="M357.9,88.6c0.9,0.1,1.7,0.3,2.5,0.6c0.8,0.3,1.6,0.8,2.1,1.5c1,1.5,1,3.4,0.6,5.1c-0.8,3.4-2.5,6.5-4.3,9.5
				c-1.8,3-3.9,5.8-6,8.5c-2.2,2.7-4.4,5.3-6.9,7.8l-1.5,1.5l-0.3-2.1c-0.5-3.4-0.8-6.8-0.8-10.2c0-3.4,0.3-6.8,1.1-10.1
				c0.8-3.3,2-6.6,4.3-9.1c1.2-1.2,2.6-2.2,4.3-2.6C354.6,88.5,356.3,88.5,357.9,88.6z M357.9,88.6c-1.7-0.1-3.4-0.1-5,0.5
				c-1.6,0.5-3,1.5-4.1,2.8c-1.1,1.3-1.8,2.8-2.4,4.3c-0.5,1.6-0.9,3.2-1.1,4.8c-0.5,3.3-0.5,6.6-0.3,9.9c0.1,1.7,0.2,3.3,0.4,4.9
				c0.2,1.6,0.4,3.3,0.6,4.9l-1.8-0.6c2.4-2.4,4.7-5,7-7.5c2.3-2.6,4.5-5.2,6.5-7.9c1-1.4,2-2.8,2.8-4.3c0.8-1.5,1.6-3,2.1-4.7
				c0.2-0.8,0.4-1.7,0.4-2.5c0-0.8-0.2-1.7-0.7-2.4c-0.5-0.7-1.2-1.2-2-1.6C359.7,88.9,358.8,88.7,357.9,88.6z"/>
		</g>
		<g>
			<path class="st1" d="M362.1,124.2c-2.1,1.5-4.2,2.9-6.3,4.3c-2.1,1.4-4.3,2.6-6.5,3.9c-2.2,1.2-4.4,2.5-6.6,3.7
				c-2.2,1.2-4.4,2.4-6.6,3.8c1.6-2,3.6-3.7,5.7-5.2c2.1-1.5,4.2-2.9,6.4-4.2c2.2-1.3,4.5-2.5,6.8-3.5
				C357.3,126,359.7,125,362.1,124.2z"/>
		</g>
		<g>
			<path class="st1" d="M374.7,115.8c0.6,0.6,1.2,1.3,1.6,2.1c0.4,0.8,0.7,1.7,0.7,2.6c-0.1,1.8-1.4,3.4-2.7,4.5
				c-2.8,2.3-6.2,3.8-9.5,5.1c-3.4,1.3-6.8,2.4-10.3,3.3c-3.5,0.9-7,1.6-10.6,2.1l-2,0.3l0.9-1.8c1.7-3.2,3.5-6.3,5.7-9.2
				c2.1-2.9,4.5-5.6,7.2-8c2.7-2.3,5.9-4.4,9.5-4.9c1.8-0.3,3.6,0,5.2,0.7C372,113.5,373.4,114.6,374.7,115.8z M374.7,115.8
				c-1.3-1.2-2.7-2.3-4.4-3c-1.6-0.7-3.5-0.8-5.2-0.5c-1.7,0.3-3.3,1.1-4.8,2c-1.5,0.9-2.8,2.1-4,3.3c-2.5,2.5-4.6,5.3-6.5,8.2
				c-1,1.5-1.9,2.9-2.8,4.5c-0.9,1.5-1.7,3-2.5,4.6l-1.1-1.5c3.5-0.5,7-1.1,10.5-1.8c3.5-0.7,7-1.5,10.4-2.5
				c3.4-1.1,6.8-2.3,9.7-4.3c0.7-0.5,1.4-1.1,1.9-1.9c0.5-0.7,0.9-1.5,1-2.4c0.1-0.9-0.2-1.8-0.6-2.6
				C375.9,117.2,375.3,116.5,374.7,115.8z"/>
		</g>
		<g>
			<path class="st1" d="M330.7,117.9c1.4,2.5,2.3,5.2,3.1,8c0.8,2.8,1.2,5.6,1.3,8.5c0.1,2.9-0.2,5.9-1.5,8.6
				c-0.6,1.4-1.5,2.6-2.6,3.6c-1.1,1-2.5,1.6-3.9,1.9c1.2-0.7,2.3-1.6,3.1-2.6c0.8-1,1.4-2.2,1.9-3.5c0.4-1.3,0.7-2.6,0.8-3.9
				c0.1-1.3,0.2-2.7,0.1-4.1c-0.1-2.7-0.4-5.5-0.8-8.2C331.8,123.5,331.3,120.7,330.7,117.9z"/>
		</g>
		<g>
			<path class="st1" d="M326.5,107.5c1.5-0.3,3.1-0.6,4.7-0.5c1.6,0.1,3.2,0.8,4.3,1.9c1.1,1.2,1.8,2.7,2.3,4.3
				c0.4,1.6,0.6,3.2,0.6,4.8c0.1,3.2-0.3,6.5-0.9,9.6c-0.6,3.2-1.4,6.3-2.5,9.3l-0.6,1.6l-1.2-1.2c-2.1-2.3-4.1-4.6-5.9-7.1
				c-1.8-2.5-3.4-5.1-4.7-7.9c-0.7-1.4-1.2-2.8-1.7-4.3c-0.4-1.5-0.7-3-0.5-4.6c0.1-1.5,0.8-3,1.9-4
				C323.6,108.4,325.1,107.9,326.5,107.5z M326.5,107.5c-1.5,0.4-2.9,1-4,2c-1.1,1-1.7,2.5-1.7,4c-0.1,1.5,0.4,3,0.9,4.4
				c0.5,1.4,1.2,2.7,2,4c1.5,2.6,3.3,5,5.3,7.3c0.9,1.2,1.9,2.3,2.9,3.4c1,1.1,2,2.3,3,3.3l-1.7,0.4c1-2.9,1.9-6,2.7-9
				c0.7-3,1.4-6.1,1.6-9.3c0.1-1.6,0.1-3.1-0.2-4.7c-0.3-1.5-0.8-3-1.8-4.2c-1-1.2-2.5-1.9-4.1-2.1
				C329.7,106.9,328.1,107.2,326.5,107.5z"/>
		</g>
		<g>
			<path class="st1" d="M357.9,153.5c-0.3,1.2-0.9,2.4-1.9,3.2c-1,0.8-2.3,1.1-3.6,1.1c-2.6,0-5-0.7-7.4-1.5c-2.4-0.9-4.7-2-6.9-3.2
				c-2.3-1.2-4.4-2.5-6.5-4l-1.2-0.8l1.2-0.8c1.4-1,2.8-1.8,4.2-2.7c1.5-0.8,2.9-1.6,4.4-2.3c3-1.4,6.2-2.6,9.6-3
				c1.7-0.2,3.5-0.2,5.1,0.4c0.4,0.2,0.8,0.3,1.2,0.6l0.5,0.4c0.2,0.2,0.3,0.3,0.4,0.5c0.3,0.3,0.5,0.7,0.7,1.1
				c0.2,0.4,0.3,0.8,0.5,1.2c0.5,1.6,0.5,3.3,0.3,4.9c-0.1,0.8-0.2,1.6-0.3,2.5L357.9,153.5z M357.9,153.5l0.5-2.4
				c0.1-0.8,0.2-1.6,0.3-2.5c0.1-1.6,0-3.3-0.6-4.8c-0.6-1.5-1.8-2.7-3.2-3.1c-1.5-0.5-3.1-0.3-4.6,0c-1.6,0.3-3.1,0.9-4.6,1.5
				c-1.5,0.6-3,1.3-4.4,2.1c-1.4,0.7-2.9,1.5-4.3,2.3c-1.4,0.8-2.8,1.7-4.1,2.5l0-1.6c2,1.5,4,2.9,6.1,4.3c2.1,1.4,4.2,2.6,6.5,3.7
				c1.1,0.5,2.3,1,3.5,1.4c1.2,0.4,2.4,0.7,3.7,0.7c1.2,0,2.5-0.2,3.5-0.9C357.1,155.9,357.6,154.8,357.9,153.5z"/>
		</g>
		<g>
			<path class="st1" d="M318.2,136.8c1.1,1.3,2.2,2.6,3,4c0.8,1.5,1.5,3.1,1.8,4.8c0.3,1.7,0.1,3.7-0.8,5.3
				c-0.9,1.6-2.5,2.8-4.2,3.5l-0.7-1.8c2.7-1.2,5.5-2.3,8.3-3.3c2.8-0.9,5.7-1.8,8.6-2.4c1.5-0.3,2.9-0.6,4.4-0.8
				c1.5-0.2,3-0.4,4.5-0.4c3-0.1,6.1,0.1,8.8,1.5c-2.9-0.8-5.8-0.6-8.7-0.3c-2.9,0.4-5.7,1-8.5,1.8c-2.8,0.8-5.6,1.6-8.4,2.6
				c-2.8,0.9-5.5,2-8.2,3.1l-0.7-1.8c1.4-0.5,2.6-1.4,3.4-2.5c0.8-1.2,1.1-2.7,1-4.3c-0.1-1.6-0.6-3.1-1.2-4.6
				C319.8,139.7,319,138.2,318.2,136.8z"/>
		</g>
		<g>
			<path class="st1" d="M219.6,200.9c8.9,1.3,17.8,2.7,26.6,4.3c8.8,1.6,17.6,3.3,26.4,5.2c8.8,1.9,17.5,3.8,26.3,6.1
				c4.4,1.1,8.7,2.3,13,3.6c2.1,0.7,4.3,1.3,6.4,2.1c2.1,0.8,4.3,1.5,6.2,2.7c-2-1-4.2-1.6-6.3-2.2c-2.2-0.6-4.3-1.1-6.5-1.6
				c-4.4-1-8.7-2-13.1-3l-26.3-5.6l-26.3-5.6C237.1,204.9,228.3,202.9,219.6,200.9z"/>
		</g>
		<g>
			<path class="st1" d="M282.6,185c1.5,0.6,3,1.3,4.5,2.2c1.4,0.8,2.8,1.9,3.6,3.5c0.2,0.4,0.3,0.8,0.3,1.3c0,0.4-0.1,0.9-0.3,1.3
				c-0.3,0.8-0.9,1.5-1.5,2.2c-1.2,1.2-2.7,2.1-4.1,3c-2.9,1.7-6.1,2.9-9.3,3.9c-3.2,1-6.4,1.8-9.7,2.5l-1.5,0.3l0.4-1.5
				c0.6-2.4,1.4-4.6,2.4-6.8c1-2.2,2.1-4.4,3.4-6.4c1.4-2,3-3.8,5.1-5.1c1-0.6,2.2-1,3.4-1C280.3,184.2,281.5,184.5,282.6,185z
				 M282.6,185c-1.1-0.4-2.3-0.7-3.5-0.6c-1.2,0.1-2.3,0.5-3.3,1.1c-1,0.6-1.8,1.5-2.6,2.4c-0.7,0.9-1.4,1.9-1.9,2.9
				c-1.1,2.1-2,4.2-2.7,6.5c-0.4,1.1-0.7,2.2-1,3.4c-0.3,1.1-0.6,2.3-0.8,3.4l-1.2-1.2c3.2-0.7,6.4-1.6,9.5-2.5
				c1.6-0.4,3.1-0.9,4.7-1.4c1.6-0.5,3.1-1.1,4.6-1.7c1.5-0.7,2.9-1.4,4.1-2.4c0.6-0.5,1.1-1.1,1.5-1.8c0.3-0.7,0.4-1.5,0.2-2.2
				c-0.2-0.8-0.8-1.4-1.3-2c-0.6-0.6-1.2-1.1-1.9-1.5C285.6,186.3,284.1,185.6,282.6,185z"/>
		</g>
		<g>
			<path class="st1" d="M246.4,206.1c3,0.1,6-0.1,8.8-0.7c1.4-0.3,2.9-0.6,4.2-1l2.1-0.7l2-0.8c0.7-0.2,1.3-0.6,2-0.9l1-0.5
				c0.3-0.2,0.6-0.4,1-0.5l1.9-1.1c0.6-0.4,1.2-0.8,1.8-1.2l0.9-0.6c0.3-0.2,0.6-0.5,0.9-0.7l1.8-1.3c1.2-0.9,2.3-1.9,3.5-2.8
				c-0.9,1.2-1.8,2.5-2.8,3.6c-1.1,1.1-2.1,2.2-3.3,3.1c-2.3,2-5,3.5-7.9,4.8c-2.8,1.2-5.9,1.9-8.9,2.2
				C252.4,207.2,249.3,207,246.4,206.1z"/>
		</g>
		<g>
			<path class="st1" d="M299.3,203.8c-1.6,1.7-3.6,3.2-5.6,4.4c-2,1.3-4.2,2.3-6.5,3.1c-2.3,0.8-4.7,1.4-7.1,1.5
				c-2.4,0.1-4.9-0.3-7.1-1.4c2.4,0.2,4.7,0.1,6.9-0.3c0.6-0.1,1.1-0.2,1.7-0.3c0.6-0.1,1.1-0.3,1.6-0.4c0.6-0.1,1.1-0.3,1.6-0.5
				c0.5-0.2,1.1-0.3,1.6-0.5l1.6-0.6c0.5-0.2,1.1-0.4,1.6-0.7c1.1-0.4,2.1-0.9,3.2-1.4C295.1,205.9,297.2,204.8,299.3,203.8z"/>
		</g>
		<g>
			<path class="st1" d="M307.7,197.5c0.9,1,1.9,2.1,2.3,3.4l0.1,0.5l0,0.5c0.1,0.4,0,0.7-0.1,1c-0.1,0.3-0.2,0.7-0.4,1
				c-0.2,0.3-0.4,0.6-0.6,0.8c-0.9,1.1-2.1,1.8-3.4,2.5c-1.2,0.7-2.5,1.2-3.8,1.6c-2.6,0.9-5.3,1.6-8,2.1c-2.7,0.5-5.5,0.8-8.2,1
				l-1.8,0.1l0.8-1.6c1.2-2.3,2.6-4.5,4.1-6.5c1.6-2,3.3-4,5.3-5.6c2-1.6,4.3-3.1,6.9-3.4c1.3-0.2,2.6,0,3.8,0.5
				C305.8,195.9,306.8,196.6,307.7,197.5z M307.7,197.5c-0.9-0.9-2-1.6-3.1-2.1c-1.2-0.5-2.5-0.6-3.7-0.3c-2.5,0.5-4.5,2.1-6.2,3.9
				c-1.7,1.8-3.2,3.8-4.5,5.9c-1.3,2.1-2.6,4.3-3.7,6.5l-1-1.5c2.7-0.2,5.4-0.4,8.1-0.8c2.7-0.3,5.4-0.7,8-1.3
				c1.3-0.3,2.6-0.7,3.9-1.2c1.2-0.5,2.5-1.1,3.4-2c0.3-0.2,0.4-0.5,0.6-0.8c0.2-0.3,0.3-0.6,0.4-0.9c0.1-0.3,0.2-0.6,0.1-1l0-0.5
				l-0.1-0.5C309.5,199.6,308.6,198.5,307.7,197.5z"/>
		</g>
		<g>
			<path class="st1" d="M256.9,208.2c1.8,1.2,3.4,2.7,4.7,4.4c1.4,1.7,2.5,3.6,3.4,5.6c0.9,2,1.4,4.2,1.6,6.4
				c0.2,2.2-0.1,4.4-0.8,6.5c-0.2-2.2-0.3-4.2-0.8-6.2c-0.1-0.5-0.3-1-0.4-1.5c-0.1-0.5-0.3-1-0.4-1.5l-0.5-1.4l-0.6-1.4
				c-0.8-1.9-1.8-3.7-2.8-5.5C259.2,211.7,258.1,210,256.9,208.2z"/>
		</g>
		<g>
			<path class="st1" d="M263.7,237.3c0.8,0.3,1.6,0.5,2.4,0.2c0.8-0.3,1.1-1.1,1.3-1.9c0.2-1.6,0-3.2-0.4-4.7
				c-0.4-1.6-0.8-3.1-1.3-4.6c-0.5-1.5-1-3.1-1.5-4.5l1.7,0.4c-1.1,1.1-2.1,2.3-3.1,3.6c-1,1.2-1.9,2.6-2.5,4
				c-0.6,1.4-0.9,3.1-0.2,4.5C260.8,235.7,262.2,236.7,263.7,237.3z M263.7,237.3c-0.7-0.3-1.5-0.6-2.2-1.1c-0.7-0.5-1.3-1-1.7-1.8
				c-0.9-1.5-0.9-3.3-0.6-5c0.4-1.7,1.1-3.3,2-4.7c0.9-1.5,1.9-2.8,3.1-4l1.2-1.2l0.5,1.6c0.5,1.6,0.9,3.2,1.3,4.8
				c0.3,1.6,0.5,3.3,0.6,4.9c0.1,1.6,0.1,3.3-0.3,4.9c-0.2,0.8-0.7,1.6-1.5,1.9C265.3,237.8,264.4,237.6,263.7,237.3z"/>
		</g>
		<g>
			<path class="st1" d="M286.8,214.5c2.1,1.6,3.9,3.7,5.4,5.9c1.5,2.2,2.6,4.7,3.5,7.3c0.4,1.3,0.7,2.6,0.9,4c0.1,0.7,0.1,1.4,0.2,2
				c0,0.3,0.1,0.7,0.1,1l0,1c0,2.7-0.7,5.4-1.6,7.9c0.1-2.7,0.3-5.2,0-7.8c-0.2-2.5-0.7-5.1-1.5-7.5c-0.7-2.4-1.7-4.8-2.9-7.1
				C289.6,218.9,288.3,216.7,286.8,214.5z"/>
		</g>
		<g>
			<path class="st1" d="M293,252c1.5,0.1,3,0.1,4.5-0.3c1.5-0.4,2.7-1.5,3.2-2.8c0.6-1.4,0.6-2.9,0.4-4.3c-0.2-1.5-0.5-2.9-1-4.3
				c-0.9-2.8-2.2-5.5-3.6-8.2c-0.7-1.3-1.4-2.6-2.2-3.9c-0.7-1.3-1.5-2.6-2.3-3.8l1.7,0.1c-1.8,2.3-3.5,4.8-5.1,7.3
				c-1.6,2.5-3,5.2-3.9,8c-0.4,1.4-0.8,2.9-0.8,4.3c0,1.5,0.3,3,1.1,4.2c0.8,1.2,2.1,2.1,3.5,2.7C290,251.5,291.5,251.8,293,252z
				 M293,252c-1.5-0.2-3-0.4-4.4-1c-1.4-0.5-2.8-1.4-3.7-2.6c-0.9-1.2-1.4-2.8-1.5-4.3c-0.1-1.6,0.1-3.1,0.4-4.6
				c0.7-3,1.9-5.9,3.3-8.6c1.4-2.7,3.1-5.3,5-7.7l0.9-1.2l0.8,1.3c1.6,2.6,3,5.3,4.3,8.1c1.2,2.8,2.3,5.7,3,8.7
				c0.4,1.5,0.6,3,0.7,4.6c0.1,1.5-0.1,3.1-0.8,4.5c-0.7,1.4-2,2.4-3.5,2.8C296.1,252.1,294.5,252.1,293,252z"/>
		</g>
		<g>
			<path class="st1" d="M308.5,219.6c2.5-0.8,5-1.4,7.5-1.9c2.6-0.4,5.2-0.8,7.8-0.7c1.3,0,2.7,0.1,4,0.4c1.3,0.3,2.7,0.8,3.9,1.7
				c1.2,0.9,2.1,2.3,2.4,3.8c0.3,1.5,0,2.9-0.3,4.3c-0.4,1.3-1,2.7-2,3.8c-1,1.1-2.6,1.8-4.1,1.9c-1.5,0.1-2.9-0.3-4.2-0.8
				c-1.3-0.5-2.5-1.1-3.6-1.9c-2.2-1.4-4.3-3.1-6.2-4.9C311.9,223.5,310.1,221.6,308.5,219.6z M308.5,219.6
				c3.9,3.4,7.9,6.7,12.3,9.2c1.1,0.6,2.2,1.1,3.4,1.5c1.1,0.4,2.3,0.6,3.4,0.5c1.1-0.1,2-0.5,2.7-1.3c0.7-0.8,1.2-1.9,1.5-3
				c0.3-1.1,0.5-2.3,0.3-3.4c-0.2-1.1-0.7-1.9-1.6-2.6c-0.8-0.7-2-1.1-3.1-1.5c-1.2-0.3-2.4-0.5-3.7-0.6
				C318.8,218.2,313.6,218.8,308.5,219.6z"/>
		</g>
		<g>
			<path class="st1" d="M110.8,237.3c8.6,6.4,16.9,13.1,25.2,19.9c8.3,6.8,16.4,13.8,24.4,20.9c8,7.1,15.8,14.5,23.5,22
				c7.6,7.5,15.1,15.2,22.3,23.2c7.1,8,14,16.3,20.2,25.1c3.1,4.4,6.1,8.9,8.8,13.5c2.7,4.7,5.1,9.5,7,14.6
				c1.9,5.1,3.2,10.4,3.3,15.9l0,2l-0.1,2l-0.2,4c-0.2,2.7-0.3,5.3-0.5,8c-0.4,5.3-0.9,10.7-1.5,16c-0.3,2.7-0.7,5.3-1.2,7.9
				c-0.3,1.3-0.6,2.6-1,3.9c-0.2,0.6-0.5,1.3-0.8,1.8c-0.2,0.3-0.4,0.6-0.7,0.7c-0.4,0.1-0.7-0.2-0.8-0.5c0.2,0.3,0.5,0.6,0.8,0.4
				c0.3-0.1,0.5-0.4,0.7-0.7c0.3-0.6,0.5-1.2,0.7-1.9c0.4-1.3,0.6-2.6,0.8-3.9c0.4-2.6,0.7-5.3,1-8c0.5-5.3,0.8-10.7,1.1-16l0.4-8
				l0.1-4l0.1-2l0-2c-0.2-5.2-1.6-10.4-3.5-15.3c-3.9-9.9-9.6-18.9-15.8-27.6c-6.2-8.6-13.1-16.9-20.2-24.8
				c-14.2-16-29.6-30.9-45.3-45.4c-7.9-7.3-15.9-14.4-24-21.3C127.3,250.9,119.1,244.1,110.8,237.3z"/>
		</g>
		<g>
			<path class="st1" d="M102.4,360.9c2.7-3.4,5.9-6.3,9.2-9.1c3.4-2.7,7-5.2,10.7-7.3c3.7-2.2,7.7-4,11.7-5.7c4-1.6,8-3.2,12-4.8
				c4-1.6,8-3.1,11.9-4.9c3.9-1.7,7.5-3.9,10.8-6.6c0.8-0.7,1.6-1.4,2.4-2.1c0.8-0.7,1.6-1.5,2.4-2.2c1.6-1.4,3.2-2.9,4.9-4.2
				c3.4-2.7,6.8-5.3,10.4-7.7c-3.3,2.7-6.6,5.5-9.7,8.5c-1.6,1.5-3.1,2.9-4.6,4.4l-2.3,2.3c-0.8,0.8-1.5,1.6-2.4,2.3
				c-0.8,0.7-1.7,1.4-2.5,2.1c-0.9,0.6-1.8,1.3-2.7,1.9c-1.9,1.2-3.8,2.2-5.7,3.2c-3.9,1.9-8,3.4-12,5l-12,4.6
				c-4,1.5-7.9,3.3-11.6,5.3c-3.8,2-7.4,4.2-10.9,6.7C108.8,355.1,105.5,357.8,102.4,360.9z"/>
		</g>
		<g>
			<path class="st1" d="M251.1,243.6c-1.6,0.3-3,1.1-4.3,2c-0.7,0.4-1.2,1-1.9,1.5c-0.6,0.6-1.1,1.1-1.7,1.7c-1,1.3-2,2.5-2.7,3.9
				c-0.9,1.3-1.4,2.8-2,4.3c-2.4,5.9-3.2,12.3-3.6,18.6c-0.8,12.7,0.9,25.5,2.1,38.2c1.1,12.8,2.5,25.5,3.9,38.3
				c1.3,12.8,2.9,25.5,3.8,38.3c-0.8-6.4-1.9-12.7-2.8-19c-0.9-6.4-1.8-12.7-2.6-19.1c-1.7-12.7-3-25.5-4.3-38.3
				c-0.6-6.4-1.1-12.8-1.6-19.2l-0.2-4.8l-0.1-2.4c0-0.8,0-1.6,0-2.4l0-4.8c0-0.8,0.1-1.6,0.1-2.4l0.2-2.4
				c0.6-6.4,1.6-12.9,4.3-18.9c0.7-1.5,1.4-3,2.3-4.3c0.8-1.4,1.9-2.7,2.9-3.9C245.1,246,247.9,244.1,251.1,243.6z"/>
		</g>
		<g>
			<path class="st1" d="M167.4,258.3c0.7,5.4,1,10.8,1.6,16.1l0.2,2l0.3,2c0.2,1.3,0.4,2.6,0.6,4c0.5,2.6,1,5.2,2.2,7.7
				c-1.9-2-3-4.7-3.7-7.3c-0.8-2.7-1.2-5.4-1.5-8.1c-0.3-2.7-0.4-5.5-0.3-8.2C166.6,263.7,166.8,261,167.4,258.3z"/>
		</g>
		<g>
			<path class="st1" d="M171.6,241.5c2.2-0.2,4.4-0.2,6.6,0.3c1.1,0.3,2.1,0.7,3,1.3c0.9,0.6,1.6,1.6,2.1,2.6c1,2.1,1,4.4,0.8,6.6
				c-0.3,2.2-0.9,4.4-1.6,6.5c-1.5,4.2-3.3,8.3-5.5,12.2c-1.1,1.9-2.2,3.9-3.4,5.7c-1.2,1.9-2.4,3.7-3.8,5.5l-1,1.3l-0.7-1.4
				c-1.9-3.6-3.4-7.3-4.7-11.1c-1.3-3.8-2.3-7.7-2.8-11.7c-0.2-2-0.4-4-0.2-6c0.1-2,0.6-4,1.5-5.8c0.9-1.8,2.3-3.3,4.1-4.3
				C167.6,242.2,169.6,241.7,171.6,241.5z M171.6,241.5c-2,0.2-3.9,0.7-5.7,1.7c-1.7,1-3.1,2.6-3.9,4.4c-0.8,1.8-1.1,3.8-1.1,5.7
				c0,2,0.2,3.9,0.6,5.9c0.7,3.9,2,7.6,3.5,11.3c1.5,3.7,3.1,7.3,4.9,10.7l-1.7-0.1c2.5-3.5,5-7.2,7.2-10.9
				c2.2-3.8,4.4-7.6,6.1-11.6c0.8-2,1.5-4.1,1.9-6.2c0.4-2.1,0.5-4.4-0.3-6.4c-0.4-1-1.1-1.9-2-2.5c-0.9-0.7-1.9-1.1-2.9-1.4
				C176,241.3,173.7,241.3,171.6,241.5z"/>
		</g>
		<g>
			<path class="st1" d="M144.3,245.7c0.2,4,0.2,7.9,0.5,11.7c0.1,1.9,0.4,3.8,0.8,5.6c0.5,1.8,1.1,3.6,2.4,5.1
				c-1.9-0.8-3.2-2.7-4-4.6c-0.8-1.9-1.2-4-1.3-6c-0.2-2-0.1-4.1,0.2-6C143.2,249.6,143.6,247.6,144.3,245.7z"/>
		</g>
		<g>
			<path class="st1" d="M144.3,231l1.1,0.1c0.3,0.1,0.7,0.2,1,0.3c0.7,0.3,1.3,0.6,1.8,1.2c1,1.1,1.5,2.5,1.7,3.9
				c0.5,2.8,0.3,5.7-0.1,8.6c-0.4,2.8-1,5.7-1.8,8.4c-0.8,2.8-1.6,5.5-2.7,8.2l-0.7,1.8l-1.1-1.6c-0.9-1.4-1.8-2.7-2.6-4.1
				c-0.8-1.4-1.6-2.8-2.3-4.3c-1.4-2.9-2.6-6-3.3-9.2c-0.4-1.6-0.6-3.2-0.6-4.9c0-1.6,0.3-3.3,1.1-4.7c0.8-1.4,2.3-2.4,3.8-2.9
				C141.1,231.2,142.7,231.1,144.3,231z M144.3,231c-1.6,0.1-3.2,0.2-4.7,0.8c-1.5,0.6-2.8,1.6-3.5,3c-0.7,1.4-0.8,3-0.7,4.6
				c0.1,1.6,0.5,3.1,1,4.6c1,3,2.4,5.8,3.9,8.6c0.8,1.4,1.6,2.8,2.4,4.1c0.8,1.3,1.7,2.7,2.5,4l-1.8,0.2c1.1-2.6,2.1-5.2,3-7.9
				c0.9-2.7,1.8-5.4,2.4-8.1c0.6-2.7,1.1-5.6,0.8-8.4c-0.2-1.4-0.5-2.8-1.5-3.9c-0.4-0.6-1.1-0.9-1.7-1.2c-0.3-0.1-0.7-0.2-1-0.3
				L144.3,231z"/>
		</g>
		<g>
			<path class="st1" d="M98.2,222.7c1.4-1.4,3-2.6,4.9-3.2c1.9-0.6,4-0.5,5.8,0.3c1.8,0.8,3.4,2.1,4.8,3.5c1.4,1.4,2.6,3,3.7,4.6
				c2.2,3.3,4.1,6.8,5.7,10.4c1.6,3.6,3,7.3,4.1,11.2l0.5,1.7l-1.7-0.4c-3.9-1-7.8-2.2-11.5-3.6c-3.7-1.5-7.4-3.2-10.8-5.3
				c-1.7-1-3.4-2.2-4.9-3.6c-1.5-1.4-2.8-2.9-3.7-4.8c-0.9-1.8-0.9-4-0.2-5.9C95.6,225.7,96.9,224.1,98.2,222.7z M98.2,222.7
				c-1.4,1.4-2.6,3.1-3.3,4.9c-0.7,1.9-0.5,4,0.4,5.7c0.9,1.8,2.3,3.2,3.8,4.4c1.5,1.2,3.2,2.3,5,3.2c3.5,1.8,7.2,3.2,10.9,4.5
				c3.7,1.2,7.6,2.4,11.4,3.3l-1.2,1.3c-0.5-1.8-1.1-3.7-1.8-5.5c-0.6-1.8-1.3-3.7-2-5.5c-1.4-3.6-3-7.2-4.9-10.5
				c-1-1.7-2.1-3.3-3.3-4.7c-1.3-1.4-2.7-2.8-4.5-3.6c-1.7-0.8-3.8-1.1-5.6-0.5C101.3,220.1,99.7,221.3,98.2,222.7z"/>
		</g>
		<g>
			<path class="st1" d="M87.8,254.1c4.2-0.6,8.5-0.8,12.8-0.9c4.3-0.1,8.5,0,12.8,0.2c2.1,0.2,4.3,0.3,6.4,0.6
				c2.1,0.3,4.3,0.6,6.4,1c2.1,0.4,4.2,1,6.2,1.7c2,0.7,4.1,1.6,5.7,3c-1.9-1-3.9-1.5-6-2c-2.1-0.5-4.1-0.8-6.2-1
				c-4.2-0.5-8.4-0.9-12.6-1.1C104.8,254.9,96.3,254.6,87.8,254.1z"/>
		</g>
		<g>
			<path class="st1" d="M73.1,254.1c0,1.6,0.4,3.2,1.6,4.3c1.1,1.1,2.7,1.6,4.2,1.8c3.1,0.4,6.3-0.2,9.3-0.8c3.1-0.7,6.1-1.7,9-2.8
				c2.9-1.1,5.9-2.2,8.7-3.5l-0.2,1.8c-1.4-0.9-2.9-1.9-4.4-2.8c-1.5-0.9-3-1.8-4.5-2.6c-3.1-1.6-6.2-3.2-9.5-4.3
				c-1.7-0.5-3.3-0.9-5.1-1.1c-1.7-0.1-3.5,0-5,0.8c-1.5,0.8-2.7,2.2-3.3,3.9C73.3,250.5,73.2,252.3,73.1,254.1z M73.1,254.1
				c0-1.8,0.2-3.5,0.8-5.2c0.6-1.7,1.7-3.2,3.2-4.1c1.6-0.9,3.4-1.2,5.2-1.2c1.8,0,3.6,0.3,5.3,0.7c3.5,0.8,6.9,2.1,10.1,3.7
				c1.6,0.8,3.2,1.6,4.7,2.5c1.6,0.9,3.1,1.8,4.5,2.9l1.5,1.1l-1.7,0.7c-3,1.3-6,2.3-9,3.2c-3.1,0.9-6.2,1.6-9.3,2.1
				c-3.2,0.5-6.4,0.7-9.6,0.2c-1.6-0.3-3.1-0.9-4.2-2C73.5,257.3,73.1,255.6,73.1,254.1z"/>
		</g>
		<g>
			<path class="st1" d="M104.5,277.1c2.4-3.1,5.3-5.8,8.4-8.1c3.1-2.3,6.6-4.3,10.4-5.7c1.9-0.7,3.8-1.2,5.8-1.5c2-0.3,4-0.3,6-0.1
				c2,0.2,3.9,0.8,5.8,1.5c1.8,0.8,3.5,1.9,5,3.1c-1.8-0.8-3.5-1.6-5.3-2.1c-1.8-0.5-3.7-0.8-5.6-0.9c-3.7-0.1-7.5,0.6-11,1.9
				c-1.8,0.6-3.5,1.4-5.2,2.3c-1.7,0.8-3.3,1.8-5,2.8C110.6,272.4,107.5,274.6,104.5,277.1z"/>
		</g>
		<g>
			<path class="st1" d="M94.1,287.6c0.7,1.9,1.6,3.9,3.5,5c0.9,0.5,2,0.6,3,0.5c1-0.2,2-0.6,2.9-1.1c1.8-1,3.4-2.4,4.8-3.9
				c1.5-1.5,2.8-3,4.1-4.6c2.6-3.2,4.9-6.6,7.2-10.1c1.1-1.7,2.2-3.5,3.3-5.3c1.1-1.8,2.2-3.5,3.2-5.3l0.7,1.5
				c-4.2-0.6-8.5-0.8-12.8-0.7c-4.2,0.2-8.5,0.7-12.5,2.3c-2,0.8-3.8,1.9-5.3,3.4c-1.5,1.5-2.6,3.4-3.1,5.5
				c-0.5,2.1-0.7,4.3-0.4,6.4c0.1,1.1,0.4,2.1,0.5,3.2C93.4,285.5,93.8,286.5,94.1,287.6z M94.1,287.6c-0.3-1-0.6-2.1-0.9-3.1
				c-0.2-1.1-0.5-2.1-0.6-3.2c-0.3-2.1-0.3-4.4,0.2-6.5c0.5-2.1,1.4-4.2,2.9-5.9c1.5-1.7,3.3-3,5.3-4c4-1.9,8.4-2.8,12.8-3.1
				c4.4-0.3,8.8-0.1,13.2,0.5l1.5,0.2l-0.8,1.3c-2.1,3.6-4.4,7.1-6.8,10.5c-2.5,3.4-5,6.7-7.8,9.8c-1.4,1.6-2.9,3.1-4.4,4.4
				c-1.6,1.4-3.2,2.7-5.1,3.6c-0.9,0.5-1.9,0.8-3,1c-1,0.2-2.1,0-3.1-0.6C95.7,291.6,94.7,289.5,94.1,287.6z"/>
		</g>
		<g>
			<path class="st1" d="M144.3,289.7c2.5-1.2,5.3-2,8-2.5c2.8-0.5,5.6-0.7,8.5-0.6c2.8,0.2,5.7,0.7,8.4,1.8c1.3,0.6,2.6,1.3,3.7,2.1
				c1.1,0.9,2.1,1.9,3,3.1c-1.1-0.8-2.3-1.6-3.5-2.2c-1.2-0.6-2.5-1.1-3.7-1.5c-1.3-0.4-2.6-0.7-3.9-0.9c-1.3-0.2-2.7-0.4-4-0.4
				c-2.7-0.2-5.4-0.1-8.1,0.1C149.8,289,147.1,289.3,144.3,289.7z"/>
		</g>
		<g>
			<path class="st1" d="M129.7,289.7l0.1,1.2c0.1,0.4,0.2,0.8,0.3,1.2c0.2,0.4,0.3,0.7,0.6,1.1c0.3,0.3,0.5,0.7,0.8,0.9
				c1.2,1,2.9,1.4,4.5,1.5c3.2,0.1,6.4-0.7,9.5-1.6c3.1-0.9,6.1-2.1,9.1-3.3c3-1.2,5.9-2.6,8.8-4l-0.1,1.8c-3-1.8-6.2-3.4-9.3-4.9
				c-3.2-1.4-6.5-2.8-9.9-3.6c-1.7-0.4-3.4-0.7-5.2-0.7c-1.7,0-3.5,0.3-5,1.2c-1.5,0.9-2.6,2.4-3.3,4
				C129.9,286.1,129.7,287.9,129.7,289.7z M129.7,289.7c0-1.8,0.2-3.6,0.8-5.3c0.6-1.7,1.6-3.3,3.2-4.2c1.5-1,3.4-1.5,5.2-1.6
				c1.8-0.1,3.6,0,5.4,0.3c1.8,0.3,3.6,0.7,5.3,1.2c1.7,0.5,3.4,1.1,5.1,1.8c1.7,0.7,3.3,1.4,4.9,2.2c1.6,0.8,3.2,1.6,4.8,2.6l1.6,1
				l-1.7,0.8c-3,1.4-6,2.6-9.1,3.7c-3.1,1.1-6.2,2-9.4,2.7c-3.2,0.7-6.5,1.2-9.8,0.9c-1.6-0.2-3.3-0.6-4.5-1.7
				c-0.3-0.2-0.6-0.6-0.8-0.9c-0.2-0.3-0.4-0.7-0.6-1.1c-0.1-0.4-0.2-0.8-0.3-1.2L129.7,289.7z"/>
		</g>
		<g>
			<path class="st1" d="M89.9,369.3c1.3,1.2,2.6,2.3,4.2,3c1.6,0.7,3.4,1,5.1,0.6c1.7-0.3,3.2-1.2,4.5-2.3c1.3-1.1,2.5-2.4,3.5-3.7
				c2.1-2.8,3.7-5.8,5.1-9c0.7-1.6,1.4-3.2,2-4.8c0.6-1.6,1.2-3.2,1.8-4.8l1.1,1.3c-3.4,0.5-6.9,1.2-10.3,1.9
				c-3.4,0.8-6.8,1.6-10.1,2.8c-1.6,0.6-3.2,1.3-4.8,2.2c-1.5,0.9-3,1.9-4,3.3c-1.1,1.4-1.5,3.2-1,4.9
				C87.5,366.6,88.7,368,89.9,369.3z M89.9,369.3c-1.2-1.3-2.4-2.7-2.9-4.4l-0.2-0.6c0-0.2,0-0.4-0.1-0.7c0-0.2-0.1-0.4,0-0.7
				l0.1-0.7c0-0.5,0.3-0.9,0.4-1.3c0.2-0.4,0.4-0.8,0.6-1.2c1-1.5,2.4-2.7,3.9-3.7c1.5-1,3.1-1.8,4.7-2.6c3.3-1.5,6.6-2.7,10.1-3.6
				c3.4-1,6.9-1.7,10.4-2.2l1.7-0.3l-0.5,1.6c-1.1,3.4-2.5,6.6-4.2,9.8c-1.7,3.1-3.6,6.1-5.9,8.8c-1.2,1.3-2.5,2.6-3.9,3.6
				c-1.5,1-3.1,1.8-4.9,2c-1.8,0.3-3.6-0.1-5.1-0.9C92.5,371.6,91.1,370.5,89.9,369.3z"/>
		</g>
		<g>
			<path class="st1" d="M135.9,356.7c-0.1-2.1,0-4.1,0.3-6.2c0.3-2,0.8-4.1,1.4-6c0.7-2,1.5-3.9,2.8-5.6c0.6-0.9,1.3-1.7,2.2-2.4
				c0.9-0.6,1.9-1.2,2.9-1.2c-1.9,1-2.8,2.7-3.7,4.4c-0.9,1.7-1.5,3.6-2.2,5.5C138.4,348.9,137.4,352.8,135.9,356.7z"/>
		</g>
		<g>
			<path class="st1" d="M131.8,371.4c1.4,0.7,3,1.2,4.6,0.8c1.6-0.4,2.7-1.7,3.3-3.1c0.7-1.4,1-3,1.3-4.5c0.2-1.6,0.3-3.1,0.4-4.7
				c0.1-3.2-0.1-6.3-0.4-9.5c-0.3-3.1-0.6-6.3-1.1-9.4l1.7,0.6c-1.2,1-2.3,2.1-3.4,3.2c-1.1,1.1-2.2,2.2-3.3,3.4
				c-2.1,2.3-4.1,4.7-5.8,7.4c-0.8,1.3-1.5,2.7-2,4.2c-0.5,1.5-0.9,3-0.7,4.6c0.1,1.6,0.7,3.1,1.7,4.3
				C129,369.7,130.4,370.6,131.8,371.4z M131.8,371.4c-1.4-0.7-2.7-1.6-3.8-2.8c-1.1-1.2-1.8-2.7-2-4.3c-0.2-1.6,0-3.2,0.4-4.8
				c0.4-1.6,1-3.1,1.8-4.5c1.5-2.9,3.3-5.5,5.3-8c2-2.5,4.2-4.8,6.7-7l1.4-1.3l0.3,1.9c0.5,3.2,0.7,6.4,0.8,9.6
				c0.1,3.2,0,6.4-0.3,9.7c-0.3,3.2-0.9,6.5-2.4,9.3c-0.8,1.4-2,2.7-3.6,3.1C134.8,372.6,133.2,372.1,131.8,371.4z"/>
		</g>
		<g>
			<path class="st1" d="M161.1,348.3c-0.7-2-1-4-1.2-6c-0.2-2-0.2-4.1,0.1-6.2c0.3-2.1,0.8-4.1,1.7-6c0.9-1.9,2.4-3.7,4.4-4.4
				c-1.5,1.4-2.3,3.2-2.9,5c-0.6,1.8-0.9,3.7-1.2,5.7C161.6,340.3,161.4,344.2,161.1,348.3z"/>
		</g>
		<g>
			<path class="st1" d="M161.1,365.1l1.2,0.2c0.4,0,0.8,0,1.2,0c0.8-0.1,1.6-0.4,2.2-1c0.3-0.2,0.5-0.6,0.8-0.9
				c0.2-0.4,0.4-0.7,0.5-1.1c0.3-0.8,0.4-1.5,0.5-2.3c0.2-1.6,0.1-3.2-0.1-4.8c-0.2-1.6-0.4-3.2-0.8-4.8c-0.7-3.1-1.5-6.3-2.5-9.3
				c-0.9-3.1-1.9-6.1-3-9.2l1.8,0.3c-2.2,2.6-4.2,5.4-6,8.2c-1.8,2.9-3.5,5.9-4.5,9.1c-0.5,1.6-0.8,3.3-0.8,5c0,1.7,0.4,3.4,1.2,4.9
				c0.9,1.5,2.2,2.7,3.6,3.6C157.8,364,159.4,364.5,161.1,365.1z M161.1,365.1c-1.7-0.5-3.3-1-4.8-1.9c-1.5-0.9-2.9-2-3.8-3.5
				c-1-1.5-1.5-3.2-1.7-5c-0.1-1.8,0.1-3.6,0.4-5.3c0.8-3.5,2.2-6.7,4-9.8c1.7-3.1,3.8-5.9,6.1-8.6l1.2-1.4l0.6,1.7
				c1.1,3.1,2,6.2,2.7,9.4c0.7,3.2,1.4,6.4,1.8,9.6c0.4,3.2,0.7,6.5,0.2,9.8c-0.3,1.6-0.7,3.3-2,4.4c-0.6,0.6-1.4,0.8-2.2,0.9
				c-0.4,0-0.8,0-1.2,0L161.1,365.1z"/>
		</g>
		<g>
			<path class="st1" d="M87.8,339.9c6.7,1,13.3,2.2,20,2.9c3.3,0.4,6.7,0.7,10,0.8c3.3,0.1,6.7,0,10-0.8c-3,1.7-6.5,2.2-9.9,2.4
				c-1.7,0.2-3.4,0.1-5.1,0.1c-1.7-0.1-3.4-0.2-5.1-0.4c-3.4-0.4-6.7-1-10-1.9C94.2,342.3,90.9,341.3,87.8,339.9z"/>
		</g>
		<g>
			<path class="st1" d="M71,335.8c0.5-1.6,1.1-3.2,2.1-4.6c0.9-1.4,2.3-2.6,3.9-3.2c1.6-0.6,3.4-0.6,5.1-0.2c1.7,0.4,3.3,1,4.8,1.8
				c3.1,1.5,5.9,3.5,8.5,5.7c2.6,2.2,5,4.6,7.3,7.2l1,1.2l-1.4,0.5c-3.3,1.1-6.5,2-9.9,2.7c-3.4,0.7-6.8,1.1-10.2,1.1
				c-1.7,0-3.4-0.1-5.1-0.5c-1.7-0.4-3.4-1-4.7-2.2c-0.3-0.3-0.6-0.6-0.9-0.9c-0.2-0.4-0.4-0.7-0.6-1.1c-0.1-0.4-0.3-0.8-0.4-1.2
				l-0.2-1.3C70.2,339.1,70.6,337.4,71,335.8z M71,335.8c-0.4,1.6-0.8,3.3-0.6,5c0.1,1.7,0.9,3.3,2.2,4.3c1.3,1,3,1.5,4.6,1.7
				c1.6,0.2,3.3,0.2,5,0.1c3.3-0.3,6.6-1,9.8-1.8c3.2-0.9,6.5-1.8,9.6-2.9l-0.4,1.7c-1.1-1.2-2.2-2.5-3.4-3.7
				c-1.2-1.2-2.3-2.4-3.5-3.5c-2.4-2.3-5-4.4-7.8-6.1c-1.4-0.8-2.9-1.6-4.5-2c-1.6-0.4-3.3-0.6-4.9-0.1c-1.6,0.5-2.9,1.6-3.9,2.9
				C72.1,332.6,71.6,334.2,71,335.8z"/>
		</g>
		<g>
			<path class="st1" d="M102.4,321.1c2.4,2.2,4.7,4.3,7.1,6.4c2.4,2.1,4.8,4.1,7.3,6c1.2,1,2.5,1.8,3.9,2.7c1.3,0.9,2.7,1.6,4.1,2.2
				c2.8,1.3,5.8,2.2,9,1.6c-1.4,0.7-3.1,1-4.8,0.9c-1.7-0.1-3.3-0.4-4.9-1c-3.1-1.1-5.9-2.8-8.6-4.7c-2.6-2-5-4.1-7.2-6.5
				C106.2,326.3,104.2,323.8,102.4,321.1z"/>
		</g>
		<g>
			<path class="st1" d="M94.1,314.8c0.8-1.8,1.8-3.6,3.4-4.9c0.8-0.6,1.7-1.1,2.7-1.3c1-0.2,2.1,0,3,0.4c1.9,0.7,3.6,2,5.1,3.3
				c1.5,1.4,2.8,2.9,4.1,4.5c2.5,3.2,4.8,6.6,6.8,10.1c1,1.8,2,3.5,2.9,5.3c0.9,1.8,1.8,3.6,2.6,5.5l0.7,1.7l-1.8-0.2
				c-3.7-0.5-7.3-1.3-10.8-2.4c-3.5-1.1-7-2.4-10.2-4.2c-3.2-1.8-6.3-4-8.2-7.2c-0.9-1.6-1.4-3.4-1.4-5.2
				C92.8,318.3,93.3,316.5,94.1,314.8z M94.1,314.8c-0.7,1.7-1.2,3.5-1.2,5.3c0,1.8,0.6,3.6,1.6,5.1c1,1.5,2.3,2.8,3.8,3.8
				c1.5,1.1,3,1.9,4.7,2.7c3.3,1.5,6.7,2.6,10.2,3.4c3.5,0.8,7.1,1.5,10.6,2l-1.1,1.4c-1.6-3.6-3.4-7.2-5.2-10.7
				c-1.9-3.5-3.8-7-6-10.3c-1.1-1.6-2.3-3.2-3.7-4.7c-1.4-1.4-2.9-2.8-4.7-3.6c-0.9-0.4-1.9-0.6-2.9-0.5c-1,0.1-1.9,0.5-2.7,1.2
				C95.9,311.2,94.9,313,94.1,314.8z"/>
		</g>
		<g>
			<path class="st1" d="M142.2,316.9c2.5,1.5,5,2.8,7.6,3.8c2.6,1,5.3,1.8,8,2.2c1.4,0.2,2.7,0.2,4.1,0.2c1.4-0.1,2.7-0.3,4.1-0.6
				c2.7-0.7,5.2-1.9,7.7-3.4c-1.9,2.2-4.4,4-7.2,5c-2.8,1.1-5.9,1.3-8.9,1c-3-0.4-5.8-1.4-8.4-2.8
				C146.6,320.8,144.2,319.1,142.2,316.9z"/>
		</g>
		<g>
			<path class="st1" d="M131.8,312.7c1-1.1,2.2-2,3.6-2.4c1.4-0.4,2.9-0.5,4.3-0.3c2.9,0.4,5.7,1.5,8.3,2.9c2.6,1.4,5.1,3,7.4,4.7
				c1.2,0.9,2.3,1.8,3.4,2.7c1.1,1,2.2,1.9,3.3,3l1.4,1.5l-2.1,0.3c-3.5,0.4-7,0.7-10.5,0.7c-3.5,0.1-7.1-0.1-10.6-0.6
				c-1.8-0.2-3.5-0.5-5.2-1c-1.7-0.5-3.4-1.1-4.8-2.3c-0.7-0.6-1.3-1.3-1.5-2.2c-0.3-0.9-0.1-1.8,0.1-2.6
				C129.5,315.4,130.6,314,131.8,312.7z M131.8,312.7c-1.1,1.3-2.2,2.8-2.7,4.4c-0.2,0.8-0.3,1.7,0,2.5c0.3,0.8,0.9,1.5,1.5,2
				c1.4,1,3.1,1.4,4.8,1.8c1.7,0.3,3.4,0.5,5.1,0.6c3.5,0.2,6.9,0,10.4-0.2c3.5-0.2,6.9-0.5,10.4-0.8l-0.6,1.7c-2-2-4.1-4-6.3-5.9
				c-2.2-1.9-4.4-3.7-6.9-5.2c-2.4-1.5-5-2.9-7.9-3.4c-1.4-0.2-2.9-0.3-4.3,0.1C134,310.8,132.7,311.6,131.8,312.7z"/>
		</g>
		<g>
			<path class="st1" d="M68.9,199.6c5-7.1,11-13.5,17.6-19.2c3.3-2.9,6.8-5.5,10.5-7.9c3.7-2.4,7.5-4.5,11.5-6.4
				c4-1.9,8.1-3.3,12.4-4.5c4.2-1.1,8.6-1.9,13-2.1c8.8-0.6,17.6,1,25.7,4c-4.2-1-8.4-2.1-12.7-2.4l-1.6-0.2l-1.6-0.1
				c-1.1,0-2.1-0.1-3.2-0.1l-3.2,0.1c-1.1,0-2.1,0.2-3.2,0.2c-1.1,0.1-2.1,0.2-3.2,0.4c-1.1,0.2-2.1,0.3-3.2,0.5l-3.1,0.7
				c-1,0.2-2.1,0.6-3.1,0.8c-4.1,1.2-8.2,2.6-12,4.5c-7.8,3.6-15.1,8.3-21.8,13.7c-3.4,2.7-6.6,5.5-9.7,8.5
				C74.7,193.2,71.7,196.3,68.9,199.6z"/>
		</g>
		<g>
			<path class="st1" d="M62.6,210.1c1.2,0.7,2.4,1.3,3.8,1.5c1.4,0.2,2.8,0,3.9-0.7c1.2-0.7,2.1-1.7,2.8-2.9
				c0.7-1.1,1.3-2.4,1.7-3.6c0.9-2.5,1.5-5.2,1.9-7.9c0.4-2.7,0.7-5.4,0.9-8l1.4,1c-2.7,1-5.4,2.1-8.1,3.2c-2.6,1.2-5.3,2.4-7.7,4.1
				c-1.2,0.8-2.3,1.7-3.3,2.7c-1,1-1.8,2.3-2,3.7c-0.2,1.4,0.4,2.9,1.2,4C60.2,208.4,61.4,209.3,62.6,210.1z M62.6,210.1
				c-1.2-0.8-2.5-1.6-3.4-2.8c-0.9-1.1-1.6-2.6-1.5-4.1c0.1-1.5,0.9-2.9,1.8-4.1c0.9-1.2,2-2.2,3.2-3.2c2.3-1.9,4.9-3.5,7.5-4.8
				c2.6-1.4,5.4-2.5,8.2-3.5l1.5-0.5l-0.1,1.6c-0.2,2.8-0.7,5.5-1.3,8.3c-0.7,2.7-1.5,5.4-2.7,7.9c-0.6,1.3-1.3,2.5-2.2,3.6
				c-0.9,1.1-1.9,2.1-3.2,2.7c-1.2,0.7-2.7,0.8-4.1,0.6C65.1,211.4,63.8,210.8,62.6,210.1z"/>
		</g>
		<g>
			<path class="st1" d="M92,201.7c-0.8-2.4-1.1-4.9-1.3-7.5c-0.2-2.5-0.1-5.1,0.3-7.6c0.4-2.5,1-5.1,2.1-7.4c1.1-2.3,2.7-4.5,4.7-6
				c-1.4,2.1-2.4,4.3-3.2,6.6c-0.2,0.6-0.3,1.2-0.5,1.7c-0.2,0.6-0.3,1.2-0.4,1.8c-0.2,0.6-0.3,1.2-0.4,1.8
				c-0.1,0.6-0.2,1.2-0.3,1.8l-0.3,1.8c-0.1,0.6-0.1,1.2-0.2,1.8c-0.1,1.2-0.2,2.5-0.3,3.7C92.1,196.7,92,199.2,92,201.7z"/>
		</g>
		<g>
			<path class="st1" d="M94.1,212.2c1.5,0.1,3.1,0,4.5-0.8c0.4-0.1,0.6-0.5,0.9-0.7c0.3-0.3,0.5-0.6,0.7-0.9
				c0.4-0.7,0.6-1.4,0.7-2.1c0.5-3-0.3-6.1-1.2-8.9c-0.9-2.9-2.1-5.7-3.4-8.5c-1.3-2.8-2.7-5.5-4.1-8.2l1.7,0.1
				c-1.9,2.6-3.7,5.3-5.3,8.1c-1.6,2.8-3.1,5.7-4,8.8c-0.4,1.5-0.7,3.1-0.7,4.7c0.1,1.6,0.5,3.2,1.4,4.5c1,1.3,2.4,2.2,3.9,2.8
				C90.8,211.7,92.4,212,94.1,212.2z M94.1,212.2c-1.6-0.2-3.3-0.4-4.8-1c-1.5-0.6-3-1.4-4.1-2.7c-1.1-1.3-1.7-2.9-1.9-4.6
				c-0.2-1.7,0-3.4,0.3-5c0.7-3.3,1.9-6.4,3.4-9.4c1.5-3,3.3-5.8,5.3-8.5l1-1.3l0.8,1.4c1.5,2.8,2.7,5.6,3.9,8.5
				c1.1,2.9,2.1,5.9,2.8,8.9c0.7,3,1.2,6.2,0.5,9.3c-0.2,0.8-0.5,1.5-0.9,2.2c-0.2,0.3-0.5,0.6-0.8,0.9c-0.3,0.2-0.6,0.5-0.9,0.7
				C97.2,212.2,95.6,212.3,94.1,212.2z"/>
		</g>
		<g>
			<path class="st1" d="M117.1,182.9c0.1-2.5,0.5-5,1.3-7.4c0.7-2.4,1.7-4.8,3-7c1.3-2.2,3-4.2,5.1-5.8c1-0.8,2.2-1.4,3.4-1.9
				c1.2-0.4,2.5-0.7,3.7-0.7c-2.4,0.9-4.4,2.2-6.1,3.9c-0.8,0.8-1.6,1.7-2.3,2.7c-0.7,0.9-1.4,1.9-2,3c-1.3,2-2.3,4.2-3.3,6.5
				C118.9,178.2,118,180.5,117.1,182.9z"/>
		</g>
		<g>
			<path class="st1" d="M110.8,191.2c1.3,0.5,2.8,0.6,4.1,0.2c1.3-0.4,2.4-1.4,3.3-2.5c0.9-1.1,1.5-2.4,2.1-3.6c0.6-1.3,1-2.6,1.4-4
				c0.8-2.7,1.3-5.5,1.7-8.2c0.4-2.8,0.7-5.6,0.9-8.3l1.6,0.9c-2.5,1.7-5,3.5-7.5,5.3c-2.4,1.9-4.9,3.7-7,5.9
				c-2.1,2.1-4.3,4.5-5.2,7.4c-0.4,1.5-0.2,3.1,0.8,4.3C108,189.9,109.4,190.7,110.8,191.2z M110.8,191.2c-1.4-0.6-2.9-1.3-3.9-2.5
				c-1-1.2-1.4-2.9-1-4.4c0.3-1.6,1-3,1.8-4.3c0.8-1.3,1.8-2.6,2.8-3.8c2.1-2.4,4.3-4.6,6.7-6.6c1.2-1,2.4-2,3.7-2.9
				c1.3-0.9,2.5-1.8,3.9-2.7l1.8-1.1l-0.2,2c-0.2,2.9-0.7,5.7-1.3,8.5c-0.6,2.8-1.4,5.5-2.4,8.2c-1,2.7-2.3,5.3-4.2,7.4
				c-0.9,1.1-2.1,2-3.5,2.4C113.6,191.9,112.1,191.7,110.8,191.2z"/>
		</g>
		<g>
			<path class="st1" d="M71,178.7c4.4-0.3,8.7-0.6,13-1.1c2.1-0.3,4.2-0.7,6.3-1.1c2.1-0.5,4.1-1.2,6.2-1.9
				c-1.7,1.5-3.7,2.6-5.8,3.5c-2.1,0.8-4.3,1.3-6.5,1.6c-2.2,0.3-4.5,0.4-6.7,0.2C75.4,179.7,73.2,179.4,71,178.7z"/>
		</g>
		<g>
			<path class="st1" d="M54.3,180.8c0-1.5,0.2-2.9,0.9-4.3c0.6-1.3,1.7-2.4,3.1-3.1c2.7-1.3,5.8-1.3,8.8-1.1c3,0.3,5.9,1,8.7,1.8
				c2.8,0.9,5.6,1.9,8.3,3.2l1.8,0.9l-1.7,1c-2.6,1.4-5.2,2.7-7.8,3.9c-2.7,1.1-5.5,2.1-8.3,2.8c-2.8,0.7-5.8,1.3-8.7,0.9
				c-1.4-0.2-2.9-0.8-3.8-1.9C54.5,183.7,54.3,182.2,54.3,180.8z M54.3,180.8c0,1.4,0.3,2.9,1.3,4c0.9,1.1,2.4,1.5,3.8,1.7
				c2.9,0.2,5.7-0.7,8.3-1.6c2.7-1,5.3-2.2,7.8-3.5c1.3-0.6,2.5-1.3,3.8-2c1.3-0.7,2.5-1.4,3.7-2.1l0.1,1.8c-2.6-1.2-5.3-2.4-8-3.4
				c-2.7-1-5.5-1.9-8.3-2.5c-1.4-0.3-2.9-0.5-4.3-0.5c-1.4,0-2.9,0.2-4.2,0.7c-1.3,0.6-2.5,1.6-3.1,2.9
				C54.5,177.8,54.3,179.3,54.3,180.8z"/>
		</g>
		<g>
			<path class="st1" d="M89.9,161.9c1.4,0.8,2.8,1.6,4.1,2.3c1.4,0.7,2.7,1.3,4.1,1.8c1.4,0.5,2.8,0.9,4.3,1.2
				c1.5,0.3,3,0.4,4.6,0.7c-1.5,0.6-3.1,1-4.8,1c-1.7,0-3.3-0.3-4.9-0.9c-1.6-0.6-3-1.4-4.3-2.4C91.8,164.6,90.7,163.4,89.9,161.9z"
				/>
		</g>
		<g>
			<path class="st1" d="M81.5,155.6c0.7-0.7,1.8-1.1,2.8-1c1,0.1,2,0.4,2.9,0.9c1.8,0.9,3.6,2.1,5.2,3.4c1.6,1.3,3.1,2.7,4.6,4.1
				c1.5,1.4,2.8,3,4.2,4.6l1.2,1.5l-1.9,0.1c-1.4,0.1-2.8,0.1-4.1,0.2c-1.4,0-2.8-0.1-4.1-0.2c-2.7-0.2-5.5-0.6-8.2-1.4
				c-1.3-0.4-2.6-0.9-3.8-1.7c-0.3-0.2-0.6-0.4-0.9-0.6c-0.3-0.2-0.5-0.5-0.8-0.8c-0.4-0.6-0.8-1.2-0.8-2c-0.2-1.4,0.5-2.8,1.2-3.9
				C79.6,157.6,80.5,156.6,81.5,155.6z M81.5,155.6c-0.9,1-1.9,2-2.5,3.2c-0.7,1.1-1.2,2.5-0.9,3.8c0.1,0.6,0.5,1.2,0.9,1.7
				c0.2,0.2,0.5,0.4,0.7,0.6c0.3,0.2,0.5,0.4,0.8,0.5c1.2,0.6,2.5,0.9,3.8,1.2c2.6,0.5,5.3,0.6,8,0.7c1.3,0.1,2.7,0.1,4,0.1
				c1.3,0,2.7,0,4-0.1l-0.7,1.6c-1.2-1.6-2.4-3.2-3.7-4.8c-1.3-1.6-2.6-3.1-4-4.5c-1.4-1.4-2.9-2.8-4.7-3.8c-0.9-0.5-1.8-0.9-2.8-1
				C83.3,154.6,82.2,154.9,81.5,155.6z"/>
		</g>
		<g>
			<path class="st1" d="M108.7,153.5l3.3,3c1.1,0.9,2.2,1.9,3.4,2.6c1.2,0.8,2.4,1.4,3.7,1.9c1.3,0.5,2.7,0.7,4.3,0.8
				c-1.4,0.7-3,1-4.6,0.8c-1.6-0.2-3.1-0.9-4.5-1.8c-1.3-0.9-2.4-2-3.4-3.3C109.9,156.4,109.1,155.1,108.7,153.5z"/>
		</g>
		<g>
			<path class="st1" d="M102.4,143.1c0.2-0.5,0.4-1.1,0.9-1.4c0.4-0.4,1.1-0.4,1.6-0.2c1.1,0.5,1.9,1.3,2.7,2.1
				c1.5,1.7,2.9,3.6,4.1,5.5c1.2,1.9,2.4,3.9,3.5,5.9c1.1,2,2.2,4,3.2,6.1l0.4,0.9l-1,0.4c-2.9,1.2-5.8,1.9-8.9,2
				c-1.6,0-3.2-0.2-4.7-0.8c-1.5-0.6-2.9-1.7-3.6-3.2c-0.8-1.4-1.1-3-1.1-4.5c0-1.5,0.1-3,0.4-4.5c0.1-0.7,0.3-1.5,0.5-2.2
				c0.2-0.7,0.4-1.4,0.6-2.1C101.5,145.8,102,144.5,102.4,143.1z M102.4,143.1c-0.5,1.4-0.9,2.8-1.3,4.2c-0.2,0.7-0.3,1.4-0.5,2.2
				c-0.2,0.7-0.3,1.4-0.3,2.2c-0.2,1.5-0.2,2.9,0,4.3c0.2,1.4,0.6,2.8,1.4,3.9c0.8,1.1,1.9,1.9,3.1,2.2c1.3,0.4,2.6,0.5,4,0.4
				c1.4-0.1,2.8-0.3,4.2-0.7c1.4-0.3,2.8-0.7,4-1.2l-0.5,1.3c-0.9-2.1-1.8-4.2-2.7-6.2c-0.9-2.1-1.9-4.1-2.9-6.1
				c-1.1-2-2.1-4-3.5-5.8c-0.7-0.9-1.5-1.8-2.5-2.2c-0.5-0.2-1.1-0.2-1.6,0.1C102.9,142,102.6,142.5,102.4,143.1z"/>
		</g>
		<g>
			<path class="st1" d="M249,300.2c-2,0.3-3.9,1-5.4,2.1c-1.6,1-2.8,2.4-3.8,4c-1,1.6-1.6,3.4-2.2,5.3c-0.2,1-0.5,1.9-0.7,2.9
				c-0.2,1-0.4,2-0.6,3c-0.2-1-0.3-2-0.4-3.1c0-1,0-2.1,0.1-3.1c0.3-2.1,0.8-4.2,2-6c1.1-1.9,2.8-3.4,4.8-4.3
				C244.8,299.9,247,299.6,249,300.2z"/>
		</g>
		<g>
			<path class="st1" d="M257.4,291.8c1,1,2,2.1,2.6,3.3c0.7,1.2,1,2.7,0.6,4.2c-0.4,1.4-1.4,2.6-2.5,3.5c-1.1,0.9-2.4,1.7-3.7,2.3
				c-2.6,1.2-5.4,2.2-8.1,2.8c-1.4,0.3-2.8,0.6-4.2,0.9c-1.4,0.2-2.8,0.4-4.3,0.5l-1.6,0.1l0.5-1.5c0.9-2.5,2-4.8,3.2-7.1
				c1.3-2.3,2.7-4.5,4.4-6.5c1.7-2,3.6-3.9,6.1-4.7c1.2-0.4,2.6-0.4,3.8,0.1C255.5,290.1,256.5,290.9,257.4,291.8z M257.4,291.8
				c-0.9-0.9-2-1.7-3.2-2.1c-1.2-0.4-2.5-0.3-3.7,0.1c-2.4,1-4.1,3-5.5,5c-1.4,2.1-2.5,4.4-3.6,6.7c-1,2.3-2,4.7-2.8,7l-1.1-1.4
				c2.7-0.3,5.5-0.7,8.3-1.2c2.7-0.5,5.5-1.1,8.1-2c1.3-0.5,2.6-1,3.7-1.8c1.1-0.8,2.2-1.7,2.7-3c0.5-1.3,0.2-2.8-0.4-4
				C259.3,293.9,258.4,292.8,257.4,291.8z"/>
		</g>
		<g>
			<path class="st1" d="M215.5,302.2c2.6,0.2,5.2,1,7.7,2.2c2.4,1.1,4.7,2.7,6.7,4.5c1,0.9,1.9,2,2.7,3c0.4,0.5,0.8,1.1,1.1,1.7
				c0.2,0.3,0.4,0.6,0.5,0.9l0.4,0.9c1.3,2.4,1.9,5.1,2.1,7.7c-1.1-2.4-2.1-4.8-3.6-6.9c-1.4-2.1-3-4.1-4.9-5.7
				c-1.8-1.7-3.9-3.2-6-4.6C220.2,304.5,218,303.3,215.5,302.2z"/>
		</g>
		<g>
			<path class="st1" d="M217.6,277.1c2,0.9,3.8,2,5.6,3.3c1.7,1.3,3.3,2.7,4.8,4.3c1.5,1.6,2.8,3.3,3.9,5.2c1.1,1.9,2,3.9,2.4,6
				c-1.2-1.8-2.4-3.5-3.7-5.1c-1.3-1.6-2.7-3.2-4.1-4.7C223.7,283.1,220.6,280.2,217.6,277.1z"/>
		</g>
		<g>
			<path class="st1" d="M228.1,249.9c1.1,2.1,2,4.3,2.8,6.5c0.8,2.2,1.4,4.5,2,6.7c0.5,2.3,1,4.6,1.2,6.9c0.2,2.3,0.3,4.7,0,7.1
				l-3.2-13.5c-0.5-2.3-1-4.5-1.5-6.8C228.8,254.5,228.4,252.2,228.1,249.9z"/>
		</g>
		<g>
			<path class="st1" d="M203,296c1-1.1,2.2-2,3.6-2.5c1.4-0.5,2.9-0.5,4.4-0.1c2.9,0.7,5.6,2.2,7.9,4c2.4,1.8,4.6,3.8,6.6,6
				c2,2.2,3.9,4.4,5.7,6.9l1.1,1.6l-2,0c-1.7,0-3.3-0.1-4.9-0.2c-1.6-0.1-3.3-0.3-4.9-0.5c-3.3-0.4-6.5-1.1-9.7-2
				c-1.6-0.5-3.2-1-4.7-1.7c-1.5-0.7-3-1.5-4.1-2.8c-0.3-0.3-0.5-0.6-0.8-1c-0.2-0.4-0.4-0.7-0.5-1.1c-0.1-0.4-0.2-0.8-0.2-1.2
				l0-0.6l0.1-0.6C201,298.6,201.9,297.2,203,296z M203,296c-1,1.3-2,2.7-2.3,4.3l-0.1,0.6l0,0.6c0,0.4,0.2,0.8,0.3,1.2
				c0.1,0.4,0.4,0.7,0.6,1c0.3,0.3,0.5,0.6,0.8,0.9c1.2,1.1,2.7,1.8,4.2,2.3c1.5,0.6,3.1,0.9,4.7,1.3c3.2,0.7,6.4,0.9,9.6,1.2
				c1.6,0.1,3.2,0.2,4.8,0.3c1.6,0.1,3.2,0.1,4.8,0.2l-0.9,1.6c-1.6-2.4-3.4-4.7-5.3-6.9c-1.8-2.3-3.8-4.4-6-6.4
				c-2.2-1.9-4.6-3.7-7.4-4.5c-1.4-0.4-2.9-0.5-4.3,0C205.2,294,203.9,294.9,203,296z"/>
		</g>
		<g>
			<path class="st1" d="M209.2,268.7c0.8-0.9,1.9-1.7,3.1-1.8c1.3-0.1,2.5,0.3,3.6,1c2.1,1.3,3.9,3.2,5.4,5.2c1.5,2,2.9,4.1,4.2,6.2
				c0.7,1.1,1.2,2.2,1.8,3.3c0.6,1.1,1.1,2.2,1.6,3.4l0.6,1.5l-1.6,0c-3-0.1-6-0.4-8.9-1c-2.9-0.6-5.8-1.5-8.5-2.9
				c-1.3-0.7-2.6-1.6-3.6-2.8c-1-1.1-1.7-2.6-1.7-4.2c0-1.5,0.6-3,1.3-4.2C207.4,271,208.3,269.9,209.2,268.7z M209.2,268.7
				c-0.9,1.1-1.8,2.3-2.5,3.6c-0.7,1.3-1.1,2.7-1,4.2c0.1,1.4,0.8,2.7,1.9,3.7c1,1,2.3,1.6,3.6,2.2c2.7,1.1,5.5,1.6,8.3,2.1
				c2.8,0.4,5.8,0.7,8.6,0.9l-1,1.4c-0.9-2.2-1.9-4.5-3-6.7c-1.1-2.2-2.2-4.4-3.5-6.5c-1.3-2-2.8-4.1-4.8-5.5
				c-1-0.7-2.2-1.2-3.4-1.1C211.2,267.1,210.1,267.8,209.2,268.7z"/>
		</g>
		<g>
			<path class="st1" d="M223.9,237.3c1.2-0.5,2.5-0.9,3.8-0.5c1.3,0.4,2.2,1.4,2.9,2.5c1.3,2.3,1.8,4.9,2.1,7.5
				c0.3,2.6,0.4,5.2,0.4,7.8c0,2.6-0.2,5.2-0.5,7.8l-0.2,1.6l-1.4-0.8c-1.3-0.8-2.4-1.6-3.6-2.5c-1.2-0.9-2.3-1.8-3.3-2.8
				c-2.1-2-4-4.2-5.5-6.8c-0.7-1.3-1.3-2.6-1.6-4.1c-0.3-1.5-0.2-3,0.4-4.3c0.6-1.4,1.6-2.4,2.8-3.3
				C221.3,238.6,222.6,237.9,223.9,237.3z M223.9,237.3c-1.3,0.6-2.6,1.3-3.6,2.2c-1.1,0.9-2,2-2.5,3.3c-0.5,1.3-0.4,2.8,0,4.1
				c0.4,1.3,1.1,2.5,1.9,3.7c1.6,2.3,3.7,4.2,5.8,6c2.2,1.8,4.4,3.5,6.7,5l-1.6,0.7c0.3-2.5,0.6-5.1,0.9-7.6
				c0.2-2.6,0.4-5.1,0.3-7.7c-0.1-2.5-0.3-5.2-1.4-7.5c-0.6-1.1-1.4-2.2-2.7-2.6C226.4,236.5,225.1,236.8,223.9,237.3z"/>
		</g>
		<g>
			<path class="st1" d="M234,283.9c0.7-2.2,1.9-4.2,3.3-6c1.4-1.8,3.1-3.5,5-4.9c0.9-0.7,2-1.3,3-1.9l1.6-0.7
				c0.5-0.3,1.1-0.5,1.6-0.6c2.2-0.8,4.5-1.1,6.8-1.1c-2.2,0.8-4.2,1.5-6.2,2.6c-2,1-3.8,2.1-5.6,3.4c-1.8,1.3-3.4,2.7-5,4.3
				C237,280.5,235.5,282.2,234,283.9z"/>
		</g>
		<g>
			<path class="st1" d="M261.6,266.6c0.5,1.1,0.7,2.3,0.4,3.4c-0.3,1.1-1.1,2.1-2,2.8c-1.9,1.4-4.1,2.3-6.4,2.9
				c-2.3,0.6-4.6,1.1-6.9,1.4c-2.3,0.3-4.6,0.5-7,0.5l-1.8,0l1-1.6c0.7-1.1,1.4-2.1,2.2-3.2c0.8-1,1.6-2,2.4-3
				c1.7-1.9,3.6-3.7,5.6-5.2c1-0.8,2.1-1.5,3.3-2c1.2-0.5,2.5-0.9,3.8-0.8c1.3,0,2.5,0.7,3.4,1.6
				C260.5,264.4,261.1,265.5,261.6,266.6z M261.6,266.6c-0.5-1.1-1.2-2.3-2.1-3.1c-0.9-0.9-2.1-1.4-3.4-1.3c-1.2,0-2.4,0.5-3.5,1.1
				c-1.1,0.6-2,1.4-2.9,2.3c-1.8,1.7-3.4,3.6-4.9,5.6c-1.5,2-3,4-4.3,6.1l-0.9-1.6c2.3,0,4.6,0,6.8-0.1c2.3-0.1,4.6-0.3,6.8-0.7
				c2.2-0.4,4.5-0.9,6.4-2.2c0.9-0.6,1.8-1.5,2.1-2.6C262.2,268.9,262,267.7,261.6,266.6z"/>
		</g>
		<g>
			<path class="st1" d="M239.7,253.4c0.2-2.3,0.7-4.6,1.3-6.9c0.6-2.2,1.4-4.5,2.6-6.6c0.6-1.1,1.3-2.1,2.2-3
				c0.9-0.9,2.1-1.7,3.5-1.9c1.5-0.2,2.9,0.3,3.9,1c1.1,0.7,2,1.6,2.8,2.5c0.8,1,1.5,1.9,2,3.1c0.5,1.2,0.9,2.5,0.6,3.9
				c-0.3,1.4-1.1,2.6-2,3.5c-1,0.9-2.1,1.5-3.2,2c-2.2,1-4.5,1.5-6.8,1.8C244.3,253.3,242,253.5,239.7,253.4z M239.7,253.4
				c2.3-0.4,4.6-0.8,6.8-1.4c2.2-0.6,4.4-1.3,6.4-2.3c1-0.5,1.9-1.1,2.6-1.8c0.7-0.7,1.2-1.5,1.3-2.4c0.3-1.8-0.9-3.8-2.3-5.4
				c-0.7-0.8-1.5-1.6-2.3-2.2c-0.8-0.6-1.7-0.9-2.6-0.8c-0.9,0.1-1.7,0.5-2.5,1.2c-0.8,0.7-1.4,1.6-2,2.5c-1.2,1.9-2.2,3.9-3,6.1
				C241.1,249,240.4,251.2,239.7,253.4z"/>
		</g>
	</g>
</g>
</svg>
