<svg xmlns="http://www.w3.org/2000/svg" viewBox="0 0 204.92 391.33"><defs><style>.cls-1{fill:#d5ccfc;}.cls-2{fill:#fff;}.cls-3{fill:#b5bae0;}.cls-4{fill:#ff841f;}.cls-5{fill:#f3f4f8;}.cls-6{fill:#56d5f4;}.cls-7{fill:#ffd6c7;}</style></defs><title>Plant-portfolio</title><g id="Calque_2" data-name="Calque 2"><g id="Calque_1-2" data-name="Calque 1"><path class="cls-1" d="M40.25,261.82l.29,1.33.11.29c3.89,8,36.36,14.12,75.85,14.12,40.48,0,73.65-6.51,76.08-14.76l.18-1c0-8.72-34.15-15.74-76.26-15.74S40.25,253.1,40.25,261.82Z"/><path class="cls-2" d="M104.44,0C38.64.66,53,41.21,60.22,53S81.6,89.68,79.53,108.12,41.33,146,48.4,173.18,93.47,198.09,92.11,222,75,251.49,78.29,266.17s86.35,28.07,87.6-5.58,5.18-53-12-56.4-29.3-9.41-33.27-25,46.66-30.39,42-58.12S126,94.84,122.53,79.18s21.43-28.38,19-43.77S131.08-.26,104.44,0Z"/><path class="cls-3" d="M107.09,22.9a4.46,4.46,0,0,1-.38,2.4,9.6,9.6,0,0,1-1.22,2,32.44,32.44,0,0,1-3.09,3.41c-2.16,2.14-4.36,4.2-6.33,6.44a28,28,0,0,0-4.87,7.28,16.82,16.82,0,0,0-1.42,8.34,26.67,26.67,0,0,0,2.35,8.29,48.42,48.42,0,0,0,4.45,7.59c3.43,4.84,7.4,9.37,11.17,14.18a83.15,83.15,0,0,1,10.08,15.6,50.17,50.17,0,0,1,3.25,8.91,32.36,32.36,0,0,1,1.15,9.69,25.8,25.8,0,0,1-2.36,9.71,36.08,36.08,0,0,1-5.36,8.19c-4.14,4.87-8.93,8.76-12.8,13a31.35,31.35,0,0,0-4.84,6.62A16.26,16.26,0,0,0,95,161.78a17.47,17.47,0,0,0,.28,3.79c.1.61.27,1.33.44,2l.48,2.11c.74,2.81,1.55,5.63,2.51,8.43,1.84,5.62,4,11.18,6.29,16.72s4.69,11,7.21,16.5c10.07,21.86,21.15,43.35,32.32,64.83l-.58.36c-6.9-10-13.34-20.26-19.57-30.67q-4.64-7.83-9.08-15.78T106.68,214C101.24,203.11,96,192.07,92,180.39c-1-2.93-1.89-5.92-2.69-8.95l-.53-2.31c-.18-.77-.35-1.53-.49-2.41a25.43,25.43,0,0,1-.29-5.25,22.71,22.71,0,0,1,3-10.09,37.05,37.05,0,0,1,6.17-7.75c4.51-4.47,9.28-8.12,13.14-12.35a30.18,30.18,0,0,0,4.8-6.77,20.52,20.52,0,0,0,2.14-7.75,27.38,27.38,0,0,0-.73-8.29,45.57,45.57,0,0,0-2.69-8.21,78.51,78.51,0,0,0-9.09-15.12C101.22,80.3,97.36,75.59,94,70.39s-6.14-11-6.53-17.44a18.9,18.9,0,0,1,2-9.29,29.42,29.42,0,0,1,5.48-7.53c2.12-2.22,4.46-4.18,6.69-6.2a33.66,33.66,0,0,0,3.16-3.16A5.58,5.58,0,0,0,106.42,23Z"/><path class="cls-4" d="M139.26,25.87c59.07-5.18,49.76,32.45,44.3,43.62s-31,37.64-27.51,54,52.6,27.8,48.64,52.8-38.24,26.3-34.92,47.64,17.9,24.93,16.26,38.38-75,32.75-79.06,2.67-9.29-47.1,5.83-51.63,25.46-11,27.66-25.31-44.52-23.16-42.8-48.44S128.22,112.81,130,98.46s-21.71-23.57-20.91-37.59S115.34,28,139.26,25.87Z"/><path class="cls-5" d="M139.5,46.65a9.68,9.68,0,0,0,1,3.59c.53,1.17,1.15,2.31,1.79,3.44,1.28,2.25,2.64,4.48,4,6.74a76.85,76.85,0,0,1,6.81,14.22,34.48,34.48,0,0,1,1.71,7.84,24.45,24.45,0,0,1-.61,8.12,33.17,33.17,0,0,1-2.94,7.54,74,74,0,0,1-4.13,6.82c-3,4.37-6.09,8.51-8.77,12.86a48.66,48.66,0,0,0-6.16,13.66,33.86,33.86,0,0,0-.49,14.58,51.4,51.4,0,0,0,5.1,14c2.33,4.5,5.08,8.85,7.83,13.3a120.57,120.57,0,0,1,7.81,14,37.12,37.12,0,0,1,3.67,16.46c0,.71-.08,1.48-.15,2.16l-.23,2c-.16,1.34-.39,2.66-.59,4-.45,2.64-1,5.26-1.63,7.84A179.37,179.37,0,0,1,143,249.67c-1.08,2.4-2.2,4.77-3.34,7.14s-2.37,4.68-3.59,7c-2.5,4.62-5.07,9.18-8,13.56l-.54-.29c4.06-9.62,7.86-19.3,11.3-29.06,1.72-4.88,3.33-9.79,4.77-14.73s2.74-9.9,3.83-14.88c.55-2.49,1-5,1.41-7.49.17-1.25.4-2.5.53-3.75l.23-1.88c.07-.62.12-1.15.14-1.74a32.87,32.87,0,0,0-2.82-13.86c-3.76-9.2-9.95-17.78-14.58-27.44a56.49,56.49,0,0,1-5.13-15.43,37.14,37.14,0,0,1,1-16.41,52.94,52.94,0,0,1,7.11-14.51c2.95-4.43,6.24-8.51,9.29-12.66s5.89-8.45,7.28-13.24.93-10-.53-14.83A77.82,77.82,0,0,0,145.2,61c-1.22-2.29-2.49-4.57-3.69-6.9-.6-1.16-1.18-2.34-1.68-3.56a10.13,10.13,0,0,1-.94-3.92Z"/><path class="cls-6" d="M32.49,86.05c-46.29,8.09-31.48,35-25,42.45S38.87,151,39.54,164.24s-34.61,32-26.48,50.36S47.71,226.93,49.53,244,40.9,266.7,44.9,276.67,109,286.45,106,262.58s-2.49-38-15-38.35S69.25,221,64.65,210.49,94,183.67,87.55,164.66s-28.87-14.27-33.14-24.9,11.82-22.49,8.35-33.06S51.24,82.78,32.49,86.05Z"/><path class="cls-5" d="M37,101.88a8.38,8.38,0,0,1,.08,3.19c-.13,1-.34,2.06-.56,3.08-.44,2-1,4-1.42,6a61.3,61.3,0,0,0-1.85,12.11,20.22,20.22,0,0,0,2.61,11.46c2,3.39,5.12,6.09,8.27,8.66s6.54,5,9.71,7.8a41.76,41.76,0,0,1,8.4,9.66,29.74,29.74,0,0,1,4.12,12.36,44.57,44.57,0,0,1-.78,12.87C64,197.44,61,205.27,60,213.08a25.87,25.87,0,0,0,.67,11.2c.15.43.27.84.46,1.3l.56,1.39c.35.93.78,1.84,1.17,2.76.84,1.82,1.68,3.66,2.61,5.45,1.85,3.59,3.81,7.16,6,10.62s4.35,6.92,6.66,10.31c4.63,6.77,9.51,13.41,14.58,19.94l-.35.34a162.12,162.12,0,0,1-17.06-18.18,141.62,141.62,0,0,1-14.14-20.73c-1-1.85-2-3.75-2.86-5.68-.41-1-.87-1.93-1.26-2.93l-.58-1.49c-.19-.51-.36-1.09-.54-1.63a30,30,0,0,1-.57-13.35,101,101,0,0,1,3.13-12.3c1.2-4,2.42-7.86,3.28-11.78a40.55,40.55,0,0,0,1-11.76,27,27,0,0,0-3.34-11.06,39,39,0,0,0-7.5-9.22c-3-2.78-6.2-5.31-9.35-8.05s-6.25-5.74-8.34-9.56a22.27,22.27,0,0,1-2.41-12.44,61.16,61.16,0,0,1,2.31-12.29c.54-2,1.13-4,1.65-6,.26-1,.5-2,.67-3a8,8,0,0,0,.06-3Z"/><path class="cls-7" d="M40.65,263.44l26.78,117.2c0,5.93,23.17,10.69,51.69,10.69s51.74-4.76,51.74-10.69L192.58,262.8c-2.43,8.25-35.6,14.76-76.08,14.76C77,277.56,44.54,271.4,40.65,263.44Z"/></g></g></svg>