<svg xmlns="http://www.w3.org/2000/svg" viewBox="0 0 163.87 329.69"><defs><style>.cls-1{fill:#e5e8f2;}.cls-2{fill:#d5ccfc;}.cls-3{fill:#d3d9ff;}.cls-4{fill:#f3f4f8;}.cls-5{fill:#788ef7;}.cls-6{fill:#3749bc;}.cls-7{fill:#fff;}</style></defs><title>Plant-blog</title><g id="Calque_2" data-name="Calque 2"><g id="Calque_1-2" data-name="Calque 1"><path class="cls-1" d="M85.61,298.43c25.83.15,68.88,2.58,67.06,8.29s-37.08,30.79-108.53,20.53C-.09,320.89-43.16,297.68,85.61,298.43Z"/><path class="cls-2" d="M33.6,207.13l.23,1.05.09.23c3.08,6.3,28.76,11.17,60,11.17,32,0,58.26-5.15,60.19-11.67l.13-.78c0-6.9-27-12.46-60.32-12.46S33.6,200.23,33.6,207.13Z"/><path class="cls-3" d="M84.38,0c-52,.52-40.7,32.6-35,41.9S66.31,71,64.68,85.53,34.46,115.5,40.05,137s35.66,19.7,34.58,38.63S61.12,199,63.7,210.57,132,232.78,133,206.15s4.09-41.94-9.5-44.61-23.19-7.45-26.32-19.75,36.91-24,33.26-46S101.45,75,98.69,62.64s17-22.45,15.07-34.63S105.46-.21,84.38,0Z"/><path class="cls-4" d="M86.46,18.12a5,5,0,0,1-1.27,3.48,27.36,27.36,0,0,1-2.45,2.69c-1.71,1.69-3.45,3.31-5,5.08a22.49,22.49,0,0,0-3.88,5.77,13.48,13.48,0,0,0-1.14,6.64,21.22,21.22,0,0,0,1.85,6.59,38.09,38.09,0,0,0,3.52,6c2.7,3.84,5.84,7.44,8.81,11.24A65.18,65.18,0,0,1,94.82,78a39.83,39.83,0,0,1,2.55,7,25.23,25.23,0,0,1,.89,7.6,20.26,20.26,0,0,1-1.85,7.61,28.23,28.23,0,0,1-4.23,6.42c-3.26,3.83-7,6.9-10.13,10.27s-5.39,7-5.47,11.08a14.46,14.46,0,0,0,.24,3.06c.08.5.22,1.06.35,1.62l.39,1.68c.58,2.23,1.23,4.47,2,6.69,1.46,4.45,3.2,8.85,5,13.24s3.74,8.73,5.74,13.05c8,17.29,16.82,34.26,25.76,51.2l-.42.25c-5.4-7.92-10.47-16.07-15.36-24.32q-3.65-6.19-7.14-12.5t-6.75-12.75a224.8,224.8,0,0,1-11.58-26.57c-.8-2.31-1.49-4.67-2.12-7.06l-.42-1.82c-.14-.61-.28-1.21-.38-1.9a20.55,20.55,0,0,1-.22-4.09A17.89,17.89,0,0,1,74,119.88a29.33,29.33,0,0,1,4.83-6.09c3.54-3.52,7.31-6.42,10.38-9.79A24.51,24.51,0,0,0,93,98.59a16.57,16.57,0,0,0,1.7-6.21,21.69,21.69,0,0,0-.6-6.61A36,36,0,0,0,92,79.25a62.57,62.57,0,0,0-7.23-12c-2.81-3.82-5.87-7.54-8.51-11.64s-4.86-8.68-5.18-13.74a14.94,14.94,0,0,1,1.54-7.31,23.72,23.72,0,0,1,4.31-5.95c1.68-1.76,3.52-3.31,5.28-4.91a25.75,25.75,0,0,0,2.5-2.51,4.38,4.38,0,0,0,1.28-3Z"/><path class="cls-5" d="M111.93,20.46c46.73-4.09,39.36,25.68,35,34.51s-24.51,29.78-21.77,42.72,41.61,22,38.49,41.77-30.26,20.8-27.63,37.68,14.16,19.73,12.86,30.37-59.32,25.9-62.54,2.11S79,172.36,91,168.77s20.14-8.7,21.88-20S77.66,130.43,79,110.43,103.2,89.25,104.58,77.9,87.41,59.24,88,48.16,93,22.12,111.93,20.46Z"/><path class="cls-4" d="M112.12,36.9a7.67,7.67,0,0,0,.82,2.85c.42.92.91,1.82,1.41,2.72,1,1.78,2.09,3.54,3.13,5.33a61.23,61.23,0,0,1,5.38,11.25,22.2,22.2,0,0,1,.87,12.62c-1,4.22-3.3,7.9-5.59,11.37s-4.82,6.73-6.94,10.17A38.67,38.67,0,0,0,106.33,104a26.87,26.87,0,0,0-.38,11.53,40.62,40.62,0,0,0,4,11.07c1.84,3.56,4,7,6.19,10.53a97.15,97.15,0,0,1,6.18,11.06,29.88,29.88,0,0,1,2.88,13c0,.56,0,1.17-.1,1.7l-.18,1.59c-.12,1.06-.31,2.11-.46,3.16q-.54,3.13-1.3,6.2a140.93,140.93,0,0,1-8.31,23.64,162.56,162.56,0,0,1-11.79,21.91l-.42-.23c3.21-7.61,6.22-15.27,8.94-23,1.35-3.86,2.63-7.74,3.77-11.65s2.17-7.83,3-11.78c.43-2,.77-3.95,1.12-5.92.13-1,.31-2,.41-3l.19-1.48c.06-.49.07-.92.11-1.38a25.85,25.85,0,0,0-2.24-11c-3-7.28-7.86-14.07-11.52-21.71a44.42,44.42,0,0,1-4.06-12.21,29.65,29.65,0,0,1,.8-13,41.7,41.7,0,0,1,5.62-11.48c2.34-3.5,4.94-6.73,7.36-10S120.86,75,122,71.2a20.27,20.27,0,0,0-.42-11.73,62,62,0,0,0-4.9-11.2c-1-1.82-2-3.62-2.92-5.46-.47-.92-.93-1.85-1.33-2.82a8.26,8.26,0,0,1-.75-3.1Z"/><path class="cls-6" d="M27.46,68.08c-36.62,6.4-24.9,27.69-19.8,33.58S32.51,119.46,33,129.93,5.66,155.26,12.09,169.77,39.51,179.53,40.94,193s-6.82,18-3.66,25.89S88,226.61,85.61,207.73s-2-30-11.86-30.34-17.2-2.56-20.84-10.87S76.14,145.3,71,130.26,48.18,119,44.81,110.56s9.34-17.79,6.6-26.15S42.29,65.49,27.46,68.08Z"/><path class="cls-4" d="M31,80.6a6.49,6.49,0,0,1,.06,2.52c-.11.82-.28,1.63-.45,2.43-.35,1.61-.76,3.19-1.13,4.78a48.4,48.4,0,0,0-1.47,9.58A16,16,0,0,0,30.13,109a27.58,27.58,0,0,0,6.55,6.84c2.52,2,5.17,4,7.68,6.17A33,33,0,0,1,51,129.64a23.54,23.54,0,0,1,3.27,9.78,35.3,35.3,0,0,1-.62,10.18c-1.24,6.59-3.6,12.79-4.4,19a20.48,20.48,0,0,0,.53,8.86c.12.34.22.67.36,1l.45,1.1c.28.73.61,1.45.92,2.18.67,1.45,1.33,2.89,2.07,4.31,1.46,2.85,3,5.67,4.71,8.41s3.45,5.47,5.27,8.15c3.68,5.34,7.5,10.63,11.54,15.78l-.28.26a129.34,129.34,0,0,1-13.5-14.38,111.85,111.85,0,0,1-11.19-16.4q-1.2-2.19-2.25-4.49c-.33-.77-.69-1.53-1-2.32l-.46-1.18c-.15-.4-.29-.86-.43-1.28A23.73,23.73,0,0,1,45.54,168c1.17-6.77,3.73-12.83,5.07-19.05a32,32,0,0,0,.83-9.3,21.3,21.3,0,0,0-2.64-8.75,30.75,30.75,0,0,0-5.94-7.29c-2.33-2.2-4.9-4.21-7.39-6.38a29.24,29.24,0,0,1-6.59-7.56A17.72,17.72,0,0,1,27,99.86a49.4,49.4,0,0,1,1.83-9.71c.43-1.58.89-3.15,1.3-4.73.2-.78.39-1.57.52-2.37a6,6,0,0,0,0-2.34Z"/><path class="cls-7" d="M33.92,208.41,55.1,301.13c0,4.69,18.34,8.45,40.89,8.45s40.94-3.76,40.94-8.45l17.19-93.22c-1.93,6.52-28.17,11.67-60.19,11.67C62.68,219.58,37,214.71,33.92,208.41Z"/></g></g></svg>