<?xml version="1.0" encoding="utf-8"?>
<!-- Generator: Adobe Illustrator 22.0.1, SVG Export Plug-In . SVG Version: 6.00 Build 0)  -->
<svg version="1.1" id="Calque_1" xmlns="http://www.w3.org/2000/svg" xmlns:xlink="http://www.w3.org/1999/xlink" x="0px" y="0px"
	 viewBox="0 0 77.3 195.1" style="enable-background:new 0 0 77.3 195.1;" xml:space="preserve">
<style type="text/css">
	.st0{fill:#E5E8F2;}
	.st1{fill:#D5CCFC;}
	.st2{fill:#F7F8FC;}
	.st3{fill:#7F39FA;}
	.st4{fill:#C277FF;}
	.st5{fill:#B5BAE0;}
	.st6{fill:#EDE9FE;}
</style>
<g>
	<path class="st0" d="M73.8,189.1c-1.9,4.1-59.2,7.2-65.4,1.5C-5.6,177.6,77.5,181.3,73.8,189.1z"/>
	<path class="st1" d="M5.3,133.5l0.1,0.6l0.1,0.1c1.7,3.5,15.9,6.2,33.1,6.2c17.7,0,32.1-2.8,33.2-6.4l0.1-0.4
		c0-3.8-14.9-6.9-33.3-6.9S5.3,129.7,5.3,133.5z"/>
	<path class="st1" d="M41.1,145.7c0,0-3.9,2.5-6.3-50.6s22.8-36.8,27-60.7C66,10.3,56.1,4.7,56.1,4.7s21.5,9.3,19,54.9
		C72.2,110.6,59.1,149.6,41.1,145.7z"/>
	<path class="st2" d="M67.3,39.2c0.1,4.1-1.2,8-2.7,11.8c-1.5,3.7-3.2,7.4-4.7,11.1S57,69.5,56,73.3c-1,3.8-1.6,7.7-2,11.6
		c-0.3,3.9-0.5,7.9-0.5,11.9c-0.1,4-0.2,8-0.3,12c-0.2,4-0.4,8-0.8,12c-0.2,2-0.4,4-0.8,6c-0.2,1-0.4,2-0.6,3
		c-0.1,0.5-0.3,1-0.5,1.5s-0.4,1-0.9,1.4l-0.2-0.3c0.3-0.3,0.4-0.8,0.4-1.3c0.1-0.5,0.1-1,0.1-1.5c0-1,0.1-2,0-3c0-2-0.1-4-0.1-6
		c-0.1-4-0.2-8-0.3-12c-0.1-8,0.6-16.1,1.6-24.2c0.5-4,1.3-8.1,2.6-12c1.2-3.9,2.8-7.6,4.6-11.3c1.8-3.6,3.7-7.2,5.4-10.8
		c1.7-3.6,3.2-7.3,3.4-11.3h0.2V39.2z"/>
	<path class="st3" d="M43.8,23.6c0,0-10.1,28.6,8.2,40.6s2.7,51.6-4.2,60.9s6.3,14.7,2.7,16.2s-24.1,3.2-27.3,0
		c-4.4-4.5-7.5-73.2,0.3-79.5S38.7,29,43.8,23.6z"/>
	<path class="st4" d="M30.8,143.2c0,0,4.5-20.4,3.8-45.8C34.2,78.5,24.9,60,25.3,42c0.4-18.8,4.5-37.8,7-40.9c0,0-25.8,23-25.8,43.2
		S-12.8,143.2,30.8,143.2z"/>
	<path class="st2" d="M15.8,48.6c1.2,3.8,2.1,7.8,2.9,11.7c0.8,3.9,1.4,7.9,1.8,11.9s0.6,8.1,0.4,12.1c-0.1,1-0.1,2-0.2,3.1
		l-0.4,3.1c-0.3,1.9-0.4,3.8-0.4,5.8c0,3.9,0.5,7.8,1.2,11.7c0.7,3.9,1.5,7.7,2.3,11.6s1.8,7.7,2.9,11.5c0.5,1.9,1.1,3.8,1.7,5.7
		c0.3,0.9,0.6,1.9,1,2.8c0.2,0.5,0.4,0.9,0.6,1.3c0.2,0.4,0.5,0.9,0.8,1.1l-0.2,0.3c-1-0.5-1.6-1.4-2.2-2.3
		c-0.6-0.8-1.1-1.7-1.6-2.6c-1-1.8-1.9-3.6-2.6-5.5c-1.6-3.7-2.9-7.6-4-11.5c-2.2-7.8-3.2-16-2.9-24.2c0.1-2.1,0.3-4.1,0.8-6.2
		l0.5-2.9c0.1-1,0.2-1.9,0.3-2.9c0.4-3.9,0.4-7.9,0.2-11.8c-0.4-7.9-1.5-15.9-3.2-23.7L15.8,48.6z"/>
	<path class="st5" d="M38.5,62.4c1.1,1.3,1.8,2.8,2.4,4.3c0.6,1.6,1,3.2,1.3,4.8c0.6,3.3,0.6,6.6,0.4,9.9c-0.1,1.7-0.3,3.3-0.5,4.9
		c-0.3,1.6-0.5,3.2-0.7,4.8c-0.4,3.2-0.7,6.4-1,9.6c-0.4,6.4-0.9,12.8-1.4,19.3c-0.2,3.2-0.5,6.4-0.6,9.6c-0.1,1.6-0.1,3.2-0.1,4.8
		c0,0.8,0,1.6,0.1,2.4c0,0.4,0.1,0.8,0.2,1.1c0.1,0.4,0.2,0.7,0.5,0.9l-0.2,0.3c-0.5-0.2-0.7-0.6-0.9-1s-0.4-0.8-0.5-1.2
		c-0.3-0.8-0.5-1.6-0.6-2.4c-0.3-1.6-0.5-3.3-0.7-4.9c-0.3-3.3-0.4-6.5-0.5-9.8c-0.1-6.5,0.5-13.1,1.4-19.5c0.5-3.2,0.9-6.5,1.5-9.7
		c0.3-1.6,0.6-3.2,0.9-4.8c0.3-1.6,0.7-3.1,0.9-4.7c0.5-3.1,0.7-6.3,0.5-9.5c-0.1-1.6-0.3-3.2-0.7-4.7s-0.9-3.1-1.8-4.4L38.5,62.4z"
		/>
	<path class="st6" d="M5.5,134.2l11.7,51.2c0,2.6,10.1,4.7,22.6,4.7s22.6-2.1,22.6-4.7l9.5-51.4c-1.1,3.6-15.5,6.4-33.2,6.4
		C21.3,140.3,7.2,137.6,5.5,134.2z"/>
</g>
</svg>
