<?xml version="1.0" encoding="utf-8"?>
<!-- Generator: Adobe Illustrator 22.0.1, SVG Export Plug-In . SVG Version: 6.00 Build 0)  -->
<svg version="1.1" id="Calque_1" xmlns="http://www.w3.org/2000/svg" xmlns:xlink="http://www.w3.org/1999/xlink" x="0px" y="0px"
	 viewBox="0 0 1731.8 595.3" style="enable-background:new 0 0 1731.8 595.3;" xml:space="preserve">
<style type="text/css">
	.st0{fill:#EF1717;}
	.st1{fill:#72297F;}
	.st2{fill:#89C732;}
	.st3{fill:#EF1616;}
	.st4{fill:#FEDF00;}
	.st5{fill:#010101;}
	.st6{fill:#020202;}
	.st7{fill:#FEDF01;}
	.st8{fill:#8AC732;}
	.st9{fill:#030303;}
	.st10{fill:#8AC733;}
	.st11{fill:#050505;}
	.st12{fill:#040404;}
	.st13{fill:#722A7F;}
	.st14{fill:#090909;}
	.st15{fill:#080808;}
	.st16{fill:#070707;}
	.st17{fill:#060606;}
	.st18{fill:#0F0F0F;}
	.st19{fill:#0D0D0D;}
	.st20{fill:#FCFDFB;}
	.st21{fill:#434343;}
	.st22{fill:#5A5A5A;}
	.st23{fill:#4B4B4B;}
	.st24{fill:#5E5E5E;}
	.st25{fill:#F0E3BB;}
	.st26{fill:#383838;}
	.st27{fill:#DDEFC5;}
	.st28{fill:#CDC6C3;}
	.st29{fill:#6D6D6D;}
</style>
<g id="m50QkA.tif">
	<g>
		<path class="st0" d="M339.3,111.5c1.4,1.8,1.7,3.3,0.2,5.6c-6,9.3-14.3,15.5-23.9,20.5c-1.1,0.6-2.1,1.7-3.4,0.2
			c-1.1-1.4-0.4-2.4,0.2-3.6c5.8-10.3,14.2-17.9,24.9-22.7C338,111.5,338.7,111.5,339.3,111.5z"/>
		<path class="st1" d="M551.5,299.3c5.3-8.6,10.4-16.6,15.2-24.7c1.5-2.5,3.6-2,5.6-2c36.2,0,72.3,0,108.5,0
			c23.6,0,42.5-15.7,46.9-39c0.1-0.5,0-1,0-1.8c-1.9,0-3.7,0-5.5,0c-49.3,0-98.6-0.1-148,0.1c-4.1,0-5.3-1.2-5.6-5.1
			c-2.6-33.3,11.6-68.7,43.7-83.5c8.9-4.1,18.2-6.5,28-6.6c43.5-0.2,87-0.2,130.5-0.2c1,0,2,0,3.9,0c-5.7,9.1-10.9,17.7-16.3,26.2
			c-1.2,1.9-3.4,1-5.1,1c-35.7,0.1-71.3,0-107,0c-23.7,0-40.7,13-47.4,35.9c-1.3,4.3-0.3,5,3.9,5c49.5-0.1,99,0,148.5-0.2
			c4.9,0,6,1.6,6.2,6.1c1,22.9-3.7,44.1-18.2,62.3c-13.6,17.1-31.8,26.5-53.6,26.8c-44,0.5-88,0.1-132,0.1
			C553.2,299.5,552.7,299.4,551.5,299.3z"/>
		<path class="st1" d="M981.7,136.6c-5.5,8.8-10.6,16.9-15.6,25.2c-1.4,2.3-3.4,1.7-5.2,1.7c-35.8,0-71.7,0-107.5,0
			c-23.9,0-41.5,13.7-47.7,36.9c-1,3.9,0.2,4.3,3.7,4.3c49.3-0.1,98.7-0.1,148,0c1.9,0,4.7-1,5.6,0.5c1.2,2-1.4,3.8-2.4,5.5
			c-3.5,5.8-7.4,11.5-10.9,17.4c-1.7,3-3.8,4-7.2,3.9c-44-0.1-88-0.1-132-0.1c-6.1,0-6.1,0-4.3,6.1c7.1,24,23.6,36.3,48.6,36.3
			c39.2,0,78.3,0,117.5,0c1.8,0,3.7,0,6.5,0c-4.2,6.5-8.6,12.2-11.7,18.5c-3.4,6.8-8.1,8.4-15.4,8.4c-33.3-0.3-66.6,0.2-100,0.1
			c-23.7-0.1-43.6-8.7-58.3-27.6c-14.2-18.2-19.2-39.3-17.6-62c1.5-21.3,8.8-40.2,24.4-55.4c13-12.6,28.7-19.6,46.7-19.8
			c44-0.4,88-0.2,132-0.3C979.5,136.4,980.1,136.5,981.7,136.6z"/>
		<path class="st1" d="M1327.1,234.7c23,22.2,45.4,43.7,68.9,66.3c-7.5,0-13.6-0.7-19.5,0.1c-14.5,2.1-24.6-3.7-34.7-14
			c-24.8-25.4-50.8-49.5-76.4-74.1c-1.6-1.6-3.4-3-5.5-4.7c2.7-1.4,4.6-0.9,6.3-0.9c26.3,0,52.6,0,79,0c12,0,21-8.1,22.3-19.9
			c1.2-10.9-6.2-21-17.3-23.4c-1.8-0.4-3.6-0.5-5.5-0.5c-33.7,0-67.3,0.1-101-0.1c-4.2,0-4.7,1.5-4.7,5.1c0.1,42.5,0,85,0.2,127.5
			c0,4.4-1,5.8-5.5,5.5c-7-0.4-14-0.3-21,0c-3.6,0.1-4.4-1.2-4.4-4.6c0.1-30.3,0.1-60.6,0.1-91c0-21.7,0.1-43.3-0.1-65
			c0-3.8,1.1-4.7,4.8-4.7c44.8,0.2,89.6,0.1,134.4,0.3c24.7,0.1,45.3,20.5,47.1,46c1.7,24.6-16.4,47.4-40.5,51.1
			C1345.6,235,1336.9,234.2,1327.1,234.7z"/>
		<path class="st1" d="M984.5,163.7c5.8-9.2,11-17.5,16.2-25.8c0.8-1.3,2.1-1.4,3.4-1.4c59.5,0.1,119,0.1,178.5,0.1
			c0.1,0,0.3,0.1,1.1,0.6c-5.4,8.5-10.7,17.1-16.1,25.5c-1.1,1.7-3.1,0.9-4.6,0.9c-20,0-40,0.2-60-0.1c-4.3,0-5.2,1.3-5.2,5.3
			c0.1,42.5,0,85,0.2,127.5c0,4.1-1,5.5-5.2,5.2c-5.5-0.4-11-0.4-16.5,0c-4.4,0.3-5.8-0.8-5.8-5.6c0.2-42.2,0-84.3,0.2-126.5
			c0-4.9-1.3-6-6-6c-24.5,0.3-49,0.1-73.5,0.1C989.3,163.7,987.4,163.7,984.5,163.7z"/>
		<path class="st2" d="M458.1,209c8.3,6.8,14.8,14.7,16.4,25.8c2.3,16.4-6.2,29.7-22.1,34.2c-19.8,5.6-42.1-6.9-46.2-25.8
			c-4.3-20.3,9.6-37.9,31.3-39.8c0.3-0.2,0.7-0.4,0.9-0.3C444.6,206.4,451.5,207.2,458.1,209z"/>
		<path d="M1474.4,327.7c-2.4,3.8-4.2,6.7-6,9.6c-1.2,2-3,1.1-4.5,1.1c-13.3,0.1-26.7-0.1-40,0.1c-10,0.1-16.6,5.9-18.3,15.8
			c19,0,38,0.1,56.9-0.1c4.1-0.1,4.9,1.3,4.9,4.9c0.2,16.9-10.9,33.2-31.8,32.6c-16-0.4-32-0.1-48.3-0.1c1.1-3.8,3.6-6.5,5.3-9.5
			c1-1.8,3-1.1,4.6-1.1c13,0,26,0,39,0c8.3,0,14.4-3.3,18-10.9c1.5-3.2,1.9-4.9-2.9-4.8c-17.7,0.3-35.3-0.1-53,0.2
			c-4.3,0.1-5-1.6-5-5.2c-0.2-18.6,12-32,30.4-32.5C1440.3,327.4,1456.8,327.7,1474.4,327.7z"/>
		<path d="M1553.7,327.9c-2.1,3.5-3.9,6.4-5.6,9.4c-1.1,1.9-2.9,1.3-4.5,1.3c-13,0-26,0-39,0c-10.5,0-16.6,4.9-19,15.8
			c20.3,0,40.4,0,61.4,0c-2.2,3.5-4,6.2-5.7,9c-1.2,2.1-3.1,1.6-4.8,1.6c-15.5,0-31,0.2-46.5-0.1c-4.7-0.1-4.8,1.4-3.1,5
			c3.4,7.5,9.1,11.1,17.3,11.1c14.3-0.1,28.6,0,43,0c1.6,0,3.2,0,5.6,0c-2.2,3.5-4,6.2-5.7,9c-1.1,1.8-2.7,1.5-4.4,1.5
			c-12.7,0.1-25.3,0.2-38,0.1c-19.3-0.1-32.4-14.4-30.8-33.7c1.6-19.9,12.8-30.3,32.9-30.3c15,0,30,0,45,0
			C1552.1,327.7,1552.5,327.8,1553.7,327.9z"/>
		<path class="st1" d="M389.8,241.3c5.5,4.4,10.5,9.3,13.5,15.8c6.1,13.2-0.4,23.6-14.9,23.6c-16.9,0-40-15.4-46.5-31
			c-5.1-12.2,2.4-20.9,16.9-19.8c2,0.1,4,0.3,6,0.5c7.1-1.1,12.8,2.8,18.7,5.6C385.9,237.1,388.6,238.4,389.8,241.3z"/>
		<path d="M1307.3,359.6c0-9.3,0.1-18.6-0.1-28c0-2.9,0.4-4,3.7-4c16.1,0.2,32.3,0,48.4,0.1c12.1,0.1,19.9,8.1,19.9,20.2
			c0,13.3-0.2,26.6,0.1,40c0.1,4.2-2,4.2-4.8,3.8c-2.5-0.3-6.1,1.7-5.9-3.8c0.3-12.6,0.1-25.3,0.1-38c0-8.8-2.6-11.4-11.2-11.4
			c-11.7,0-23.3,0.1-35-0.1c-2.9,0-3.6,0.8-3.6,3.6c0.1,15,0,30,0.1,45c0,3.6-0.6,5.4-4.5,4.7c-0.6-0.1-1.3-0.1-2,0
			c-4.1,0.7-5.8-0.5-5.5-5.2C1307.7,377.6,1307.3,368.6,1307.3,359.6z"/>
		<path d="M1191,381c-2.6,8.6-7.8,11.3-16.2,10.7c-10.9-0.8-22,0.1-33-0.1c-14.5-0.3-25.4-9.7-28.3-24c-3.2-16,3.6-31.3,16.5-37.2
			c3.4-1.6,7-2.5,10.6-2.5c15.7-0.2,31.3-0.1,47-0.1c1.4,0,2.9,0,5.1,0c-2.1,3.5-3.9,6.4-5.6,9.4c-1.1,1.9-2.8,1.5-4.4,1.5
			c-13.2,0-26.3,0-39.5,0c-12,0-19.4,8-19.4,21c-0.1,13.1,7.2,21.4,19.1,21.4C1158.9,381.1,1174.8,381,1191,381z"/>
		<path class="st3" d="M366.5,156.5c11.7,7.2,16.4,17.2,13.6,29.2c-3,13-14.7,21.2-26.9,18.8c-11.6-2.2-19.6-15.2-17.5-28
			c1.2-6.9,4.7-12.3,9.6-17C350,153.8,360.5,152.2,366.5,156.5z"/>
		<path class="st1" d="M436.3,299.3c0.1,0.1,0.3,0.1,0.4,0.2c13.1,6.2,14.1,10.9,3.6,21c-6.6,6.3-14.8,10.2-24,10.8
			c-7.2,0.4-13.6-2.5-16.8-9.3c-3.4-7.2-0.9-13.8,4-19.7c0.6-0.8,0.9-1.8,1.6-2.5C411.1,293.7,429.7,293.4,436.3,299.3z"/>
		<path class="st4" d="M389.8,241.3c-7.6-5.3-16-8.9-25-10.9c2.2-12.3,8.5-21.8,19.1-28.4c7.3-4.6,15.5-4.8,20.1-0.9
			c4.4,3.7,5.1,11.4,1.8,19.5C402.3,228.9,396.4,235.4,389.8,241.3z"/>
		<path class="st5" d="M1639.7,381.8c-1.9,2.9-3.7,5.8-5.5,8.7c-0.9,1.4-2.3,1.2-3.6,1.2c-14.3,0-28.6-0.1-43,0.1
			c-3.1,0-3.4-1.1-3.4-3.7c0.1-18.8,0.2-37.6-0.1-56.5c-0.1-4.8,2.6-3.9,5.3-3.9c2.8,0,5.9-1.1,5.7,4.1c-0.3,15,0,30-0.2,45
			c0,3.5,0.9,4.4,4.4,4.4c11.7-0.2,23.3-0.1,35-0.1C1636,381.1,1637.7,380.6,1639.7,381.8z"/>
		<path class="st4" d="M462.4,156.6c-1.5,4.9-3.2,9.8-4.6,14.7c-0.7,2.5-1.7,3.5-4.5,3.1c-7.4-1.1-14.8-2-22.2-2.9
			c-2.1-0.2-3.2-1.1-3.9-3.1c-2.2-6.1-4.5-12.1-7-18.1c-0.8-2-0.4-3.1,1.6-3.7c0.3-0.1,0.6-0.3,0.9-0.4c6.1-1.8,11.4-8,17.8-5.9
			c5.8,1.9,10.5,6.8,15.7,10.3c1,0.4,2,0.8,2.8,1.6C460.3,153.6,462.8,154,462.4,156.6z"/>
		<path class="st1" d="M405.3,190.7c-9.5-0.2-17.1-7.1-17-15.4c0.1-8.2,7.5-14.4,16.7-14.1c9.5,0.3,17.2,7.2,17.1,15.4
			C422,184.7,414.6,190.9,405.3,190.7z"/>
		<path class="st3" d="M497.5,227.2c-4,0.2-6.3-1.6-7.3-5.7c-0.8-3.2-1.9-6.5-3.6-9.3c-7.3-12-5.3-23.9-0.6-36
			c1-2.7,1.8-2.6,3.7-1.4c10.9,7.2,18.2,16.9,19.9,30.2c-4.2-1.1-8.4-0.8-10.6,3.1c-2.5,4.3-5.8,8.9-2.4,14.4
			C497.4,223.9,498.4,225.4,497.5,227.2z"/>
		<path class="st6" d="M1572.5,360.1c0,9.3-0.3,18.7,0.1,28c0.2,5.1-3,3.6-5.5,3.6c-2.6,0.1-5.5,1.1-5.4-3.8
			c0.3-18.8,0.3-37.6,0-56.4c-0.1-5.5,3.5-3.4,6-3.7c2.9-0.4,5-0.3,4.8,3.9C1572.3,341.1,1572.5,350.6,1572.5,360.1z"/>
		<path class="st1" d="M462.4,156.6c-1.4-1.4-2.8-2.9-4.2-4.3c-1.1-1.4,0.3-3.2-0.8-4.7c0.3-2.2-1.7-5.2,0.3-6.6
			c3.7-2.5,7.9-4.2,12-6.1c0.6-0.2,1.7,0.7,2.5,1.3c2.2,1.5,4.2,3.5,6.5,4.6c8.2,3.7,9.7,11,10.5,18.7c0.1,0.7,0.3,1.4,0.1,2
			c-0.8,2.6-13.1,6.2-15.3,4.4C470.2,162.8,466.3,159.7,462.4,156.6z"/>
		<path class="st1" d="M458.1,209c-7.5,0.8-14.2-1.6-20.5-5.6c-1-1.3-2.1-2.6-2.9-4c-3-5-1.3-10,4-12.3c8.3-3.6,24.2,0.7,29.6,8
			c3.3,4.4,2.5,8.5-2.2,11.3C463.6,208,460.9,208.5,458.1,209z"/>
		<path class="st4" d="M497.5,227.2c-0.3-0.8-0.4-1.7-0.9-2.3c-5.7-6.3-1.4-12.1,1.1-17.7c1.8-4.1,8.8-5,11.9-2.2
			c1,1.7,1.7,3.8,3.1,5c7.2,6.4,5.7,13.6,2.2,21.1c-2.2,4.7-7,2.6-10.5,4c-2.6,1.1-2.8-1.6-3.8-3
			C499.6,230.6,498.6,228.8,497.5,227.2z"/>
		<path class="st3" d="M436.3,299.3c-7.4-2.6-14.9-3.7-22.8-2c-3.8,0.8-7,2.7-10,5c-1.7-7.3,1.1-12.7,7.1-16.6
			c7.6-5,16-6.1,24.8-4.3c5.3,1.1,6.8,3.8,5.3,9.1C439.7,293.6,438.4,296.7,436.3,299.3z"/>
		<path class="st3" d="M366.7,309.3c0.1,4.7-1.5,5.9-5.2,4.4c-4.3-1.6-7.7-4.6-11-7.7c-5.4-5-10.6-10.1-14.8-16.2
			c-1.5-2.1-2.5-4.5-0.6-6.9c1.8-2.3,4.2-1.5,6.4-0.6c10.7,4.5,18.3,12.4,24,22.3C366.3,306.2,366.4,308.2,366.7,309.3z"/>
		<path class="st7" d="M385.6,311.7c-7.4,0-18.5-10.6-19-18.1c-0.1-2.5,1.2-4,3.4-4.9c9.2-4.2,23.3,3.9,24.4,14.1
			C395,307.7,391.1,311.6,385.6,311.7z"/>
		<path class="st8" d="M495.2,280.1c-1,6.6-4.1,12.8-11.1,16.4c-2.9,1.5-6.1,2.2-9,0c-2.9-2.2-4-5.2-3.7-8.8c0.6-6.8,10.2-17,17-18
			C492.4,269.1,495.3,273.2,495.2,280.1z"/>
		<path class="st0" d="M284.3,212c-0.3-4.7,0.8-10.1,2.4-15.3c0.5-1.6,0.9-3.3,3.3-2.8c1.7,0.3,2.7,0.9,3.4,2.9
			c5,14.1,4.3,28.3,1.7,42.6c-0.2,1.2-0.3,2.2-2,2.3c-2,0.1-3-0.9-3.7-2.6C286.2,230.6,284.2,221.9,284.3,212z"/>
		<path class="st6" d="M1461.5,455.5c0-4.3,0.2-8.7-0.1-13c-0.2-3,1.1-4.2,3.7-4.7c5.7-1.1,11.5-2,17.3-0.4
			c6.1,1.6,8.6,4.3,8.7,10.5c0.2,7.2,0,14.3,0.1,21.5c0,2.2-0.3,3.3-2.9,3.3c-2.5,0-3-0.8-3-3.1c0.1-6.7,0-13.3,0.1-20
			c0.1-3.4-0.4-6.5-3.8-7.9c-4.3-1.8-8.8-1.7-13.2-0.2c-1.7,0.6-1,2.3-1,3.5c-0.1,7.8,0,15.7-0.1,23.5c0,1.9,1.2,4.3-2.7,4.3
			c-3.5,0-3.1-2-3.1-4.1C1461.5,464.2,1461.5,459.9,1461.5,455.5z"/>
		<path class="st9" d="M1500.2,455.5c0-4.7,0.1-9.3,0-14c-0.1-2,0.7-3,2.6-3.4c6.4-1.5,12.8-2.3,19.2-0.4c4.8,1.4,7.6,4.5,7.4,9.9
			c-0.2,7.3-0.1,14.7,0,22c0,2.3-0.5,3.2-3,3.2c-2.6,0-3-1-3-3.3c0.1-6.7,0.1-13.3,0-20c0-6.3-2.2-8.7-8.6-9
			c-1.8-0.1-3.7,0.1-5.5,0.2c-2.7,0.1-3.7,1.4-3.6,4.1c0.2,7.7,0.1,15.3,0,23c0,1.9,1.6,4.8-2.7,4.9c-4.7,0.1-2.7-3.2-2.9-5.1
			C1500,463.5,1500.2,459.5,1500.2,455.5z"/>
		<path class="st7" d="M327.2,190.4c-0.2,8.6-2.4,16.7-6.2,24.4c-0.6,1.2-1.4,2.3-2.3,3.2c-1.5,1.5-3.2,3.4-5.6,2.5
			c-2.4-0.9-2.5-3.4-2.5-5.5c-0.1-10.8,2.6-21,6.7-30.9c1-2.4,2.3-5,5.7-4.6c3.8,0.5,3.7,3.8,4.2,6.5
			C327.4,187.4,327.2,188.9,327.2,190.4z"/>
		<path class="st9" d="M1012.3,455.5c0-4.5,0.1-9,0-13.5c-0.1-2.1,0.3-3.3,2.7-3.9c6.4-1.5,12.8-2.3,19.2-0.5
			c4.6,1.3,7.5,4.2,7.6,9.2c0.1,7.7,0,15.3,0.1,23c0,2.2-0.8,2.8-2.9,2.8c-2.1,0-2.9-0.4-2.9-2.7c0.1-7,0-14,0.1-21
			c0-3.4-0.8-6.3-4.4-7.5c-4.2-1.5-8.5-1.5-12.6,0c-1.6,0.6-0.9,2.3-0.9,3.6c-0.1,8-0.1,16,0,24c0,2.2,0.1,3.7-3,3.7
			c-3.3,0.1-2.9-1.7-2.9-3.7C1012.3,464.5,1012.3,460,1012.3,455.5z"/>
		<path class="st8" d="M335.7,266.7c0,0.9,0.1,1.6,0,2.3c-0.6,2.5-0.4,5.8-3.5,6.6c-3.3,0.8-4.6-2.1-5.9-4.4
			c-5.2-9.2-8.1-19.3-9.4-29.7c-0.3-2.5-0.1-5.2,2.8-6.3c3-1.2,4.7,1,6.2,3C332.3,246.6,334.8,256.5,335.7,266.7z"/>
		<path class="st10" d="M375.5,143.8c10.6-5.5,21.9-7.6,33.7-7.2c1.9,0.5,3.7-0.9,5.6-0.3c4.2,1.2,3.8,3.5,1.5,6.2
			c-3,1.3-6.3,2.3-9.1,4c-9.9,5.8-20.4,4.3-30.9,3c-0.9-0.9-1.7-1.8-1.8-3.1C374.4,145.4,374.5,144.4,375.5,143.8z"/>
		<path class="st1" d="M375.5,143.8c-0.1,0.9-0.2,1.7-0.3,2.6c-0.5,1,0.2,2.3-0.8,3.2c-2.7,2.3-5.3,4.6-8,6.9
			c-7.5-2.1-14.5-1.2-21.1,3.1c-2.6-2.5-2.2-4.5,0.3-7.1c7-7.4,15.3-12.5,25.2-15.2c5.5-1.5,5.5-1.6,4.8,4
			C375.5,142.2,375.5,143,375.5,143.8z"/>
		<path class="st5" d="M519.3,323.4c-16.6,9.2-33.4,13-51.7,14.4C482.7,324.8,498.7,318.1,519.3,323.4z"/>
		<path class="st6" d="M1274.1,466.4c3-8.4,5.8-16.3,8.5-24.3c1.7-4.8,1.7-4.8,7.3-4.2c-4.2,10.9-8.5,21.7-12.6,32.5
			c-0.7,1.8-1.7,2.1-3.4,2.1c-1.8,0-3-0.2-3.8-2.3c-4.1-10.8-8.5-21.6-12.8-32.4c4.8-1.5,6.9,0.1,8.3,4.8
			C1267.9,450.6,1271.1,458.1,1274.1,466.4z"/>
		<path class="st6" d="M1627.7,436.4c1.6,0.3,3.9,0.6,6.1,1.3c1.2,0.4,3.2,0.6,2.3,2.9c-0.8,2.1-2.1,1.5-3.5,0.9
			c-3-1.3-6.1-1.4-9.2,0c-2,0.9-3.4,2.3-3.5,4.5c-0.1,2.2,1,3.9,3,4.7c2.7,1.2,5.6,2.1,8.3,3.3c3.7,1.6,6.5,4.1,6.5,8.5
			c0,4.3-2.4,7.1-6,9c-5.4,2.8-10.9,2.2-16.5,0.5c-1.3-0.4-2.6-0.8-1.8-2.7c0.7-1.8,1.7-1.9,3.5-1.3c3.3,1.3,6.7,1.9,10.2,0.4
			c2.4-1,4.4-2.5,4.6-5.3c0.2-2.9-1.5-4.6-4-5.7c-1.8-0.8-3.7-1.4-5.6-2.1c-6-2.2-8.4-5.2-7.9-10c0.5-4.3,4.3-7.7,9.7-8.6
			C1625,436.6,1626,436.6,1627.7,436.4z"/>
		<path class="st6" d="M1347,436.4c2.1,0.4,4.4,0.7,6.6,1.5c0.9,0.3,2.9,0.2,2.1,2.4c-0.7,1.9-1.6,2.2-3.3,1.3
			c-2.6-1.3-5.5-1.4-8.3-0.6c-2.3,0.7-4.3,2.1-4.6,4.7c-0.3,2.7,1.4,4.3,3.7,5.3c2.9,1.2,5.9,2.2,8.7,3.6c6.6,3.3,7.4,10.8,1.7,15.4
			c-4.6,3.7-14.2,4.5-19.5,1.8c-1.4-0.7-1.6-1.2-1-2.6c0.7-1.6,1.5-1.8,3.1-1.2c3.3,1.2,6.7,2,10.2,0.6c2.6-1,4.7-2.5,4.9-5.6
			c0.2-3-1.7-4.5-4.2-5.5c-2-0.8-4-1.5-6-2.3c-4.3-1.7-7.8-4.1-7.2-9.4c0.5-5,3.9-7.4,8.5-8.6C1343.8,436.8,1345.3,436.6,1347,436.4
			z"/>
		<path class="st0" d="M410.3,136.4c-5.7-2.3-6.2-2.9-8.8-11.5c11.4-3.3,25.7-1.1,36.1,5.8c-5.2,2.5-8.9,7.1-15.1,6.8
			c-2.7-1.1-5.4-0.1-8.1-0.5C412.9,136.8,411.5,137.5,410.3,136.4z"/>
		<path class="st5" d="M242.5,412c7.4-3,13.6-5.5,19.7-8.1c1.3-0.5,2.6-0.6,3.9-0.3c7.2,2,14.4,4,22.4,6.2
			c-7.3,2.9-13.8,5.5-20.3,8.1c-1.2,0.5-2.2,0.1-3.4-0.2C257.8,416,250.7,414.2,242.5,412z"/>
		<path class="st5" d="M287.6,424c14.3-10.9,28.9-8.2,43.6-1.7c-6.4,2.5-12.7,4.9-19,7.3c-1.3,0.5-2.6,0.3-3.9,0
			C301.5,427.7,294.7,425.9,287.6,424z"/>
		<path class="st5" d="M516.6,337.2c7.5-3.3,13.9-6,20.2-8.8c1-0.4,1.9-0.4,2.9-0.2c7.1,1.5,14.3,2.9,22.6,4.6
			c-7.4,3.4-13.8,6.3-20.2,9.3c-1.4,0.7-2.6,0.1-3.8-0.2C531.5,340.4,524.7,338.9,516.6,337.2z"/>
		<path class="st5" d="M200.5,402.9c14.2-10.2,20.2-10.8,42.9-4.2c-8.9,2.5-15.9,10.8-26.7,7.6C211.6,404.8,206.3,404.1,200.5,402.9
			z"/>
		<path class="st6" d="M415.4,346.6c16-9.8,33-17.1,53-20.2c-14.8,12.8-30.7,19.6-48.9,21.2C418,347.8,416.2,349.2,415.4,346.6z"/>
		<path class="st6" d="M574.2,450.3c0-6.3,0-12.6,0-19c0-2.1-0.2-3.8,3-3.8c3,0,3.1,1.4,3.1,3.7c-0.1,11.1,0.1,22.3-0.1,33.4
			c0,3,0.6,4.2,3.8,3.9c3.6-0.3,7.3-0.1,11-0.1c1.4,0,2.5-0.1,2.5,2c0,2-1.1,2-2.5,2c-5.8,0-11.6-0.1-17.5,0
			c-2.6,0.1-3.4-0.7-3.3-3.3C574.3,463,574.2,456.7,574.2,450.3z"/>
		<path class="st6" d="M1060.2,428.1c0,1.4,0.1,2.4,0,3.3c-0.6,4.2,0.1,7.2,5.5,6.1c0.9-0.2,2.1-0.2,2.2,1.3c0.2,1.7-1,2-2.2,1.8
			c-5.6-1.1-5.7,2.2-5.5,6.3c0.3,5.2,0.2,10.3,0,15.5c-0.2,4,1.4,6.4,5.4,6.9c1.2,0.1,2.4,0,2.3,1.8c-0.1,1.6-1.2,1.7-2.4,2
			c-6.3,1.1-11.1-2.8-11.1-9.4c-0.1-6.2-0.1-12.3,0-18.5c0-2.7,0.2-5.2-3.7-4.4c-1,0.2-2,0-2.1-1.4c-0.1-1.8,1.2-1.9,2.3-1.7
			c2.8,0.4,4-0.6,3.5-3.5C1053.5,429.7,1055.6,428,1060.2,428.1z"/>
		<path class="st9" d="M954.2,454.3c0-2.8,0-5.7,0-8.5c0.1-2.9,0.6-5.9-4-5.2c-0.9,0.1-1.5-0.3-1.6-1.4c-0.1-1.4,0.7-1.9,1.8-1.7
			c4.2,0.7,4.1-1.9,3.9-4.7c-0.2-2.2,0.2-3.8,2.8-4.4c2.2-0.5,3.2-0.2,2.9,2.2c-0.6,4.6-0.1,8.2,6.1,6.9c1.1-0.2,1.9,0.2,1.9,1.6
			c-0.1,1.4-1.1,1.7-2.1,1.5c-6.1-1.3-6.2,2.4-6,6.8c0.3,4.8,0.1,9.6,0,14.5c-0.1,4,1.2,6.8,5.6,7.3c1.2,0.1,2.4-0.1,2.4,1.7
			c0,1.9-1.5,1.9-2.8,2.1c-6.4,0.8-10.7-2.8-10.9-9.2C954.1,460.7,954.2,457.5,954.2,454.3z"/>
		<path class="st6" d="M561.1,345.5c6.2-3.1,12.4-6.2,18.5-9.4c1.1-0.6,2.2-0.5,3.4-0.4c6.7,0.7,13.5,1.5,20.9,2.4
			c-6.7,4.4-13.1,9.4-20.2,10.6c-7.2,1.2-15-1.3-22.6-2.2C561.1,346.2,561.1,345.9,561.1,345.5z"/>
		<path class="st5" d="M331,435.4c13.9-10.3,28.4-8.3,43.4-2.5c-6.5,2.5-12.7,4.9-18.9,7.3c-1.3,0.5-2.6,0.3-3.9,0
			C344.7,438.7,337.8,437,331,435.4z"/>
		<path class="st5" d="M200,389.6c-12.2,9.8-26.2,12-40.8,7.3C169.1,387.2,186.7,384,200,389.6z"/>
		<path class="st5" d="M327.1,397.1c-6.9,2.2-13.6,4.4-20.3,6.6c-1.6,0.5-3,0-4.4-0.4c-6.8-1.9-13.6-3.9-20.8-6
			C297.8,389.8,309.6,389.8,327.1,397.1z"/>
		<path class="st6" d="M282.7,385.1c-20.5,7.9-21.7,7.9-43.9,1.2C251.2,378.2,265.2,377.8,282.7,385.1z"/>
		<path class="st11" d="M772.5,440.7c-5.3,0-9.8,0-14.3,0c-1.2,0-2.9,0.4-2.7-1.8c0.1-1.8,1.6-1.3,2.6-1.3c6.8,0,13.6,0,21.1,0
			c-6.3,10.8-12.2,21-18.7,32.2c5.7,0,10.5-0.1,15.4,0c1.4,0,3.8-1.1,3.8,1.7c0,2.3-2.2,1.6-3.5,1.6c-7.3,0.1-14.5,0-22.6,0
			C760,462,766,451.8,772.5,440.7z"/>
		<path class="st6" d="M480.4,352.6c1.9-1,3.9-1.9,5.7-3.1c7.7-5.1,15.8-6.4,24.7-3.5c3.9,1.3,8,2,12.2,3.6
			c-9,2.2-16.7,9.2-27.1,6.1c-4.3-1.2-8.8-1.4-13.3-2C481.4,354,480.3,354.5,480.4,352.6z"/>
		<path class="st6" d="M118,397c11-11.1,24.3-16.1,39.8-11.8C146.5,394.6,133.3,399.9,118,397z"/>
		<path class="st6" d="M644.2,338.2C633,348.9,619.9,355,604,350.4C615.4,340.2,629.1,336.2,644.2,338.2z"/>
		<path class="st12" d="M806.3,447c0,7.5-0.1,14.9,0,22.4c0,2.2-0.2,3.3-2.9,3.2c-2.4-0.1-3.1-0.8-3.1-3.2c0.1-14.9,0.1-29.9,0-44.8
			c0-2.3,0.5-3.2,3-3.2c2.5,0,3,0.9,3,3.2C806.3,432.1,806.3,439.5,806.3,447z"/>
		<path class="st12" d="M1129.3,447c0-7.5,0.1-14.9,0-22.4c0-2.2,0.4-3.2,2.9-3.2c2.5,0,3,0.9,3,3.2c-0.1,14.9-0.1,29.9,0,44.8
			c0,2.3-0.6,3.1-3,3.2c-2.6,0.1-2.9-1-2.9-3.2C1129.4,462,1129.3,454.5,1129.3,447z"/>
		<path class="st6" d="M413.7,421.1c-14.9,7.7-29.4,6.5-44.5,0.6C384,415.4,401.5,415.1,413.7,421.1z"/>
		<path class="st5" d="M566,357.3c-16.7,9.3-26.3,10.2-43.1,4C539.2,353,543.8,352.6,566,357.3z"/>
		<path class="st6" d="M196.4,378c12.9-9.8,27.4-9.5,41.8-4C225.2,382.9,210.8,382.7,196.4,378z"/>
		<path class="st6" d="M326.8,409.5c14.3-8.5,28.6-5.8,41.8,1.4C354.9,415.9,340.5,417.6,326.8,409.5z"/>
		<path class="st6" d="M277.8,372.6c6.9-1.6,14.1-5.2,20.7-4.4c7.5,0.9,15.5,3.1,22.6,7.4c-7.5-0.1-13.7,6.3-21.6,4.2
			c-7.3-1.9-14.6-4-21.9-6C277.7,373.4,277.7,373,277.8,372.6z"/>
		<path class="st13" d="M514.2,243c0.6,11-4.1,18.8-10.7,25.7c-2.3,2.4-6,0.7-8.9-0.1c-1.3-0.4-0.3-1.8,0-2.5
			c1.4-4.2,3.1-8.4,4.5-12.6c0.6-2,1.9-2.9,3.6-3.8C506.2,247.5,509.7,245.5,514.2,243z"/>
		<path class="st0" d="M529.5,161c7.1,3.4,15.5,17,14.6,23.8c-0.4,3-3.3,4.8-5.5,6.7c-0.9,0.8-1.6-0.8-2.1-1.6
			c-2.6-3.8-5.1-7.7-7.8-11.5c-1.1-1.5-0.9-3-0.7-4.7C528.6,169.7,529,165.5,529.5,161z"/>
		<path class="st6" d="M565.9,369.1c12.9-9.4,26.9-11.1,41.6-7.9C593.1,371.3,587.6,372.4,565.9,369.1z"/>
		<path class="st6" d="M277.2,362.1c-14.1,7.9-28.6,6.4-42.7,0.9C250.1,355.8,257.6,355.6,277.2,362.1z"/>
		<path class="st6" d="M374.8,444.6c13-9,27.2-8.6,41.3-4.1C409,447.4,389.9,449.5,374.8,444.6z"/>
		<path class="st6" d="M195.4,366.7c-12.5,8.6-26.2,11.3-40.7,7.5C166.7,364.2,180.6,362.3,195.4,366.7z"/>
		<path class="st6" d="M117.4,386.1c-7.1,5-13.2,10.6-20.5,13.9c-5.7,2.7-12.7,2.6-19.6,3.8C88.2,391.7,100.3,383.8,117.4,386.1z"/>
		<path class="st9" d="M423.4,361c16.5-8.9,33.3-13.5,51.6-16.3C465.4,354.4,439.5,362.5,423.4,361z"/>
		<path class="st6" d="M483.9,373c19.9-6.8,19.9-6.8,43.2-1C513.1,380.5,498.6,378.9,483.9,373z"/>
		<path class="st6" d="M682.4,333.6c-5.1,4.3-9.9,8.9-15.3,12.7c-4.3,3-9.9,2.1-14.9,3.1c-2.4,0.5-5,0.5-8.1,0.8
			c10.8-9.2,21.4-17.6,36.1-17.8C681.3,332.1,682.5,331.6,682.4,333.6z"/>
		<path class="st6" d="M364.2,391.2c-15.4,3.7-29.4,0.8-42.8-4.7C336.4,378.7,350.2,383.5,364.2,391.2z"/>
		<path class="st6" d="M648.2,360.4c-2.2,1.4-4.7,2.6-6.6,4.3c-9.9,8.6-21.6,8.3-33.7,7.4c11.2-8.7,23.4-13.5,37.5-12.7
			C646.3,359.4,647.9,357.9,648.2,360.4z"/>
		<path class="st6" d="M273.6,352.2c14.5-7.8,28.8-4.4,42.1,2.8C301.5,360.9,287.3,356.5,273.6,352.2z"/>
		<path class="st6" d="M526.9,383.2c13.6-7.4,24.1-8.4,43.6-4.3c-7.3,3.1-14,6.9-21.1,7.4C542.3,386.6,535,384.4,526.9,383.2z"/>
		<path class="st6" d="M234.1,352.8c-13.1,6.9-27.2,8.3-41.3,3.8C199.7,349.5,221.1,347.5,234.1,352.8z"/>
		<path class="st5" d="M114.4,374.7c3.2-2.1,6.6-3.9,9.5-6.3c9.1-7.4,19.6-4.7,30.8-5.2c-11.7,7.5-22.6,14.1-36.2,12.5
			C117,375.8,115.2,377.2,114.4,374.7z"/>
		<path class="st9" d="M484.2,363.4c-16.4,7.8-32.4,9.7-49.8,9C450.2,364.4,466,361.1,484.2,363.4z"/>
		<path class="st9" d="M443.7,385.3c14.6-6.7,29.2-8.1,44.3-2C473.6,390.2,458.8,387.9,443.7,385.3z"/>
		<path class="st9" d="M696.3,455.3c0-4.3,0.2-8.7-0.1-13c-0.1-2.6,0.7-3.9,3.3-4.5c4.1-0.9,8.2-1.4,12.3-1.3c0.9,0,2.7-0.6,2.1,1.5
			c-0.3,1.1-0.3,2.7-2.3,2.6c-3.1-0.1-7.3-1.6-8.9,1.2c-1.5,2.5-0.6,6.4-0.6,9.7c-0.1,5.8-0.1,11.6,0,17.5c0.1,2.4-0.3,3.6-3.2,3.6
			c-2.8,0-2.8-1.4-2.7-3.4C696.4,464.6,696.3,460,696.3,455.3z"/>
		<path class="st6" d="M530.9,392.1c-13.8,7.2-28.4,6.3-42.5,1.1C502.2,386.6,516.8,387.5,530.9,392.1z"/>
		<path class="st6" d="M273.6,341.9c-11.1,5.9-27.4,6.5-42.8,1.4C243.2,337.4,250.9,337.1,273.6,341.9z"/>
		<path class="st9" d="M191.4,346.9c-12.5,7.7-26.3,10.3-40.6,7.2C162.9,345.3,176.7,343.3,191.4,346.9z"/>
		<path class="st6" d="M570.6,388.5c12.6-8.3,26.5-9.5,40.5-7.5C601.7,389.1,584.1,392.4,570.6,388.5z"/>
		<path class="st9" d="M448.7,402.3c14-6.3,28.4-5.2,42.3-0.1C483.4,407.5,465.2,407.6,448.7,402.3z"/>
		<path class="st9" d="M455.1,428.7c-13.6,6.9-27.7,6.6-41.8,2.3C426.9,423.8,441,424.2,455.1,428.7z"/>
		<path class="st6" d="M407.9,411.6c15.5-5.3,30-6.2,44.6-0.2C438,416.4,423.6,415.8,407.9,411.6z"/>
		<path class="st6" d="M406.3,403.4c-14.3,4.1-32.2,2.6-41-3.3c11.8-4,23.7-3.9,35.6,0.6c1.7,0.6,3.6,0.7,5.4,1
			C406.9,402.3,406.9,402.8,406.3,403.4z"/>
		<path class="st9" d="M369.2,339.3c14-2.8,27.8,0,41.7,0.5C399.6,348.4,381.1,348.1,369.2,339.3z"/>
		<path class="st9" d="M230.2,334.4c-13.4,6.6-27.3,7.4-41.3,4C201.9,330.9,215.8,330.6,230.2,334.4z"/>
		<path class="st6" d="M359.1,374.6c-16.1,1.6-29.2-3.4-42.4-9.3c6.5-2.3,15.3-2.7,21.2-0.4C344.5,367.6,351,370.9,359.1,374.6z"/>
		<path class="st9" d="M573.5,396.9c-13.2,6.6-19.9,7.3-42.3,4.4C540.8,395.6,555.4,394.1,573.5,396.9z"/>
		<path class="st9" d="M452.6,420.2c13.8-6,28-5.6,42.1-1.3C480.8,424.4,466.5,425,452.6,420.2z"/>
		<path class="st12" d="M491.4,411.3c14.4-6.7,28.7-5.9,43.9-2.2c-7.7,1.9-14.6,4.7-21.7,5C506.5,414.6,499.2,412.5,491.4,411.3z"/>
		<path class="st6" d="M304.3,318.4c-12.4,2.9-24.7,1.3-37.1-1.5c13-6.3,26-6.8,39-0.1C306.7,318.6,304.8,317.7,304.3,318.4z"/>
		<path class="st6" d="M269.4,333.1c18.9-5.7,30.4-4.9,42.6,3.2C297.4,336.9,283.5,337.7,269.4,333.1z"/>
		<path class="st12" d="M448.5,394c-15.5,4.6-30.2,4.8-45.3,0.4C418.2,389.5,433,389.9,448.5,394z"/>
		<path class="st9" d="M268.2,325.4c-3.1,0.7-6.2,1.1-9.2,2.2c-10.6,4.1-20.8,0.1-31.1-1c11.2-4.4,22.5-6.9,34.4-3.8
			c1.6,0.4,3.3,0.5,4.9,0.8C267.9,324.1,268.9,324.3,268.2,325.4z"/>
		<path class="st14" d="M1075.1,454.8c0-4.8,0.1-9.6,0-14.5c-0.1-2.1,0.5-3,2.8-2.9c1.9,0.1,3.1,0.2,3.1,2.6
			c-0.1,10-0.1,19.9,0,29.9c0,2.5-1.3,2.5-3.1,2.6c-2.3,0.2-2.8-0.8-2.7-2.9C1075.2,464.7,1075.1,459.8,1075.1,454.8z"/>
		<path class="st12" d="M604.3,454.7c0-4.6,0.1-9.3,0-13.9c0-2-0.1-3.5,2.7-3.3c2.2,0.1,3.2,0.5,3.2,3c-0.1,9.8-0.2,19.6,0,29.3
			c0,2.8-1.4,2.7-3.4,2.8c-2.5,0.2-2.6-1.1-2.6-3C604.4,464.7,604.3,459.7,604.3,454.7z"/>
		<path class="st9" d="M358.8,382.1c14.8-2.9,28.1,0.3,42.5,5.5C385.8,390.5,372.3,388.8,358.8,382.1z"/>
		<path class="st9" d="M336.7,313.2c13.6-0.6,21.6,9.1,31,16.1C360.5,332.4,345.6,324.9,336.7,313.2z"/>
		<path class="st6" d="M442.8,377.8c-16.1,7.7-31.2,6.6-47.3,3.2C411.1,376.6,426.2,377.1,442.8,377.8z"/>
		<path class="st12" d="M350.8,358.6c-14.5-0.3-26.1-7.6-38.8-13.2C323.6,342.9,338.8,348.1,350.8,358.6z"/>
		<path class="st9" d="M339.8,325.2c-12.8-3.8-23.3-10.7-34.9-16C322.4,307,323.4,306.6,339.8,325.2z"/>
		<path class="st15" d="M429.2,367.4c-13.8,6.8-28,5.3-42.7,1.6c13.7-4.5,27.3-1.9,40.7-2.6C428.1,366.2,429.3,365.5,429.2,367.4z"
			/>
		<path class="st9" d="M308.6,326.9c16.1-4,25.6,5.8,35.8,15.7C330.7,340.9,320.8,331.8,308.6,326.9z"/>
		<path class="st16" d="M377.2,355.3c14.9-1.5,29.1-0.4,43.2-1.5C414.1,361.4,393.4,362.1,377.2,355.3z"/>
		<path class="st12" d="M374.3,348.9c-12.3-0.6-16.8-2.7-34.5-15.8C347,332.2,361.2,338.6,374.3,348.9z"/>
		<path class="st17" d="M381.9,363c-13.4-0.3-25.6-4.5-36.6-13C359.2,350.5,370.4,357,381.9,363z"/>
		<path class="st17" d="M390,373.6c-13.3,1.2-26.1,0.1-37.3-8.1c3.5,0.5,7.1,0.6,10.6,1.5C372.2,369,381.1,371.3,390,373.6z"/>
		<path class="st18" d="M670,433.5c1.9-3.1,3.4-6,5.5-8.4c1.4-1.6,4-2.5,5.7-0.7c1.7,1.8-1,2.8-2,3.5
			C676.6,430.1,675.3,434.4,670,433.5z"/>
		<path class="st15" d="M1550.6,433.9c5.9-10.7,6.6-11.2,12.2-8.7C1558.7,427.8,1557,433.3,1550.6,433.9z"/>
		<path class="st19" d="M607.3,424.5c2.1,0.2,3.5,1.4,3.5,3.5c-0.1,2.2-1.7,3.1-3.7,3c-2-0.1-3.6-1.1-3.4-3.4
			C603.7,425.6,605.2,424.6,607.3,424.5z"/>
		<path class="st16" d="M1081.5,427.9c-0.1,2.3-1.6,3.2-3.6,3.1c-2-0.1-3.6-0.9-3.5-3.2c0.1-2.1,1.6-3.2,3.6-3.2
			C1080,424.6,1081.5,425.6,1081.5,427.9z"/>
		<path class="st20" d="M414.3,136.6c2.7-0.2,5.5-0.2,8.1,0.9c-2.3-0.1-4.3,0.1-4.1,3.2c0.1,1.2-0.9,1.7-1.9,1.8
			c1.8-2.6,2.4-4.8-1.9-5.2c-0.4-0.1-0.5-0.3-0.4-0.5C414.1,136.7,414.2,136.6,414.3,136.6z"/>
		<path class="st21" d="M415.4,346.6c1.1,1.5,2.8,0.3,4.1,1c-2.1,1.2-4.3,0.8-6.8,0.9C413.3,347.1,414.3,346.8,415.4,346.6z"/>
		<path class="st22" d="M480.4,352.6c0.4,1,1.5,0.6,2.1,1.1c-1.6,1.1-3.5,0.7-5.6,1C477.9,353.1,479.1,352.8,480.4,352.6z"/>
		<path class="st23" d="M114.4,374.7c1.1,1.5,2.8,0.2,4.1,1c-1.4,1-3.1,0.7-4.7,0.9c-0.6,0.1-1.5,0.1-1-0.9
			C113,375.2,113.9,375,114.4,374.7z"/>
		<path class="st24" d="M406.3,403.4c0-0.6,0-1.1,0-1.7c1.1-0.1,2.2-0.1,3.9-0.2C408.7,402.8,407.7,403.6,406.3,403.4z"/>
		<path class="st25" d="M457.4,147.6c0.9,1.4,0.9,3,0.8,4.7c-0.9-0.3-1.6-0.7-1.9-1.6C457.5,149.9,457.1,148.6,457.4,147.6z"/>
		<path class="st26" d="M304.3,318.4c0.6-0.5,1.3-1.1,1.9-1.6c0.8,0.3,1.7,0.6,2.5,0.9c0,0.2,0,0.5,0,0.7
			C307.2,318.4,305.8,318.4,304.3,318.4z"/>
		<path class="st27" d="M414.3,136.6c0,0.3,0.1,0.5,0.1,0.8c-1.8,0.1-3.6,0.4-5.2-0.7c0.4-0.1,0.7-0.2,1.1-0.2
			C411.6,136.5,413,136.5,414.3,136.6z"/>
		<path class="st24" d="M429.2,367.4c-0.7-0.3-1.4-0.7-2-1c1.2-0.8,2.8-1.5,3.9-0.5C431.5,366.3,430.1,367.2,429.2,367.4z"/>
		<path class="st28" d="M374.5,149.6c-0.1-1.1-0.2-2.3,0.8-3.2c0.3,1,0.7,2,1,3.1C375.7,149.5,375.1,149.6,374.5,149.6z"/>
		<path class="st29" d="M268.2,325.4c-0.3-0.6-0.6-1.2-1-1.8c1.1-0.1,2.5-0.7,2.8,0.9C270.2,325.6,269.1,325.5,268.2,325.4z"/>
		<path class="st1" d="M1638.5,294.5c-31.5-49.6-62.9-99.2-94.3-148.8c-2.5-3.9-5.5-7-10.1-8.4c-8.5-2.5-16.3,0.7-21.6,9.1
			c-31.8,50.4-63.5,100.8-95.2,151.2c-0.7,1-1.9,2-1.2,3.8c9.1,0,18.2-0.2,27.3,0.1c3.5,0.1,5.3-1.2,7.1-4.1
			c8.2-13.3,16.7-26.5,24.8-39.8c1.7-2.8,3.6-3.7,6.8-3.7c31.2,0.1,62.3,0.1,93.5,0c3.2,0,5.1,1,6.8,3.8
			c8.1,13.2,16.6,26.1,24.7,39.3c1.9,3.1,3.9,4.6,7.9,4.5c9.1-0.3,18.3,0,27.5,0v-2C1640.3,298.5,1639.6,296.3,1638.5,294.5z
			 M1494.9,226.3c11.4-17.8,22.5-35.3,33.9-53.1c11.3,17.8,22.3,35.2,33.6,53.1H1494.9z"/>
		<path d="M1300.4,354.9c-1.4-15.5-13.2-26.8-28.8-27.1c-15.2-0.3-30.3-0.1-45.5,0c-2.9,0-6,0.6-8.8,1.5c-14.6,4.6-23,21-19.5,37.6
			c3.4,16,14,24.7,30.2,24.8c6.8,0,13.7,0,22.5,0c7.7-0.4,17.4,1.1,27-0.7C1293.3,388,1302.1,373.7,1300.4,354.9z M1287.4,371.3
			c-3.1,6.3-8.5,9.7-15.6,9.7c-15.1,0.1-30.3,0.2-45.4,0c-13.5-0.2-21.8-13.6-17.7-28.3c2.6-9.2,9-14.1,18.6-14.1
			c7.2,0,14.3,0,21.5,0c7.7,0,15.3,0,23,0c7.2,0,12.4,3.4,15.6,9.7C1291.2,355.8,1291.2,363.7,1287.4,371.3z"/>
		<path class="st6" d="M1193.2,424.6c0-2.4-0.7-3.1-3.1-3.1c-2.4,0-2.7,1-2.7,3c0.1,4.1,0,8.3,0,13.1c-4.5-0.8-8.4-1.1-12.4,0
			c-7.5,1.9-12.3,8.3-12.6,17.1c-0.3,8.9,3.7,15.6,10.8,17.7c5.6,1.7,11.2,1.2,16.7-0.2c2.2-0.5,3.2-1.6,3.2-4.1
			C1193.1,453.5,1193.1,439,1193.2,424.6z M1185,469.2c-5.1,1.5-11.2-0.2-14-4.1c-3.7-5.1-3.6-14.7,0.1-19.9
			c3-4.1,10.1-6.3,14.8-4.8c2,0.6,1.4,2,1.5,3.2c0.1,3.7,0,7.3,0,11c0,3.7-0.1,7.3,0,11C1187.6,467.6,1187,468.6,1185,469.2z"/>
		<path class="st6" d="M650.1,451.8c-1.2-11.2-9.4-16.7-21.5-14.4c-1,0.2-1.9,0.3-3.3,0.5c0-4.3,0-8.4,0-12.6c0-1.8,0.8-3.9-2.7-3.9
			c-3.4,0-3.2,1.8-3.2,4.1c0,12.3,0,24.6,0,36.9c0,9.9,0.5,10.4,10.4,11c0.8,0,1.7,0,2.5,0C644.5,472.8,651.4,464.4,650.1,451.8z
			 M643.3,461.6c-2.1,6-7.4,8.9-14.3,7.9c-2.4-0.3-3.9-1.1-3.7-4c0.3-3.5,0.1-7,0.1-10.5c0-2.2-0.3-4.4,0.1-6.5
			c0.4-2.6-1.8-6.2,1.6-7.5c3.7-1.5,7.8-1.5,11.5,0.7C643.8,444.9,646,454.1,643.3,461.6z"/>
		<path class="st6" d="M1413.5,446.1c0-6.5,0.1-13-0.1-19.5c-0.1-1.9,1.9-5.3-2.9-5.1c-4.7,0.2-2.3,3.5-2.7,5.4c-0.4,1.9-0.3,4,0,6
			c0.5,3.9-0.8,4.7-4.6,4.2c-11-1.4-19.4,5.4-20,15.8c-0.8,13.3,5.2,20.4,17.8,20.4c3,0,5.9-0.6,8.9-1c2.7-0.4,3.8-1.7,3.7-4.7
			C1413.3,460.4,1413.5,453.3,1413.5,446.1z M1403.8,469.5c-5.2,0.4-10-0.3-13-5.3c-3.1-5.3-2.5-14.5,1.1-19.4
			c2.9-3.8,8.9-5.6,14-4.4c1.9,0.4,1.8,1.5,1.8,2.9c0,3.8,0,7.6,0,11.4c0,3.5-0.2,7,0.1,10.4
			C1408.1,468.3,1406.4,469.3,1403.8,469.5z"/>
		<path class="st6" d="M889.8,436.8c-4.5-0.7-9-0.1-13.3,1.1c-1.9,0.5-3.1,1.3-3.1,3.7c0.1,14,0.1,28,0,42c0,2.3,0.9,2.8,3,2.8
			c2,0,3.1-0.4,3-2.7c-0.2-3.6,0-7.3,0-11.2c2.2,0.3,3.9,0.6,5.7,0.7c10.2,0.8,18-5.8,19.2-16.1C905.4,446,900.1,438.4,889.8,436.8z
			 M895.3,465.1c-3.2,3.9-9.2,5.7-14,4.4c-2.1-0.5-2-1.9-2-3.4c0-3.8,0-7.7,0-11.5c0-3.3,0.2-6.7-0.1-10c-0.3-3.1,1.2-4.1,3.9-4.3
			c5.2-0.5,10-0.1,13.2,4.9C899.6,450.4,899.1,460.4,895.3,465.1z"/>
		<path class="st6" d="M926.9,436.5c-10.1,0-16.4,7.2-16.4,18.5c0.1,11.3,6.4,18.3,16.5,18.4c10.1,0,16.4-7.1,16.3-18.5
			C943.3,443.5,937.1,436.5,926.9,436.5z M926.9,469.4c-6.5-0.1-10.3-5.5-10.4-14.4c0-2.9,0.4-5.6,1.4-8.3c1.7-4,4.6-6.4,9.2-6.3
			c4.6,0.1,7.4,2.6,9,6.6c1.1,2.6,1.3,5.5,1.3,8.3C937.4,464.2,933.4,469.5,926.9,469.4z"/>
		<path class="st5" d="M1325,445.2c-1.6-3.8-4.5-6.4-8.6-7.7c-12.4-4-22.1,3.7-22.1,17.9c-0.1,2,0.2,4.3,0.8,6.6
			c2.1,7.2,7.4,11.3,15,11.5c7.6,0.2,13.4-3.6,15.6-10.7C1327.6,456.9,1327.4,450.9,1325,445.2z M1310.5,469.4
			c-6.5,0-10.3-5.4-10.4-14.4c0-3,0.3-6,1.6-8.8c1.8-3.8,4.7-5.9,9-5.9c4.3,0.1,7.2,2.2,8.8,6.1c1.1,2.6,1.4,5.4,1.6,7.1
			C1321.2,463.8,1317.2,469.4,1310.5,469.4z"/>
		<path class="st6" d="M1451.7,444.6c-1.7-3.6-4.6-6-8.5-7.2c-12.3-3.7-21.9,3.8-21.9,17.4c-0.2,3.4,0.5,6.6,1.8,9.7
			c2.7,6.3,7.9,8.8,14.3,8.9c6.4,0.1,11.9-2.3,14.5-8.5C1454.8,458.1,1454.8,451.3,1451.7,444.6z M1437.5,469.4
			c-6.6-0.1-10.6-5.8-10.3-14.9c0.1-2,0.4-4,0.9-5.9c1.5-5.6,4.8-8.2,9.8-8.2c4.9,0.1,8.2,2.9,9.5,8.5c0.5,1.9,0.7,3.9,0.8,4.4
			C1448.2,464.1,1444.2,469.5,1437.5,469.4z"/>
		<path class="st6" d="M1223.3,437.5c-6.9-2-13.5-1.4-18.3,4.3c-5.6,6.6-5.4,14.5-2.4,22.1c2.9,7.3,9.6,9.1,17.6,9.5
			c2.1-0.4,5.1-0.7,8-1.4c1.1-0.3,3.5-0.1,2.8-2.5c-0.5-2.1-1.8-2.3-3.8-1.6c-2,0.7-4.2,1.1-6.3,1.3c-6.6,0.7-11.7-2.6-13.8-8.3
			c-1.1-3.1-0.3-4.1,2.8-4.4c6.4-0.6,12.9-1.4,19.3-2.2c1.4-0.2,3.5,0.4,3.8-2.2C1233.8,446.3,1229.2,439.2,1223.3,437.5z
			 M1222.3,451.9c-4.4,0.6-8.9,1.1-13.3,1.7c-1.5,0.2-2.8,0.6-2.8-2c0-6.1,4.8-11.2,11.4-11.3c3-0.2,6,0.9,7.9,4
			C1228.6,449.1,1227.7,451.1,1222.3,451.9z"/>
		<path class="st6" d="M1584.8,456.6c6.5-0.5,12.9-1.6,19.3-2.1c2.8-0.3,3.6-1.4,3.3-4.1c-0.6-6.4-3.9-11-9.4-12.8
			c-7-2.3-14.8-0.5-18.6,4.7c-5.1,6.9-5.3,14.6-1.9,22.2c3.1,7,9.5,8.7,17.6,9.1c2.1-0.4,5.2-0.9,8.2-1.6c1.1-0.3,2.9-0.2,2.3-2.4
			c-0.5-1.8-1.4-2.3-3.3-1.7c-1.9,0.6-3.9,1-5.8,1.3c-7,1-12.2-2-14.5-7.8C1580.7,458.1,1581.3,456.9,1584.8,456.6z M1581.1,450.4
			c0.9-6.1,4.7-9.9,10.4-10.1c5.6-0.2,9.1,2.5,10.1,7.5c0.5,2.3,0.3,3.7-2.6,3.9c-5,0.4-9.9,1.2-15.7,2
			C1581.4,454.2,1580.6,453.2,1581.1,450.4z"/>
		<path class="st6" d="M824.2,456.5c6.3-0.4,12.5-1.5,18.8-2.1c2.7-0.3,3.7-1.1,3.5-4c-0.7-7.6-5.2-12.7-12.7-13.7
			c-11.4-1.6-19.2,5.7-19.3,17.9c-0.1,12.6,7.8,19.8,20.3,18.7c1.3-0.1,2.7-0.3,3.9-0.6c2.1-0.6,6,0.2,5.6-3c-0.5-4.6-3.8-0.8-5.8-1
			c-1.4-0.1-2.9,0.5-4.4,0.6c-5.9,0.4-10.7-2.5-13-7.4C819.6,458.6,819.9,456.8,824.2,456.5z M820,450.7c0.8-6.4,5-10.5,12-10.4
			c2.4-0.1,5.1,1,7,3.6c3.3,4.5,2.2,7.2-3.2,8c-4.3,0.6-8.6,1-12.8,1.7C820.4,454,819.7,453.3,820,450.7z"/>
		<path class="st6" d="M665.8,456.6c6.5-0.5,12.9-1.6,19.3-2.1c2.8-0.3,3.6-1.4,3.3-4.1c-0.6-6.5-4-11.2-9.9-12.9
			c-6.7-1.9-13.2-1.2-17.8,4.4c-5.5,6.6-5.6,14.4-2.5,22.1c3,7.3,9.5,9.1,17.7,9.6c2.2-0.4,5.3-0.9,8.3-1.6c1.1-0.3,2.9-0.2,2.3-2.4
			c-0.5-1.8-1.4-2.4-3.3-1.7c-2.2,0.7-4.5,1.2-6.8,1.4c-6.4,0.7-11.4-2.5-13.5-7.9C661.7,458.2,662.2,456.9,665.8,456.6z
			 M661.9,451.3c0.3-6.4,4.9-11,12-11c2.4-0.1,5.1,1,7,3.6c3.2,4.3,2.1,7.3-3.1,8c-4.4,0.6-8.9,1.1-13.3,1.7
			C662.6,453.9,661.8,453.4,661.9,451.3z"/>
		<path class="st6" d="M981.8,456.6c6.5-0.6,12.9-1.5,19.3-2.2c1.9-0.2,3.4-0.3,3.5-3.1c0.1-6.4-3.8-12.2-9.9-13.9
			c-6.7-1.9-13.2-1.1-17.8,4.4c-5.5,6.6-5.6,14.4-2.5,22.1c3,7.3,9.6,9.1,17.2,9.5c2-0.3,4.5-0.3,6.9-1.1c1.5-0.5,4.6,0.3,4.1-2.8
			c-0.6-3.8-3.2-1.4-5-1.1c-1.8,0.3-3.6,0.7-5.4,0.8c-6.5,0.4-11.2-2.8-13.3-8.3C977.7,457.8,978.6,456.9,981.8,456.6z M978.2,450.1
			c1-6,5-9.7,10.6-9.8c5.7-0.1,8.9,2.8,10,8.3c0.4,2.2,0,2.9-2.3,3.1c-5.1,0.5-10.2,1.3-16.1,2.1
			C977.8,454.6,977.8,452.6,978.2,450.1z"/>
		<path class="st6" d="M726.6,456.6c6.5-0.6,12.9-1.6,19.3-2.1c3.1-0.3,3.8-1.5,3.6-4.4c-0.7-7.1-5.1-12.1-12.1-13.2
			c-11.7-2-20,5.6-19.9,19.6c0.2,5.3,2,11.2,8.3,14.5c6.8,3.6,13.8,2.8,20.8,0.5c1.1-0.4,1.5-1,0.9-2.2c-0.5-1.2-0.9-2.1-2.5-1.7
			c-2.4,0.6-4.8,1.3-7.3,1.6c-6.7,0.8-11.7-2.4-13.9-8.1C722.8,458.2,723.2,456.9,726.6,456.6z M723.2,450c1-5.9,5.1-9.8,10.6-9.8
			c5.6-0.1,9,2.9,9.9,8.4c0.4,2.2-0.1,3-2.3,3.1c-2,0.1-3.9,0.5-5.9,0.8c-3.1,0.4-6.2,0.8-10,1.2C722.7,454.5,722.8,452.6,723.2,450
			z"/>
		<path class="st6" d="M1546.1,456.6c6.3-0.5,12.5-1.6,18.8-2.1c4-0.3,4.6-1.9,3.9-5.4c-1.7-8.3-6.8-12.6-16-12.6
			c-6,0.2-11.3,2.9-14.1,9.2c-3.4,7.3-1.7,18.1,3.3,22.9c5.1,4.9,16.7,6.3,23.6,3.1c1.3-0.6,2.1-1,1.4-2.5c-0.6-1.3-1.3-2.1-3-1.5
			c-2.2,0.7-4.5,1.2-6.8,1.5c-6.5,0.8-12-2.5-13.9-8.1C1542.4,458.3,1542.8,456.9,1546.1,456.6z M1542.5,450.4
			c1.1-6.1,4.9-9.8,10.5-10c5.3-0.2,8.8,2.2,10,7c0.7,2.6,0.7,4.3-2.9,4.5c-4.9,0.3-9.9,1.2-15.6,2
			C1542.2,454.4,1542.1,452.7,1542.5,450.4z"/>
		<path class="st6" d="M1098.1,456.6c6.5-0.5,12.9-1.4,19.3-2.2c1.7-0.2,3.7,0.1,3.8-2.8c0.2-6.4-4.1-12.5-10.3-14.3
			c-12.3-3.6-21.8,4.1-21.7,17.1c-0.1,7.1,1.6,12.9,7.7,16.3c6.9,3.9,14.1,3,21.3,0.9c1.3-0.4,1.5-1.3,1-2.3c-0.5-1-0.9-2.1-2.6-1.7
			c-2.4,0.7-4.8,1.3-7.3,1.6c-6.5,0.8-12-2.6-13.9-8.1C1094.4,458.3,1094.7,456.9,1098.1,456.6z M1094.4,450.5
			c0.9-5.8,4.7-9.7,9.9-10.1c5.4-0.4,9,1.8,10.5,6.4c0.9,2.9,1.1,4.9-3.1,5.1c-4.8,0.2-9.5,1.2-15.1,2
			C1094.6,454.4,1094,453,1094.4,450.5z"/>
	</g>
</g>
</svg>
