<?xml version="1.0" encoding="utf-8"?>
<!-- Generator: Adobe Illustrator 22.0.1, SVG Export Plug-In . SVG Version: 6.00 Build 0)  -->
<svg version="1.1" id="Calque_1" xmlns="http://www.w3.org/2000/svg" xmlns:xlink="http://www.w3.org/1999/xlink" x="0px" y="0px"
	 viewBox="0 0 309.3 476.6" style="enable-background:new 0 0 309.3 476.6;" xml:space="preserve">
<style type="text/css">
	.st0{fill:#E5E8F2;}
	.st1{fill:#FFFFFF;}
	.st2{fill:#B5BAE0;}
	.st3{fill:#F4986C;}
	.st4{fill:#F9A77B;}
	.st5{fill:#F7F8FC;}
	.st6{fill:#FF841F;}
	.st7{fill:#7F39FA;}
	.st8{fill:none;stroke:#B5BAE0;stroke-width:6.55;stroke-linecap:round;stroke-miterlimit:10;}
	.st9{fill:#FC6DE6;}
	.st10{fill:#F2C5F3;}
	.st11{fill:none;stroke:#E5E8F2;stroke-width:6.55;stroke-linecap:round;stroke-miterlimit:10;}
	.st12{fill:#FFD6C7;}
	.st13{fill:#C277FF;}
</style>
<title>En résumé</title>
<g id="Calque_2_1_">
	<g id="Calque_1-2">
		<path class="st0" d="M78.4,15h223.4c4.2,0,7.6,3.4,7.6,7.5c0,0.7-0.1,1.5-0.3,2.2l-40.8,134c-1,3.2-3.9,5.4-7.2,5.4H37.6
			c-4.2,0-7.6-3.4-7.6-7.6c0-0.7,0.1-1.5,0.3-2.2l40.7-134C72.1,17.2,75,15,78.4,15z"/>
		<path class="st1" d="M158.7,471.9c-4.8-4.9-17.5-12.7-17.5-12.7l-11.2-4.8l-0.5,6.7C139.1,463.4,146.6,474.9,158.7,471.9z"/>
		<path class="st2" d="M160.5,474.7c0-0.7-0.7-1.6-1.8-2.8c-12.1,3-19.6-8.5-29.2-10.8l-0.1,1.8C129.4,463,160.4,478.3,160.5,474.7z
			"/>
		<polygon class="st3" points="132.2,455.3 138.6,438.7 149.4,443.7 139.9,458.6 		"/>
		<path class="st2" d="M97.1,470.6c0,0,24.8,8.4,23.9,5.4c-0.2-0.4-0.4-0.8-0.7-1.1c-8.1-0.6-14.8-5.2-22.4-6.5L97.1,470.6z"/>
		<path class="st1" d="M107,464.2l-6.4-2.4l-2.6,6.5c7.5,1.3,14.2,5.9,22.4,6.5C117.5,471.2,107,464.2,107,464.2z"/>
		<polygon class="st4" points="100.6,461.8 105.3,445 113,450.2 108.1,464.5 		"/>
		<path class="st5" d="M84.9,20.3h207.3c3.9,0,7,3.1,7,7c0,0.7-0.1,1.4-0.3,2.1l-37.8,124.4c-0.9,3-3.6,5-6.7,5H47.1
			c-3.9,0-7-3.1-7-7c0-0.7,0.1-1.4,0.3-2.1L78.2,25.3C79.1,22.3,81.8,20.3,84.9,20.3z"/>
		<path class="st2" d="M199.1,87.2c3.2-10.4,12.4-21.2,23.3-21.5c10.6-0.2,13.4,13.7,10.6,22.2c-3.4,10.6-13.1,21.5-24.1,21.8
			C198.3,110,196.6,95.4,199.1,87.2z"/>
		<path class="st6" d="M115.1,224.6c0,0,88.6,40,93.4,47S154.1,451,154.1,451c-6.9-5.9-16-8.7-25.1-7.5c0,0,33.1-152.2,36.8-159.6
			s-86-36.8-86-36.8l-15.7,15.7c0,0-29.4-16-13-30.6S115.1,224.6,115.1,224.6z"/>
		<path class="st4" d="M133.1,72.8c-0.6-3.3-1.8-6.6-2-10c-0.2-4.2,1.3-8.8-0.8-12.5c-2.8,0.5-5.6,1.4-8.1,2.8
			c0,9.9-5.5,21.1-5.5,30.9c2.7,2.1,5.5,2.4,8.5,3.3c1.5,0.5,6.2,1.2,7,0.3c0.3-0.5,0.5-1,0.5-1.6C133.3,81.7,133.8,77.2,133.1,72.8
			z"/>
		<path class="st7" d="M95.2,21.9c1.1,11.5-11.5,16.5-14.3,25.9c-2,5,5,7,8,4c6.5-7.6,14.7-17.2,24.1-22.8c-5,0.8-9.7,3.5-13.6,6.8
			C98.2,31.1,96.8,26.5,95.2,21.9z"/>
		<path class="st7" d="M127.4,34.1c-9.2,6.8-15.6,17.6-14.8,29c0.3-0.3,0.5-0.6,0.6-1c2.5-6.3,10.3-10.3,17.1-11.7
			c0,0,0.4-9.8-1.6-14.2C128.4,35.4,127.9,34.7,127.4,34.1z"/>
		<path class="st3" d="M220.2,90.1c-0.7,1-1.8,1.7-2.1,2.9c-0.2,0.7,0,1.3-0.2,2c-0.3,1.5-1.9,2.4-3.3,3.1
			c-6.6,3.4-12,8.7-15.7,15.1c-3,0.1-5.8-1.5-7.4-4l-0.1,0.2c2-3.3,6.1-5.3,8.5-8.5c3.2-4.4,2.8-10.8,6.1-15.1
			c2.8-3.7,7.7-5.2,12.2-6.4c1.2,1.6,2.1,3.3,2.8,5.2C221.5,86.3,221.3,88.4,220.2,90.1z"/>
		<path class="st3" d="M117.2,103.6c0.3,0.1,0.6,0.2,0.8,0.2c-3.1,1.4-6.5,2.4-9.9,2.7c-6.9,0.9-13.9-1-19.4-5.1l3.9-1.4
			c2.8-1,5.6-2.2,7.4-4.5c1.4-1.7,1.8-4,1.2-6.1c4,0,7.8-1.2,11-3.4c-0.1,0-0.1-0.1-0.2-0.1c-2.9-4.2-6.4-19-6.1-23.7
			c0.2-2.6,6.5,2.2,7.3-0.1c1.8-5.2,5-6.9,9-9c0,9.9-5.5,21.1-5.5,30.9c-0.1-0.1-0.2-0.1-0.2-0.2h-0.1c0,0,0,0,0,0
			C116.8,89.9,116.7,98.2,117.2,103.6z"/>
		<path class="st1" d="M200,113.1c-7.8,17-16.6,33.6-26.4,49.6c-0.6,1.7-2.5,2.5-4.2,1.9c-0.1,0-0.3-0.1-0.4-0.2
			c-16-4.2-31.1-11.3-44.6-20.9c-0.7-0.6-1.2-1.5-1.2-2.4c-1.4,10.7-5.5,20.8-12,29.4c-2.4,3.2-5.2,6.2-7.4,9.6
			c-7.2,11.1-8.5,25.1-3.5,37.3c0.5,1.3,1.1,2.5,1.8,3.7c1.4,2.5,3.7,5.2,6.5,4.6c-12.3,9.1-29.2,8.4-44.5,7.4l-12.9-0.9
			c-1.7-24.2,6.8-49.1,16.6-71.3c9.6-21.2,24.9-37.8,40.3-54.2c3.4-0.4,6.8-1.3,9.9-2.7c10.6,3.1,19,11.1,26.1,19.5
			c7.3,8.7,13.6,18.2,22.4,25.5c12.4-9.6,13.6-28.7,24.9-39.6l0.1-0.2c1.6,2.5,4.4,4.1,7.4,4C199.3,113.2,199.6,113.1,200,113.1z"/>
		<path class="st6" d="M53.8,247.8c-1.4-5.1-2.3-10.4-2.6-15.7c-1.9-0.1-7.9-0.6-9.8-0.7c-0.5,8.7,1.2,19.1,7.1,25.5
			c3.3,3.6,10.9,5,15.7,5.8C59.2,259,55.6,253.8,53.8,247.8z"/>
		<path class="st0" d="M67.8,160.8C58,183,49.5,207.9,51.2,232.2l-5.8-0.4l-2.8-0.2c-2-16-0.9-32.2,3.2-47.8
			c2.6-9.9,6.4-19.5,11.3-28.5C62.7,145.1,70,134,67,122.8c-0.4-1.1-0.6-2.2-0.6-3.3c0.1-0.9,0.3-1.8,0.7-2.6c1.2-2.6,3-5,5.2-6.8
			c4.5-3.9,10.5-6.4,16.4-8.5c5.6,4.2,12.5,6,19.4,5.1C92.7,123,77.5,139.6,67.8,160.8z"/>
		<path class="st2" d="M67.1,116.9c-0.4,0.8-0.7,1.7-0.7,2.6c0,1.1,0.3,2.2,0.6,3.3c3,11.2-4.3,22.3-9.9,32.5
			c-4.9,9-8.7,18.6-11.3,28.5c-1.3-2.4-8.6-15.7-8-26.5c0.6-11.9,25.6-43.3,33.2-46.8c0.4-0.2,0.9-0.3,1.4-0.4
			C70.1,111.9,68.4,114.3,67.1,116.9z"/>
		<line class="st8" x1="26.4" y1="360.4" x2="42.1" y2="264.5"/>
		<line class="st8" x1="131.6" y1="367.6" x2="116.7" y2="265.6"/>
		<path class="st9" d="M42.1,255.7l1.5-2.5L38.7,164c-1.7-5.5-8.2-8.7-13.9-7.7s-10.4,5.4-13,10.5s-3.4,11-3.8,16.8
			c-0.9,14.8,1,29.6,1.1,44.5c0.1,9.6,0.9,24.7,9.2,31.7c8.9,7.4,18.3,5.8,27.3,6.8C42.4,264.1,41.8,260.2,42.1,255.7z"/>
		<path class="st10" d="M135.8,253.7l-93.7,2c-0.4,4.5,0.3,8.4,3.5,10.9c0.9,0.1,1.8,0.2,2.7,0.4c9.2,1.7,53.6-0.2,69.9-0.2
			c6,0,12.4-2.5,15.8-6.3C137.7,256.5,138.4,258.5,135.8,253.7z"/>
		<line class="st11" x1="5.1" y1="370.5" x2="34" y2="265.6"/>
		<line class="st11" x1="93.9" y1="373.9" x2="111.6" y2="264.5"/>
		<path class="st12" d="M122.3,226.5c-5.3-3.4-11.6-7-17.5-5c-1-1.8-2.6-3.3-4.4-4.2c0.5,1.3,1.1,2.5,1.8,3.7
			c1.4,2.5,3.7,5.2,6.5,4.6c-12.4,9.1-29.2,8.5-44.6,7.5l-12.9-0.9c0.4,5.3-1.6,9.4-0.2,14.5c1.9,6.4,6.9,13.4,17.1,13.7
			c6.2,0.2,12.3,1.1,18.1-1.1c1.5-0.7,3.1-1.1,4.7-1c1.1,0.3,2.1,0.7,3.1,1.4c16.8,9.9,34.6,18.1,53.1,24.3c0.9,0.2,1.8,0.7,2.4,1.4
			c0.4,0.8,0.6,1.6,0.5,2.5c-0.7,23.2-13.1,44.3-23.9,64.8s-33.3,76.3-28.7,99.1c11.3-1.6,23.8-3,33.4,3.3
			c2.2-14.8,17.2-62.3,19.9-77c2.2-12.4,4.7-25,10.8-36.1c3.2-5.9,7.3-11.1,10.9-16.7c8.4-13,13.9-27.6,19.4-42
			C173,259.6,147.4,242.8,122.3,226.5z"/>
		<path class="st7" d="M33.8,132.8c-6,12-27,19-23,34c2,11,10,22,10,33c-0.6,6.7-1.4,13.7-2.3,20.9c1.5-0.7,2.8-1.8,3.8-3.1
			c1.7-2.5,2.4-5.6,3-8.5c0.9-4.2,1.8-8.4,1.5-12.7c-0.2-3.5-1.1-6.9-1.2-10.4c-0.2-8.4,4.4-16.3,9.9-22.7c0.8-0.9,1.5-1.8,2.3-2.6
			c4.9-5.4,10.3-10.4,14.3-16.4c5-7.5,7.7-16,8.8-24.9c1.6-12.2,0.3-25.2-1.5-37.4c-0.7-4.6-1.5-9.3-0.9-14c0.3-2.8,1.2-5.4,2.7-7.8
			C30.5,63.3,45.2,111,33.8,132.8z"/>
		<path class="st13" d="M88.8,51.8c-3,3-10,1-8-4c2.8-9.5,15.5-14.4,14.3-25.9C92.6,15,88.9,8.8,82.9,4.7C75.4-0.4,65.5-1,56.7,1.3
			S39.9,8.4,32.4,13.5C21.5,20.9,10.6,29.4,5.1,41.3C-2.8,58.2,1.6,78,6.7,96c2.5,8.7,5.1,17.7,3.4,26.6c-2.2,11.7-11.6,22-9.9,33.8
			c1.6,11.3,13.1,19.2,14.8,30.5c0.9,5.9-1.1,11.8-3.3,17.4c-1.2,3-2.4,6.1-2.3,9.4s2,6.7,5.1,7.5c1.3,0.3,2.7,0.2,4-0.4
			c0.8-7.1,1.7-14.2,2.3-20.9c0-11-8-22-10-33c-4-15,17-22,23-34C45.2,111,30.5,63.3,61.2,60c1-1.6,2.3-3,3.8-4.1
			c3.9-2.6,15-1.3,15-1.3c-5.2,9.9-2.2,23.3,6.7,30c4.1,3.2,9.1,4.9,14.3,4.9c5.2-0.1,10.2-2.1,13.9-5.7l0.2-0.2
			c-0.2-0.2-0.5-0.4-0.6-0.8c-0.7-4.5-1.3-5.8-3.7-9.2c-1.5-2.1-2.8-7-2.4-8.8c0.8-3.8,2.7-0.6,4-1.8c-0.4-11.2,5.6-22.2,14.8-29
			c-2.9-3.7-8.1-5.6-12.9-5.3c-0.6,0-1.1,0.1-1.6,0.2C103.6,34.7,95.3,44.3,88.8,51.8z"/>
	</g>
</g>
</svg>
