<?xml version="1.0" encoding="utf-8"?>
<!-- Generator: Adobe Illustrator 22.0.1, SVG Export Plug-In . SVG Version: 6.00 Build 0)  -->
<svg version="1.1" id="Calque_1" xmlns="http://www.w3.org/2000/svg" xmlns:xlink="http://www.w3.org/1999/xlink" x="0px" y="0px"
	 viewBox="0 0 399.6 547.8" style="enable-background:new 0 0 399.6 547.8;" xml:space="preserve">
<style type="text/css">
	.st0{fill:#E5E8F2;}
	.st1{fill:#788EF7;}
	.st2{fill:#F7F8FC;}
	.st3{fill:#B5BAE0;}
	.st4{fill:#56D5F4;}
	.st5{fill:#D5CCFC;}
	.st6{fill:#FC6DE6;}
	.st7{fill:none;stroke:#FC6DE6;stroke-width:1.1852;stroke-miterlimit:10;}
	.st8{fill:#C277FF;}
	.st9{fill:#FF841F;}
	.st10{fill:#FFFFFF;}
	.st11{fill:#F9A77B;}
	.st12{fill:#FFD6C7;}
	.st13{fill:#F3F4F8;}
	.st14{fill:#F4986C;}
	.st15{fill:#7F39FA;}
</style>
<g>
	<g>
		<g>
			<path class="st0" d="M206.8,473.1c-4.4,1.4,45.4,8,49-0.5C256.8,470.4,249.7,459,206.8,473.1z"/>
			<path class="st0" d="M127.9,441.4c1.4,2.3,39.7,9.7,43-1.9C174.2,427.9,125.3,437.1,127.9,441.4z"/>
			<path class="st0" d="M80.4,490.8c-1.1,2.4-38.6,6.5-42.9,3.5C27.7,487.3,82.5,486.1,80.4,490.8z"/>
			<path class="st1" d="M3.8,23.4L49.3,333c1.3,8.6,8.7,15,17.4,15h6.9c-8.7,0-16.1-6.4-17.4-15L10.6,23.4
				C9.1,12.8,17.3,3.2,28.1,3.2h-6.9C10.4,3.2,2.2,12.8,3.8,23.4z"/>
			<path class="st2" d="M10.6,23.4L56.2,333c1.3,8.6,8.7,15,17.4,15H250c10.8,0,19-9.5,17.4-20.2L221.9,18.3
				c-1.3-8.6-8.7-15.1-17.4-15.1H28.1C17.3,3.2,9.1,12.8,10.6,23.4z"/>
			<path class="st3" d="M188.2,348l50.4,122.5c1.4,3.4,5.2,5,8.6,3.6c3.4-1.4,5-5.2,3.6-8.6L202.5,348H188.2z"/>
			<path class="st3" d="M71.9,493.2c2.5,0.7,5.1-0.8,5.9-3.3l39.2-141.6c0-0.1,0-0.2,0-0.3h-9.8L68.6,487.4
				C67.9,489.9,69.4,492.5,71.9,493.2z"/>
			<path class="st3" d="M149.2,348l7.1,91.3c0.2,2.6,2.5,4.6,5.1,4.4c2.6-0.2,4.6-2.5,4.4-5.1l-7-90.6H149.2z"/>
		</g>
		<path class="st0" d="M165.1,167.9c2.4,3.3,2.4,17.8,2.4,17.8l-22.9,2.6c0,0-2.4-17-4.1-18L165.1,167.9z"/>
		<path class="st0" d="M232.5,238.5H57.9c-4.8,0-8.9-3.6-9.5-8.4L40,163.1c-0.7-5.7,3.7-10.7,9.5-10.7h174.6c4.8,0,8.9,3.6,9.5,8.4
			l8.4,67.1C242.7,233.5,238.2,238.5,232.5,238.5z"/>
		<path class="st0" d="M246.7,332.6H72c-4.8,0-8.9-3.6-9.5-8.4l-8.4-67.1c-0.7-5.7,3.7-10.7,9.5-10.7h174.6c4.8,0,8.9,3.6,9.5,8.4
			l8.4,67.1C256.8,327.6,252.4,332.6,246.7,332.6z"/>
		<path class="st0" d="M218.3,144.4H43.7c-4.8,0-8.9-3.6-9.5-8.4L25.8,69c-0.7-5.7,3.7-10.7,9.5-10.7h174.6c4.8,0,8.9,3.6,9.5,8.4
			l8.4,67.1C228.5,139.4,224.1,144.4,218.3,144.4z"/>
		<path class="st4" d="M176.3,75.6c1.9,2.7,2.4,17.1,2.4,17.1l24.1-0.3l-1.1-17.4L176.3,75.6z"/>
		<path class="st5" d="M59.8,93.9c1.9,2.7,2.4,17.1,2.4,17.1l24.1-0.3l-1.1-17.4L59.8,93.9z"/>
		<path class="st6" d="M188.3,170c1.9,2.7,2.4,17.1,2.4,17.1l24.1-0.3l-1.1-17.4L188.3,170z"/>
		<path class="st5" d="M143.4,200.8c1.9,2.7,2.4,17.1,2.4,17.1l24.1-0.3l-1.1-17.4L143.4,200.8z"/>
		<path class="st6" d="M109.5,92.1c1.9,2.7,2.4,17.1,2.4,17.1L136,109l-1.1-17.4L109.5,92.1z"/>
		<path class="st6" d="M96.9,290.7c1.9,2.7,2.4,17.1,2.4,17.1l24.1-0.3l-1.1-17.4L96.9,290.7z"/>
		<path class="st7" d="M63.6,172.2c1.9,2.7,2.4,17.1,2.4,17.1l24.1-0.3l-1.1-17.4L63.6,172.2z"/>
		<path class="st8" d="M148.9,108.8c-2.1,3.5-1.1,18-1.1,18l23,0.8c0,0,1.1-17.1,2.7-18.2L148.9,108.8z"/>
		<path class="st8" d="M186.2,261c-2.1,3.5-1.1,18-1.1,18l23,0.8c0,0,1.1-17.1,2.7-18.2L186.2,261z"/>
		<path class="st9" d="M74.5,177c1.9,2.7,2.4,17.1,2.4,17.1l24.1-0.3l-1.1-17.4L74.5,177z"/>
		<g>
			<path class="st10" d="M284.7,541.8v-11.1c0,0-19,1.6-32.6,7.3s-7.9,6-5.1,6S284.7,541.8,284.7,541.8z"/>
			<path class="st10" d="M387.1,525.3c0,0,4.1,9.8,2.2,12c-1.9,2.2-25.6,1.6-27.5,0.6C359.9,537,379.5,524.1,387.1,525.3z"/>
			<path class="st11" d="M339.4,174.5c-0.1-0.3-0.2-0.5-0.3-0.8l0.2-0.6C339.3,173.5,339.4,174,339.4,174.5z"/>
			<path class="st11" d="M395.3,292.1c-4.8,4.9-10.5-0.4-15.3-4.1c-4.9-3.7-3-10.1-6.7-16.1c-3.7-6-31.4-48.2-32.1-58.2
				c-0.4-5.4-1.8-13.5-3-19.7v0c0.2-0.9,0.4-1.9,0.5-2.8c0.7-4.7,1-9.4,0.8-14.2c0,0,0,0,0,0c1.8-10.7,3.4-17.7,3.7-19
				c0-0.1,0-0.2,0-0.2s7.3,42.4,15.9,62.6c8.6,20.2,17.2,45.2,23.5,50.8C389,276.8,400.2,287.2,395.3,292.1z"/>
			<path class="st9" d="M391.1,499.7l-9.5,2.2l-11,2.6l-13.4,3.1c0,0-16.6-64.8-22.9-84.5c-3.6-11.1-11.9-48-18.4-78.1
				c4.1-11.9,8.3-24.3,11.3-36.5c8.7-34.6,11.1-66.4,11.1-66.4s11.1,103.5,14.2,117.7C355.6,374.1,391.1,499.7,391.1,499.7z"/>
			<path class="st12" d="M338.2,242.1c0,0-2.3,31.7-11.1,66.4c-3.1,12.2-7.2,24.6-11.3,36.5c-5.6,16.1-11.1,31.2-14,43.4
				c-9.5,41.1-3.2,117.7-3.2,117.7s-7.4,2.2-15.1,3.4c-3.7,0.6-7.6,0.9-10.7,0.5c-2.6-0.3-4.7-1-5.8-2.3c0,0-9.5-124.8-7.1-143
				c2.4-18.2,23.7-119.3,23.7-119.3L338.2,242.1z"/>
			<path class="st11" d="M306.3,149.8c-0.7,0.6-1.4,1.1-2.1,1.6c-4-2.7-6.2-5.6-2.8-6.4c7.8-1.7,4.8-15,4.8-15s-8.6,3.3-9.9,1.5
				c-1.3-1.8-4.2-11.4-3.5-13.6c0.5-1.4,0.7-10.8,0.8-17.2c5.5,7.2,8.3,15.7,11,24.8c0.1,0.2,0.2,0.4,0.4,0.6
				c0.2,0.2,0.3,0.4,0.5,0.6c0.6,0.6,1.4,1.1,2.3,1.3c0.3,0.5,0.7,1,1.2,1.5c0.8,0.8,1.7,1.5,2.8,2.2c0.1,0.1,0.2,0.2,0.3,0.2
				C312.9,138.8,311,145.6,306.3,149.8z"/>
			<path class="st2" d="M283.7,245.3c2-10.4,0-46.5-2-52.7c-1.9-6.2,0.4-13.9,0.4-13.9h-5l-1-4.1l-4.6-19l-0.6-2.4l30.6-8.1
				c0,0,0,0,0,0c-3.4,0.8-1.2,3.7,2.8,6.4c3.8,2.5,9.1,4.7,12.9,4.5c-0.1,0.3-0.2,0.7-0.4,1c-0.1,1.9-0.4,3.8-1.5,5.4
				c-7.1,11.9-9.5,24.9-2.4,36.7v-1.2c0.6,4.3,0,8.5-0.8,12.8c3.7,2.3,8.4,2.9,12.6,1.7c0.8-0.2,1.6-0.5,2.4-0.9
				c4.1-2.1,7-5.9,8.8-10.2c-2.5,22.9,2.3,40.9,2.3,40.9L283.7,245.3z"/>
			<path class="st13" d="M343.2,157.8c0,0,0,0.1,0,0.2c-0.3,1.2-1.8,8.3-3.7,19c0-0.8-0.1-1.7-0.1-2.5c0-0.5-0.1-1-0.1-1.4
				c-0.6-6.7-2-13.3-4.3-19.6L343.2,157.8z"/>
			<path class="st13" d="M339.4,174.5c-0.1-0.3-0.2-0.5-0.3-0.8l0.2-0.6C339.3,173.5,339.4,174,339.4,174.5z"/>
			<path class="st14" d="M203.4,78.1c-3.6-0.9-5.4,1.9-5.9,6.2c-0.4,3.3-2.2,7.9-0.6,11.8c4.2,10.2,9.3,12.8,9.9,16.3
				c0.6,3.1,6.6,45,15.9,58.6c-1.5-20.7-12.5-41.3-15.3-62C202.8,98.7,198.3,89.4,203.4,78.1z"/>
			<path class="st11" d="M276.1,174.6c-4.7,0.7-38.7,5.3-49.4,0.2c-1.4-0.6-2.7-2-3.9-3.8c-1.5-20.7-12.5-41.3-15.3-62
				c-4.6-10.3-9.2-19.6-4.1-30.9c1.1,0.3,2.3,0.8,3.6,1.8c9.6,6.7,3.7,17.4,4.3,29.3c0.6,11.9,22.7,49.6,22.7,49.6s0,0,1,0
				c0.9,0,35.6-3.1,36.5-3.2L276.1,174.6z"/>
			<path class="st14" d="M307.8,128.1C307.8,128.1,307.8,128.1,307.8,128.1c-0.9-0.3-1.7-0.7-2.3-1.3c-0.4-0.4-0.7-0.8-0.9-1.2
				c-2.7-9.2-5.5-17.6-11-24.8c0-3.4,0.1-6,0.1-6c0.4-1,0.9-1.8,1.5-2.5c0,0,0,0,0,0c0.8,4.8,3.6,10.8,5.3,15.3c0,0,2.8-1.7,4.4,0.8
				c2,3.1,3,11,2.5,17.9c0,0.1,0,0.2,0,0.2c0,0.3,0,0.5,0.1,0.8C307.6,127.6,307.7,127.9,307.8,128.1z"/>
			<path class="st11" d="M309,129.7c-0.5-0.5-0.9-1-1.2-1.5c0,0,0,0,0,0C308.1,128.6,308.5,129.2,309,129.7z"/>
			<path class="st14" d="M321.2,140.7c-0.7,3.6-1.6,7.4-2.8,11.2c-0.4,1.3-0.8,2.7-1.3,4c-3.8,0.2-9.2-2-12.9-4.5
				c0.8-0.5,1.5-1,2.1-1.6c4.6-4.2,6.6-11.1,5.8-17.8c0.5,0.3,1.1,0.7,1.6,1c0.2,0.1,0.5,0.3,0.7,0.4c0.3,0.2,0.6,0.4,0.9,0.6
				l0.6,0.4c0.5,0.3,0.9,0.6,1.3,0.8c0.1,0.1,0.2,0.2,0.4,0.2c0.1,0.1,0.2,0.2,0.4,0.3c0.1,0.1,0.2,0.2,0.3,0.2
				c0.1,0.1,0.2,0.2,0.3,0.2c0.1,0.1,0.2,0.2,0.3,0.2c0.1,0.1,0.3,0.2,0.4,0.4c0.2,0.1,0.3,0.3,0.5,0.4c0.5,0.6,0.9,1.1,1.2,1.7
				c0,0.1,0,0.1,0.1,0.2C321.2,139.8,321.3,140.2,321.2,140.7z"/>
			<g>
				<path class="st15" d="M311.8,131.8c-1.1-0.7-2.1-1.4-2.8-2.2c-0.5-0.5-0.9-1-1.2-1.5c-0.1-0.2-0.2-0.5-0.3-0.8
					c-0.1-0.3-0.1-0.5-0.1-0.8c0-0.1,0-0.2,0-0.2c0.5-6.9-0.5-14.8-2.5-17.9c-1.7-2.5-4.4-0.8-4.4-0.8c-1.7-4.5-4.5-10.6-5.3-15.3
					c0,0,0,0,0,0c-0.3-2-0.6-4,0.2-5.9c0.6-1.4,1.8-2.5,3-3.4c1.1-0.8,2.4-1.7,3.7-2.5c-0.6,11.1,2.9,22.1,8.5,31
					C313.8,117,313.7,124.4,311.8,131.8z"/>
			</g>
			<g>
				<path class="st5" d="M339.3,173l-0.2,0.6c-0.3-0.9-0.6-1.8-0.9-2.7c-0.3-0.9-0.6-1.8-0.9-2.7c-0.6-1.8-1.1-3.5-1.7-5.3
					c0,0,0-0.1,0-0.2c-0.4-1.2-0.8-2.5-1.2-3.7c-0.2-0.7-0.4-1.3-0.6-1.9c-0.3-0.9-0.6-1.7-0.9-2.5c-0.3-0.9-0.6-1.8-1-2.7
					c-0.2-0.6-0.4-1.1-0.6-1.7c-0.2-0.4-0.3-0.9-0.5-1.3c-0.2-0.4-0.4-0.9-0.5-1.3c-0.5-1.3-1.1-2.5-1.7-3.7
					c0.2,0.2,0.3,0.3,0.5,0.5c1.8,1.8,3.7,3.7,4.2,4.8c0.6,1.4,1.1,2.8,1.7,4.2C337.3,159.8,338.7,166.4,339.3,173z"/>
			</g>
			<g>
				<path class="st0" d="M339.4,174.5c-0.1-0.3-0.2-0.5-0.3-0.8l0.2-0.6C339.3,173.5,339.4,174,339.4,174.5z"/>
			</g>
			<g>
				<path class="st15" d="M315.3,162.3c-7.1,11.9-9.5,24.9-2.4,36.7c0,0,4,7.1-0.8,11.6c-0.1-0.1-0.2-0.1-0.3-0.2
					c-0.8-0.5-1.5-1.1-2-1.9c-1.6-2.5-0.4-5.7-0.4-8.6c0.2-6.9-6-13.3-4.5-20.1c0.8-3.5,3.6-6.2,5.5-9.3c2.5-4,4.6-8.8,6.3-13.7
					C316.7,158.9,316.3,160.7,315.3,162.3z"/>
			</g>
			<g>
				<path class="st8" d="M339.5,177c0.2,4.7-0.1,9.5-0.8,14.2c-0.1,0.9-0.3,1.9-0.5,2.8v0c-0.5,2.5-1.2,4.9-2.2,7.2v0
					c-1.8,4.3-4.7,8.1-8.8,10.2c-0.8,0.4-1.6,0.7-2.4,0.9c-4.2,1.2-8.9,0.7-12.6-1.7c4.6-5.1,0.8-11.6,0.8-11.6
					c-7.1-11.9-4.7-24.9,2.4-36.7c1.1-1.6,1.4-3.4,1.5-5.4c0.1-0.4,0.2-0.7,0.4-1c0.5-1.3,0.9-2.6,1.3-4c1.1-3.8,2.1-7.7,2.8-11.2
					c0.1-0.5,0.1-1-0.1-1.4c0-0.1,0-0.1-0.1-0.2c-0.2-0.6-0.6-1.2-1.2-1.7c-0.1-0.1-0.3-0.3-0.5-0.4c-0.1-0.1-0.3-0.2-0.4-0.4
					c-0.1-0.1-0.2-0.2-0.3-0.2c-0.1-0.1-0.2-0.2-0.3-0.2c-0.1-0.1-0.2-0.2-0.3-0.2c-0.1-0.1-0.2-0.2-0.4-0.3
					c-0.1-0.1-0.2-0.2-0.4-0.2c-0.4-0.3-0.8-0.6-1.3-0.8l-0.6-0.4c-0.3-0.2-0.6-0.4-0.9-0.6c-0.2-0.1-0.5-0.3-0.7-0.4
					c-0.5-0.3-1.1-0.7-1.6-1c-0.1-0.1-0.2-0.2-0.3-0.2c1.9-7.5,2-14.8-1.3-20.5c-5.6-8.9-9-19.9-8.5-31c3.1-2,6.7-3.7,10-3.9
					c2.1-0.1,8-0.2,13.9,1.8c0.4,0.1,0.9,0.3,1.3,0.5c3.8,2.6,7.4,5.4,10.6,8.4c3.2,5.3,0.8,9.5,1.3,16.4c0.5,7.5-5.6,17-7.2,24.3
					c-0.4,2-1.8,3.6-3.2,5.1c-1.9,2.1-3.8,4.1-3.2,6.9c0.2,1,1.6,2.6,3.1,4.1c0.6,1.2,1.1,2.5,1.7,3.7c0.2,0.4,0.4,0.9,0.5,1.3
					c0.2,0.4,0.4,0.9,0.5,1.3c0.2,0.6,0.4,1.1,0.6,1.7c0.3,0.9,0.7,1.8,1,2.7c0.3,0.8,0.6,1.7,0.9,2.5c0.2,0.6,0.4,1.3,0.6,1.9
					c0.4,1.2,0.8,2.5,1.2,3.7c0,0,0,0.1,0,0.2c0.6,1.8,1.1,3.5,1.7,5.3c0.3,0.9,0.6,1.8,0.9,2.7c0.3,0.9,0.6,1.8,0.9,2.7
					c0.1,0.3,0.2,0.5,0.3,0.8C339.4,175.3,339.5,176.1,339.5,177C339.5,177,339.5,177,339.5,177z"/>
			</g>
			<g>
				<path class="st5" d="M337.9,87.1c-3.2-3-6.8-5.8-10.6-8.4c3.6,1.4,7.1,3.6,9.7,7.1C337.3,86.2,337.6,86.6,337.9,87.1z"/>
			</g>
			<path class="st14" d="M283.9,514.4c-3.2,0.8-6.6,0.6-10,0.7c-0.3-2.1-0.7-4-0.9-5.2c3.1,0.3,6.9,0,10.7-0.5L283.9,514.4z"/>
			<path class="st11" d="M273.8,515.2c0.8,5.3,1.4,12.3-0.2,14.6c-2.8,3.8-2.8,3.8-2.8,3.8s0,4.1,7,0.6c7-3.5,7-3.5,7-3.5l-0.8-16.3
				C280.7,515.2,277.3,515,273.8,515.2z"/>
			<path class="st14" d="M383.2,508.8l-1.6-6.9l-11,2.6c0.5,1,1,2.3,1.6,3.7C375.9,508.3,379.6,509,383.2,508.8z"/>
			<path class="st11" d="M387.1,525.3l-3.9-16.5c-3.6,0.2-7.3-0.6-11.1-0.6c2.6,6.5,6,16,4.2,19c0,0-1.3,7.6,7.3,2.2
				C392.2,524.1,387.1,525.3,387.1,525.3z"/>
		</g>
	</g>
	<path class="st3" d="M243.1,542.6c-1.7,3.9,41.6,1.6,41.6,1.6l0-2.4C284.7,541.8,244.1,540.3,243.1,542.6z"/>
	<path class="st3" d="M361.2,538.7c-3.6,2.4,29.7-0.4,29.7-0.4l-0.9-2.2C389.9,536.2,362.8,537.6,361.2,538.7z"/>
</g>
</svg>
