<?xml version="1.0" encoding="UTF-8"?>
<svg width="68px" height="54px" viewBox="0 0 68 54" version="1.1" xmlns="http://www.w3.org/2000/svg" xmlns:xlink="http://www.w3.org/1999/xlink">
    <!-- Generator: Sketch 52 (66869) - http://www.bohemiancoding.com/sketch -->
    <title>laptop copy</title>
    <desc>Created with Sketch.</desc>
    <g id="Desktop" stroke="none" stroke-width="1" fill="none" fill-rule="evenodd">
        <g id="Home-Copy-2" transform="translate(-1046.000000, -1032.000000)">
            <g id="Group-2" transform="translate(730.000000, 965.000000)">
                <g id="Web" transform="translate(240.000000, 0.000000)">
                    <g id="laptop-copy" transform="translate(76.290323, 67.000000)">
                        <rect id="Rectangle" fill="#FFFFFF" x="6.20967742" y="5" width="55" height="38"></rect>
                        <rect id="Rectangle" fill="#C277FF" x="6.20967742" y="4" width="56" height="10"></rect>
                        <path d="M60.8076064,0 L7.49687702,0 C4.8304286,0 2.66129032,2.45431548 2.66129032,5.47113095 L2.66129032,48.8095238 C2.66129032,49.4675595 3.13078259,50 3.71102151,50 L64.5954301,50 C65.175669,50 65.6451613,49.4675595 65.6451613,48.8095238 L65.6451613,5.47113095 C65.6451613,2.45431548 63.4749733,0 60.8076064,0 Z M6.86021505,41.6666667 L6.86021505,5.95238095 C6.86021505,5.29494048 7.33023219,4.76190476 7.90994624,4.76190476 L60.3965054,4.76190476 C60.9762194,4.76190476 61.4462366,5.29494048 61.4462366,5.95238095 L61.4462366,41.6666667 C61.4462366,42.3241071 60.9762194,42.8571429 60.3965054,42.8571429 L7.90994624,42.8571429 C7.33023219,42.8571429 6.86021505,42.3241071 6.86021505,41.6666667 Z" id="Shape" fill="#5C546A" fill-rule="nonzero"></path>
                        <path d="M66.366057,48 L1.05342948,48 C0.471146333,48 0,48.5362844 0,49.1990707 C0,51.8466189 1.89182766,54 4.21779994,54 L63.2015549,54 C65.5275272,54 67.4193548,51.8466189 67.4193548,49.1990707 C67.4194865,48.5362844 66.9483402,48 66.366057,48 Z" id="Path" fill="#B9BBC1"></path>
                        <path d="M19.3189964,11 L11.7293907,11 C11.1300829,11 10.6451613,10.55275 10.6451613,10 C10.6451613,9.44725 11.1300829,9 11.7293907,9 L19.3189964,9 C19.9183042,9 20.4032258,9.44725 20.4032258,10 C20.4032258,10.55275 19.9183042,11 19.3189964,11 Z" id="Path" fill="#7F39FA"></path>
                        <path d="M37.8494624,11 L36.6666667,11 C36.0128763,11 35.483871,10.55275 35.483871,10 C35.483871,9.44725 36.0128763,9 36.6666667,9 L37.8494624,9 C38.5032527,9 39.0322581,9.44725 39.0322581,10 C39.0322581,10.55275 38.5032527,11 37.8494624,11 Z" id="Path" fill="#FFFFFF"></path>
                        <path d="M43.172043,11 L41.9892473,11 C41.335457,11 40.8064516,10.55275 40.8064516,10 C40.8064516,9.44725 41.335457,9 41.9892473,9 L43.172043,9 C43.8258333,9 44.3548387,9.44725 44.3548387,10 C44.3548387,10.55275 43.8258333,11 43.172043,11 Z" id="Path" fill="#FFFFFF"></path>
                        <path d="M48.4946237,11 L47.311828,11 C46.6580376,11 46.1290323,10.55275 46.1290323,10 C46.1290323,9.44725 46.6580376,9 47.311828,9 L48.4946237,9 C49.148414,9 49.6774194,9.44725 49.6774194,10 C49.6774194,10.55275 49.148414,11 48.4946237,11 Z" id="Path" fill="#FFFFFF"></path>
                        <path d="M53.8172043,11 L52.6344086,11 C51.9806183,11 51.4516129,10.55275 51.4516129,10 C51.4516129,9.44725 51.9806183,9 52.6344086,9 L53.8172043,9 C54.4709946,9 55,9.44725 55,10 C55,10.55275 54.4709946,11 53.8172043,11 Z" id="Path" fill="#FFFFFF"></path>
                        <path d="M29.9745331,40 L11.7190153,40 C11.1259794,40 10.6451613,39.477625 10.6451613,38.8333333 L10.6451613,20.1666667 C10.6451613,19.522375 11.1259794,19 11.7190153,19 L29.9745331,19 C30.567569,19 31.0483871,19.522375 31.0483871,20.1666667 L31.0483871,38.8333333 C31.0483871,39.477625 30.567569,40 29.9745331,40 Z" id="Path" fill="#F3F4F8"></path>
                        <path d="M54.8310292,21 L34.765745,21 C34.1820036,21 33.7096774,20.55275 33.7096774,20 C33.7096774,19.44725 34.1820036,19 34.765745,19 L54.8310292,19 C55.4147705,19 55.8870968,19.44725 55.8870968,20 C55.8870968,20.55275 55.4147705,21 54.8310292,21 Z" id="Path" fill="#7F39FA"></path>
                        <path d="M43.2903226,30 L34.7741935,30 C34.1857823,30 33.7096774,29.55275 33.7096774,29 C33.7096774,28.44725 34.1857823,28 34.7741935,28 L43.2903226,28 C43.8787339,28 44.3548387,28.44725 44.3548387,29 C44.3548387,29.55275 43.8787339,30 43.2903226,30 Z" id="Path" fill="#B9BBC1"></path>
                        <path d="M43.2903226,35 L34.7741935,35 C34.1857823,35 33.7096774,34.55275 33.7096774,34 C33.7096774,33.44725 34.1857823,33 34.7741935,33 L43.2903226,33 C43.8787339,33 44.3548387,33.44725 44.3548387,34 C44.3548387,34.55275 43.8787339,35 43.2903226,35 Z" id="Path" fill="#B9BBC1"></path>
                        <path d="M43.2903226,39 L34.7741935,39 C34.1857823,39 33.7096774,38.55275 33.7096774,38 C33.7096774,37.44725 34.1857823,37 34.7741935,37 L43.2903226,37 C43.8787339,37 44.3548387,37.44725 44.3548387,38 C44.3548387,38.55275 43.8787339,39 43.2903226,39 Z" id="Path" fill="#B9BBC1"></path>
                        <path d="M55.7096774,30 L47.1935484,30 C46.6051371,30 46.1290323,29.55275 46.1290323,29 C46.1290323,28.44725 46.6051371,28 47.1935484,28 L55.7096774,28 C56.2980887,28 56.7741935,28.44725 56.7741935,29 C56.7741935,29.55275 56.2980887,30 55.7096774,30 Z" id="Path" fill="#B9BBC1"></path>
                        <path d="M55.7096774,35 L47.1935484,35 C46.6051371,35 46.1290323,34.55275 46.1290323,34 C46.1290323,33.44725 46.6051371,33 47.1935484,33 L55.7096774,33 C56.2980887,33 56.7741935,33.44725 56.7741935,34 C56.7741935,34.55275 56.2980887,35 55.7096774,35 Z" id="Path" fill="#B9BBC1"></path>
                        <path d="M55.7096774,39 L47.1935484,39 C46.6051371,39 46.1290323,38.55275 46.1290323,38 C46.1290323,37.44725 46.6051371,37 47.1935484,37 L55.7096774,37 C56.2980887,37 56.7741935,37.44725 56.7741935,38 C56.7741935,38.55275 56.2980887,39 55.7096774,39 Z" id="Path" fill="#B9BBC1"></path>
                        <path d="M48.6129032,25 L34.7741935,25 C34.1857823,25 33.7096774,24.55275 33.7096774,24 C33.7096774,23.44725 34.1857823,23 34.7741935,23 L48.6129032,23 C49.2013145,23 49.6774194,23.44725 49.6774194,24 C49.6774194,24.55275 49.2013145,25 48.6129032,25 Z" id="Path" fill="#C277FF"></path>
                        <path d="M29.5698925,50 L37.8494624,50 C38.9925605,50 39.9193548,49.1045 39.9193548,48 L27.5,48 C27.5,49.104625 28.426665,50 29.5698925,50 Z" id="Path" fill="#8B8996"></path>
                    </g>
                </g>
            </g>
        </g>
    </g>
</svg>