<?xml version="1.0" encoding="utf-8"?>
<!-- Generator: Adobe Illustrator 22.0.1, SVG Export Plug-In . SVG Version: 6.00 Build 0)  -->
<svg version="1.1" id="Calque_1" xmlns="http://www.w3.org/2000/svg" xmlns:xlink="http://www.w3.org/1999/xlink" x="0px" y="0px"
	 viewBox="0 0 237 659.9" style="enable-background:new 0 0 237 659.9;" xml:space="preserve">
<style type="text/css">
	.st0{opacity:0.32;fill:#242951;}
	.st1{fill:#C277FF;}
	.st2{fill:#7F39FA;}
	.st3{fill:#242951;}
	.st4{fill:#F9A77B;}
	.st5{fill:#F4986C;}
	.st6{fill:#FFFFFF;}
	.st7{fill:#D3D9FF;}
	.st8{fill:#B5BAE0;}
	.st9{fill:#788EF7;}
</style>
<g>
	<g>
		<g>
			<path class="st0" d="M173,67.9c-0.4,0-0.7,0-1.1,0c0,0,0,0-0.1,0c-0.3,0-0.7-0.1-1-0.1c0,0,0,0,0,0c0,0,0,0,0,0s0,0,0,0
				c0.2,0,0.4,0,0.5,0c0.3,0,0.6,0,0.9,0.1C172.5,67.9,172.7,67.9,173,67.9z"/>
			<path class="st1" d="M172,68c0,0-0.1-0.1-0.1-0.1c0,0,0,0,0,0c0,0,0.1,0,0.1,0C171.9,67.9,171.9,67.9,172,68
				C171.9,67.9,171.9,67.9,172,68z"/>
			<path class="st1" d="M186.4,122.1c-0.4,1.2-0.8,2.4-0.6,3.7c0.1,1.3,0.7,2.4,1.3,3.5c3.2,5.7,6.8,11.3,9.2,17.5
				c2.3,6.2,3.2,13.2,0.6,19.3c-2.6,6.2-8.2,10.3-14.1,13.8c-0.8-7.7,6.4-15.1-1.4-20.3c-10.4-5.2-10.1-14.7-9.7-24.9
				c0.4-1.7,0.8-3.4,1-5.2c1.1-8-1.5-16.4-6.8-22.6v0c-1-1.2-2.2-2.4-3.4-3.4c-0.3-0.3-0.6-0.5-0.9-0.7c-0.5-0.4-1.1-0.8-1.6-1.2
				c0,0,0,0,0,0h0c-1.4-1.1-2.9-2.3-4-3.7c-0.6-0.8-1.1-1.7-1.5-2.6c-1.2-4.5,0.8-8.6,3.8-12.4c0.5-0.6,1-1.2,1.5-1.8
				c0.1-0.1,0.2-0.2,0.3-0.4c0.2-0.3,0.4-0.5,0.7-0.8c1.2-1.4,2.5-2.7,3.8-4.1c0.2-0.3,0.5-0.5,0.7-0.7c0.1-0.1,0.1-0.1,0.2-0.2
				c0.1-0.2,0.3-0.3,0.4-0.5c0,0,0,0,0,0c0.4-0.5,0.9-1,1.3-1.5c0.1-0.2,0.3-0.3,0.4-0.5c0.3-0.3,0.5-0.7,0.8-1c0,0,0,0,0-0.1
				c0.1-0.1,0.2-0.3,0.3-0.4c0.2-0.3,0.4-0.5,0.5-0.8c0.3-0.4,0.5-0.7,0.7-1.1c0.2-0.4,0.5-0.8,0.7-1.2c0.3,0,0.7,0.1,1,0.1
				c0,0,0.1,0.1,0.1,0.1c0,0,0-0.1-0.1-0.1c0.4,0,0.7,0,1.1,0c-0.2,0-0.5,0-0.7,0c-0.1,0-0.3,0-0.4,0C165.5,55.3,153,49,140.4,42.7
				c-5.6-5.6-1.3-18.6-9-25.9c7.3-5.5,16.4-8.8,26.4-8.8c20.8,0,38.1,14.4,41.8,33.4c1.6,6,2.2,12.5,2.2,18.7
				c0.1,5.2-0.2,10.2-0.5,14.3C200.2,91,191.6,106.2,186.4,122.1z"/>
			<path class="st1" d="M158.4,82.8c0.5-0.6,1-1.2,1.5-1.8C159.4,81.6,158.9,82.2,158.4,82.8z"/>
			<path class="st1" d="M170.8,67.8C170.8,67.8,170.8,67.8,170.8,67.8c-0.2,0.4-0.4,0.8-0.7,1.2C170.4,68.6,170.6,68.2,170.8,67.8z"
				/>
			<path class="st1" d="M171.8,67.8C171.8,67.8,171.8,67.9,171.8,67.8c-0.3,0-0.7,0-1-0.1C171.1,67.8,171.5,67.8,171.8,67.8z"/>
			<path class="st1" d="M173,67.9c-0.4,0-0.7,0-1.1,0c0,0,0,0,0,0C172.3,67.9,172.6,67.9,173,67.9z"/>
			<path class="st2" d="M171.9,67.8c0,0-0.1,0-0.1,0c-1.1-0.9-2.1-0.9-3.2-0.3c-0.7-0.1-1.4-0.2-2.1-0.3c-0.3-0.1-0.7-0.1-1-0.2
				c-0.7-0.1-1.4-0.3-2.1-0.5c-0.3-0.1-0.7-0.2-1-0.3c-0.7-0.2-1.4-0.4-2-0.6c-0.5-0.2-1.1-0.4-1.6-0.5c-0.3-0.1-0.6-0.2-0.8-0.3
				c0,0,0,0,0,0c-0.5-0.2-0.9-0.3-1.3-0.5c-0.4-0.2-0.8-0.3-1.1-0.5c-0.2-0.1-0.4-0.2-0.6-0.3c-0.4-0.2-0.8-0.4-1.2-0.6c0,0,0,0,0,0
				c-0.5-0.2-1-0.5-1.4-0.7c-0.2-0.1-0.5-0.3-0.7-0.4c-0.2-0.1-0.5-0.3-0.7-0.4c-0.5-0.3-0.9-0.5-1.4-0.8c-0.4-0.2-0.8-0.5-1.1-0.7
				c-0.1-0.1-0.3-0.2-0.4-0.3c0,0,0,0,0,0c-0.4-0.3-0.8-0.5-1.1-0.8c-0.2-0.1-0.3-0.2-0.5-0.4c-0.1-0.1-0.2-0.1-0.3-0.2
				c-7.6-5.6-13.7-13.4-17.4-22.5c-0.2-0.4-0.3-0.8-0.5-1.2c-0.3-0.9-0.6-1.8-0.9-2.7c-0.1-0.4-0.2-0.7-0.3-1.1
				c-0.1-0.3-0.1-0.5-0.2-0.8c-0.1-0.3-0.2-0.6-0.2-0.8c-0.5-2.1-0.9-4.2-1.2-6.4c1.9-2.2,4-4.1,6.3-5.9c7.7,7.3,3.4,20.3,9,25.9
				C153,49,165.5,55.3,171.9,67.8z"/>
			<path class="st1" d="M171.8,67.8c-1.1-0.9-2.1-0.9-3.2-0.3c0.7,0.1,1.5,0.2,2.2,0.3c0,0,0,0,0,0
				C171.1,67.8,171.5,67.8,171.8,67.8z"/>
			<path class="st2" d="M182.8,179.8c-1.3,0.8-2.5,1.5-3.8,2.2c-2.4-4.2-2.1-9.3-2.9-14.1c-0.9-5.2-3.1-10.1-4.5-15.1v0
				c-0.9-3.1-1.5-6.1-1.4-9.3c0.1-2.5,0.6-4.9,1.2-7.3v0c0.1-0.6,0.3-1.1,0.4-1.7c-0.4,10.2-0.7,19.7,9.7,24.9
				C189.3,164.7,182,172.1,182.8,179.8z"/>
			<path class="st3" d="M173,67.9c-0.4,0-0.7,0-1.1,0c0,0,0,0-0.1,0c-0.3,0-0.7-0.1-1-0.1c0,0,0,0,0,0c0,0,0,0,0,0s0,0,0,0
				c0.2,0,0.4,0,0.5,0c0.3,0,0.6,0,0.9,0.1C172.5,67.9,172.7,67.9,173,67.9z"/>
		</g>
		<path class="st4" d="M146.7,58.9c-0.2-0.1-0.3-0.2-0.5-0.4h-2.6C144.7,58.5,145.7,58.6,146.7,58.9z"/>
		<path class="st4" d="M138.2,89.1c-1.4,0.2-2.7,0.2-4,0C135.4,89.1,136.7,89.2,138.2,89.1z"/>
		<path class="st5" d="M170.8,67.8C170.8,67.8,170.8,67.8,170.8,67.8C170.8,67.8,170.8,67.8,170.8,67.8c-0.2,0.4-0.4,0.8-0.7,1.2
			c-0.2,0.4-0.5,0.7-0.7,1.1c-0.2,0.2-0.4,0.5-0.6,0.8c-0.1,0.1-0.2,0.3-0.3,0.4c0,0,0,0,0,0.1c-0.3,0.3-0.5,0.7-0.8,1
			c-0.1,0.2-0.3,0.3-0.4,0.5c-0.4,0.5-0.8,1-1.3,1.5c0,0,0,0,0,0c-0.2,0.2-0.3,0.3-0.4,0.5c-0.1,0.1-0.1,0.1-0.2,0.2
			c-0.2,0.2-0.5,0.5-0.7,0.7c-1.3,1.4-2.6,2.7-3.8,4.1c-0.2,0.2-0.5,0.5-0.7,0.8c-0.1,0.1-0.2,0.2-0.3,0.4c-0.5,0.6-1,1.2-1.5,1.8
			c-3.1,3.9-5.1,7.9-3.8,12.4c0.4,0.9,0.9,1.8,1.5,2.6c1.1,1.4,2.6,2.6,4,3.7c-8.8-3.7-16.5,1.2-16.5,1.2v-15
			c-1.9,0.8-3.7,1.2-5.3,1.4c-1.5,0-2.8,0-4,0c-2.1-0.3-3.9-1-5.5-2.2c-2.7-6-6.5-22-7.8-24.7c-1.6-3.4,1.7-10.9,1.7-14.9
			c0-1.9-0.4-4.4-0.7-6.5c-0.4-2.1-0.8-3.8-0.8-4c0,0,0,0,0,0c0.7-5.5,1.6-9.3,4-14.1c0.9,6.8,3,13.2,6.2,18.8
			c12.9,8.5,33.5,24.9,33.5,24.9s-0.1,0.1-0.2,0.3c0.3,0.1,0.6,0.1,0.9,0.2c0.3,0.1,0.7,0.1,1,0.2c0.9,0.2,1.8,0.3,2.7,0.4l0.2,0h0
			C169.9,67.7,170.4,67.7,170.8,67.8z"/>
		<path class="st6" d="M173.3,298.9c1.6-29.2,0.8-56.8-10.4-84.4l-23,35.4l20.5,21.8l5.6,5.9c0.8,0.9,1.4,1.9,1.8,3
			c0.9,2.8,0.1,5.9-2.1,8l-4.5,4.2l-36.3,34.1c-3.1,3-8.1,2.8-11-0.3L96,307.7l-5.2-5.5c-7.1,15.6-13.6,24.6-13.6,24.6
			s8.8,2.4,20.8,4.8l0.1,0c9.4,1.9,20.7,3.7,31.3,4.4c2.7,0.2,5.3,0.3,7.9,0.3H171C170.9,323.7,172.3,311.1,173.3,298.9z"/>
		<path class="st7" d="M181.4,336.2c0,0,0-94.7-6.3-110.5c-3.3-8.2-5-16.5-5.7-21.3l-6.4,9.9c11.3,27.6,12,55.2,10.4,84.4
			c-1.1,12.3-2.5,24.9-2.4,37.4h1C177.9,336.2,181.4,336.2,181.4,336.2z"/>
		<path class="st4" d="M172,200.5l-2.6,4l-29.5,45.3l-9,13.8c0,0-9.5,31.6-18.9,22.1c-9.5-9.5,9.5-28.4,9.5-28.4l10-16.4l24.7-40.4
			l-9.2-76.7l-0.3-2.2c0-5.2,4.2-9.5,9.5-9.5c5.2,0,9.5,4.2,9.5,9.5l4.8,59.6L172,200.5z"/>
		<path class="st4" d="M94.1,351.5l-56.8,282c2.6,5.1,5.2,6.1,9.4,6.3L124,352.5C114.1,351.9,104.1,351.4,94.1,351.5z"/>
		<path class="st6" d="M44.6,646.5l2.1-6.6c-4.2-0.2-6.8-1.1-9.4-6.3c0,0-17.9-5.1-26.1-3.8C16.8,641.8,33.7,640.2,44.6,646.5z"/>
		<path class="st8" d="M11.2,629.8c-0.9,0.1-1.7,0.4-2.4,0.7c-6.3,3.2,34.7,18.9,34.7,18.9l0.9-2.9
			C33.7,640.2,16.8,641.8,11.2,629.8z"/>
		<path class="st5" d="M98,331.6l-4,20c10-0.1,20,0.4,29.9,0.9l5.3-16.5L98,331.6z"/>
		<path class="st5" d="M170.4,353.5l1.6-17.3h-28.8l0.2,17.2C152.5,353.9,161.5,354,170.4,353.5z"/>
		<path class="st6" d="M219.4,613.9c5.5-1.2,9.1-6.1,9.9-11.9c-0.4-0.9-1.1-1.8-2-2.8c-4.5,3.3-10.8,2.8-16.5,2.6
			c-0.7,0.6-8.5,6.9-12.9,11.5C203.9,617.6,212.9,616.1,219.4,613.9z"/>
		<path class="st8" d="M229.3,602c-0.8,5.8-4.4,10.7-9.9,11.9c-6.5,2.2-15.6,3.7-21.5-0.6c-1.7,1.8-2.8,3.3-2.8,4.2
			c0,3.2,15.8,3.2,25.2-3.2C228,609.3,231.5,606.3,229.3,602z"/>
		<path class="st4" d="M229.4,602.2c-0.2-0.2-0.4-0.4-0.6-0.7c-6.3-6.3-60-230.5-60-230.5l1.6-17.4c-8.9,0.5-17.9,0.3-27-0.1
			l0.2,17.5L213,604.7c0,0-0.1,0.1-0.1,0.1C218.6,605,224.9,605.5,229.4,602.2z"/>
	</g>
	<path class="st7" d="M165.7,288.6l-4.5,4.2l-36.3,34.1c-3.1,3-8.1,2.8-11-0.3L96,307.7l-5.2-5.5l-28.6-30.4
		c-0.9-15.7,23-30,35.7-39.2c3.7-2.6,4.7-7.7,8.4-10.4c0.1-0.1,0.3-0.1,0.4-0.1c0.4-0.1,0.9-0.2,1.3-0.3c0.2,0,0.3,0,0.5-0.1
		c0.3,0,0.6-0.1,0.9-0.1c0.2,0,0.3,0,0.5,0c0.3,0,0.6,0,0.9,0c0.2,0,0.4,0,0.6,0.1c0.1,0,0.3,0,0.4,0c0.6,0.1,1.2,0.2,1.8,0.3
		l17.7,18.8l-10,16.4c0,0-18.9,18.9-9.5,28.4c9.5,9.5,18.9-22.1,18.9-22.1l9-13.8l20.5,21.8l5.6,5.9c0.8,0.9,1.4,1.9,1.8,3
		C168.7,283.3,167.9,286.5,165.7,288.6z"/>
	<path class="st6" d="M143.6,102.7c0,0-18.9,12.6-22.1,25.3c-3.1,12.6-3.1,44.2-3.1,44.2s-2.3,22.7-6.1,48.3l1.6,1.7l17.7,18.8
		l24.7-40.4l-9.2-76.7l-0.3-2.2c0-5.2,4.2-9.5,9.5-9.5c3.2,0,6,1.6,7.7,4c-1-5-2.4-10-4.3-14.9C151,97.9,143.6,102.7,143.6,102.7z"
		/>
	<path class="st7" d="M170.4,181.2c0.6-8.2,1.1-18.2,1.2-28.4v0c-0.9-3.1-1.5-6.1-1.4-9.3c0.1-2.5,0.6-4.9,1.2-7.3v0
		c0.1-0.6,0.3-1.1,0.4-1.7c0.4-1.7,0.8-3.4,1-5.2c1.1-8-1.5-16.4-6.8-22.6v0c-1-1.2-2.2-2.4-3.4-3.4c-0.3-0.3-0.6-0.5-0.9-0.7
		c-0.5-0.4-1.1-0.8-1.6-1.2c0,0,0,0,0,0h0c-0.2-0.1-0.3-0.1-0.5-0.2c1.9,4.9,3.3,9.9,4.3,14.9c1.1,1.5,1.7,3.4,1.7,5.5L170.4,181.2z
		"/>
	<path class="st9" d="M113.8,222.1c-0.6-0.2-1.2-0.3-1.8-0.3c-0.1,0-0.3,0-0.4,0c-0.2,0-0.4,0-0.6-0.1c-0.3,0-0.6,0-0.9,0
		c-0.2,0-0.3,0-0.5,0c-0.3,0-0.6,0-0.9,0.1c-0.2,0-0.3,0-0.5,0.1c-0.5,0.1-0.9,0.2-1.3,0.3c-0.1,0-0.3,0.1-0.4,0.1
		c-3.7,2.7-4.7,7.7-8.4,10.4c-12.7,9.2-36.6,23.5-35.7,39.2l-5.5-5.9c-0.6-0.7-1.1-1.4-1.4-2.2c-1.3-3-0.7-6.5,1.8-8.9l12.4-11.6h0
		l28.4-26.7c3.1-3,8.1-2.8,11,0.3l3.3,3.5L113.8,222.1z"/>
</g>
</svg>
